<svg width="48" height="15" viewBox="0 0 191 60" fill="none" xmlns="http://www.w3.org/2000/svg">
    <g clip-path="url(#clip0_1346_4222)">
        <path d="M78.5698 45.0455H78.4854C78.5234 45.0455 78.5487 45.0828 78.5867 45.0865H78.612L78.5698 45.0492V45.0455ZM78.5867 45.0865C78.194 45.0903 77.206 45.2732 76.1631 45.2732C72.8698 45.2732 71.7298 43.9292 71.7298 42.1745V30.4855H78.4431C78.8231 30.4855 79.1187 30.1868 79.1187 29.7761V23.4294C79.1187 23.0934 78.7809 22.7948 78.4431 22.7948H71.7298V14.9174C71.7298 14.6188 71.5187 14.4321 71.1387 14.4321H62.0187C61.6387 14.4321 61.4276 14.6188 61.4276 14.9174V23.0188C61.4276 23.0188 56.8254 24.0268 56.5298 24.0641C56.192 24.1388 55.9809 24.4001 55.9809 24.6988V29.7761C55.9809 30.1868 56.3187 30.4855 56.6987 30.4855H61.3854V42.7308C61.3854 51.8401 68.5631 52.7735 73.4609 52.7735C75.6987 52.7735 78.4009 52.1388 78.8231 51.9521C79.0765 51.8775 79.2031 51.6161 79.2031 51.3548V45.7548C79.209 45.596 79.1498 45.4406 79.0366 45.3172C78.9234 45.1937 78.7637 45.1105 78.5867 45.0828V45.0865ZM178.636 36.8695C178.636 30.1121 175.554 29.2161 172.303 29.5148C169.77 29.6641 167.743 30.7841 167.743 30.7841V43.9254C167.743 43.9254 169.812 45.1948 172.894 45.2695C177.243 45.3815 178.636 44.0001 178.636 36.8695ZM188.896 36.2721C188.896 49.0775 184.21 52.7361 176.019 52.7361C169.094 52.7361 165.379 49.6375 165.379 49.6375C165.379 49.6375 165.21 51.3548 164.999 51.5788C164.872 51.8028 164.661 51.8775 164.408 51.8775H158.159C157.736 51.8775 157.356 51.5788 157.356 51.2428L157.441 9.76545C157.441 9.42945 157.779 9.13078 158.159 9.13078H167.152C167.532 9.13078 167.87 9.42945 167.87 9.76545V23.8401C167.87 23.8401 171.332 21.8615 176.399 21.8615L176.356 21.7868C181.423 21.7868 188.896 23.4668 188.896 36.2721V36.2721ZM152.079 22.7948H143.212C142.748 22.7948 142.494 23.0934 142.494 23.5041V43.8135C142.494 43.8135 140.172 45.2695 137.005 45.2695C133.839 45.2695 132.91 44.0001 132.91 41.2001V23.4668C132.91 23.1308 132.572 22.8321 132.192 22.8321H123.156C122.776 22.8321 122.439 23.1308 122.439 23.4668V42.5441C122.439 50.7575 127.632 52.8108 134.768 52.8108C140.636 52.8108 145.408 49.9361 145.408 49.9361C145.408 49.9361 145.619 51.3921 145.745 51.6161C145.83 51.8028 146.125 51.9521 146.421 51.9521H152.079C152.543 51.9521 152.796 51.6535 152.796 51.3175L152.881 23.4294C152.881 23.0934 152.543 22.7948 152.079 22.7948V22.7948ZM52.012 22.7574H43.0187C42.6387 22.7574 42.3009 23.0934 42.3009 23.5041V50.9068C42.3009 51.6535 42.8498 51.9148 43.5676 51.9148H51.6743C52.5187 51.9148 52.7298 51.5788 52.7298 50.9068V23.3921C52.7298 23.0561 52.392 22.7574 52.012 22.7574V22.7574ZM47.5787 10.1388C44.3276 10.1388 41.752 12.4161 41.752 15.2908C41.752 18.1654 44.3276 20.4428 47.5787 20.4428C50.7454 20.4428 53.3209 18.1654 53.3209 15.2908C53.3209 12.4161 50.7454 10.1388 47.5787 10.1388ZM117.203 9.20545H108.294C107.914 9.20545 107.576 9.50411 107.576 9.84011V25.1094H93.6009V9.84011C93.6009 9.50411 93.2631 9.20545 92.8831 9.20545H83.8898C83.5098 9.20545 83.172 9.50411 83.172 9.84011V51.3175C83.172 51.6535 83.552 51.9521 83.8898 51.9521H92.8831C93.2631 51.9521 93.6009 51.6535 93.6009 51.3175V33.5841H107.576L107.492 51.3175C107.492 51.6535 107.83 51.9521 108.21 51.9521H117.203C117.583 51.9521 117.921 51.6535 117.921 51.3175V9.84011C117.921 9.50411 117.583 9.20545 117.203 9.20545V9.20545ZM37.5298 27.5734V49.0028C37.5298 49.1521 37.4876 49.4135 37.2765 49.4881C37.2765 49.4881 31.9987 52.8108 23.3009 52.8108C12.7876 52.8108 0.332031 49.8988 0.332031 30.7094C0.332031 11.5201 11.2254 7.56278 21.8654 7.60011C31.0698 7.60011 34.7854 9.42945 35.3765 9.76545C35.5454 9.95211 35.6298 10.1014 35.6298 10.2881L33.8565 16.9334C33.8565 17.2694 33.4765 17.6801 33.012 17.5681C31.492 17.1574 29.212 16.3361 23.8498 16.3361C17.6431 16.3361 10.972 17.9041 10.972 30.2614C10.972 42.6188 17.3054 44.0748 21.8654 44.0748C25.7498 44.0748 27.1431 43.6641 27.1431 43.6641V35.0774H20.9365C20.472 35.0774 20.1343 34.7788 20.1343 34.4428V27.5734C20.1343 27.2374 20.472 26.9388 20.9365 26.9388H36.7276C37.192 26.9388 37.5298 27.2374 37.5298 27.5734Z" fill="#24292E"/>
    </g>
    <defs>
        <clipPath id="clip0_1346_4222">
            <rect width="190" height="60" fill="white" transform="translate(0.332031)"/>
        </clipPath>
    </defs>
</svg>
