<svg width="20" height="20" viewBox="0 0 33 32" fill="none" xmlns="http://www.w3.org/2000/svg">
    <path d="M16.5 2.66666C9.1333 2.66666 3.16663 8.63332 3.16663 16C3.16512 18.799 4.04505 21.5275 5.68158 23.7982C7.31812 26.069 9.62815 27.7668 12.284 28.6507C12.9506 28.7667 13.2 28.3667 13.2 28.016C13.2 27.7 13.1826 26.6507 13.1826 25.5333C9.83329 26.1507 8.96663 24.7173 8.69996 23.9667C8.54929 23.5827 7.89996 22.4 7.33329 22.0827C6.86663 21.8333 6.19996 21.216 7.31596 21.2C8.36663 21.1827 9.11596 22.1667 9.36663 22.5667C10.5666 24.5827 12.484 24.016 13.2493 23.6667C13.3666 22.8 13.716 22.2173 14.1 21.884C11.1333 21.5507 8.03329 20.4 8.03329 15.3C8.03329 13.8493 8.54929 12.6507 9.39996 11.716C9.26663 11.3827 8.79996 10.016 9.53329 8.18266C9.53329 8.18266 10.6493 7.83332 13.2 9.55066C14.2854 9.2494 15.4068 9.09778 16.5333 9.09999C17.6666 9.09999 18.8 9.24932 19.8666 9.54932C22.416 7.81599 23.5333 8.18399 23.5333 8.18399C24.2666 10.0173 23.8 11.384 23.6666 11.7173C24.516 12.6507 25.0333 13.8333 25.0333 15.3C25.0333 20.4173 21.9173 21.5507 18.9506 21.884C19.4333 22.3 19.8506 23.1 19.8506 24.3507C19.8506 26.1333 19.8333 27.5667 19.8333 28.0173C19.8333 28.3667 20.084 28.7827 20.7506 28.6493C23.3973 27.7557 25.6972 26.0546 27.3265 23.7855C28.9558 21.5164 29.8325 18.7935 29.8333 16C29.8333 8.63332 23.8666 2.66666 16.5 2.66666Z" fill="black"/>
</svg>
