<svg width="34" height="34" viewBox="0 0 56 56" fill="none" xmlns="http://www.w3.org/2000/svg">
    <rect width="56" height="56" rx="28" fill="#F5F5F5"/>
    <rect x="14" y="14" width="28" height="28" rx="6" fill="url(#paint0_radial_984_177)"/>
    <rect x="14" y="14" width="28" height="28" rx="6" fill="url(#paint1_radial_984_177)"/>
    <rect x="14" y="14" width="28" height="28" rx="6" fill="url(#paint2_radial_984_177)"/>
    <path d="M35 22.5C35 23.3284 34.3284 24 33.5 24C32.6716 24 32 23.3284 32 22.5C32 21.6716 32.6716 21 33.5 21C34.3284 21 35 21.6716 35 22.5Z" fill="white"/>
    <path fill-rule="evenodd" clip-rule="evenodd" d="M28 33C30.7614 33 33 30.7614 33 28C33 25.2386 30.7614 23 28 23C25.2386 23 23 25.2386 23 28C23 30.7614 25.2386 33 28 33ZM28 31C29.6569 31 31 29.6569 31 28C31 26.3431 29.6569 25 28 25C26.3431 25 25 26.3431 25 28C25 29.6569 26.3431 31 28 31Z" fill="white"/>
    <path fill-rule="evenodd" clip-rule="evenodd" d="M18 27.6C18 24.2397 18 22.5595 18.654 21.2761C19.2292 20.1471 20.1471 19.2292 21.2761 18.654C22.5595 18 24.2397 18 27.6 18H28.4C31.7603 18 33.4405 18 34.7239 18.654C35.8529 19.2292 36.7708 20.1471 37.346 21.2761C38 22.5595 38 24.2397 38 27.6V28.4C38 31.7603 38 33.4405 37.346 34.7239C36.7708 35.8529 35.8529 36.7708 34.7239 37.346C33.4405 38 31.7603 38 28.4 38H27.6C24.2397 38 22.5595 38 21.2761 37.346C20.1471 36.7708 19.2292 35.8529 18.654 34.7239C18 33.4405 18 31.7603 18 28.4V27.6ZM27.6 20H28.4C30.1132 20 31.2777 20.0016 32.1779 20.0751C33.0548 20.1467 33.5032 20.2766 33.816 20.436C34.5686 20.8195 35.1805 21.4314 35.564 22.184C35.7234 22.4968 35.8533 22.9452 35.9249 23.8221C35.9984 24.7223 36 25.8868 36 27.6V28.4C36 30.1132 35.9984 31.2777 35.9249 32.1779C35.8533 33.0548 35.7234 33.5032 35.564 33.816C35.1805 34.5686 34.5686 35.1805 33.816 35.564C33.5032 35.7234 33.0548 35.8533 32.1779 35.9249C31.2777 35.9984 30.1132 36 28.4 36H27.6C25.8868 36 24.7223 35.9984 23.8221 35.9249C22.9452 35.8533 22.4968 35.7234 22.184 35.564C21.4314 35.1805 20.8195 34.5686 20.436 33.816C20.2766 33.5032 20.1467 33.0548 20.0751 32.1779C20.0016 31.2777 20 30.1132 20 28.4V27.6C20 25.8868 20.0016 24.7223 20.0751 23.8221C20.1467 22.9452 20.2766 22.4968 20.436 22.184C20.8195 21.4314 21.4314 20.8195 22.184 20.436C22.4968 20.2766 22.9452 20.1467 23.8221 20.0751C24.7223 20.0016 25.8868 20 27.6 20Z" fill="white"/>
    <defs>
        <radialGradient id="paint0_radial_984_177" cx="0" cy="0" r="1" gradientUnits="userSpaceOnUse" gradientTransform="translate(24 35) rotate(-55.3758) scale(25.5196)">
            <stop stop-color="#B13589"/>
            <stop offset="0.79309" stop-color="#C62F94"/>
            <stop offset="1" stop-color="#8A3AC8"/>
        </radialGradient>
        <radialGradient id="paint1_radial_984_177" cx="0" cy="0" r="1" gradientUnits="userSpaceOnUse" gradientTransform="translate(23 43) rotate(-65.1363) scale(22.5942)">
            <stop stop-color="#E0E8B7"/>
            <stop offset="0.444662" stop-color="#FB8A2E"/>
            <stop offset="0.71474" stop-color="#E2425C"/>
            <stop offset="1" stop-color="#E2425C" stop-opacity="0"/>
        </radialGradient>
        <radialGradient id="paint2_radial_984_177" cx="0" cy="0" r="1" gradientUnits="userSpaceOnUse" gradientTransform="translate(12.5 15) rotate(-8.1301) scale(38.8909 8.31836)">
            <stop offset="0.156701" stop-color="#406ADC"/>
            <stop offset="0.467799" stop-color="#6A45BE"/>
            <stop offset="1" stop-color="#6A45BE" stop-opacity="0"/>
        </radialGradient>
    </defs>
</svg>
