<svg width="24" height="24" viewBox="0 0 24 24" fill="none" xmlns="http://www.w3.org/2000/svg">
    <rect width="24" height="24" rx="12" fill="#080FC9"/>
    <path d="M7.63574 17.4545C7.63574 16.2972 8.09548 15.1873 8.91382 14.369C9.73216 13.5506 10.8421 13.0909 11.9994 13.0909C13.1567 13.0909 14.2666 13.5506 15.0849 14.369C15.9033 15.1873 16.363 16.2972 16.363 17.4545H15.2721C15.2721 16.5866 14.9273 15.7541 14.3135 15.1404C13.6998 14.5266 12.8674 14.1818 11.9994 14.1818C11.1314 14.1818 10.299 14.5266 9.68521 15.1404C9.07146 15.7541 8.72665 16.5866 8.72665 17.4545H7.63574ZM11.9994 12.5455C10.1912 12.5455 8.72665 11.0809 8.72665 9.27273C8.72665 7.46455 10.1912 6 11.9994 6C13.8076 6 15.2721 7.46455 15.2721 9.27273C15.2721 11.0809 13.8076 12.5455 11.9994 12.5455ZM11.9994 11.4545C13.2048 11.4545 14.1812 10.4782 14.1812 9.27273C14.1812 8.06727 13.2048 7.09091 11.9994 7.09091C10.7939 7.09091 9.81756 8.06727 9.81756 9.27273C9.81756 10.4782 10.7939 11.4545 11.9994 11.4545Z" fill="white"/>
</svg>
