<svg width="400" height="290" viewBox="0 0 599 446" fill="none" xmlns="http://www.w3.org/2000/svg">
<path d="M84.7305 399.044C197.711 460.963 380.875 460.963 493.843 399.044C606.81 337.126 606.823 236.73 493.843 174.812C380.862 112.894 197.698 112.894 84.7305 174.812C-28.2368 236.73 -28.2503 337.126 84.7305 399.044Z" fill="#FAFAFA"/>
<path d="M355.903 315.214C329.327 331.298 329.327 357.398 355.903 373.496C382.48 389.595 425.547 389.595 452.124 373.496C478.7 357.398 478.687 331.298 452.124 315.214C425.56 299.13 382.466 299.115 355.903 315.214Z" fill="#EBEBEB"/>
<path d="M76.082 84.4885L147.277 61.2603L92.5053 101.068L76.082 84.4885Z" fill="#070FC9"/>
<path d="M147.276 61.2604L70.5932 74.5296L54.1699 57.936L147.276 61.2604Z" fill="#070FC9"/>
<path d="M70.5977 74.5295V94.4333L76.0856 84.4885L147.28 61.2603L70.5977 74.5295Z" fill="#455A64"/>
<path d="M70.5977 94.4333L81.56 90.0197L76.0856 84.4885L70.5977 94.4333Z" fill="#070FC9"/>
<path d="M76.082 84.4885L81.5565 90.0197L79.8036 90.7128L76.082 84.4885Z" fill="#455A64"/>
<path d="M58.7958 91.4343C58.5691 91.4387 58.3475 91.3631 58.1667 91.2196C57.9859 91.076 57.8563 90.8729 57.7987 90.6428C57.7412 90.4127 57.759 90.169 57.8494 89.9508C57.9397 89.7326 58.0973 89.5526 58.2969 89.4397C59.5105 88.7323 60.7375 88.025 61.951 87.4733C62.0714 87.405 62.2037 87.3631 62.3399 87.35C62.4761 87.3369 62.6135 87.3529 62.7437 87.3971C62.8738 87.4413 62.9941 87.5128 63.0972 87.6072C63.2003 87.7016 63.284 87.8169 63.3434 87.9462C63.4027 88.0756 63.4364 88.2162 63.4425 88.3596C63.4485 88.503 63.4268 88.6462 63.3786 88.7805C63.3303 88.9148 63.2566 89.0375 63.1619 89.1411C63.0672 89.2446 62.9534 89.327 62.8275 89.3831C61.6544 89.9772 60.4543 90.6138 59.2812 91.307C59.1312 91.3887 58.9649 91.4323 58.7958 91.4343Z" fill="#E0E0E0"/>
<path d="M46.3514 205.679C46.1448 205.682 45.9424 205.617 45.7716 205.495C43.5786 203.874 41.5011 202.086 39.5556 200.148C39.4323 200.064 39.3279 199.953 39.2497 199.822C39.1715 199.692 39.1214 199.545 39.1029 199.392C39.0844 199.239 39.0979 199.084 39.1424 198.937C39.187 198.79 39.2616 198.655 39.361 198.541C39.4603 198.427 39.5821 198.338 39.7179 198.279C39.8536 198.219 40 198.192 40.1469 198.198C40.2937 198.204 40.4376 198.244 40.5683 198.315C40.6991 198.385 40.8136 198.485 40.9039 198.606C42.7806 200.475 44.7861 202.196 46.9042 203.755C47.0788 203.886 47.2091 204.072 47.2763 204.286C47.3435 204.5 47.3441 204.731 47.2781 204.945C47.212 205.159 47.0827 205.346 46.9088 205.478C46.7349 205.61 46.5256 205.68 46.3109 205.679H46.3514ZM35.7801 195.381C35.6308 195.383 35.483 195.349 35.3477 195.283C35.2123 195.217 35.0928 195.12 34.998 194.999C33.299 192.823 31.7532 190.521 30.3731 188.11C30.2336 187.868 30.1915 187.578 30.256 187.303C30.3204 187.028 30.4863 186.792 30.7169 186.646C30.9476 186.499 31.2242 186.455 31.4859 186.523C31.7476 186.59 31.973 186.764 32.1125 187.006C33.442 189.332 34.929 191.554 36.5621 193.655C36.7306 193.871 36.8109 194.149 36.7857 194.427C36.7604 194.705 36.6316 194.961 36.4273 195.14C36.2467 195.301 36.0165 195.386 35.7801 195.381ZM28.1887 182.508C27.9928 182.51 27.8006 182.452 27.6355 182.341C27.4703 182.231 27.3393 182.073 27.2583 181.885C26.1565 179.324 25.2107 176.693 24.4267 174.006C24.3692 173.745 24.4082 173.47 24.5358 173.238C24.6635 173.005 24.8703 172.832 25.1147 172.753C25.3591 172.674 25.6229 172.695 25.853 172.812C26.0831 172.929 26.2624 173.133 26.3549 173.383C27.1003 175.982 28.001 178.529 29.0517 181.008C29.1082 181.135 29.1401 181.273 29.1456 181.413C29.151 181.553 29.13 181.693 29.0836 181.825C29.0372 181.956 28.9664 182.077 28.8753 182.18C28.7841 182.282 28.6745 182.365 28.5528 182.423C28.438 182.476 28.3142 182.505 28.1887 182.508ZM23.8065 168.065C23.5726 168.062 23.3467 167.975 23.1672 167.818C22.9877 167.66 22.8658 167.443 22.8222 167.202C22.3074 164.453 21.9428 161.676 21.73 158.884C21.7085 158.602 21.7945 158.323 21.969 158.109C22.1434 157.894 22.3921 157.76 22.6603 157.738C22.9286 157.715 23.1943 157.805 23.3991 157.988C23.604 158.172 23.7311 158.432 23.7525 158.714C23.9509 161.426 24.3021 164.123 24.8043 166.791C24.8317 166.928 24.8327 167.069 24.8073 167.206C24.782 167.343 24.7307 167.474 24.6566 167.59C24.5825 167.706 24.4869 167.805 24.3757 167.882C24.2644 167.958 24.1396 168.011 24.0087 168.036L23.8065 168.065ZM22.5255 152.956C22.3922 152.956 22.2602 152.928 22.1373 152.874C22.0145 152.82 21.9033 152.74 21.8102 152.64C21.7172 152.54 21.6443 152.421 21.5958 152.291C21.5473 152.16 21.5241 152.021 21.5277 151.881C21.5592 149.081 21.7393 146.285 22.0671 143.507C22.0686 143.357 22.1001 143.21 22.1595 143.075C22.2189 142.939 22.3049 142.818 22.4119 142.72C22.5188 142.622 22.6443 142.548 22.7802 142.504C22.9161 142.46 23.0592 142.447 23.2004 142.465C23.3415 142.483 23.4775 142.532 23.5993 142.609C23.7212 142.686 23.8262 142.789 23.9076 142.911C23.989 143.033 24.0448 143.172 24.0716 143.319C24.0983 143.465 24.0952 143.616 24.0627 143.761C23.7509 146.466 23.5799 149.186 23.5503 151.909C23.5485 152.049 23.5206 152.186 23.4682 152.314C23.4157 152.442 23.3397 152.558 23.2446 152.656C23.1494 152.753 23.0369 152.829 22.9136 152.881C22.7902 152.933 22.6583 152.958 22.5255 152.956ZM24.1705 137.891C24.0947 137.904 24.0172 137.904 23.9413 137.891C23.6807 137.83 23.4537 137.663 23.3097 137.427C23.1658 137.191 23.1165 136.905 23.1727 136.632C23.7636 133.891 24.5202 131.193 25.438 128.554C25.4827 128.416 25.5539 128.29 25.6472 128.182C25.7405 128.074 25.8539 127.988 25.9804 127.928C26.1068 127.869 26.2436 127.837 26.3823 127.835C26.521 127.833 26.6585 127.861 26.7864 127.917C26.9165 127.966 27.0359 128.042 27.1374 128.14C27.2389 128.238 27.3205 128.357 27.3772 128.489C27.4338 128.621 27.4645 128.764 27.4672 128.909C27.47 129.054 27.4448 129.198 27.3932 129.332C26.5084 131.884 25.7788 134.492 25.2088 137.141C25.1422 137.371 25.0032 137.57 24.8146 137.706C24.626 137.842 24.3989 137.907 24.1705 137.891ZM28.9708 123.603C28.8153 123.609 28.6612 123.57 28.5258 123.49C28.4051 123.431 28.297 123.347 28.2076 123.243C28.1183 123.14 28.0496 123.019 28.0056 122.887C27.9617 122.755 27.9433 122.615 27.9516 122.476C27.9598 122.336 27.9946 122.2 28.0539 122.075C29.2308 119.554 30.5547 117.112 32.0181 114.761C32.1655 114.542 32.3864 114.39 32.6366 114.335C32.8868 114.28 33.1476 114.326 33.3665 114.464C33.5802 114.615 33.7304 114.846 33.7857 115.109C33.8409 115.373 33.797 115.649 33.6631 115.879C32.2407 118.149 30.9572 120.511 29.8202 122.952C29.7505 123.133 29.634 123.289 29.4839 123.404C29.3338 123.519 29.1561 123.588 28.9708 123.603ZM36.724 110.871C36.4984 110.874 36.2791 110.794 36.1037 110.645C35.9986 110.558 35.9109 110.45 35.8458 110.328C35.7807 110.205 35.7394 110.07 35.7244 109.931C35.7093 109.791 35.7208 109.65 35.7581 109.515C35.7955 109.38 35.8579 109.255 35.9419 109.145C37.6269 106.962 39.4276 104.879 41.3354 102.907C41.525 102.708 41.7821 102.597 42.0501 102.597C42.318 102.597 42.5751 102.708 42.7647 102.907C42.9541 103.106 43.0605 103.375 43.0605 103.657C43.0605 103.938 42.9541 104.207 42.7647 104.406C40.9271 106.33 39.1897 108.356 37.56 110.475C37.4555 110.596 37.3255 110.69 37.1803 110.749C37.0352 110.808 36.8789 110.83 36.724 110.815V110.871ZM46.8638 100.007C46.7168 100.007 46.5716 99.9722 46.4388 99.9061C46.3059 99.8401 46.1886 99.7441 46.0952 99.625C45.9244 99.4081 45.8414 99.1296 45.8641 98.8492C45.8868 98.5689 46.0133 98.309 46.2166 98.1255C48.2693 96.3346 50.4069 94.6538 52.6214 93.0894C52.8387 92.9495 53.0984 92.901 53.3484 92.9534C53.5985 93.0059 53.8204 93.1555 53.9697 93.3723C54.1202 93.6073 54.1763 93.895 54.1258 94.1731C54.0754 94.4512 53.9224 94.6972 53.7001 94.8577C51.5396 96.3796 49.4558 98.0181 47.4571 99.7664C47.2877 99.9089 47.0805 99.9929 46.8638 100.007Z" fill="#E0E0E0"/>
<path d="M55.6303 211.211C55.4856 211.212 55.3425 211.178 55.2123 211.112C53.9583 210.517 52.7178 209.881 51.5312 209.202C51.4152 209.138 51.3123 209.05 51.2285 208.945C51.1447 208.839 51.0816 208.717 51.0428 208.585C51.004 208.454 50.9902 208.316 51.0023 208.179C51.0144 208.042 51.0521 207.909 51.1132 207.787C51.2391 207.544 51.4505 207.362 51.7024 207.28C51.9543 207.198 52.2267 207.223 52.4616 207.349C53.6212 207.999 54.8213 208.622 56.0348 209.202C56.2429 209.303 56.4119 209.476 56.514 209.692C56.6161 209.908 56.6452 210.153 56.5966 210.389C56.548 210.624 56.4245 210.835 56.2464 210.987C56.0684 211.139 55.8463 211.223 55.6168 211.225L55.6303 211.211Z" fill="#E0E0E0"/>
<path d="M516.842 159.874L573.878 121.566L598.999 130.025L516.842 159.874Z" fill="#070FC9"/>
<path d="M516.842 159.874L566.139 116.756L555.176 103.487L516.842 159.874Z" fill="#070FC9"/>
<path d="M566.139 116.756V126.757L516.842 159.874L566.139 116.756Z" fill="#455A64"/>
<path d="M577.259 112.583C577.014 112.584 576.778 112.488 576.598 112.314C576.399 112.127 576.277 111.865 576.26 111.585C576.242 111.304 576.33 111.028 576.504 110.815C578.26 108.76 579.818 106.528 581.156 104.152C581.291 103.908 581.514 103.731 581.775 103.659C582.035 103.587 582.312 103.627 582.544 103.77C582.777 103.912 582.946 104.146 583.014 104.419C583.082 104.692 583.044 104.983 582.908 105.227C581.496 107.718 579.862 110.062 578.027 112.229C577.931 112.342 577.812 112.433 577.68 112.494C577.547 112.555 577.404 112.585 577.259 112.583ZM584.971 99.3986C584.851 99.4187 584.728 99.4187 584.607 99.3986C584.48 99.3474 584.363 99.2696 584.265 99.1699C584.167 99.0702 584.089 98.9506 584.036 98.8183C583.983 98.6861 583.956 98.544 583.957 98.4006C583.958 98.2572 583.987 98.1155 584.041 97.984C584.994 95.4073 585.707 92.7402 586.172 90.0197C586.22 89.742 586.371 89.4959 586.593 89.3354C586.814 89.1749 587.087 89.1132 587.351 89.1638C587.616 89.2145 587.851 89.3733 588.004 89.6055C588.157 89.8376 588.215 90.124 588.167 90.4016C587.67 93.2523 586.916 96.0469 585.915 98.7479C585.839 98.9437 585.708 99.1107 585.54 99.2269C585.371 99.343 585.173 99.4029 584.971 99.3986ZM587.857 84.2197C587.725 84.2179 587.594 84.1885 587.473 84.1333C587.352 84.0781 587.242 83.9982 587.151 83.8981C587.059 83.7981 586.987 83.68 586.94 83.5506C586.892 83.4212 586.869 83.2832 586.873 83.1446C586.873 82.7768 586.873 82.409 586.873 82.0412C586.867 79.6396 586.687 77.2419 586.333 74.869C586.295 74.5899 586.362 74.3059 586.521 74.0783C586.68 73.8507 586.917 73.6977 587.183 73.6524C587.448 73.6153 587.717 73.6874 587.933 73.8535C588.15 74.0196 588.296 74.2669 588.342 74.5437C588.707 77.0246 588.892 79.5309 588.895 82.0412C588.895 82.4231 588.895 82.8051 588.895 83.187C588.885 83.4672 588.77 83.732 588.576 83.9249C588.382 84.1178 588.124 84.2236 587.857 84.2197ZM585.821 68.8852C585.604 68.8844 585.393 68.8094 585.22 68.6716C585.047 68.5337 584.922 68.3405 584.864 68.1213C584.09 65.467 583.121 62.8798 581.965 60.3833C581.905 60.2582 581.871 60.1219 581.862 59.9825C581.854 59.8431 581.872 59.7034 581.916 59.5716C581.96 59.4398 582.029 59.3185 582.118 59.215C582.208 59.1114 582.316 59.0277 582.437 58.9687C582.678 58.847 582.956 58.8309 583.208 58.9237C583.461 59.0165 583.668 59.2107 583.785 59.4638C584.991 62.0581 585.996 64.7498 586.792 67.513C586.831 67.6458 586.845 67.7855 586.832 67.9239C586.819 68.0623 586.781 68.1966 586.718 68.3191C586.655 68.4416 586.57 68.5497 586.467 68.6372C586.363 68.7247 586.245 68.7897 586.118 68.8286C586.023 68.8678 585.922 68.887 585.821 68.8852ZM579.564 54.838C579.394 54.8396 579.226 54.7948 579.077 54.708C578.929 54.6212 578.804 54.4954 578.715 54.3428C577.269 52.0148 575.679 49.789 573.955 47.6799C573.868 47.5742 573.802 47.4514 573.76 47.3187C573.719 47.186 573.702 47.046 573.712 46.9067C573.722 46.7674 573.758 46.6315 573.819 46.5068C573.879 46.3822 573.962 46.2713 574.063 46.1804C574.163 46.0895 574.279 46.0203 574.404 45.9767C574.529 45.9332 574.662 45.9162 574.794 45.9267C574.925 45.9372 575.054 45.9751 575.171 46.038C575.289 46.101 575.393 46.1879 575.479 46.2936C577.269 48.4767 578.917 50.783 580.414 53.197C580.538 53.4299 580.577 53.7027 580.522 53.9635C580.468 54.2243 580.323 54.455 580.117 54.6116C579.956 54.7361 579.764 54.8097 579.564 54.8238V54.838ZM570.126 42.941C569.868 42.9401 569.622 42.8334 569.438 42.6439C567.496 40.7373 565.457 38.9428 563.33 37.2683C563.224 37.1847 563.134 37.08 563.067 36.9601C562.999 36.8402 562.954 36.7075 562.936 36.5696C562.917 36.4316 562.924 36.2912 562.957 36.1562C562.99 36.0212 563.048 35.8944 563.128 35.7829C563.207 35.6715 563.307 35.5776 563.422 35.5066C563.536 35.4356 563.662 35.3889 563.794 35.3692C563.925 35.3495 564.059 35.3572 564.188 35.3918C564.316 35.4263 564.437 35.4872 564.544 35.5707C566.735 37.2894 568.833 39.136 570.827 41.1019C570.977 41.2477 571.081 41.4378 571.126 41.6471C571.171 41.8563 571.154 42.075 571.079 42.2741C571.003 42.4733 570.871 42.6436 570.701 42.7626C570.531 42.8817 570.33 42.9439 570.126 42.941ZM558.301 33.5195C558.109 33.5177 557.922 33.4588 557.761 33.3498C556.844 32.7556 555.887 32.1615 554.916 31.5815C553.568 30.7893 552.219 29.9971 550.79 29.2474C550.66 29.1925 550.541 29.1097 550.443 29.0042C550.345 28.8987 550.269 28.7729 550.219 28.6348C550.17 28.4967 550.149 28.3493 550.157 28.2021C550.165 28.0548 550.202 27.911 550.266 27.7796C550.33 27.6483 550.419 27.5324 550.528 27.4394C550.638 27.3464 550.764 27.2782 550.899 27.2393C551.035 27.2004 551.177 27.1915 551.316 27.2133C551.455 27.2351 551.588 27.2871 551.707 27.3659C553.123 28.1298 554.539 28.922 555.914 29.7425C556.912 30.3225 557.883 30.9308 558.826 31.5532C559.044 31.6992 559.201 31.9271 559.263 32.1902C559.326 32.4532 559.29 32.7315 559.163 32.9678C559.076 33.1293 558.951 33.2647 558.8 33.3613C558.649 33.4578 558.477 33.5123 558.301 33.5195ZM437.418 32.7981C437.24 32.7961 437.066 32.7454 436.912 32.6512C436.758 32.5569 436.631 32.4223 436.542 32.2605C436.414 32.0217 436.38 31.7397 436.449 31.4753C436.517 31.2108 436.681 30.9848 436.906 30.8459C439.252 29.4313 441.666 28.0167 444.106 26.8284C444.346 26.7058 444.622 26.6875 444.875 26.7776C445.127 26.8677 445.336 27.0588 445.455 27.3093C445.567 27.5632 445.58 27.853 445.492 28.1172C445.404 28.3813 445.221 28.599 444.983 28.724C442.583 29.9547 440.209 31.2703 437.904 32.6708C437.753 32.7478 437.586 32.782 437.418 32.7698V32.7981ZM545.154 26.3333C545.013 26.3342 544.875 26.3003 544.749 26.2342C542.322 25.1167 539.814 24.0699 537.306 23.1362C537.052 23.0405 536.845 22.843 536.73 22.587C536.615 22.3309 536.602 22.0375 536.693 21.7711C536.784 21.5047 536.972 21.2872 537.216 21.1665C537.46 21.0458 537.74 21.0318 537.994 21.1274C540.542 22.0894 543.091 23.1504 545.572 24.2962C545.788 24.3927 545.966 24.5653 546.074 24.7842C546.182 25.0031 546.214 25.2548 546.165 25.4958C546.115 25.7369 545.987 25.9524 545.803 26.1052C545.618 26.258 545.389 26.3387 545.154 26.3333ZM450.7 25.8947C450.501 25.8961 450.305 25.8349 450.14 25.7189C449.974 25.603 449.845 25.4375 449.769 25.244C449.714 25.1143 449.684 24.9742 449.682 24.8321C449.679 24.69 449.703 24.5489 449.754 24.4169C449.804 24.285 449.879 24.165 449.974 24.064C450.07 23.9631 450.183 23.8833 450.309 23.8294C452.803 22.726 455.365 21.7074 457.927 20.7879C458.056 20.732 458.194 20.7045 458.334 20.7073C458.473 20.7101 458.61 20.7431 458.737 20.8042C458.863 20.8653 458.977 20.9532 459.069 21.0624C459.162 21.1716 459.232 21.2997 459.275 21.4387C459.325 21.575 459.347 21.7203 459.342 21.866C459.336 22.0116 459.303 22.1546 459.244 22.2866C459.185 22.4185 459.101 22.5366 458.998 22.6339C458.894 22.7313 458.773 22.8059 458.642 22.8533C456.12 23.7586 453.585 24.763 451.145 25.8381C451 25.8804 450.848 25.89 450.7 25.8664V25.8947ZM531.239 21.0001C531.145 21.0139 531.049 21.0139 530.955 21.0001C528.407 20.2221 525.791 19.5855 523.189 18.9206C523.059 18.8909 522.935 18.8346 522.826 18.7549C522.716 18.6751 522.623 18.5736 522.551 18.456C522.479 18.3385 522.43 18.2072 522.406 18.0697C522.383 17.9321 522.385 17.7911 522.413 17.6545C522.442 17.518 522.495 17.3886 522.571 17.2739C522.647 17.1591 522.744 17.0611 522.856 16.9856C522.968 16.9101 523.093 16.8584 523.225 16.8337C523.356 16.8089 523.49 16.8114 523.62 16.8411C526.317 17.4494 528.933 18.1709 531.522 18.9631C531.755 19.0346 531.957 19.1921 532.089 19.4068C532.22 19.6214 532.274 19.8788 532.24 20.1316C532.205 20.3845 532.085 20.6158 531.901 20.7831C531.717 20.9504 531.482 21.0426 531.239 21.0426V21.0001ZM464.696 20.7879C464.475 20.7871 464.261 20.7106 464.086 20.5701C463.911 20.4296 463.784 20.2329 463.725 20.0099C463.688 19.8771 463.677 19.7379 463.691 19.6003C463.706 19.4628 463.746 19.3297 463.81 19.2086C463.874 19.0876 463.96 18.9811 464.064 18.8952C464.167 18.8094 464.286 18.7459 464.413 18.7084C467.015 17.9445 469.685 17.2938 472.341 16.6714C472.476 16.6263 472.618 16.6113 472.758 16.6274C472.899 16.6435 473.035 16.6903 473.157 16.7647C473.279 16.8392 473.385 16.9397 473.468 17.0598C473.551 17.1798 473.609 17.3167 473.638 17.4617C473.667 17.6068 473.667 17.7566 473.638 17.9016C473.609 18.0467 473.551 18.1836 473.468 18.3038C473.385 18.4239 473.28 18.5245 473.157 18.5991C473.035 18.6736 472.9 18.7205 472.759 18.7367C470.143 19.3167 467.528 19.9957 464.966 20.7455L464.696 20.7879ZM516.784 17.5909H516.582C513.952 17.1523 511.269 16.7987 508.626 16.5441C508.487 16.5425 508.349 16.5107 508.222 16.4508C508.095 16.3908 507.982 16.304 507.888 16.1957C507.794 16.0875 507.723 15.9601 507.679 15.8216C507.634 15.6831 507.618 15.5365 507.63 15.3909C507.642 15.2454 507.683 15.104 507.749 14.9757C507.816 14.8473 507.907 14.7348 508.017 14.6452C508.127 14.5556 508.253 14.4908 508.388 14.4548C508.523 14.4188 508.664 14.4125 508.801 14.4363C511.498 14.6909 514.195 15.0446 516.892 15.4972C517.155 15.5458 517.389 15.7001 517.545 15.9273C517.701 16.1546 517.767 16.4367 517.728 16.7138C517.68 16.9427 517.562 17.1488 517.391 17.2997C517.221 17.4507 517.007 17.5382 516.784 17.5484V17.5909ZM479.178 17.4919C478.937 17.4917 478.705 17.402 478.522 17.2387C478.34 17.0755 478.218 16.8493 478.18 16.6006C478.141 16.3215 478.208 16.0375 478.367 15.8099C478.526 15.5823 478.764 15.4294 479.029 15.3841C481.726 14.9597 484.423 14.606 487.12 14.3655C487.252 14.3535 487.386 14.3689 487.513 14.4111C487.64 14.4533 487.758 14.5213 487.86 14.6113C487.962 14.7012 488.046 14.8114 488.108 14.9355C488.169 15.0596 488.207 15.1952 488.218 15.3345C488.23 15.4739 488.215 15.6142 488.175 15.7476C488.135 15.8809 488.07 16.0046 487.984 16.1117C487.898 16.2188 487.793 16.307 487.675 16.3715C487.557 16.436 487.428 16.4754 487.295 16.4875C484.598 16.728 481.969 17.0533 479.339 17.4919H479.178ZM502.033 16.0772C499.336 15.9782 496.639 15.9641 494.01 16.0772C493.877 16.0849 493.744 16.0643 493.62 16.0167C493.495 15.9691 493.38 15.8956 493.283 15.8004C493.186 15.7052 493.109 15.5905 493.055 15.463C493.002 15.3355 492.973 15.198 492.971 15.0587C492.966 14.9189 492.987 14.7793 493.034 14.6483C493.081 14.5173 493.153 14.3975 493.244 14.296C493.336 14.1944 493.446 14.1132 493.569 14.0571C493.691 14.001 493.822 13.9712 493.956 13.9694C496.653 13.8704 499.349 13.8846 502.046 13.9694C502.179 13.9731 502.31 14.0042 502.431 14.0609C502.552 14.1177 502.662 14.1989 502.753 14.3001C502.845 14.4012 502.916 14.5203 502.964 14.6505C503.011 14.7806 503.034 14.9194 503.03 15.0587C503.01 15.3241 502.897 15.5722 502.713 15.7551C502.529 15.9381 502.286 16.0428 502.033 16.0489V16.0772Z" fill="#E0E0E0"/>
<path d="M496.957 180.556V178.292H496.431C495.63 176.759 494.415 175.509 492.938 174.699C489.926 173.095 486.595 172.259 483.217 172.259C479.838 172.259 476.507 173.095 473.495 174.699C472.018 175.509 470.803 176.759 470.002 178.292H469.477V180.485C469.477 182.649 470.825 184.828 473.522 186.483C476.536 188.08 479.866 188.911 483.244 188.911C486.621 188.911 489.951 188.08 492.965 186.483C495.635 184.884 496.97 182.706 496.957 180.556Z" fill="#37474F"/>
<path d="M483.217 186.624C490.805 186.624 496.957 182.894 496.957 178.292C496.957 173.69 490.805 169.96 483.217 169.96C475.628 169.96 469.477 173.69 469.477 178.292C469.477 182.894 475.628 186.624 483.217 186.624Z" fill="#455A64"/>
<path d="M479.684 108.919V177.316C479.712 177.641 479.822 177.952 480.002 178.217C480.182 178.483 480.426 178.694 480.708 178.83C481.484 179.241 482.341 179.456 483.21 179.456C484.079 179.456 484.935 179.241 485.711 178.83C485.997 178.698 486.244 178.487 486.426 178.221C486.609 177.955 486.72 177.643 486.749 177.316V108.919H479.684Z" fill="#37474F"/>
<path d="M499.063 57.7238C495.625 55.6443 492.497 55.4746 490.151 56.8467L446.477 83.3285L468.388 129.431L512.21 102.836V82.6636C512.21 73.2847 506.318 62.1233 499.063 57.7238Z" fill="#455A64"/>
<path d="M468.387 109.244V129.431L442.107 113.502V93.3299C442.107 83.951 447.986 79.9193 455.241 84.3188C459.893 87.148 463.978 92.7216 466.311 98.8328C467.616 102.137 468.32 105.668 468.387 109.244Z" fill="#37474F"/>
<path d="M468.387 109.244V129.431L442.107 113.502L466.311 98.8328C467.616 102.137 468.32 105.668 468.387 109.244Z" fill="#263238"/>
<path d="M464.004 116.162C461.591 108.834 453.743 99.3279 446.476 94.9425C439.208 90.5572 435.297 92.9196 437.711 100.247L442.093 113.517L468.387 129.445C468.387 129.445 466.432 123.49 464.004 116.162Z" fill="#455A64"/>
<path d="M482.086 110.008L480.616 109.117C480.301 108.965 479.952 108.903 479.607 108.938C479.261 108.973 478.93 109.103 478.648 109.315C477.835 109.873 477.16 110.623 476.675 111.505C476.19 112.387 475.91 113.377 475.857 114.394C475.82 114.758 475.877 115.126 476.021 115.459C476.166 115.792 476.393 116.079 476.679 116.289L478.027 117.11L478.284 116.671C478.564 116.608 478.832 116.498 479.079 116.346C479.891 115.791 480.567 115.044 481.052 114.164C481.537 113.284 481.817 112.296 481.87 111.281C481.869 111.028 481.837 110.776 481.776 110.532L482.086 110.008Z" fill="#263238"/>
<path d="M480.049 110.178C479.237 110.733 478.561 111.48 478.076 112.36C477.591 113.24 477.311 114.227 477.258 115.242C477.258 117.11 478.512 117.859 480.049 116.926C480.862 116.372 481.538 115.625 482.023 114.745C482.508 113.865 482.788 112.877 482.84 111.861C482.881 109.994 481.532 109.244 480.049 110.178Z" fill="#37474F"/>
<path d="M480.049 114.351C479.943 114.351 479.838 114.329 479.74 114.287C479.642 114.244 479.552 114.181 479.477 114.103C479.402 114.024 479.342 113.93 479.302 113.827C479.261 113.724 479.24 113.614 479.24 113.502V84.3187C479.24 84.0936 479.325 83.8777 479.477 83.7186C479.629 83.5594 479.835 83.47 480.049 83.47C480.264 83.47 480.47 83.5594 480.621 83.7186C480.773 83.8777 480.858 84.0936 480.858 84.3187V113.502C480.858 113.728 480.773 113.943 480.621 114.103C480.47 114.262 480.264 114.351 480.049 114.351Z" fill="#263238"/>
<path d="M480.779 85.0827V92.6933L488.559 84.3188L480.779 85.0827Z" fill="#37474F"/>
<path d="M71.7353 337.536C71.0612 337.918 58.683 341.596 54.0985 335.245C49.514 328.893 57.1324 318.991 52.831 315.341C48.5297 311.691 36.4752 315.341 33.5762 307.674C30.6772 300.006 39.2663 296.696 34.4391 288.958C31.3918 284.078 22.87 281.39 23.2611 276.849C23.8274 270.215 35.4774 268.361 45.6442 275.533C55.811 282.706 60.5573 276.821 63.7799 276.34C67.0025 275.859 73.9602 276.92 73.7444 288.803C73.5287 300.685 71.7353 337.536 71.7353 337.536Z" fill="#070FC9"/>
<path d="M72.5584 320.688C72.3975 320.688 72.2419 320.628 72.1188 320.519C71.9956 320.411 71.9126 320.26 71.8842 320.094C68.3379 297.46 43.3524 279.169 30.3541 275.236C30.2681 275.212 30.1876 275.17 30.1176 275.112C30.0476 275.054 29.9894 274.982 29.9466 274.9C29.9038 274.819 29.8772 274.728 29.8684 274.635C29.8597 274.542 29.8689 274.449 29.8956 274.359C29.9457 274.179 30.0619 274.027 30.2187 273.937C30.3754 273.847 30.56 273.826 30.7316 273.878C44.0132 277.91 69.5784 296.71 73.2191 319.868C73.2464 320.052 73.2037 320.239 73.1003 320.39C72.9968 320.541 72.8409 320.643 72.6662 320.674L72.5584 320.688Z" fill="white"/>
<path d="M43.0831 301.746C42.9348 301.748 42.7902 301.698 42.6716 301.605C42.5531 301.511 42.4672 301.38 42.4272 301.23C42.3873 301.08 42.3956 300.92 42.4508 300.776C42.506 300.632 42.605 300.51 42.7326 300.431C43.1371 300.176 52.7645 294.277 62.2301 297.036C62.4089 297.085 62.562 297.206 62.6555 297.373C62.7491 297.54 62.7755 297.739 62.729 297.927C62.6825 298.115 62.5669 298.275 62.4076 298.373C62.2483 298.471 62.0584 298.499 61.8795 298.45C52.9533 295.848 43.5146 301.633 43.4202 301.69C43.3153 301.742 43.1983 301.762 43.0831 301.746Z" fill="white"/>
<path d="M424.227 218.015C429.54 218.779 438.588 215.553 439.235 206.273C439.882 196.994 443.536 194.476 450.238 192.962C456.939 191.448 458.908 189.001 459.676 184.587C460.445 180.174 455.348 174.897 456.777 168.248C458.207 161.6 462.98 161.614 467.672 154.102C470.679 149.264 464.517 141.88 454.256 145.049C443.995 148.217 444.817 155.163 434.556 156.054C424.295 156.946 417.863 163.481 417.661 171.615C417.458 179.749 424.227 218.015 424.227 218.015Z" fill="#070FC9"/>
<path opacity="0.2" d="M424.227 218.015C429.54 218.779 438.588 215.553 439.235 206.273C439.882 196.994 443.536 194.476 450.238 192.962C456.939 191.448 458.908 189.001 459.676 184.587C460.445 180.174 455.348 174.897 456.777 168.248C458.207 161.6 462.98 161.614 467.672 154.102C470.679 149.264 464.517 141.88 454.256 145.049C443.995 148.217 444.817 155.163 434.556 156.054C424.295 156.946 417.863 163.481 417.661 171.615C417.458 179.749 424.227 218.015 424.227 218.015Z" fill="black"/>
<path d="M422.288 200.219H422.207C422.121 200.2 422.038 200.164 421.965 200.112C421.891 200.06 421.829 199.993 421.78 199.916C421.731 199.838 421.697 199.751 421.68 199.66C421.663 199.569 421.664 199.475 421.682 199.384C426.644 173.652 453.706 150.099 460.299 147.694C460.478 147.632 460.673 147.647 460.841 147.736C461.009 147.825 461.137 147.98 461.196 148.168C461.255 148.355 461.24 148.56 461.156 148.736C461.071 148.913 460.923 149.047 460.744 149.108C454.299 151.457 427.857 174.572 422.99 199.738C422.939 199.888 422.844 200.016 422.717 200.103C422.59 200.19 422.439 200.231 422.288 200.219Z" fill="white"/>
<path d="M66.0703 191.095C66.1362 189.819 66.488 188.578 67.0972 187.472C67.7063 186.365 68.5556 185.426 69.5761 184.729L248.789 76.1705C249.875 75.5982 251.073 75.3002 252.288 75.3002C253.503 75.3002 254.702 75.5982 255.787 76.1705L259.738 78.5754C260.761 79.2698 261.612 80.2089 262.221 81.3156C262.831 82.4222 263.181 83.6648 263.244 84.9412V229.063C263.175 230.338 262.822 231.578 262.213 232.684C261.604 233.789 260.756 234.73 259.738 235.429L80.525 343.973C79.4387 344.552 78.2376 344.854 77.0192 344.854C75.8008 344.854 74.5996 344.552 73.5134 343.973L69.5761 341.582C68.5571 340.884 67.7089 339.944 67.1 338.838C66.491 337.732 66.1383 336.492 66.0703 335.217V191.095Z" fill="#070FC9"/>
<path opacity="0.3" d="M66.0703 191.095C66.1362 189.819 66.488 188.578 67.0972 187.472C67.7063 186.365 68.5556 185.426 69.5761 184.729L248.789 76.1705C249.875 75.5982 251.073 75.3002 252.288 75.3002C253.503 75.3002 254.702 75.5982 255.787 76.1705L259.738 78.5754C260.761 79.2698 261.612 80.2089 262.221 81.3156C262.831 82.4222 263.181 83.6648 263.244 84.9412V229.063C263.175 230.338 262.822 231.578 262.213 232.684C261.604 233.789 260.756 234.73 259.738 235.429L80.525 343.973C79.4387 344.552 78.2376 344.854 77.0192 344.854C75.8008 344.854 74.5996 344.552 73.5134 343.973L69.5761 341.582C68.5571 340.884 67.7089 339.944 67.1 338.838C66.491 337.732 66.1383 336.492 66.0703 335.217V191.095Z" fill="black"/>
<path d="M82.4936 196.81L67.0951 187.473C66.4656 188.569 66.1129 189.816 66.0703 191.095V335.217C66.1383 336.492 66.491 337.732 67.1 338.838C67.7089 339.944 68.5571 340.884 69.5761 341.582L73.5134 343.973C74.5996 344.552 75.8008 344.854 77.0192 344.854C78.2376 344.854 79.4387 344.552 80.525 343.973L82.4936 342.785V196.81Z" fill="#070FC9"/>
<path opacity="0.5" d="M82.4936 196.81L67.0951 187.473C66.4656 188.569 66.1129 189.816 66.0703 191.095V335.217C66.1383 336.492 66.491 337.732 67.1 338.838C67.7089 339.944 68.5571 340.884 69.5761 341.582L73.5134 343.973C74.5996 344.552 75.8008 344.854 77.0192 344.854C78.2376 344.854 79.4387 344.552 80.525 343.973L82.4936 342.785V196.81Z" fill="black"/>
<path d="M263.243 84.9412V229.063C263.197 230.383 262.82 231.666 262.15 232.784C261.633 233.725 260.935 234.544 260.101 235.188L259.966 235.273L259.737 235.429L80.5235 343.973C80.1806 344.227 79.782 344.386 79.3648 344.436C78.9476 344.485 78.5253 344.423 78.1369 344.256C77.7636 344.009 77.4619 343.66 77.2646 343.246C77.0673 342.832 76.9819 342.369 77.0177 341.908V197.729C76.9873 197.213 77.0765 196.697 77.2778 196.225C77.4791 195.753 77.7865 195.34 78.1736 195.02C78.5608 194.7 79.016 194.483 79.5005 194.389C79.9849 194.294 80.484 194.324 80.955 194.476L156.316 213.276L166.186 215.737C167.351 215.966 168.554 215.857 169.664 215.42C170.773 214.984 171.748 214.238 172.483 213.262L183.917 196.555L260.883 84.1349C262.177 82.2393 263.243 82.593 263.243 84.9412Z" fill="#070FC9"/>
<path opacity="0.2" d="M263.243 84.9412V229.063C263.197 230.383 262.82 231.666 262.15 232.784C261.633 233.725 260.935 234.544 260.101 235.188L259.966 235.273L259.737 235.429L80.5235 343.973C80.1806 344.227 79.782 344.386 79.3648 344.436C78.9476 344.485 78.5253 344.423 78.1369 344.256C77.7636 344.009 77.4619 343.66 77.2646 343.246C77.0673 342.832 76.9819 342.369 77.0177 341.908V197.729C76.9873 197.213 77.0765 196.697 77.2778 196.225C77.4791 195.753 77.7865 195.34 78.1736 195.02C78.5608 194.7 79.016 194.483 79.5005 194.389C79.9849 194.294 80.484 194.324 80.955 194.476L156.316 213.276L166.186 215.737C167.351 215.966 168.554 215.857 169.664 215.42C170.773 214.984 171.748 214.238 172.483 213.262L183.917 196.555L260.883 84.1349C262.177 82.2393 263.243 82.593 263.243 84.9412Z" fill="black"/>
<path d="M259.739 235.429L259.969 235.273L260.103 235.188C260.937 234.544 261.635 233.725 262.153 232.784C262.816 231.683 263.192 230.42 263.245 229.12L183.92 196.583L237.046 249.207L259.739 235.429Z" fill="#070FC9"/>
<path opacity="0.6" d="M259.739 235.429L259.969 235.273L260.103 235.188C260.937 234.544 261.635 233.725 262.153 232.784C262.816 231.683 263.192 230.42 263.245 229.12L183.92 196.583L237.046 249.207L259.739 235.429Z" fill="black"/>
<path d="M77.0217 341.908C76.9701 342.378 77.0452 342.853 77.2382 343.281C77.4312 343.709 77.7346 344.071 78.1138 344.327C78.5022 344.494 78.9246 344.556 79.3418 344.506C79.759 344.457 80.1575 344.298 80.5005 344.044L142.229 306.542L156.32 213.177L77.0217 339.46V341.908Z" fill="#070FC9"/>
<path opacity="0.6" d="M77.0217 341.908C76.9701 342.378 77.0452 342.853 77.2382 343.281C77.4312 343.709 77.7346 344.071 78.1138 344.327C78.5022 344.494 78.9246 344.556 79.3418 344.506C79.759 344.457 80.1575 344.298 80.5005 344.044L142.229 306.542L156.32 213.177L77.0217 339.46V341.908Z" fill="black"/>
<path d="M262.152 232.784C261.634 233.725 260.937 234.544 260.103 235.188L259.968 235.273L80.5253 343.973C80.1823 344.227 79.7838 344.386 79.3666 344.436C78.9494 344.485 78.527 344.423 78.1387 344.256L163.963 200.516C165.688 197.637 168.344 195.506 171.444 194.514C174.544 193.521 177.882 193.734 180.845 195.112L262.152 232.784Z" fill="#070FC9"/>
<path opacity="0.2" d="M262.152 232.784C261.634 233.725 260.937 234.544 260.103 235.188L259.968 235.273L80.5253 343.973C80.1823 344.227 79.7838 344.386 79.3666 344.436C78.9494 344.485 78.527 344.423 78.1387 344.256L163.963 200.516C165.688 197.637 168.344 195.506 171.444 194.514C174.544 193.521 177.882 193.734 180.845 195.112L262.152 232.784Z" fill="black"/>
<path d="M77.0156 193.485L159.442 231.68C162.41 233.055 165.75 233.261 168.851 232.26C171.952 231.26 174.605 229.12 176.324 226.234L262.876 80.9095L77.0156 193.485Z" fill="#070FC9"/>
<path opacity="0.6" d="M77.0156 193.485L159.442 231.68C162.41 233.055 165.75 233.261 168.851 232.26C171.952 231.26 174.605 229.12 176.324 226.234L262.876 80.9095L77.0156 193.485Z" fill="black"/>
<path d="M77.0156 193.485L160.022 226.022C162.89 227.145 166.038 227.211 168.947 226.208C171.856 225.206 174.353 223.194 176.027 220.505L262.876 80.9095L77.0156 193.485Z" fill="#070FC9"/>
<path opacity="0.2" d="M77.0156 193.485L160.022 226.022C162.89 227.145 166.038 227.211 168.947 226.208C171.856 225.206 174.353 223.194 176.027 220.505L262.876 80.9095L77.0156 193.485Z" fill="black"/>
<path d="M96.6777 208.848C96.7404 207.572 97.0908 206.329 97.7003 205.223C98.3097 204.116 99.1608 203.177 100.184 202.482L279.397 93.9241C280.483 93.3451 281.684 93.0433 282.903 93.0433C284.121 93.0433 285.322 93.3451 286.408 93.9241L290.359 96.3148C291.377 97.0133 292.224 97.9537 292.831 99.0598C293.437 100.166 293.787 101.406 293.851 102.681V246.803C293.785 248.076 293.434 249.316 292.828 250.422C292.221 251.527 291.376 252.468 290.359 253.168L111.132 361.712C110.047 362.285 108.848 362.583 107.633 362.583C106.418 362.583 105.22 362.285 104.134 361.712L100.184 359.322C99.1653 358.622 98.3177 357.682 97.7088 356.576C97.0999 355.471 96.7468 354.231 96.6777 352.956V208.848Z" fill="#455A64"/>
<path d="M96.6777 208.848C96.7404 207.572 97.0908 206.329 97.7003 205.223C98.3097 204.116 99.1608 203.177 100.184 202.482L279.397 93.9241C280.483 93.3451 281.684 93.0433 282.903 93.0433C284.121 93.0433 285.322 93.3451 286.408 93.9241L290.359 96.3148C291.377 97.0133 292.224 97.9537 292.831 99.0598C293.437 100.166 293.787 101.406 293.851 102.681V246.803C293.785 248.076 293.434 249.316 292.828 250.422C292.221 251.527 291.376 252.468 290.359 253.168L111.132 361.712C110.047 362.285 108.848 362.583 107.633 362.583C106.418 362.583 105.22 362.285 104.134 361.712L100.184 359.322C99.1653 358.622 98.3177 357.682 97.7088 356.576C97.0999 355.471 96.7468 354.231 96.6777 352.956V208.848Z" fill="#455A64"/>
<path d="M113.114 214.592L97.7025 205.269C97.0713 206.364 96.7185 207.611 96.6777 208.891V352.97C96.7468 354.245 97.0999 355.485 97.7088 356.591C98.3177 357.696 99.1653 358.636 100.184 359.336L104.134 361.727C105.22 362.299 106.418 362.597 107.633 362.597C108.848 362.597 110.047 362.299 111.132 361.727L113.114 360.524V214.592Z" fill="#263238"/>
<path d="M293.866 102.681V246.803C293.821 248.122 293.444 249.405 292.774 250.523C292.256 251.464 291.558 252.283 290.724 252.928L290.589 253.013L290.36 253.168L111.147 361.713C110.804 361.967 110.405 362.126 109.988 362.175C109.571 362.225 109.149 362.163 108.76 361.995C108.381 361.74 108.078 361.377 107.885 360.95C107.692 360.522 107.617 360.046 107.668 359.576V215.469C107.638 214.953 107.727 214.437 107.928 213.965C108.13 213.493 108.437 213.079 108.824 212.759C109.211 212.439 109.666 212.223 110.151 212.128C110.635 212.033 111.134 212.063 111.605 212.215L186.966 231.015L196.837 233.477C198.002 233.706 199.204 233.596 200.314 233.16C201.424 232.723 202.399 231.977 203.133 231.001L214.554 214.294L291.52 101.874C292.76 100.007 293.866 100.332 293.866 102.681Z" fill="#37474F"/>
<path d="M290.358 253.168L290.588 253.013L290.723 252.928C291.557 252.283 292.254 251.464 292.772 250.523C293.427 249.425 293.798 248.167 293.851 246.873L214.539 214.337L267.652 266.933L290.358 253.168Z" fill="#263238"/>
<path d="M107.638 359.591C107.587 360.061 107.662 360.536 107.855 360.964C108.048 361.391 108.351 361.754 108.73 362.01C109.119 362.177 109.541 362.239 109.958 362.189C110.376 362.14 110.774 361.981 111.117 361.727L172.819 324.352L186.91 230.987L107.611 357.172L107.638 359.591Z" fill="#263238"/>
<path d="M292.762 250.523C292.244 251.464 291.546 252.283 290.712 252.928L290.577 253.013L111.148 361.713C110.805 361.967 110.407 362.126 109.99 362.175C109.572 362.225 109.15 362.163 108.762 361.995L194.573 218.27C196.293 215.386 198.947 213.249 202.048 212.251C205.149 211.253 208.488 211.462 211.454 212.837L292.762 250.523Z" fill="#37474F"/>
<path d="M107.643 211.239L190.069 249.434C193.035 250.804 196.373 251.008 199.471 250.008C202.568 249.008 205.219 246.871 206.937 243.987L293.49 98.5923L107.643 211.239Z" fill="#263238"/>
<path d="M107.643 211.239L190.635 243.775C193.506 244.902 196.656 244.97 199.568 243.967C202.48 242.964 204.979 240.951 206.654 238.258L293.49 98.5923L107.643 211.239Z" fill="#37474F"/>
<path d="M228.133 323.249V179.127C228.258 176.393 229.072 173.742 230.492 171.446L315.966 46.5766C317.526 44.2953 319.698 42.5525 322.204 41.57C324.711 40.5875 327.44 40.4098 330.043 41.0596L410.42 61.1048C413.01 61.8281 415.509 62.8728 417.863 64.217L421.814 66.6077C422.83 67.3087 423.675 68.2497 424.281 69.3552C424.888 70.4607 425.239 71.6999 425.306 72.9735V217.095C425.237 218.369 424.885 219.607 424.279 220.712C423.672 221.817 422.828 222.759 421.814 223.461L242.587 332.005C241.503 332.581 240.304 332.881 239.088 332.881C237.873 332.881 236.674 332.581 235.589 332.005L231.639 329.615C230.62 328.916 229.771 327.976 229.162 326.87C228.554 325.764 228.201 324.524 228.133 323.249Z" fill="#070FC9"/>
<path opacity="0.3" d="M228.133 323.249V179.127C228.258 176.393 229.072 173.742 230.492 171.446L315.966 46.5766C317.526 44.2953 319.698 42.5525 322.204 41.57C324.711 40.5875 327.44 40.4098 330.043 41.0596L410.42 61.1048C413.01 61.8281 415.509 62.8728 417.863 64.217L421.814 66.6077C422.83 67.3087 423.675 68.2497 424.281 69.3552C424.888 70.4607 425.239 71.6999 425.306 72.9735V217.095C425.237 218.369 424.885 219.607 424.279 220.712C423.672 221.817 422.828 222.759 421.814 223.461L242.587 332.005C241.503 332.581 240.304 332.881 239.088 332.881C237.873 332.881 236.674 332.581 235.589 332.005L231.639 329.615C230.62 328.916 229.771 327.976 229.162 326.87C228.554 325.764 228.201 324.524 228.133 323.249Z" fill="white"/>
<path d="M244.557 109.471V293.372C244.557 295.706 246.134 296.668 248.062 295.494L416.327 193.641C417.348 192.945 418.198 192.005 418.807 190.899C419.416 189.793 419.768 188.551 419.833 187.275V3.37394C419.833 1.02566 418.268 0.07786 416.327 1.252L248.062 103.105C247.042 103.802 246.193 104.742 245.583 105.848C244.974 106.954 244.623 108.195 244.557 109.471Z" fill="#FAFAFA"/>
<path d="M246.498 296.725C246.063 296.728 245.635 296.611 245.257 296.385C244.796 296.062 244.427 295.614 244.189 295.089C243.952 294.563 243.855 293.979 243.909 293.4V109.499C243.973 108.097 244.355 106.732 245.024 105.517C245.692 104.301 246.627 103.271 247.752 102.511L416.016 0.65785C416.456 0.282519 416.993 0.0562842 417.558 0.00919646C418.123 -0.0378913 418.688 0.0963964 419.178 0.394227C419.668 0.692058 420.06 1.13933 420.302 1.67661C420.545 2.21389 420.625 2.81575 420.533 3.40223V187.303C420.471 188.703 420.089 190.067 419.42 191.281C418.752 192.494 417.816 193.522 416.691 194.278L248.426 296.13C247.845 296.504 247.18 296.709 246.498 296.725ZM417.891 1.37931C417.455 1.40544 417.033 1.54656 416.664 1.78955L248.399 103.713C247.483 104.351 246.72 105.203 246.171 106.202C245.621 107.201 245.299 108.32 245.231 109.471V293.372C245.15 293.704 245.174 294.054 245.301 294.37C245.427 294.685 245.649 294.949 245.931 295.12C246.214 295.292 246.542 295.361 246.866 295.319C247.19 295.277 247.491 295.125 247.725 294.886L415.989 193.033C416.906 192.396 417.67 191.544 418.219 190.545C418.769 189.546 419.091 188.427 419.158 187.275V3.37394C419.196 3.04218 419.153 2.70571 419.033 2.39632C418.912 2.08693 418.719 1.81482 418.47 1.60566C418.3 1.47652 418.1 1.39828 417.891 1.37931Z" fill="#E0E0E0"/>
<path d="M240.929 182.635L228.794 175.279C228.401 176.522 228.183 177.818 228.146 179.127V323.249C228.214 324.524 228.567 325.764 229.176 326.87C229.785 327.976 230.633 328.916 231.652 329.615L235.59 332.005C236.673 332.584 237.872 332.886 239.089 332.886C240.305 332.886 241.504 332.584 242.588 332.005L244.273 331.001L240.929 182.635Z" fill="#070FC9"/>
<g opacity="0.1">
<path d="M240.927 182.635L228.792 175.279C228.399 176.522 228.181 177.818 228.145 179.127V323.249C228.213 324.524 228.565 325.764 229.174 326.87C229.783 327.976 230.631 328.916 231.65 329.615L235.588 332.005C236.671 332.584 237.87 332.886 239.087 332.886C240.303 332.886 241.502 332.584 242.586 332.005L244.271 331.001L240.927 182.635Z" fill="black"/>
</g>
<path d="M425.317 72.9734V217.095C425.272 218.415 424.895 219.698 424.225 220.816C423.707 221.757 423.009 222.576 422.175 223.221L422.041 223.306L421.811 223.461L242.598 332.005C242.255 332.259 241.857 332.419 241.439 332.468C241.022 332.517 240.6 332.456 240.212 332.288C239.832 332.032 239.529 331.67 239.336 331.243C239.143 330.815 239.068 330.339 239.119 329.869V185.761C239.089 185.245 239.178 184.729 239.379 184.257C239.581 183.786 239.888 183.372 240.275 183.052C240.662 182.732 241.118 182.516 241.602 182.421C242.086 182.326 242.586 182.356 243.057 182.508L318.377 201.308L328.247 203.77C329.414 204.001 330.62 203.893 331.732 203.457C332.845 203.02 333.822 202.272 334.558 201.294L345.992 184.587L422.957 72.1671C424.252 70.2998 425.317 70.6251 425.317 72.9734Z" fill="#070FC9"/>
<path opacity="0.3" d="M425.317 72.9734V217.095C425.272 218.415 424.895 219.698 424.225 220.816C423.707 221.757 423.009 222.576 422.175 223.221L422.041 223.306L421.811 223.461L242.598 332.005C242.255 332.259 241.857 332.419 241.439 332.468C241.022 332.517 240.6 332.456 240.212 332.288C239.832 332.032 239.529 331.67 239.336 331.243C239.143 330.815 239.068 330.339 239.119 329.869V185.761C239.089 185.245 239.178 184.729 239.379 184.257C239.581 183.786 239.888 183.372 240.275 183.052C240.662 182.732 241.118 182.516 241.602 182.421C242.086 182.326 242.586 182.356 243.057 182.508L318.377 201.308L328.247 203.77C329.414 204.001 330.62 203.893 331.732 203.457C332.845 203.02 333.822 202.272 334.558 201.294L345.992 184.587L422.957 72.1671C424.252 70.2998 425.317 70.6251 425.317 72.9734Z" fill="white"/>
<path d="M421.812 223.461L422.041 223.306L422.176 223.221C423.01 222.576 423.707 221.757 424.225 220.816C424.88 219.713 425.252 218.451 425.304 217.152L345.992 184.616L399.105 237.226L421.812 223.461Z" fill="#070FC9"/>
<path d="M239.093 329.883C239.042 330.353 239.117 330.829 239.31 331.257C239.503 331.684 239.806 332.047 240.186 332.302C240.574 332.47 240.996 332.532 241.413 332.482C241.831 332.433 242.229 332.274 242.572 332.02L304.274 294.645L318.365 201.28L239.066 327.464L239.093 329.883Z" fill="#070FC9"/>
<path d="M424.228 220.816C423.711 221.757 423.013 222.576 422.179 223.221L422.044 223.306L242.601 332.005C242.259 332.259 241.86 332.419 241.443 332.468C241.026 332.517 240.603 332.456 240.215 332.288L326.026 188.562C327.746 185.682 330.398 183.547 333.495 182.55C336.593 181.552 339.929 181.758 342.894 183.13L424.228 220.816Z" fill="#070FC9"/>
<path opacity="0.3" d="M424.228 220.816C423.711 221.757 423.013 222.576 422.179 223.221L422.044 223.306L242.601 332.005C242.259 332.259 241.86 332.419 241.443 332.468C241.026 332.517 240.603 332.456 240.215 332.288L326.026 188.562C327.746 185.682 330.398 183.547 333.495 182.55C336.593 181.552 339.929 181.758 342.894 183.13L424.228 220.816Z" fill="white"/>
<path d="M318.649 151.825C317.076 152.08 315.467 151.93 313.961 151.388C312.456 150.846 311.098 149.928 310.006 148.712C307.956 146.322 306.932 142.63 306.932 137.664C306.935 132.062 308.08 126.525 310.289 121.424C312.557 116.176 315.688 111.387 319.539 107.278C323.68 102.774 328.4 98.8977 333.562 95.763C338.623 92.7074 342.942 91.0146 346.52 90.6845C350.12 90.345 352.831 91.3211 354.691 93.5845C356.552 95.8479 357.469 99.3137 357.469 103.954C357.547 108.555 356.508 113.102 354.449 117.166C352.634 120.847 349.867 123.916 346.466 126.022C345.292 126.897 343.853 127.29 342.421 127.125C341.912 127.019 341.442 126.762 341.069 126.383C340.696 126.004 340.435 125.52 340.318 124.989C339.195 127.217 337.769 129.262 336.084 131.058C334.379 132.903 332.436 134.489 330.313 135.769C326.645 137.947 323.719 138.598 321.562 137.848C319.404 137.098 318.379 134.807 318.379 130.987C318.41 126.187 319.82 121.509 322.425 117.562C325.26 113.187 329.027 109.565 333.427 106.981C335.265 105.833 337.262 104.993 339.347 104.491C340.896 104.051 342.53 104.051 344.08 104.491V119.387C344.08 120.59 344.282 121.325 344.673 121.608C345.064 121.891 345.711 121.75 346.628 121.198C348.336 120.032 349.6 118.275 350.201 116.233C351.113 113.473 351.547 110.565 351.482 107.646C351.482 103.93 350.709 101.228 349.163 99.5401C348.337 98.6926 347.329 98.0654 346.224 97.7109C345.119 97.3565 343.949 97.2852 342.812 97.503C339.52 98.0307 336.367 99.2634 333.549 101.124C327.587 104.594 322.448 109.429 318.514 115.271C314.879 120.753 312.948 127.28 312.986 133.958C312.986 138.023 313.781 140.989 315.372 142.856C316.197 143.791 317.23 144.497 318.378 144.911C319.526 145.326 320.754 145.436 321.953 145.232C325.308 144.734 328.525 143.495 331.391 141.597C333.369 140.396 335.242 139.014 336.987 137.466C338.612 136.059 340.09 134.475 341.396 132.741C341.532 132.559 341.69 132.397 341.868 132.26C341.99 132.19 342.111 132.26 342.219 132.43L343.702 135.259C343.756 135.372 343.797 135.49 343.823 135.613C343.776 135.928 343.629 136.217 343.405 136.433C341.776 138.489 339.971 140.383 338.012 142.092C335.949 143.907 333.744 145.535 331.418 146.958C327.545 149.525 323.189 151.184 318.649 151.825ZM336.178 125.23C337.462 123.64 338.21 121.652 338.308 119.571V110.942C336.384 111.112 334.53 111.783 332.915 112.894C330.343 114.412 328.152 116.55 326.524 119.133C324.996 121.501 324.175 124.294 324.164 127.154C324.164 129.544 324.73 130.973 325.876 131.397C327.023 131.822 328.789 131.397 331.203 129.884C333.157 128.698 334.866 127.116 336.232 125.23H336.178Z" fill="#E0E0E0"/>
<path d="M146.919 165.999L133.772 158.007H133.677C129.187 155.347 122.998 155.743 116.149 159.888C102.382 168.22 91.2305 188.492 91.2305 205.156C91.2305 213.488 94.0081 219.302 98.4982 222.132L110.728 229.473L112.939 225.611C115.447 225.022 117.856 224.039 120.086 222.697C133.839 214.351 145.004 194.079 145.004 177.429C144.996 175.179 144.734 172.938 144.222 170.752L146.919 165.999Z" fill="#F28F8F"/>
<path d="M146.919 165.999L133.772 158.007H133.677C129.187 155.347 122.998 155.743 116.149 159.888C102.382 168.22 91.2305 188.492 91.2305 205.156C91.2305 213.488 94.0081 219.302 98.4982 222.132L110.728 229.473L112.939 225.611C115.447 225.022 117.856 224.039 120.086 222.697C133.839 214.351 145.004 194.079 145.004 177.429C144.996 175.179 144.734 172.938 144.222 170.752L146.919 165.999Z" fill="#070FC9"/>
<path opacity="0.4" d="M146.919 165.999L133.772 158.007H133.677C129.187 155.347 122.998 155.743 116.149 159.888C102.382 168.22 91.2305 188.492 91.2305 205.156C91.2305 213.488 94.0081 219.302 98.4982 222.132L110.728 229.473L112.939 225.611C115.447 225.022 117.856 224.039 120.086 222.697C133.839 214.351 145.004 194.079 145.004 177.429C144.996 175.179 144.734 172.938 144.222 170.752L146.919 165.999Z" fill="black"/>
<path d="M128.781 167.485C115.014 175.831 103.863 196.102 103.863 212.753C103.863 229.403 115.014 236.179 128.781 227.847C142.548 219.515 153.699 199.243 153.699 182.579C153.699 165.914 142.548 159.152 128.781 167.485Z" fill="#070FC9"/>
<path d="M119.047 216.742C118.791 216.742 118.656 216.586 118.656 216.346C118.683 216.079 118.756 215.82 118.872 215.582L120.126 212.625C120.209 212.336 120.374 212.079 120.598 211.89C120.785 211.801 120.986 211.753 121.191 211.748C122.313 211.678 123.42 211.445 124.481 211.055C125.892 210.557 127.248 209.902 128.526 209.103C130.516 207.972 132.26 206.421 133.65 204.548C134.693 203.131 135.274 201.4 135.309 199.611C135.309 196.484 133.488 196.032 129.848 198.196L126.302 200.445C125.722 200.785 125.317 200.912 125.075 200.799C124.832 200.686 124.71 200.346 124.71 199.781V198.606C124.691 198.107 124.818 197.613 125.075 197.192C125.399 196.732 125.819 196.355 126.302 196.088L129.821 193.952C131.231 193.147 132.427 191.985 133.3 190.571C134.031 189.385 134.433 188.009 134.459 186.596C134.459 183.569 132.428 183.286 128.365 185.747C125.866 187.241 123.616 189.153 121.704 191.406C121.524 191.619 121.325 191.813 121.11 191.986C121.031 192.025 120.941 192.036 120.856 192.015C120.77 191.995 120.693 191.945 120.638 191.873L119.438 190.458C119.371 190.393 119.318 190.314 119.281 190.227C119.244 190.139 119.224 190.045 119.223 189.949C119.25 189.624 119.383 189.319 119.6 189.086C120.795 187.519 122.151 186.095 123.645 184.842C125.385 183.355 127.238 182.021 129.187 180.853C130.946 179.704 132.887 178.895 134.918 178.462C135.557 178.299 136.222 178.284 136.867 178.418C137.512 178.552 138.122 178.833 138.653 179.24C139.132 179.725 139.501 180.315 139.734 180.969C139.968 181.622 140.059 182.322 140.001 183.017C139.971 184.575 139.64 186.11 139.03 187.53C138.379 189.169 137.467 190.681 136.334 192C136.916 191.795 137.537 191.749 138.141 191.865C138.745 191.982 139.311 192.257 139.785 192.665C140.201 193.172 140.516 193.761 140.713 194.398C140.91 195.034 140.984 195.705 140.931 196.371C140.828 199.507 139.78 202.529 137.938 205.001C135.677 208.183 132.789 210.817 129.47 212.724C124.724 215.638 121.25 216.978 119.047 216.742Z" fill="white"/>
<path d="M354.782 368.602C351.115 364.131 354.378 356.705 357.937 347.071C361.848 336.476 367.889 318.467 367.889 318.467L410.781 309.173C410.781 309.173 456.477 308.254 460.671 317.421C464.068 324.763 433.973 335.811 429.658 336.207L403.243 337.664L400.465 339.078L381.912 363.707L354.782 368.602Z" fill="#070FC9"/>
<path d="M433.811 324.932C430.48 328.486 427.377 332.267 424.52 336.249C416.794 347.566 404.564 368.121 404.564 368.121C404.564 368.121 406.466 374.628 412.304 374.345C412.304 374.345 452.486 334.976 455.776 331.341C460.751 325.823 464.743 316.727 456.14 315.978C447.537 315.228 437.155 321.141 433.811 324.932Z" fill="#070FC9"/>
<path d="M424.306 336.476C424.306 336.476 431.479 325.47 438.909 320.915C438.909 320.915 431.52 322.442 420.328 336.73L424.306 336.476Z" fill="#070FC9"/>
<path opacity="0.1" d="M424.306 336.476C424.306 336.476 431.479 325.47 438.909 320.915C438.909 320.915 431.52 322.442 420.328 336.73L424.306 336.476Z" fill="black"/>
<path d="M429.187 350.395L426.369 350.961L428.985 361.104C428.985 361.104 431.52 360.85 432.396 360.906C433.673 360.588 434.903 360.088 436.051 359.421L435.376 353.225L432.275 349.83L429.187 350.395Z" fill="#D08C8B"/>
<path d="M451.436 352.786C452.781 353.355 454 354.209 455.016 355.295C456.032 356.38 456.824 357.674 457.342 359.095C457.942 360.582 458.433 362.114 458.811 363.679C459.256 365.32 459.041 368.107 457.059 368.559C456.414 368.639 455.762 368.516 455.184 368.206C451.207 366.593 447.323 364.726 443.251 363.368C439.762 362.012 436.108 361.178 432.397 360.892C433.24 359.53 433.662 357.928 433.604 356.304C433.546 354.681 433.011 353.116 432.073 351.824C431.275 351.05 430.266 350.555 429.188 350.41C430.212 349.929 431.17 349.306 432.154 348.726C433.987 347.381 436.232 346.801 438.451 347.099C440.15 347.481 441.444 348.896 442.887 349.929C445.638 351.81 448.294 351.683 451.436 352.786Z" fill="#263238"/>
<path d="M360.568 358.883C364.114 357.737 369.777 356.719 386.578 355.813C403.379 354.908 426.369 350.947 426.369 350.947C430.279 354.894 428.985 361.09 428.985 361.09C428.985 361.09 399.145 370.992 389.423 372.308C373.944 374.402 368.604 374.246 361.619 372.676C353.772 370.907 348.823 362.66 360.568 358.883Z" fill="#070FC9"/>
<path d="M421.972 274.925L434.593 306.57L425.559 312.399L408.191 281.546L421.972 274.925Z" fill="#F28F8F"/>
<path d="M395.869 245.105C402.773 245.19 410.364 247.821 412.98 253.494L423.767 276.835C423.767 276.835 417.672 286.2 407.991 285.535L395.869 245.105Z" fill="#E0E0E0"/>
<path d="M349.969 294.291C350.05 293.061 351.736 287.049 353.543 280.57L366.649 285.323L363.13 296.965L352.086 307.957C349.694 303.871 348.934 298.961 349.969 294.291Z" fill="#D08C8B"/>
<path d="M381.749 245.543C373.524 247.623 362.319 250.325 359.069 259.69C355.82 269.055 351.168 285.591 351.168 285.591C352.975 288.873 362.885 291.589 366.324 289.694L367.942 284.035V318.439C374.374 325.781 406.101 323.9 410.834 309.145V262.278C410.834 254.781 406.87 245.77 395.907 245.105L381.749 245.543Z" fill="#FAFAFA"/>
<path d="M367.904 284.064L372.03 270.441L367.904 290.161V284.064Z" fill="#E0E0E0"/>
<path d="M378.624 207.193C377.891 207.093 377.147 207.169 376.447 207.414C375.746 207.659 375.107 208.067 374.579 208.608C372.839 210.475 373.23 213.927 374.579 221.849L379.972 222.485L378.624 207.193Z" fill="#263238"/>
<path d="M409.92 204.901C411.074 204.907 412.218 204.661 413.277 204.18C414.922 203.19 415.354 205.156 414.45 206.854C413.853 208.078 412.967 209.121 411.876 209.883C410.786 210.646 409.527 211.103 408.221 211.211C408.221 210.97 406.684 206.811 406.684 206.811L409.92 204.901Z" fill="#263238"/>
<path d="M381.147 222.57C380.351 223.065 379.205 221.467 378.221 220.377C377.835 219.914 377.342 219.562 376.791 219.353C376.239 219.145 375.645 219.088 375.066 219.187C374.487 219.286 373.942 219.538 373.482 219.92C373.022 220.301 372.662 220.8 372.436 221.368C370.805 224.975 374.513 229.77 376.684 231.355C377.293 231.906 378.052 232.241 378.854 232.312C379.655 232.383 380.458 232.187 381.147 231.751L381.713 245.544C382.675 247.754 384.144 249.68 385.988 251.149C387.833 252.617 389.996 253.584 392.284 253.961C399.997 255.05 398.406 248.373 395.871 245.105V240.055C397.802 240.487 399.787 240.592 401.75 240.366C402.748 240.083 405.148 237.042 406.699 233.632C408.438 229.813 411.337 223.023 408.762 211.522C405.984 199.186 393.35 198.79 385.839 203.784C378.329 208.777 381.147 222.57 381.147 222.57Z" fill="#D08C8B"/>
<path d="M381.143 223.97C380.738 223.97 379.215 221.325 378.217 220.377C376.868 219.062 378.621 207.193 378.621 207.193C378.621 207.193 377.273 202.68 379.97 199.695C382.666 196.711 387.952 197.206 391.808 197.064C396.533 197.091 401.214 196.105 405.562 194.164C411.036 191.675 411.441 191.335 412.115 193.895C412.789 196.456 413.059 202.185 409.796 206.047L408.016 209.089C408.016 209.089 406.358 210.503 401.274 211.211C396.191 211.918 387.48 208.99 386.442 208.834C384.959 208.622 384.649 210.121 383.853 214.224C383.098 217.831 382.491 223.942 381.143 223.97Z" fill="#263238"/>
<path d="M378.636 208.113L373.809 205.396C373.967 205.06 374.188 204.76 374.459 204.514C374.729 204.268 375.044 204.081 375.384 203.963C375.724 203.846 376.083 203.801 376.44 203.831C376.797 203.861 377.145 203.965 377.463 204.137C378.106 204.517 378.585 205.141 378.803 205.88C379.022 206.619 378.962 207.418 378.636 208.113Z" fill="#263238"/>
<path d="M395.854 240.055C395.854 240.055 388.708 238.541 386.214 237.226C384.746 236.418 383.543 235.166 382.762 233.632C383.141 235.171 383.81 236.614 384.73 237.876C386.551 240.324 395.854 242.12 395.854 242.12V240.055Z" fill="#F28F8F"/>
<path d="M396.084 222.287C396.074 222.581 395.981 222.865 395.817 223.104C395.654 223.343 395.427 223.527 395.165 223.631C394.904 223.736 394.618 223.758 394.344 223.694C394.071 223.63 393.821 223.483 393.627 223.271C393.432 223.059 393.301 222.792 393.25 222.503C393.199 222.214 393.231 221.915 393.34 221.644C393.45 221.374 393.633 221.143 393.867 220.98C394.1 220.818 394.374 220.731 394.655 220.731C394.846 220.735 395.035 220.778 395.21 220.858C395.385 220.938 395.544 221.054 395.677 221.198C395.809 221.343 395.914 221.513 395.984 221.7C396.054 221.887 396.088 222.086 396.084 222.287Z" fill="#263238"/>
<path d="M394.575 216.629L391.5 218.397C391.288 217.955 391.243 217.444 391.376 216.969C391.508 216.493 391.809 216.088 392.215 215.836C392.418 215.72 392.642 215.648 392.873 215.625C393.103 215.602 393.336 215.629 393.556 215.703C393.777 215.777 393.981 215.897 394.156 216.056C394.331 216.215 394.474 216.41 394.575 216.629Z" fill="#263238"/>
<path d="M395.235 232.331L398.512 233.632C398.439 233.862 398.323 234.074 398.171 234.255C398.019 234.437 397.834 234.585 397.627 234.691C397.419 234.796 397.194 234.857 396.964 234.87C396.734 234.882 396.503 234.846 396.287 234.764C395.845 234.58 395.489 234.224 395.293 233.77C395.096 233.316 395.076 232.8 395.235 232.331Z" fill="#F28F8F"/>
<path d="M408.854 217.873L406.062 215.61C406.195 215.414 406.364 215.247 406.559 215.121C406.754 214.995 406.972 214.911 407.198 214.875C407.425 214.84 407.656 214.853 407.878 214.913C408.1 214.974 408.308 215.081 408.49 215.228C408.862 215.536 409.108 215.982 409.176 216.474C409.244 216.967 409.128 217.468 408.854 217.873Z" fill="#263238"/>
<path d="M407.99 221.863C407.98 222.157 407.887 222.441 407.724 222.68C407.56 222.919 407.334 223.102 407.072 223.207C406.81 223.312 406.524 223.334 406.251 223.27C405.977 223.205 405.727 223.058 405.533 222.847C405.338 222.635 405.208 222.368 405.157 222.078C405.106 221.789 405.137 221.491 405.247 221.22C405.356 220.949 405.539 220.718 405.773 220.556C406.007 220.393 406.281 220.307 406.561 220.307C406.752 220.31 406.941 220.353 407.116 220.434C407.292 220.514 407.45 220.629 407.583 220.774C407.716 220.918 407.82 221.089 407.89 221.276C407.96 221.463 407.994 221.662 407.99 221.863Z" fill="#263238"/>
<path d="M401.247 221.679L399.898 230.619L404.618 230.039L401.247 221.679Z" fill="#F28F8F"/>
<path d="M450.439 323.206L421.381 305.608C421.127 305.456 420.838 305.376 420.545 305.376C420.252 305.376 419.964 305.456 419.709 305.608L368.754 336.476L398.634 354.639L450.439 323.206Z" fill="#37474F"/>
<path d="M398.362 351.994L382.693 342.516L428.511 314.761L444.26 324.197L398.362 351.994Z" fill="#263238"/>
<path d="M390.664 325.625L390.961 325.795L398.633 330.449L412.292 322.174L412.575 322.004L404.606 317.18L390.664 325.625Z" fill="#263238"/>
<path d="M390.961 325.795L398.633 330.449L412.292 322.174L404.607 317.52L390.961 325.795Z" fill="#263238"/>
<path d="M368.754 336.476V337.197C368.75 337.707 368.872 338.21 369.109 338.656C369.345 339.103 369.687 339.477 370.102 339.743L397.178 356.139C397.604 356.398 398.088 356.535 398.58 356.535C399.073 356.535 399.557 356.398 399.982 356.139L448.983 326.432C449.397 326.164 449.739 325.79 449.975 325.344C450.211 324.898 450.334 324.396 450.331 323.885V323.164L398.634 354.639L368.754 336.476Z" fill="#263238"/>
<path d="M398.633 354.639V356.592C399.108 356.586 399.573 356.45 399.981 356.195L448.981 326.488C449.396 326.221 449.737 325.846 449.973 325.4C450.21 324.954 450.332 324.452 450.33 323.942V323.221L398.633 354.639Z" fill="#263238"/>
<path d="M399.426 355.021C399.889 355.207 400.386 355.282 400.881 355.24C401.376 355.199 401.855 355.042 402.284 354.781L451.069 325.229C451.492 324.975 451.856 324.624 452.133 324.203C452.411 323.782 452.595 323.301 452.673 322.796L458.067 289.397C458.08 289.204 458.08 289.01 458.067 288.817C458.064 287.887 457.71 286.997 457.083 286.341L406.383 317.053C406.072 317.242 405.803 317.501 405.598 317.812C405.393 318.122 405.256 318.477 405.197 318.849L399.426 355.021Z" fill="#263238"/>
<path d="M398.633 354.639L398.97 354.837C399.119 354.926 399.272 355.006 399.428 355.078L405.199 318.906C405.259 318.533 405.396 318.179 405.601 317.868C405.806 317.558 406.074 317.298 406.386 317.109L457.085 286.398C456.878 286.196 456.652 286.015 456.411 285.86L405.617 316.572C405.304 316.761 405.034 317.02 404.827 317.33C404.62 317.641 404.48 317.995 404.417 318.368L398.633 354.639Z" fill="#455A64"/>
<path d="M426.893 324.168C427.661 321.376 429.423 319 431.815 317.534C434.175 316.119 435.793 316.756 435.442 318.948C434.675 321.741 432.912 324.117 430.521 325.583C428.161 327.068 426.543 326.347 426.893 324.168Z" fill="#37474F"/>
<path d="M363.127 296.937C363.127 296.937 371.878 332.302 375.573 334.835C379.267 337.367 386.144 339.22 389.434 340.493C392.724 341.766 394.221 343.506 393.655 343.987C393.088 344.468 388.342 344.992 386.697 345.6C385.052 346.208 387.182 348.995 390.823 351.952C394.464 354.908 397.565 354.639 397.16 356.606C396.756 358.572 388.639 360.538 381.789 356.323C374.939 352.107 372.863 346.42 368.777 341.597C364.691 336.773 355.361 316.727 352.084 307.957C352.084 307.957 352.394 291.66 357.478 292.693C362.561 293.726 363.127 296.937 363.127 296.937Z" fill="#D08C8B"/>
<path d="M404.768 368.602C405.388 370.172 407.532 374.501 412.305 374.26L424.036 362.745L404.768 368.602Z" fill="#070FC9"/>
<path opacity="0.1" d="M404.768 368.602C405.388 370.172 407.532 374.501 412.305 374.26L424.036 362.745L404.768 368.602Z" fill="black"/>
<path d="M411.848 375.632C411.853 375.684 411.853 375.736 411.848 375.788C411.853 375.736 411.853 375.684 411.848 375.632Z" fill="#263238"/>
<path d="M408.314 388.859C408.201 385.155 408.783 381.464 410.026 377.995C409.461 378.408 408.81 378.673 408.127 378.767C407.444 378.86 406.75 378.78 406.102 378.532C402.179 377.302 401.194 371.558 401.815 370.313C401.248 370.837 400.655 371.332 400.075 371.841C398.216 373.151 396.892 375.145 396.367 377.429C396.097 379.225 396.893 380.994 397.284 382.776C398.039 386.171 397.284 389.708 397.163 393.188C397.19 394.707 397.514 396.203 398.115 397.585C398.716 398.967 399.58 400.205 400.655 401.223C401.76 402.354 402.951 403.39 404.215 404.321C404.675 404.863 405.284 405.243 405.958 405.407C406.632 405.571 407.338 405.511 407.979 405.237C408.619 404.962 409.163 404.485 409.534 403.873C409.906 403.261 410.087 402.542 410.053 401.817C409.541 397.403 408.557 393.457 408.314 388.859Z" fill="#263238"/>
<path d="M412.764 373.525C412.4 374.246 412.076 374.939 411.793 375.632C412.13 374.953 412.454 374.246 412.764 373.525Z" fill="#37474F"/>
<path d="M401.787 370.313L402.043 370.073L401.787 370.313Z" fill="#37474F"/>
</svg>
