<svg width="24" height="25.50" viewBox="0 0 25 27" fill="none" xmlns="http://www.w3.org/2000/svg">
    <g clip-path="url(#clip0_1763_3826)">
        <path d="M20.5385 14.295C20.5051 11.0816 23.5835 9.53896 23.7227 9.46375C21.9904 7.27938 19.2945 6.98013 18.3327 6.94493C16.0397 6.74489 13.8562 8.10832 12.694 8.10832C11.5317 8.10832 9.73437 6.97373 7.83311 7.00574C5.33028 7.03774 3.02612 8.25875 1.73757 10.1887C-0.859955 14.0725 1.07473 19.8287 3.60355 22.9812C4.84197 24.5223 6.31619 26.2586 8.25458 26.1946C10.1224 26.1306 10.828 25.1544 13.082 25.1544C15.336 25.1544 15.971 26.1946 17.9447 26.1642C19.9518 26.1306 21.2255 24.5895 22.4546 23.0436C23.8731 21.2545 24.4599 19.523 24.4933 19.4318C24.4487 19.4158 20.5794 18.1372 20.5385 14.295Z" fill="black"/>
        <path d="M16.8312 4.85949C17.8598 3.78571 18.5542 2.29264 18.3629 0.804443C16.8812 0.855707 15.0877 1.6558 14.0238 2.72959C13.0713 3.67859 12.2358 5.1988 12.4622 6.6567C14.1148 6.76712 15.8024 5.9317 16.8312 4.85949Z" fill="black"/>
    </g>
    <defs>
        <clipPath id="clip0_1763_3826">
            <rect width="24" height="25.4118" fill="white" transform="translate(0.5 0.794189)"/>
        </clipPath>
    </defs>
</svg>
