<svg width="230" height="170" viewBox="0 0 231 170" fill="none" xmlns="http://www.w3.org/2000/svg">
    <path d="M79.3971 32.9179L78.0381 29.4156C76.1115 24.4505 70.71 21.3664 65.0131 21.9791L10.8812 27.798C4.12896 28.5237 -0.705492 34.1427 0.0845633 40.3495L15.4921 161.428C16.0339 165.684 20.2265 168.73 24.858 168.232L218.535 147.413C223.166 146.915 226.481 143.062 225.939 138.805L212.62 34.1378C212.078 29.8816 207.885 26.835 203.254 27.3325L90.7884 39.4223C85.8063 39.9579 81.0819 37.2605 79.3971 32.9179Z" fill="#0D0D36"/>
    <path d="M101.61 83.4881L40.4137 94.6974L23.6113 17.2088L84.8073 5.99951L101.61 83.4881Z" fill="#006BA6"/>
    <path d="M101.61 83.4881L40.4137 94.6974L23.6113 17.2088L84.8073 5.99951L101.61 83.4881Z" fill="#006BA6"/>
    <path d="M76.6344 24.6491L38.9377 31.5538C37.1094 31.8889 35.3328 30.7982 34.968 29.1182C34.6039 27.4382 35.7904 25.8044 37.6182 25.4698L75.3149 18.5645C77.1433 18.2299 78.9205 19.3201 79.2846 21.0006C79.6493 22.6806 78.4622 24.3139 76.6344 24.6491Z" fill="white"/>
    <path d="M79.4108 37.4618L41.7141 44.3665C39.8863 44.7016 38.1091 43.6115 37.7444 41.9315C37.3803 40.2509 38.5668 38.6176 40.3952 38.283L78.0913 31.3772C79.9196 31.0426 81.6968 32.1333 82.061 33.8139C82.4257 35.4939 81.2386 37.1266 79.4108 37.4618Z" fill="white"/>
    <path d="M82.1911 50.274L44.4944 57.1788C42.666 57.5139 40.8894 56.4237 40.5247 54.7437C40.1605 53.0637 41.3471 51.4299 43.1749 51.0953L80.8716 44.1895C82.6999 43.8549 84.4771 44.9456 84.8412 46.6261C85.206 48.3061 84.0188 49.9389 82.1911 50.274Z" fill="white"/>
    <path d="M84.9704 63.0866L47.2737 69.9924C45.4459 70.327 43.6687 69.2358 43.304 67.5563C42.9398 65.8763 44.1264 64.2425 45.9541 63.9079L83.6509 57.0031C85.4792 56.668 87.2564 57.7587 87.6205 59.4387C87.9853 61.1187 86.7981 62.752 84.9704 63.0866Z" fill="white"/>
    <path d="M77.4435 77.787L50.0492 82.8048C48.2209 83.1393 46.4437 82.0492 46.0795 80.3687C45.7148 78.6886 46.9014 77.0553 48.7297 76.7202L76.1234 71.7024C77.9517 71.3679 79.7289 72.458 80.0931 74.1385C80.4578 75.8186 79.2718 77.4519 77.4435 77.787Z" fill="white"/>
    <path d="M183.66 78.2827L121.836 86.0603L110.18 7.77705L172.003 0L183.66 78.2827Z" fill="#006BA6"/>
    <path d="M183.66 78.2834L121.836 86.0605L110.18 7.77778L172.003 0.000732422L183.66 78.2834Z" fill="#006BA6"/>
    <path d="M162.613 18.1603L124.531 22.9505C122.684 23.183 120.981 21.9956 120.729 20.2982C120.476 18.6008 121.768 17.0365 123.615 16.804L161.698 12.0133C163.545 11.7814 165.247 12.9687 165.499 14.6661C165.752 16.3635 164.461 17.9278 162.613 18.1603Z" fill="white"/>
    <path d="M164.542 31.1035L126.459 35.8942C124.612 36.1261 122.91 34.9387 122.658 33.2414C122.405 31.544 123.697 29.9802 125.544 29.7477L163.626 24.9575C165.473 24.7251 167.175 25.9124 167.428 27.6098C167.681 29.3072 166.389 30.8715 164.542 31.1035Z" fill="white"/>
    <path d="M138.88 47.5185L128.386 48.8384C126.539 49.0709 124.837 47.883 124.584 46.1856C124.332 44.4882 125.624 42.9245 127.47 42.692L137.964 41.3721C139.811 41.1396 141.513 42.327 141.765 44.0244V44.0249C142.018 45.7218 140.727 47.2861 138.88 47.5185Z" fill="white"/>
    <path d="M159.228 44.9585L148.734 46.2784C146.887 46.5109 145.185 45.323 144.932 43.6256C144.68 41.9287 145.972 40.3644 147.818 40.1319L158.312 38.812C160.159 38.5796 161.861 39.7669 162.114 41.4643C162.366 43.1617 161.075 44.7266 159.228 44.9585Z" fill="white"/>
    <path d="M168.397 56.9917L130.314 61.7824C128.467 62.0149 126.764 60.827 126.512 59.1296C126.259 57.4322 127.551 55.8679 129.398 55.6354L167.481 50.8452C169.328 50.6127 171.03 51.8006 171.283 53.4975C171.536 55.1954 170.243 56.7598 168.397 56.9917Z" fill="white"/>
    <path d="M159.915 71.2455L132.239 74.7267C130.393 74.9592 128.691 73.7712 128.438 72.0739C128.185 70.3765 129.478 68.8121 131.324 68.5802L158.999 65.0985C160.846 64.8666 162.548 66.054 162.801 67.7513C163.053 69.4487 161.761 71.0131 159.915 71.2455Z" fill="white"/>
    <path d="M121.13 103.491L58.966 108.47L51.502 29.7558L113.666 24.7766L121.13 103.491Z" fill="#00346B"/>
    <path d="M121.13 103.491L58.966 108.47L51.502 29.7558L113.666 24.7766L121.13 103.491Z" fill="#00346B"/>
    <path d="M103.32 42.4904L65.0279 45.5577C63.1707 45.7065 61.5341 44.4437 61.3723 42.737C61.2105 41.0304 62.5847 39.5258 64.4419 39.377L102.735 36.3098C104.591 36.1609 106.228 37.4238 106.39 39.1304C106.551 40.8376 105.177 42.3416 103.32 42.4904Z" fill="white"/>
    <path d="M104.555 55.5053L66.2622 58.5725C64.405 58.7213 62.7685 57.4585 62.6067 55.7519C62.4449 54.0452 63.8191 52.5407 65.6763 52.3924L103.969 49.3246C105.826 49.1763 107.462 50.4386 107.624 52.1458C107.786 53.8524 106.412 55.3564 104.555 55.5053Z" fill="white"/>
    <path d="M105.789 68.5212L67.4961 71.5885C65.6395 71.7373 64.0029 70.4744 63.8412 68.7678C63.6788 67.0612 65.053 65.5566 66.9102 65.4078L105.203 62.3405C107.06 62.1917 108.697 63.4546 108.859 65.1612C109.02 66.8684 107.646 68.3724 105.789 68.5212Z" fill="white"/>
    <path d="M107.022 81.5363L68.729 84.6036C66.8718 84.7524 65.2353 83.4896 65.0735 81.7829C64.9117 80.0763 66.2859 78.5717 68.1431 78.4235L106.436 75.3557C108.292 75.2068 109.929 76.4702 110.091 78.1769C110.253 79.8835 108.879 81.3875 107.022 81.5363Z" fill="white"/>
    <path d="M97.7926 95.3899L69.9648 97.619C68.1076 97.7673 66.4716 96.5044 66.3098 94.7978C66.148 93.0912 67.5217 91.5872 69.3789 91.4383L97.2061 89.2092C99.0632 89.0604 100.7 90.3232 100.862 92.0298C101.024 93.737 99.6498 95.241 97.7926 95.3899Z" fill="white"/>
    <path d="M205.121 124.242L142.795 127.007L138.648 48.087L200.975 45.3218L205.121 124.242Z" fill="#00346B"/>
    <path d="M205.122 124.242L142.795 127.007L138.649 48.087L200.976 45.3218L205.122 124.242Z" fill="#00346B"/>
    <path d="M189.889 62.6547L151.496 64.3581C149.634 64.4407 148.052 63.1202 147.962 61.4093C147.872 59.6983 149.309 58.2437 151.17 58.1617L189.564 56.4578C191.425 56.3752 193.007 57.6956 193.097 59.4066C193.187 61.1176 191.751 62.5722 189.889 62.6547Z" fill="white"/>
    <path d="M190.575 75.7038L152.181 77.4072C150.319 77.4897 148.738 76.1693 148.648 74.4583C148.558 72.7474 149.994 71.2933 151.856 71.2113L190.249 69.5068C192.111 69.4243 193.694 70.7447 193.783 72.4557C193.872 74.1667 192.436 75.6213 190.575 75.7038Z" fill="white"/>
    <path d="M163.446 89.988L152.867 90.4573C151.005 90.5404 149.423 89.22 149.333 87.509C149.243 85.7975 150.68 84.3434 152.541 84.2609L163.12 83.791C164.982 83.7085 166.564 85.0289 166.654 86.7404C166.744 88.4514 165.307 89.9054 163.446 89.988Z" fill="white"/>
    <path d="M183.959 89.0776L173.38 89.5469C171.518 89.6295 169.935 88.3096 169.846 86.5986C169.755 84.8876 171.192 83.4325 173.054 83.3499L183.633 82.8806C185.495 82.7981 187.077 84.1185 187.166 85.8295C187.256 87.5404 185.82 88.995 183.959 89.0776Z" fill="white"/>
    <path d="M191.943 101.803L153.549 103.507C151.687 103.589 150.105 102.269 150.016 100.558C149.925 98.847 151.362 97.3924 153.224 97.3098L191.617 95.6065C193.479 95.5239 195.061 96.8443 195.151 98.5553C195.241 100.266 193.804 101.721 191.943 101.803Z" fill="white"/>
    <path d="M182.138 115.319L154.237 116.557C152.375 116.639 150.793 115.319 150.703 113.608C150.613 111.897 152.05 110.443 153.912 110.36L181.812 109.122C183.674 109.04 185.256 110.36 185.346 112.071C185.436 113.782 184 115.236 182.138 115.319Z" fill="white"/>
    <path d="M96.6815 37.3317L95.689 33.9054C94.2825 29.0484 89.2492 26.0403 83.5529 26.6525L29.421 32.4719C22.6681 33.1976 17.3219 38.7107 17.479 44.7861L20.5504 163.304C20.6586 167.47 24.5 170.443 29.1303 169.946L222.808 149.126C227.439 148.628 231.105 144.848 230.997 140.681L228.342 38.2273C228.233 34.0612 224.393 31.0874 219.762 31.585L107.296 43.6747C102.314 44.2103 97.9115 41.5798 96.6815 37.3317Z" fill="url(#paint0_linear_1763_3883)"/>
    <path d="M96.6814 37.3316L95.689 33.9054C94.2825 29.0484 89.2492 26.0403 83.5529 26.6525L29.421 32.4719C22.6681 33.1976 17.3219 38.7107 17.479 44.7861L20.5503 163.304C20.6586 167.47 24.5 170.443 29.1303 169.946L222.808 149.126C227.439 148.628 231.105 144.848 230.997 140.681L228.342 38.2273C228.234 34.0612 224.393 31.0874 219.762 31.585L107.296 43.6747C102.314 44.2103 97.9115 41.5797 96.6814 37.3316Z" fill="url(#paint1_linear_1763_3883)"/>
    <defs>
        <linearGradient id="paint0_linear_1763_3883" x1="64.2745" y1="135.362" x2="213.686" y2="23.206" gradientUnits="userSpaceOnUse">
            <stop stop-color="#00346B"/>
            <stop offset="0.58" stop-color="#005088"/>
            <stop offset="1" stop-color="#006BA6"/>
        </linearGradient>
        <linearGradient id="paint1_linear_1763_3883" x1="64.2992" y1="135.407" x2="213.711" y2="23.251" gradientUnits="userSpaceOnUse">
            <stop stop-color="#00346B"/>
            <stop offset="0.58" stop-color="#005088"/>
            <stop offset="1" stop-color="#006BA6"/>
        </linearGradient>
    </defs>
</svg>
