<svg width="400" height="290" viewBox="0 0 633 591" fill="none" xmlns="http://www.w3.org/2000/svg">
<path d="M316.5 591C491.298 591 633 509.188 633 408.269C633 307.349 491.298 225.537 316.5 225.537C141.702 225.537 0 307.349 0 408.269C0 509.188 141.702 591 316.5 591Z" fill="#F0F0F0"/>
<path d="M251.008 546.734C311.285 546.734 360.149 518.526 360.149 483.728C360.149 448.931 311.285 420.722 251.008 420.722C190.731 420.722 141.867 448.931 141.867 483.728C141.867 518.526 190.731 546.734 251.008 546.734Z" fill="#E0E0E0"/>
<path d="M561.382 404.897L548.579 397.508C548.579 397.508 545.449 370.102 547.531 348.876C550.46 319.052 569.724 283.156 592.697 291.593C615.669 300.03 582.164 330.391 574.708 355.687C567.253 380.984 561.382 404.897 561.382 404.897Z" fill="#407BFF"/>
<path opacity="0.15" d="M561.382 404.897L548.579 397.508C548.579 397.508 545.449 370.102 547.531 348.876C550.46 319.052 569.724 283.156 592.697 291.593C615.669 300.03 582.164 330.391 574.708 355.687C567.253 380.984 561.382 404.897 561.382 404.897Z" fill="black"/>
<path d="M554.651 401.793C554.855 401.783 555.047 401.692 555.185 401.542C555.323 401.391 555.397 401.192 555.39 400.987C553.146 334.717 586.14 301.373 586.463 301.051C586.609 300.904 586.691 300.706 586.691 300.5C586.691 300.293 586.609 300.095 586.463 299.949C586.392 299.877 586.307 299.82 586.213 299.781C586.12 299.742 586.02 299.722 585.919 299.722C585.818 299.722 585.717 299.742 585.624 299.781C585.531 299.82 585.446 299.877 585.375 299.949C585.025 300.271 551.561 334.099 553.831 401.041C553.835 401.144 553.859 401.246 553.902 401.34C553.945 401.435 554.007 401.519 554.083 401.589C554.159 401.659 554.249 401.713 554.346 401.748C554.444 401.783 554.547 401.799 554.651 401.793Z" fill="white"/>
<path d="M569.428 409.504L560.32 404.252C560.32 404.252 558.762 385.444 567.991 362.606C576.051 342.723 595.934 326.213 605.956 329.679C615.978 333.145 615.723 340.251 610.832 347.707C605.942 355.163 576.239 372.91 569.428 409.504Z" fill="#407BFF"/>
<path d="M564.618 407.516C564.823 407.513 565.019 407.43 565.165 407.284C565.31 407.139 565.393 406.943 565.397 406.737C565.209 364.822 604.557 336.503 604.96 336.221C605.044 336.164 605.116 336.09 605.17 336.004C605.225 335.918 605.262 335.822 605.278 335.721C605.294 335.621 605.29 335.518 605.265 335.419C605.241 335.32 605.197 335.228 605.135 335.146C605.016 334.981 604.837 334.868 604.636 334.833C604.435 334.798 604.228 334.843 604.06 334.958C603.657 335.24 563.664 364.043 563.838 406.737C563.838 406.944 563.921 407.142 564.067 407.288C564.213 407.434 564.411 407.516 564.618 407.516Z" fill="white"/>
<path d="M87.662 388.44L99.484 380.46C99.484 380.46 104.683 349.561 99.8468 322.303C93.0491 284.07 66.6241 271.361 57.2202 275.391C47.8163 279.422 45.8011 290.8 63.3596 312.617C73.771 325.447 87.2993 352.839 87.662 388.44Z" fill="#407BFF"/>
<g opacity="0.15">
<path d="M87.6639 388.44L99.486 380.46C99.486 380.46 104.685 349.561 99.8487 322.303C93.051 284.07 66.626 271.361 57.2221 275.391C47.8182 279.422 45.8031 290.8 63.3615 312.617C73.773 325.447 87.3012 352.839 87.6639 388.44Z" fill="black"/>
</g>
<path d="M91.7171 373.125H91.5962C91.4754 373.117 91.3576 373.084 91.2505 373.028C91.1433 372.972 91.0493 372.893 90.9745 372.798C90.8997 372.703 90.8458 372.593 90.8163 372.476C90.7869 372.359 90.7825 372.236 90.8035 372.117C95.0756 336.127 79.8816 297.061 63.3441 281.517C63.185 281.356 63.0957 281.139 63.0957 280.913C63.0957 280.686 63.185 280.469 63.3441 280.308C63.4229 280.228 63.517 280.164 63.6208 280.12C63.7246 280.077 63.8361 280.054 63.9487 280.054C64.0613 280.054 64.1727 280.077 64.2765 280.12C64.3803 280.164 64.4744 280.228 64.5532 280.308C81.3996 296.134 96.8758 335.845 92.55 372.359C92.5246 372.565 92.4269 372.755 92.2743 372.895C92.1217 373.035 91.9242 373.117 91.7171 373.125Z" fill="white"/>
<path d="M56.7085 409.316C54.8277 410.445 49.3465 406.374 47.8285 405.394C45.2268 403.695 43.1075 401.354 41.6756 398.596C40.0693 395.469 39.4731 391.92 39.9695 388.44C40.2446 386.623 40.6441 384.828 41.1651 383.066C41.6353 381.306 42.1055 379.546 42.5085 377.773C43.1043 376.048 43.3331 374.218 43.1803 372.399C42.6563 368.812 39.4187 366.354 36.4632 364.245C33.2121 361.894 29.7461 358.791 29.7461 354.465C29.9118 351.066 31.2126 347.821 33.4405 345.249C35.4556 342.562 37.8738 340.225 39.6874 337.417C41.1056 335.471 41.8294 333.106 41.7428 330.7C41.5092 329.217 40.9792 327.796 40.1844 326.522C38.5992 323.727 36.5438 321.148 35.4287 318.179C34.3137 315.21 34.3943 311.395 36.7722 309.178C38.6664 307.365 41.5547 307.069 44.1744 307.19C46.6429 307.436 49.0275 308.22 51.1601 309.487C58.1056 313.182 62.1896 321.242 69.5381 324.05C72.3727 325.125 75.4625 325.313 78.4046 326.038C81.3467 326.764 84.3828 328.201 85.7934 330.874C88.5743 336.181 83.7245 342.871 85.7128 348.5C87.4861 353.498 92.4299 355.325 95.2242 359.798C96.3583 361.785 96.8289 364.081 96.5676 366.354C96.41 370.19 95.5494 373.965 94.0285 377.491C92.2794 381.147 90.3053 384.692 88.1175 388.104C88.1175 388.104 56.9906 409.142 56.7085 409.316Z" fill="#407BFF"/>
<path d="M74.8721 398.179C74.7591 398.178 74.6477 398.154 74.544 398.109C74.4404 398.064 74.3466 397.999 74.268 397.918C74.1894 397.837 74.1276 397.741 74.086 397.636C74.0444 397.531 74.0239 397.419 74.0257 397.306C74.778 363.291 58.0391 326.105 46.1901 315.358C46.0217 315.206 45.9202 314.994 45.9076 314.767C45.895 314.541 45.9724 314.318 46.123 314.149C46.2018 314.068 46.2958 314.005 46.3996 313.961C46.5034 313.917 46.6149 313.895 46.7275 313.895C46.8401 313.895 46.9515 313.917 47.0554 313.961C47.1592 314.005 47.2532 314.068 47.332 314.149C59.4228 325.03 76.4976 362.861 75.7318 397.347C75.7301 397.458 75.7065 397.567 75.6623 397.669C75.6181 397.771 75.5543 397.864 75.4745 397.941C75.3946 398.018 75.3003 398.079 75.197 398.12C75.0936 398.161 74.9832 398.181 74.8721 398.179Z" fill="white"/>
<path d="M68.5982 356.735C68.5189 356.755 68.4358 356.755 68.3564 356.735C57.3673 353.565 43.745 353.242 43.6107 353.229C43.4984 353.227 43.3875 353.203 43.2846 353.158C43.1817 353.113 43.0888 353.048 43.0113 352.967C42.9337 352.885 42.8732 352.79 42.8331 352.685C42.793 352.58 42.7742 352.468 42.7778 352.356C42.7757 352.242 42.7971 352.13 42.8408 352.025C42.8845 351.92 42.9494 351.826 43.0315 351.747C43.1136 351.669 43.211 351.609 43.3177 351.57C43.4243 351.531 43.5378 351.515 43.651 351.523C43.7853 351.523 57.6225 351.859 68.8266 355.083C69.0431 355.148 69.2252 355.296 69.3333 355.495C69.4414 355.693 69.4669 355.927 69.4043 356.144C69.352 356.316 69.2451 356.467 69.0998 356.574C68.9544 356.68 68.7785 356.737 68.5982 356.735Z" fill="white"/>
<path d="M385.23 365.051L380.138 362.109C379.29 361.558 378.583 360.815 378.077 359.939C377.57 359.064 377.277 358.081 377.223 357.071V145.456C377.278 144.448 377.57 143.467 378.074 142.592C378.578 141.717 379.28 140.972 380.124 140.418L521.655 58.7117C522.557 58.2549 523.553 58.0169 524.564 58.0169C525.575 58.0169 526.571 58.2549 527.472 58.7117L532.564 61.6538C533.412 62.2046 534.119 62.948 534.625 63.8234C535.132 64.6989 535.425 65.6816 535.479 66.6916V278.307C535.424 279.315 535.132 280.296 534.628 281.171C534.124 282.046 533.422 282.79 532.578 283.344L391.047 365.064C390.145 365.522 389.148 365.76 388.136 365.757C387.125 365.755 386.129 365.513 385.23 365.051Z" fill="#455A64"/>
<path d="M535.479 66.2214C535.277 64.7168 534.055 64.166 532.59 65.0123L391.046 146.732C390.19 147.269 389.483 148.013 388.99 148.895L378.068 142.595C378.557 141.706 379.264 140.957 380.124 140.418L521.655 58.7117C522.556 58.2549 523.553 58.0169 524.563 58.0169C525.574 58.0169 526.57 58.2549 527.472 58.7117L532.563 61.6538C533.35 62.1601 534.018 62.8303 534.521 63.6187C535.024 64.4071 535.351 65.2949 535.479 66.2214Z" fill="#455A64"/>
<path d="M390.548 365.293C389.688 365.641 388.764 365.801 387.837 365.761C386.91 365.722 386.002 365.484 385.175 365.064L380.07 362.109C379.225 361.555 378.523 360.81 378.019 359.935C377.515 359.06 377.223 358.079 377.168 357.071V145.456C377.203 144.446 377.494 143.461 378.014 142.595L388.936 148.895C388.406 149.763 388.109 150.754 388.077 151.77V363.385C388.13 365.051 389.178 365.817 390.548 365.293Z" fill="#263238"/>
<path d="M388.131 151.797V363.385C388.131 365.239 389.474 365.991 391.046 365.064L532.577 283.344C533.421 282.79 534.124 282.046 534.628 281.171C535.132 280.296 535.423 279.315 535.479 278.307V66.6916C535.479 64.8377 534.135 64.0854 532.577 65.0123L391.046 146.732C390.194 147.286 389.486 148.033 388.979 148.914C388.472 149.794 388.182 150.782 388.131 151.797Z" fill="#37474F"/>
<path d="M355.083 232.402C353.256 231.314 344.779 226.491 344.336 226.236C343.99 226.03 343.695 225.749 343.473 225.413C343.251 225.078 343.106 224.697 343.051 224.299C342.996 223.9 343.03 223.494 343.153 223.111C343.275 222.728 343.482 222.377 343.758 222.085L377.222 186.188L388.131 192.449L354.68 228.372C354.417 228.651 354.217 228.984 354.094 229.348C353.971 229.711 353.927 230.097 353.965 230.478C354.003 230.86 354.123 231.23 354.315 231.561C354.508 231.893 354.77 232.18 355.083 232.402Z" fill="#455A64"/>
<path d="M388.132 192.489L354.681 228.372C354.31 228.768 354.067 229.268 353.985 229.806C353.904 230.343 353.987 230.892 354.225 231.381C354.462 231.87 354.842 232.276 355.314 232.544C355.787 232.813 356.329 232.932 356.871 232.886L388.132 230.306V192.489Z" fill="#37474F"/>
<path d="M461.806 127.884C478.303 118.359 491.67 126.084 491.67 145.134C491.67 164.183 478.303 187.33 461.806 196.855C445.308 206.38 431.941 198.655 431.941 179.619C431.941 160.583 445.308 137.409 461.806 127.884Z" fill="#407BFF"/>
<path d="M461.59 142.877C466.964 139.787 471.276 142.286 471.276 148.465C471.093 151.825 470.121 155.093 468.438 158.006C466.755 160.919 464.409 163.395 461.59 165.231C456.216 168.321 451.891 165.822 451.891 159.643C452.075 156.282 453.05 153.013 454.735 150.099C456.42 147.186 458.769 144.712 461.59 142.877Z" fill="white"/>
<path d="M480.693 175.817C480.693 165.674 473.559 161.55 464.773 166.628L459.279 169.799C450.493 174.877 443.359 187.263 443.359 197.379V200.16C445.018 200.69 446.75 200.958 448.491 200.953C453.204 200.792 457.794 199.403 461.804 196.922C469.441 192.218 475.902 185.831 480.693 178.249V175.817Z" fill="white"/>
<path d="M442.892 291.15L480.722 269.306C482.334 268.379 483.638 269.131 483.638 270.985V283.17C483.583 284.18 483.29 285.162 482.784 286.038C482.277 286.913 481.571 287.657 480.722 288.207L442.892 310.051C441.28 310.978 439.977 310.226 439.977 308.372V296.187C440.031 295.177 440.324 294.195 440.831 293.319C441.337 292.444 442.043 291.7 442.892 291.15Z" fill="#407BFF"/>
<path d="M424.364 263.932L499.206 220.701C501.127 219.586 502.699 220.486 502.699 222.716V227.243C502.634 228.455 502.283 229.633 501.676 230.684C501.069 231.734 500.223 232.627 499.206 233.289L424.323 276.52C422.402 277.635 420.844 276.735 420.844 274.505V270.018C420.905 268.797 421.256 267.608 421.868 266.55C422.48 265.491 423.336 264.594 424.364 263.932Z" fill="#FAFAFA"/>
<path d="M433.124 232.644C434.145 232.053 434.938 231.959 435.502 232.375C436.066 232.792 436.348 233.719 436.348 235.143C436.377 236.442 436.086 237.729 435.502 238.891C434.974 239.941 434.146 240.81 433.124 241.389L431.109 242.558V246.897C431.105 247.047 431.068 247.194 431.001 247.327C430.954 247.449 430.869 247.552 430.76 247.623L429.739 248.214C429.704 248.24 429.661 248.254 429.618 248.254C429.574 248.254 429.532 248.24 429.497 248.214C429.424 248.123 429.391 248.007 429.403 247.892V235.331C429.402 235.182 429.434 235.035 429.497 234.901C429.548 234.781 429.632 234.679 429.739 234.605L433.124 232.644ZM431.109 240.127L433.057 238.998C433.528 238.733 433.925 238.354 434.212 237.897C434.518 237.357 434.667 236.743 434.642 236.123C434.642 235.398 434.494 234.981 434.212 234.86C434.013 234.812 433.805 234.81 433.605 234.854C433.405 234.898 433.217 234.988 433.057 235.116L431.109 236.244V240.127Z" fill="#FAFAFA"/>
<path d="M441.977 227.525C442.111 227.445 442.219 227.445 442.286 227.525C442.372 227.646 442.432 227.783 442.461 227.928L445.564 238.434C445.564 238.434 445.564 238.515 445.564 238.555C445.562 238.704 445.525 238.852 445.457 238.985C445.409 239.106 445.325 239.21 445.215 239.28L444.301 239.804C444.14 239.898 444.019 239.912 443.952 239.804C443.887 239.737 443.841 239.653 443.818 239.562L443.267 237.722L439.237 240.033L438.699 242.504C438.661 242.638 438.612 242.769 438.551 242.894C438.485 243.058 438.361 243.192 438.202 243.27L437.289 243.794C437.255 243.823 437.212 243.838 437.168 243.838C437.124 243.838 437.081 243.823 437.047 243.794C436.977 243.707 436.943 243.596 436.953 243.485C436.945 243.436 436.945 243.386 436.953 243.337L440.043 229.258C440.08 229.051 440.138 228.849 440.217 228.654C440.283 228.513 440.391 228.395 440.526 228.318L441.977 227.525ZM442.676 235.666L441.332 230.924L439.989 237.265L442.676 235.666Z" fill="#FAFAFA"/>
<path d="M450.268 222.541C450.717 222.258 451.229 222.087 451.759 222.044C452.133 222.011 452.509 222.095 452.834 222.286C453.128 222.477 453.358 222.754 453.492 223.079C453.639 223.409 453.721 223.765 453.734 224.127C453.743 224.276 453.71 224.425 453.64 224.556C453.592 224.678 453.508 224.781 453.398 224.852L452.511 225.362C452.363 225.443 452.256 225.456 452.189 225.362C452.106 225.308 452.036 225.234 451.987 225.148C451.933 225.027 451.856 224.918 451.759 224.828C451.662 224.738 451.547 224.668 451.423 224.624C451.014 224.565 450.598 224.671 450.268 224.919C450.05 225.06 449.843 225.217 449.65 225.389C449.45 225.573 449.274 225.78 449.126 226.007C448.983 226.226 448.866 226.46 448.776 226.706C448.697 226.94 448.656 227.185 448.655 227.431C448.64 227.657 448.681 227.884 448.776 228.09C448.818 228.162 448.876 228.223 448.946 228.267C449.016 228.312 449.097 228.338 449.179 228.345C449.428 228.388 449.683 228.388 449.932 228.345L451.101 228.09C451.536 227.961 451.99 227.906 452.444 227.928C452.768 227.927 453.084 228.031 453.344 228.224C453.59 228.431 453.768 228.707 453.855 229.017C453.986 229.452 454.045 229.906 454.029 230.36C454.028 230.96 453.942 231.557 453.774 232.133C453.61 232.726 453.371 233.295 453.062 233.826C452.737 234.371 452.349 234.876 451.907 235.331C451.455 235.799 450.939 236.202 450.375 236.526C449.961 236.778 449.507 236.956 449.032 237.05C448.645 237.125 448.246 237.092 447.876 236.956C447.54 236.8 447.263 236.541 447.084 236.217C446.864 235.803 446.745 235.343 446.734 234.874C446.733 234.721 446.765 234.57 446.828 234.431C446.888 234.316 446.976 234.219 447.084 234.148L447.97 233.638C448.105 233.557 448.212 233.53 448.293 233.571C448.373 233.611 448.427 233.678 448.481 233.799C448.536 233.937 448.608 234.068 448.696 234.189C448.779 234.306 448.896 234.395 449.032 234.444C449.208 234.485 449.392 234.485 449.569 234.444C449.854 234.377 450.126 234.263 450.375 234.108C450.636 233.96 450.883 233.789 451.114 233.598C451.566 233.24 451.925 232.779 452.162 232.254C452.269 231.985 452.324 231.698 452.323 231.408C452.336 231.303 452.327 231.196 452.297 231.094C452.267 230.993 452.216 230.898 452.148 230.817C452.076 230.753 451.99 230.705 451.897 230.677C451.805 230.65 451.707 230.642 451.611 230.656C451.306 230.668 451.004 230.718 450.711 230.803C450.362 230.884 449.959 230.978 449.488 231.059C449.129 231.149 448.756 231.176 448.387 231.139C448.096 231.12 447.821 231.002 447.608 230.803C447.375 230.576 447.212 230.287 447.137 229.97C447.029 229.504 446.98 229.025 446.99 228.546C446.989 227.955 447.075 227.366 447.245 226.8C447.405 226.217 447.64 225.657 447.943 225.134C448.234 224.615 448.586 224.132 448.991 223.697C449.36 223.253 449.79 222.864 450.268 222.541Z" fill="#FAFAFA"/>
<path d="M459.092 217.463C459.538 217.171 460.051 216.995 460.583 216.953C460.958 216.921 461.333 217.005 461.658 217.194C461.945 217.391 462.169 217.666 462.303 217.987C462.449 218.318 462.532 218.673 462.545 219.035C462.56 219.185 462.527 219.335 462.451 219.465C462.403 219.586 462.318 219.69 462.209 219.76L461.322 220.271C461.188 220.352 461.08 220.378 461 220.271C460.914 220.217 460.848 220.137 460.812 220.043C460.689 219.807 460.483 219.625 460.234 219.532C460.033 219.503 459.829 219.514 459.633 219.564C459.437 219.615 459.253 219.705 459.092 219.828C458.868 219.965 458.656 220.122 458.461 220.298C458.265 220.482 458.094 220.689 457.95 220.916C457.802 221.131 457.684 221.366 457.601 221.614C457.517 221.847 457.472 222.092 457.466 222.34C457.451 222.566 457.492 222.792 457.587 222.998C457.629 223.07 457.687 223.131 457.757 223.176C457.827 223.22 457.908 223.247 457.99 223.253C458.239 223.297 458.494 223.297 458.743 223.253L459.911 222.998C460.348 222.876 460.801 222.822 461.255 222.837C461.579 222.834 461.896 222.938 462.155 223.132C462.401 223.342 462.582 223.617 462.679 223.925C462.797 224.363 462.852 224.815 462.84 225.268C462.839 225.869 462.753 226.466 462.585 227.042C462.421 227.634 462.182 228.203 461.873 228.734C461.549 229.284 461.161 229.794 460.718 230.252C460.264 230.71 459.754 231.107 459.199 231.435C458.785 231.686 458.331 231.863 457.856 231.959C457.474 232.032 457.079 231.999 456.714 231.865C456.372 231.713 456.088 231.454 455.908 231.126C455.687 230.712 455.572 230.251 455.572 229.782C455.556 229.633 455.589 229.482 455.666 229.352C455.714 229.231 455.798 229.127 455.908 229.057L456.795 228.546C456.929 228.466 457.05 228.439 457.117 228.479C457.164 228.5 457.205 228.532 457.238 228.572C457.27 228.611 457.293 228.658 457.305 228.708C457.366 228.843 457.438 228.973 457.52 229.097C457.609 229.215 457.73 229.304 457.869 229.352C458.046 229.393 458.23 229.393 458.407 229.352C458.692 229.285 458.964 229.172 459.213 229.017C459.467 228.865 459.709 228.694 459.938 228.506C460.174 228.322 460.382 228.105 460.556 227.861C460.73 227.629 460.875 227.376 460.986 227.109C461.094 226.84 461.149 226.552 461.147 226.263C461.16 226.157 461.151 226.051 461.121 225.949C461.091 225.847 461.041 225.753 460.973 225.671C460.9 225.607 460.814 225.56 460.722 225.532C460.629 225.504 460.531 225.497 460.435 225.51C460.136 225.529 459.838 225.578 459.549 225.658C459.199 225.739 458.783 225.833 458.326 225.913C457.962 226.003 457.585 226.03 457.211 225.994C456.92 225.979 456.643 225.859 456.432 225.658C456.204 225.429 456.046 225.14 455.975 224.825C455.856 224.365 455.802 223.89 455.814 223.414C455.819 222.819 455.905 222.227 456.069 221.655C456.236 221.074 456.47 220.514 456.768 219.989C457.059 219.466 457.415 218.983 457.829 218.551C458.191 218.125 458.617 217.758 459.092 217.463Z" fill="#FAFAFA"/>
<path d="M468.885 219.142L467.797 225.577C467.765 225.771 467.711 225.96 467.636 226.142C467.584 226.286 467.484 226.41 467.354 226.491L466.333 227.082C466.198 227.163 466.104 227.163 466.037 227.082C465.947 226.972 465.895 226.835 465.889 226.692L464.277 215.341C464.277 215.341 464.277 215.233 464.277 215.193C464.281 215.043 464.318 214.897 464.385 214.763C464.436 214.643 464.52 214.541 464.627 214.467L465.554 213.93C465.631 213.899 465.718 213.899 465.795 213.93C465.876 213.93 465.93 214.037 465.957 214.252L467.018 221.896L467.945 216.16C467.969 216.017 468.01 215.877 468.066 215.744C468.119 215.574 468.234 215.43 468.388 215.341L469.423 214.736C469.57 214.655 469.678 214.669 469.745 214.736C469.803 214.821 469.844 214.917 469.866 215.018L470.806 219.68L471.868 210.813C471.88 210.639 471.931 210.469 472.015 210.316C472.078 210.216 472.16 210.129 472.257 210.061L473.184 209.524C473.219 209.497 473.262 209.483 473.305 209.483C473.349 209.483 473.391 209.497 473.426 209.524C473.464 209.568 473.493 209.619 473.512 209.674C473.53 209.729 473.538 209.788 473.534 209.846C473.539 209.9 473.539 209.954 473.534 210.007L471.921 223.213C471.894 223.406 471.845 223.596 471.774 223.777C471.712 223.921 471.609 224.042 471.478 224.127L470.444 224.718C470.323 224.785 470.229 224.785 470.162 224.718C470.093 224.594 470.039 224.464 470 224.328L468.885 219.142Z" fill="#FAFAFA"/>
<path d="M475.172 213.446C475.202 212.701 475.292 211.96 475.441 211.23C475.594 210.516 475.829 209.822 476.139 209.161C476.435 208.518 476.815 207.918 477.268 207.374C477.727 206.835 478.277 206.38 478.893 206.031C479.366 205.71 479.92 205.528 480.492 205.507C480.919 205.511 481.328 205.68 481.634 205.977C481.959 206.343 482.194 206.78 482.319 207.253C482.492 207.87 482.587 208.507 482.601 209.147C482.601 209.389 482.601 209.658 482.601 209.953C482.601 210.249 482.601 210.558 482.601 210.88C482.601 211.203 482.601 211.512 482.601 211.807C482.601 212.103 482.601 212.385 482.601 212.64C482.572 213.381 482.482 214.118 482.332 214.844C482.177 215.555 481.948 216.249 481.647 216.912C481.342 217.553 480.958 218.153 480.505 218.699C480.046 219.233 479.501 219.687 478.893 220.043C478.409 220.361 477.847 220.542 477.268 220.566C477.059 220.571 476.851 220.532 476.657 220.454C476.463 220.375 476.287 220.258 476.139 220.11C475.789 219.734 475.547 219.269 475.441 218.766C475.281 218.147 475.191 217.512 475.172 216.872C475.172 216.63 475.172 216.362 475.172 216.066C475.172 215.77 475.172 215.461 475.172 215.139C475.172 214.817 475.172 214.521 475.172 214.212C475.172 213.903 475.159 213.688 475.172 213.446ZM480.895 210.236C480.925 209.907 480.888 209.576 480.786 209.262C480.685 208.948 480.521 208.657 480.304 208.409C479.955 208.1 479.471 208.113 478.893 208.409C478.266 208.777 477.769 209.331 477.469 209.994C477.088 210.777 476.886 211.635 476.878 212.506C476.878 213.003 476.878 213.554 476.878 214.158C476.878 214.763 476.878 215.3 476.878 215.784C476.848 216.113 476.885 216.444 476.987 216.758C477.088 217.072 477.253 217.362 477.469 217.611C477.819 217.907 478.302 217.88 478.893 217.544C479.51 217.173 480.001 216.625 480.304 215.972C480.685 215.194 480.887 214.34 480.895 213.473C480.895 212.963 480.895 212.412 480.895 211.807C480.895 211.203 480.908 210.719 480.895 210.236Z" fill="#FAFAFA"/>
<path d="M488.459 200.67C489.52 200.066 490.313 199.972 490.863 200.415C491.19 200.775 491.432 201.202 491.574 201.667C491.716 202.131 491.753 202.621 491.683 203.102C491.694 204.015 491.553 204.923 491.266 205.789C490.993 206.596 490.569 207.344 490.017 207.992L491.764 211.794C491.769 211.857 491.769 211.919 491.764 211.982C491.764 212.103 491.737 212.223 491.683 212.331C491.646 212.429 491.58 212.513 491.495 212.573L490.42 213.191C490.245 213.285 490.125 213.299 490.044 213.191C489.973 213.121 489.914 213.039 489.869 212.949L488.217 209.362L486.538 210.33V214.87C486.539 215.019 486.507 215.166 486.444 215.3C486.388 215.417 486.305 215.518 486.202 215.596L485.181 216.187C485.147 216.215 485.104 216.231 485.06 216.231C485.016 216.231 484.973 216.215 484.939 216.187C484.9 216.146 484.871 216.097 484.852 216.044C484.834 215.991 484.827 215.934 484.831 215.878V203.317C484.835 203.168 484.872 203.021 484.939 202.887C484.986 202.766 485.071 202.662 485.181 202.592L488.459 200.67ZM486.564 207.898L488.459 206.877C488.922 206.619 489.317 206.255 489.614 205.816C489.925 205.298 490.075 204.699 490.044 204.096C490.044 203.371 489.896 202.968 489.614 202.887C489.205 202.831 488.791 202.938 488.459 203.183L486.632 204.231L486.564 207.898Z" fill="#FAFAFA"/>
<path d="M497.46 195.498C497.948 195.18 498.506 194.986 499.086 194.934C499.506 194.919 499.916 195.068 500.228 195.351C500.583 195.725 500.83 196.189 500.94 196.694C501.12 197.36 501.219 198.046 501.235 198.736C501.235 199.676 501.235 200.644 501.235 201.624C501.208 202.424 501.109 203.22 500.94 204.002C500.786 204.729 500.552 205.436 500.241 206.111C499.941 206.731 499.562 207.309 499.112 207.831C498.664 208.365 498.128 208.819 497.527 209.174L494.343 210.907C494.31 210.936 494.267 210.951 494.222 210.951C494.178 210.951 494.135 210.936 494.102 210.907C494.062 210.867 494.032 210.818 494.014 210.765C493.995 210.711 493.989 210.655 493.994 210.598V198.037C493.998 197.888 494.035 197.741 494.102 197.607C494.149 197.486 494.234 197.382 494.343 197.312L497.46 195.498ZM499.529 199.676C499.523 199.313 499.469 198.951 499.368 198.602C499.305 198.337 499.17 198.095 498.978 197.903C498.894 197.819 498.793 197.753 498.682 197.709C498.571 197.665 498.453 197.644 498.333 197.648C497.997 197.67 497.672 197.782 497.393 197.97L495.7 198.937V207.697L497.46 206.689C497.8 206.491 498.105 206.236 498.36 205.937C498.61 205.642 498.823 205.317 498.992 204.969C499.159 204.599 499.285 204.212 499.368 203.814C499.461 203.399 499.515 202.976 499.529 202.551C499.569 201.571 499.569 200.617 499.529 199.676Z" fill="#FAFAFA"/>
<path d="M312.981 0.514909C315.3 1.03089 317.534 1.87213 319.618 3.01366C321.613 4.08609 323.401 5.50543 324.897 7.20512C326.33 8.84014 327.393 10.7646 328.014 12.8475C328.648 15.077 328.694 17.4327 328.149 19.6855C327.788 21.4715 327.081 23.1695 326.066 24.683C325.14 25.9772 324.037 27.1349 322.788 28.1221C321.562 29.0739 320.254 29.9147 318.879 30.6343L315.01 32.6897C313.844 33.2976 312.738 34.0127 311.705 34.8258C310.771 35.5426 310.054 36.5055 309.636 37.6066C309.432 38.1097 309.092 38.5466 308.656 38.8694C308.449 39.03 308.208 39.1412 307.952 39.1948C307.696 39.2483 307.431 39.2427 307.178 39.1784L301.482 37.9156C301.207 37.8581 300.947 37.7465 300.717 37.5873C300.486 37.4282 300.289 37.2247 300.138 36.9887C299.977 36.7692 299.871 36.5151 299.826 36.2467C299.782 35.9783 299.801 35.7032 299.883 35.4437C300.342 33.6797 301.15 32.0258 302.261 30.5806C303.274 29.3021 304.448 28.1598 305.754 27.1817C307.026 26.2506 308.374 25.4282 309.784 24.7233C311.127 24.0381 312.471 23.3798 313.64 22.7216C314.727 22.1372 315.749 21.4392 316.689 20.6393C317.514 19.9487 318.086 19.0036 318.315 17.9524C318.528 17.0397 318.518 16.0888 318.284 15.1811C318.05 14.2733 317.6 13.4357 316.971 12.74C315.4 11.0249 313.301 9.88506 311.007 9.50237C306.761 8.56197 303.179 9.99047 300.259 13.7879C299.977 14.2024 299.622 14.562 299.211 14.8492C298.748 15.079 298.212 15.1176 297.72 14.9566L291.661 13.6132C291.229 13.5297 290.848 13.2786 290.6 12.9146C290.468 12.7202 290.379 12.4996 290.34 12.2678C290.3 12.036 290.311 11.7984 290.372 11.5712C290.887 9.70448 291.845 7.98992 293.166 6.57372C294.655 4.93133 296.425 3.5667 298.392 2.54347C300.543 1.41822 302.861 0.647058 305.257 0.259662C307.824 -0.157885 310.447 -0.0711881 312.981 0.514909ZM306.546 43.746C307.079 43.8712 307.542 44.1998 307.836 44.6618C308.13 45.1237 308.231 45.6822 308.118 46.2179L306.667 52.8007C306.618 53.0763 306.511 53.3384 306.354 53.5699C306.197 53.8014 305.992 53.9971 305.754 54.1441C305.529 54.2991 305.274 54.4055 305.006 54.4564C304.737 54.5073 304.461 54.5016 304.195 54.4396L297.693 52.9484C297.417 52.9018 297.154 52.7961 296.922 52.6384C296.69 52.4808 296.495 52.2749 296.35 52.0349C296.199 51.808 296.097 51.5528 296.048 51.2848C296 51.0169 296.006 50.7418 296.068 50.4766L297.532 43.8938C297.657 43.3602 297.985 42.8963 298.447 42.6004C298.908 42.3045 299.467 42.1998 300.004 42.3086L306.546 43.746Z" fill="#407BFF"/>
<path d="M320.156 63.5346C321.773 63.2751 323.419 63.2434 325.046 63.4405C326.599 63.6252 328.109 64.0799 329.506 64.784C330.836 65.4742 332.008 66.4352 332.945 67.6051C333.787 68.7501 334.381 70.059 334.686 71.4474C334.991 72.8358 335.002 74.2727 334.718 75.6656C334.462 76.7365 334.05 77.764 333.496 78.7152C332.961 79.6403 332.34 80.513 331.642 81.3214C330.957 82.1275 330.298 82.8932 329.694 83.6321C329.102 84.3204 328.576 85.0625 328.122 85.8487C327.696 86.5378 327.482 87.3363 327.504 88.146C327.492 88.5244 327.386 88.8938 327.195 89.2207C327.098 89.3713 326.97 89.4996 326.819 89.5968C326.669 89.6941 326.499 89.7582 326.322 89.7849L322.292 90.4298C322.103 90.4639 321.91 90.4602 321.723 90.4186C321.536 90.3771 321.36 90.2987 321.203 90.1879C321.045 90.0882 320.912 89.9521 320.816 89.7909C320.72 89.6297 320.664 89.4481 320.653 89.261C320.484 88.0109 320.575 86.7394 320.921 85.5263C321.237 84.4524 321.689 83.4231 322.265 82.4633C322.83 81.5422 323.477 80.6744 324.199 79.8705C324.911 79.0645 325.543 78.3122 326.161 77.5867C326.712 76.9388 327.19 76.2314 327.585 75.4775C327.934 74.8287 328.062 74.0831 327.947 73.3549C327.846 72.714 327.592 72.107 327.206 71.5854C326.82 71.0639 326.314 70.6432 325.731 70.3591C324.287 69.6615 322.652 69.463 321.083 69.7949C319.662 70.0026 318.34 70.6448 317.299 71.6333C316.257 72.6218 315.547 73.9083 315.266 75.3163C315.187 75.655 315.051 75.9776 314.863 76.2702C314.623 76.5252 314.298 76.683 313.949 76.7135L309.704 77.3986C309.405 77.4557 309.097 77.393 308.844 77.224C308.715 77.1351 308.606 77.0196 308.525 76.8852C308.444 76.7508 308.392 76.6007 308.374 76.4448C308.248 75.1117 308.455 73.7681 308.978 72.5355C309.51 71.1011 310.292 69.7727 311.289 68.6127C312.382 67.3424 313.67 66.2541 315.104 65.3885C316.652 64.4497 318.368 63.8201 320.156 63.5346ZM327.088 92.8882C327.273 92.8589 327.462 92.8663 327.644 92.9101C327.826 92.9539 327.998 93.0332 328.149 93.1435C328.307 93.2475 328.442 93.384 328.544 93.5437C328.646 93.7035 328.712 93.883 328.74 94.0704L329.492 98.6783C329.551 99.0521 329.459 99.4338 329.238 99.7406C329.017 100.047 328.683 100.255 328.31 100.317L323.81 101.056C323.436 101.114 323.055 101.022 322.748 100.801C322.593 100.695 322.461 100.558 322.361 100.399C322.262 100.239 322.197 100.06 322.171 99.874L321.418 95.2661C321.384 95.0811 321.389 94.8911 321.433 94.7083C321.477 94.5255 321.559 94.3539 321.674 94.2048C321.779 94.0489 321.916 93.917 322.076 93.8175C322.235 93.718 322.414 93.6531 322.601 93.6271L327.088 92.8882Z" fill="#407BFF"/>
<g opacity="0.2">
<path d="M320.154 63.5346C321.771 63.2751 323.417 63.2434 325.044 63.4405C326.597 63.6252 328.107 64.0799 329.504 64.784C330.834 65.4742 332.006 66.4352 332.943 67.6051C333.786 68.7501 334.379 70.059 334.684 71.4474C334.99 72.8358 335 74.2727 334.716 75.6656C334.46 76.7365 334.048 77.764 333.494 78.7152C332.959 79.6403 332.339 80.513 331.64 81.3214C330.955 82.1275 330.296 82.8932 329.692 83.6321C329.1 84.3204 328.574 85.0625 328.12 85.8487C327.694 86.5378 327.48 87.3363 327.502 88.146C327.49 88.5244 327.384 88.8938 327.193 89.2207C327.096 89.3713 326.968 89.4996 326.817 89.5968C326.667 89.6941 326.497 89.7582 326.32 89.7849L322.29 90.4298C322.101 90.4639 321.908 90.4602 321.721 90.4186C321.534 90.3771 321.358 90.2987 321.202 90.1879C321.043 90.0882 320.91 89.9521 320.814 89.7909C320.719 89.6297 320.662 89.4481 320.651 89.261C320.482 88.0109 320.573 86.7394 320.919 85.5263C321.235 84.4524 321.687 83.4231 322.263 82.4633C322.828 81.5422 323.475 80.6744 324.197 79.8705C324.909 79.0645 325.541 78.3122 326.159 77.5867C326.71 76.9388 327.188 76.2314 327.583 75.4775C327.932 74.8287 328.06 74.0831 327.945 73.3549C327.844 72.714 327.59 72.107 327.204 71.5854C326.818 71.0639 326.312 70.6432 325.729 70.3591C324.285 69.6615 322.65 69.463 321.081 69.7949C319.66 70.0026 318.338 70.6448 317.297 71.6333C316.255 72.6218 315.545 73.9083 315.264 75.3163C315.185 75.655 315.049 75.9776 314.861 76.2702C314.621 76.5252 314.296 76.683 313.947 76.7135L309.702 77.3986C309.403 77.4557 309.095 77.393 308.842 77.224C308.713 77.1351 308.604 77.0196 308.523 76.8852C308.442 76.7508 308.39 76.6007 308.372 76.4448C308.246 75.1117 308.453 73.7681 308.976 72.5355C309.508 71.1011 310.29 69.7727 311.287 68.6127C312.38 67.3424 313.668 66.2541 315.102 65.3885C316.65 64.4497 318.366 63.8201 320.154 63.5346ZM327.086 92.8882C327.271 92.8589 327.46 92.8663 327.642 92.9101C327.824 92.9539 327.996 93.0332 328.147 93.1435C328.305 93.2475 328.44 93.384 328.542 93.5437C328.644 93.7035 328.71 93.883 328.738 94.0704L329.49 98.6783C329.549 99.0521 329.457 99.4338 329.236 99.7406C329.015 100.047 328.681 100.255 328.308 100.317L323.808 101.056C323.434 101.114 323.053 101.022 322.746 100.801C322.591 100.695 322.459 100.558 322.359 100.399C322.26 100.239 322.195 100.06 322.169 99.874L321.416 95.2661C321.382 95.0811 321.387 94.8911 321.431 94.7083C321.475 94.5255 321.557 94.3539 321.672 94.2048C321.777 94.0489 321.914 93.917 322.074 93.8175C322.234 93.718 322.412 93.6531 322.599 93.6271L327.086 92.8882Z" fill="black"/>
</g>
<path d="M358.148 70.7756C358.331 70.9029 358.486 71.0663 358.604 71.2557C358.722 71.4451 358.8 71.6566 358.833 71.8772C358.876 72.0957 358.873 72.3208 358.824 72.5381C358.775 72.7555 358.682 72.9604 358.551 73.14L355.353 77.6404C355.226 77.8236 355.063 77.9788 354.873 78.0966C354.684 78.2144 354.472 78.2923 354.252 78.3256C354.033 78.3683 353.808 78.3653 353.591 78.3168C353.373 78.2682 353.169 78.1751 352.989 78.0434L348.583 74.9133C348.399 74.7876 348.244 74.6245 348.128 74.4346C348.013 74.2447 347.938 74.0324 347.911 73.8117C347.868 73.5931 347.871 73.3681 347.92 73.1507C347.968 72.9334 348.061 72.7285 348.193 72.5489L351.431 68.0484C351.692 67.6836 352.087 67.4368 352.53 67.3613C352.973 67.2859 353.427 67.3879 353.795 67.6454L358.148 70.7756ZM376.741 40.2934C378.347 41.4194 379.778 42.7777 380.986 44.3237C382.164 45.7618 383.074 47.4 383.673 49.16C384.23 50.8466 384.418 52.6336 384.223 54.3993C383.996 56.2823 383.283 58.0738 382.154 59.5983C381.316 60.831 380.238 61.8819 378.984 62.6882C377.881 63.38 376.681 63.9051 375.424 64.2466C374.2 64.5666 372.95 64.7823 371.689 64.8914L368.116 65.2138C367.044 65.2995 365.983 65.4838 364.945 65.7646C363.988 65.9819 363.112 66.4664 362.42 67.1618C362.107 67.4795 361.711 67.703 361.278 67.8066C361.072 67.8658 360.854 67.8747 360.644 67.8326C360.434 67.7905 360.236 67.6987 360.069 67.5648L356.173 64.7974C355.801 64.5314 355.545 64.1319 355.461 63.6823C355.411 63.4644 355.412 63.2378 355.466 63.0207C355.52 62.8037 355.624 62.6023 355.77 62.4329C356.68 61.252 357.817 60.2654 359.115 59.5312C360.283 58.8932 361.53 58.41 362.823 58.0937C364.071 57.7909 365.343 57.5976 366.625 57.516C367.887 57.4354 369.07 57.3414 370.171 57.2339C371.179 57.1449 372.175 56.9467 373.14 56.6428C373.984 56.3616 374.712 55.809 375.209 55.071C375.658 54.4479 375.95 53.7255 376.06 52.9654C376.17 52.2052 376.095 51.4297 375.84 50.7049C375.205 48.9144 373.99 47.3873 372.388 46.3657C369.486 44.2968 366.32 44.2297 362.89 46.1642C362.545 46.3839 362.162 46.5387 361.761 46.6209C361.553 46.6355 361.343 46.6085 361.145 46.5417C360.947 46.4748 360.763 46.3693 360.606 46.2313L356.468 43.2893C356.319 43.1898 356.19 43.0612 356.091 42.9113C355.992 42.7613 355.924 42.5929 355.891 42.416C355.859 42.2332 355.865 42.0457 355.909 41.8654C355.952 41.685 356.033 41.5157 356.146 41.3682C357.122 40.1173 358.391 39.1255 359.84 38.4798C361.487 37.7339 363.251 37.2793 365.053 37.1364C367.036 36.9707 369.032 37.1295 370.964 37.6066C373.049 38.109 375.013 39.0225 376.741 40.2934Z" fill="#407BFF"/>
<g opacity="0.6">
<path d="M358.148 70.7756C358.331 70.9029 358.486 71.0663 358.604 71.2557C358.722 71.4451 358.8 71.6566 358.833 71.8772C358.876 72.0957 358.873 72.3208 358.824 72.5381C358.775 72.7555 358.682 72.9604 358.551 73.14L355.353 77.6404C355.226 77.8236 355.063 77.9788 354.873 78.0966C354.684 78.2144 354.472 78.2923 354.252 78.3256C354.033 78.3683 353.808 78.3653 353.591 78.3168C353.373 78.2682 353.169 78.1751 352.989 78.0434L348.583 74.9133C348.399 74.7876 348.244 74.6245 348.128 74.4346C348.013 74.2447 347.938 74.0324 347.911 73.8117C347.868 73.5931 347.871 73.3681 347.92 73.1507C347.968 72.9334 348.061 72.7285 348.193 72.5489L351.431 68.0484C351.692 67.6836 352.087 67.4368 352.53 67.3613C352.973 67.2859 353.427 67.3879 353.795 67.6454L358.148 70.7756ZM376.741 40.2934C378.347 41.4194 379.778 42.7777 380.986 44.3237C382.164 45.7618 383.074 47.4 383.673 49.16C384.23 50.8466 384.418 52.6336 384.223 54.3993C383.996 56.2823 383.283 58.0738 382.154 59.5983C381.316 60.831 380.238 61.8819 378.984 62.6882C377.881 63.38 376.681 63.9051 375.424 64.2466C374.2 64.5666 372.95 64.7823 371.689 64.8914L368.116 65.2138C367.044 65.2995 365.983 65.4838 364.945 65.7646C363.988 65.9819 363.112 66.4664 362.42 67.1618C362.107 67.4795 361.711 67.703 361.278 67.8066C361.072 67.8658 360.854 67.8747 360.644 67.8326C360.434 67.7905 360.236 67.6987 360.069 67.5648L356.173 64.7974C355.801 64.5314 355.545 64.1319 355.461 63.6823C355.411 63.4644 355.412 63.2378 355.466 63.0207C355.52 62.8037 355.624 62.6023 355.77 62.4329C356.68 61.252 357.817 60.2654 359.115 59.5312C360.283 58.8932 361.53 58.41 362.823 58.0937C364.071 57.7909 365.343 57.5976 366.625 57.516C367.887 57.4354 369.07 57.3414 370.171 57.2339C371.179 57.1449 372.175 56.9467 373.14 56.6428C373.984 56.3616 374.712 55.809 375.209 55.071C375.658 54.4479 375.95 53.7255 376.06 52.9654C376.17 52.2052 376.095 51.4297 375.84 50.7049C375.205 48.9144 373.99 47.3873 372.388 46.3657C369.486 44.2968 366.32 44.2297 362.89 46.1642C362.545 46.3839 362.162 46.5387 361.761 46.6209C361.553 46.6355 361.343 46.6085 361.145 46.5417C360.947 46.4748 360.763 46.3693 360.606 46.2313L356.468 43.2893C356.319 43.1898 356.19 43.0612 356.091 42.9113C355.992 42.7613 355.924 42.5929 355.891 42.416C355.859 42.2332 355.865 42.0457 355.909 41.8654C355.952 41.685 356.033 41.5157 356.146 41.3682C357.122 40.1173 358.391 39.1255 359.84 38.4798C361.487 37.7339 363.251 37.2793 365.053 37.1364C367.036 36.9707 369.032 37.1295 370.964 37.6066C373.049 38.109 375.013 39.0225 376.741 40.2934Z" fill="white"/>
</g>
<path d="M258.103 189.695H210.371V74.0535C210.371 64.0095 214.361 54.3769 221.463 47.2747C228.566 40.1726 238.198 36.1826 248.243 36.1826H252.649C262.693 36.1826 272.326 40.1726 279.428 47.2747C286.53 54.3769 290.52 64.0095 290.52 74.0535V157.345C290.503 165.931 287.079 174.159 281.002 180.224C274.925 186.289 266.689 189.695 258.103 189.695Z" fill="#263238"/>
<path d="M205.722 468.091C204.877 472.882 204.428 477.735 204.378 482.6C204.203 491.413 202.591 494.543 202.376 501.77C202.121 510.032 203.559 513.122 206.904 517.77C210.249 522.419 218.994 526.624 222.783 518.778C226.571 510.932 226.021 505.787 224.825 497.686C223.602 489.303 223.481 484.669 222.729 478.287C222.111 472.659 221.386 468.373 221.386 468.373L205.722 468.091Z" fill="#263238"/>
<path d="M230.737 409.558L201.719 409.034C202.149 428.406 205.225 449.914 205.749 468.145C205.856 471.57 205.668 494.731 206.958 501.73C208.906 512.316 221.454 510.879 222.125 504.551C222.797 498.224 221.319 471.181 221.359 468.386C221.239 456.726 226.733 437.045 229.568 416.114C229.689 415.107 230.602 410.566 230.737 409.558Z" fill="#FFA8A7"/>
<path d="M268.018 453.018C268.018 453.018 266.876 452.4 266.675 453.622C266.393 455.073 265.963 458.069 265.331 460.46C264.499 463.779 263.8 469.246 264.297 471.96C264.794 474.674 271.108 478.14 275.206 479.402C280.255 480.961 284.861 483.701 288.64 487.396C292.67 491.211 301.442 494.811 307.448 494.771C314.5 494.771 319.417 492.42 321.741 488.645C324.066 484.87 319.619 484.413 311.558 479.241L305.311 475.211C292.536 466.868 287.847 462.408 284.26 454.066L268.018 453.018Z" fill="#263238"/>
<path d="M284.367 447.846C284.152 441.854 288.29 390.925 288.29 390.925L260.736 403.486C266.634 438.71 267.897 447.026 267.991 452.789C267.87 453.272 267.82 453.77 267.843 454.267C267.843 461.105 275.595 464.8 281.613 469.367C286.729 473.375 292.181 476.935 297.909 480.007C302.288 482.197 311.182 482.398 312.283 479.591C304.948 473.988 294.281 465.606 288.451 459.211C285.603 456.202 284.582 453.851 284.367 447.846Z" fill="#FFA8A7"/>
<path d="M213.608 220.526C203.021 243.754 203.021 261.729 204.781 291.378C206.34 318.582 208.932 342.562 208.932 342.562C208.529 347.385 201.826 356.802 200.952 378.136C200.146 398.072 202.296 423.422 202.296 423.422C202.296 423.422 217.356 431.765 228.493 423.342C228.493 423.342 239.24 372.037 242.384 347.076C245.071 325.299 249.907 297.477 249.907 297.477L260.077 346.928C257.882 353.944 256.291 361.136 255.321 368.423C253.897 383.106 262.119 411.936 262.119 411.936C262.119 411.936 277.676 416.571 287.174 408.148C287.174 408.148 290.721 361.276 292.051 343.597C293.824 319.912 290.089 255.804 287.174 221.856L213.608 220.526Z" fill="#455A64"/>
<path d="M249.936 297.437L254.114 260.17C254.114 260.17 272.841 257.672 281.331 249.692C278.901 253.494 275.664 256.714 271.849 259.124C268.034 261.534 263.736 263.075 259.259 263.636L253.213 298.31L260.078 346.928L249.936 297.437Z" fill="#263238"/>
<path d="M325.772 211.364C326.545 204.564 326.886 197.721 326.793 190.877C326.376 184.966 325.315 183.999 317.053 173.533C305.903 159.387 296.378 146.665 286.302 134.024C279.101 124.996 271.524 123.612 264.163 124.015C259.004 124.297 269.079 149.11 274.144 163.794L303.068 194.934C303.964 196.163 304.375 197.679 304.223 199.193L302.477 225.685L311.142 237.292C311.142 237.292 324.267 225.98 325.772 211.364Z" fill="#FFA8A7"/>
<path d="M236.271 124.821C230.669 125.211 220.485 126.165 220.485 126.165C214.615 129.443 213.123 132.143 212.035 139.935C211.565 143.266 214.279 152.119 216.603 164.707L221.009 188.042L220.526 199.623C218.242 206.689 213.07 215.461 208.502 228.399C230.937 240.919 249.745 241.389 266.807 239.146C279.812 237.467 286.703 234.323 289.001 231.206C288.517 218.43 287.657 210.531 287.388 197.178C287.294 191.576 287.63 185.906 287.859 179.458C296.578 172.284 296.685 160.355 291.889 152.59C280.833 134.682 270.072 123.411 262.951 123.988L236.271 124.821Z" fill="#407BFF"/>
<path opacity="0.6" d="M236.271 124.821C230.669 125.211 220.485 126.165 220.485 126.165C214.615 129.443 213.123 132.143 212.035 139.935C211.565 143.266 214.279 152.119 216.603 164.707L221.009 188.042L220.526 199.623C218.242 206.689 213.07 215.461 208.502 228.399C230.937 240.919 249.745 241.389 266.807 239.146C279.812 237.467 286.703 234.323 289.001 231.206C288.517 218.43 287.657 210.531 287.388 197.178C287.294 191.576 287.63 185.906 287.859 179.458C296.578 172.284 296.685 160.355 291.889 152.59C280.833 134.682 270.072 123.411 262.951 123.988L236.271 124.821Z" fill="white"/>
<path opacity="0.1" d="M270.491 179.633C270.491 179.633 260.255 187.586 248.553 183.434C245.268 182.399 242.305 180.533 239.951 178.017C237.598 175.501 235.933 172.421 235.119 169.073C235.119 169.073 233.883 182.44 248.621 186.994C262.901 191.387 270.491 179.633 270.491 179.633Z" fill="black"/>
<path d="M284.381 88.1325C283.938 107.531 277.664 112.314 274.493 113.657C271.323 115.001 265.251 114.195 259.34 113.214V124.929C259.34 124.929 266.164 132.076 265.654 137.409C265.143 142.742 254.906 143.347 247.276 138.121C243.065 135.229 239.257 131.791 235.951 127.898C235.316 127.146 234.968 126.194 234.97 125.211V97.8051C234.97 97.8051 231.732 101.231 226.01 97.308C224.775 96.52 223.717 95.4836 222.905 94.2648C222.092 93.046 221.542 91.6714 221.289 90.2285C221.036 88.7856 221.087 87.3059 221.437 85.8835C221.787 84.4611 222.429 83.127 223.323 81.9662C225.821 79.0241 232.162 78.8226 235.198 83.3096C236.918 86.6547 237.146 90.0267 239.068 88.6833C244.172 85.0023 241.432 76.5926 247.598 72.5623C249.622 71.5062 251.724 70.6079 253.885 69.8755C264.888 66.0736 274.426 62.8763 276.723 55.3531C281.049 57.825 284.918 65.2541 284.381 88.1325Z" fill="#FFA8A7"/>
<path d="M262.683 105.463C264.093 105.463 265.236 104.32 265.236 102.91C265.236 101.5 264.093 100.358 262.683 100.358C261.274 100.358 260.131 101.5 260.131 102.91C260.131 104.32 261.274 105.463 262.683 105.463Z" fill="#B16668"/>
<path d="M260.991 85.1904C260.99 85.716 260.835 86.2298 260.546 86.6682C260.256 87.1067 259.844 87.4506 259.361 87.6573C258.878 87.864 258.345 87.9245 257.827 87.8313C257.31 87.738 256.832 87.4951 256.451 87.1327C256.07 86.7703 255.805 86.3042 255.686 85.7921C255.568 85.2801 255.602 84.7446 255.785 84.2519C255.968 83.7592 256.292 83.331 256.715 83.0203C257.139 82.7095 257.645 82.5299 258.17 82.5036C258.534 82.4854 258.898 82.5414 259.239 82.6682C259.581 82.7951 259.893 82.9901 260.157 83.2414C260.421 83.4928 260.631 83.7952 260.774 84.1302C260.918 84.4653 260.991 84.826 260.991 85.1904Z" fill="#263238"/>
<path d="M281.343 85.4591C281.371 85.7878 281.332 86.1187 281.231 86.4325C281.129 86.7462 280.966 87.0366 280.751 87.2867C280.536 87.5368 280.273 87.7416 279.978 87.8891C279.683 88.0366 279.361 88.1239 279.032 88.146C278.7 88.1766 278.366 88.1363 278.05 88.0277C277.735 87.919 277.446 87.7446 277.204 87.5159C276.961 87.2872 276.77 87.0095 276.643 86.7012C276.516 86.3929 276.455 86.0611 276.466 85.7278C276.432 85.3967 276.465 85.062 276.564 84.7442C276.664 84.4264 276.827 84.1323 277.044 83.8797C277.261 83.6272 277.527 83.4217 277.826 83.2757C278.125 83.1298 278.451 83.0464 278.784 83.0308C279.116 83.0153 279.449 83.0678 279.76 83.1851C280.072 83.3025 280.356 83.4823 280.596 83.7134C280.835 83.9445 281.025 84.2222 281.154 84.5293C281.282 84.8364 281.347 85.1665 281.343 85.4994V85.4591Z" fill="#263238"/>
<path d="M257.541 92.0956C255.223 92.0956 253.001 91.176 251.361 89.5388C249.721 87.9016 248.798 85.6805 248.795 83.3634C248.795 77.4255 254.921 77.4255 257.541 77.4255C260.16 77.4255 266.273 77.4255 266.273 83.3634C266.269 85.6782 265.348 87.8972 263.711 89.5341C262.074 91.1709 259.855 92.092 257.541 92.0956ZM257.541 78.7958C252.167 78.7958 250.179 80.1392 250.179 83.3634C250.179 85.323 250.957 87.2024 252.343 88.588C253.728 89.9737 255.608 90.7522 257.567 90.7522C259.527 90.7522 261.406 89.9737 262.792 88.588C264.178 87.2024 264.956 85.323 264.956 83.3634C264.902 80.072 262.834 78.7958 257.541 78.7958Z" fill="#455A64"/>
<path d="M279.718 92.0956C277.401 92.0956 275.179 91.176 273.539 89.5388C271.899 87.9016 270.976 85.6805 270.973 83.3634C270.973 77.4255 277.099 77.4255 279.718 77.4255C282.338 77.4255 288.45 77.4255 288.45 83.3634C288.447 85.6782 287.526 87.8972 285.889 89.5341C284.252 91.1709 282.033 92.092 279.718 92.0956ZM279.718 78.7958C274.425 78.7958 272.356 80.1392 272.356 83.3634C272.356 85.323 273.135 87.2024 274.521 88.588C275.906 89.9737 277.786 90.7522 279.745 90.7522C281.705 90.7522 283.584 89.9737 284.97 88.588C286.355 87.2024 287.134 85.323 287.134 83.3634C287.08 80.072 285.011 78.7958 279.718 78.7958Z" fill="#455A64"/>
<path d="M267.629 80.5422L268.059 96.8647L276.643 94.2047L267.629 80.5422Z" fill="#F28F8F"/>
<path d="M259.326 113.254C253.093 112.435 240.263 108.754 238.262 103.676C239.067 106.242 240.638 108.501 242.762 110.151C246.591 113.442 259.326 117.137 259.326 117.137V113.254Z" fill="#F28F8F"/>
<path d="M259.634 72.616L253.938 76.0955C253.489 75.3135 253.359 74.3887 253.574 73.5131C253.789 72.6375 254.333 71.8784 255.093 71.3935C255.469 71.1655 255.887 71.016 256.323 70.9542C256.758 70.8923 257.201 70.9193 257.625 71.0336C258.05 71.1478 258.447 71.347 258.792 71.619C259.137 71.891 259.424 72.2302 259.634 72.616Z" fill="#263238"/>
<path d="M282.81 76.4851L276.469 74.2685C276.591 73.8482 276.799 73.4575 277.078 73.1204C277.357 72.7832 277.703 72.5068 278.093 72.308C278.483 72.1092 278.909 71.9922 279.346 71.9644C279.783 71.9365 280.221 71.9982 280.633 72.1459C281.484 72.4515 282.184 73.0725 282.589 73.8803C282.994 74.688 283.073 75.6207 282.81 76.4851Z" fill="#263238"/>
<path d="M265.586 84.062C265.495 84.062 265.404 84.0438 265.32 84.0085C265.236 83.9733 265.16 83.9216 265.096 83.8566C265.033 83.7915 264.982 83.7144 264.949 83.6297C264.915 83.545 264.899 83.4545 264.901 83.3634C264.901 82.2483 267.104 81.5229 269.092 81.5229C271.08 81.5229 272.356 82.2483 272.356 83.3634C272.315 83.5094 272.227 83.6378 272.105 83.7292C271.984 83.8206 271.837 83.8701 271.685 83.8701C271.533 83.8701 271.385 83.8206 271.264 83.7292C271.143 83.6378 271.055 83.5094 271.013 83.3634C271.013 83.229 270.328 82.8932 269.132 82.8932C268.17 82.8727 267.212 83.0369 266.311 83.3768C266.311 83.4703 266.292 83.5628 266.255 83.6487C266.218 83.7345 266.164 83.8119 266.096 83.8761C266.028 83.9403 265.948 83.9899 265.86 84.0218C265.772 84.0538 265.679 84.0675 265.586 84.062Z" fill="#455A64"/>
<path d="M249.505 83.4708H249.424L234.069 82.1274C233.351 81.4163 232.497 80.8586 231.557 80.4885L249.585 82.1543C249.766 82.1778 249.93 82.2711 250.043 82.4142C250.156 82.5572 250.209 82.7388 250.19 82.9201C250.158 83.0776 250.072 83.2191 249.947 83.3198C249.822 83.4205 249.665 83.474 249.505 83.4708Z" fill="#455A64"/>
<path d="M186.458 99.4844C191.482 92.7673 194.908 87.7026 199.489 82.02C202.095 78.7555 203.761 76.4179 206.206 73.0728C207.926 70.7621 208.893 68.8142 210.854 68.1022C212.973 67.2339 214.883 65.9241 216.456 64.26C217.423 63.1901 218.321 62.0593 219.143 60.8746C222.023 56.9989 225.443 53.5561 229.3 50.6512C233.33 47.6151 237.83 45.2775 241.982 42.3892C244.454 40.6562 247.1 37.7813 244.091 35.0944C243.168 34.3172 242.063 33.7857 240.88 33.5495C233.558 31.9643 227.19 34.4765 220.03 36.3035C216.92 37.0798 213.878 38.1087 210.935 39.3799C209.487 39.9524 208.13 40.7306 206.905 41.6906C205.191 43.4179 203.787 45.4264 202.753 47.6285C199.623 53.2171 192.906 58.2146 188.204 62.6345C182.709 67.8066 177.792 72.5489 171.519 78.245C165.876 83.3903 160.355 88.1191 155.182 93.7346C150.897 98.3693 152.495 101.997 153.06 103.259C156.553 110.433 160.462 113.013 165.151 117.459C173.211 125.157 201.088 147.31 210.317 154.632C212.3 156.189 213.857 158.222 214.844 160.543L216.618 164.64C227.15 166.575 234.176 150.763 225.457 131.726C224.014 128.648 221.808 125.989 219.049 124.002C208.033 115.982 186.458 99.4844 186.458 99.4844Z" fill="#FFA8A7"/>
<path d="M186.456 99.4844C183.103 103.608 178.636 106.681 173.586 108.337C173.586 108.337 180.303 110.057 189.505 101.795L186.456 99.4844Z" fill="#F28F8F"/>
<path d="M323.031 197.352L321.311 195.874C321.054 195.705 320.761 195.599 320.455 195.564C320.15 195.529 319.84 195.566 319.551 195.673L300.891 200.751C299.951 201.064 299.09 201.577 298.367 202.254C297.643 202.931 297.075 203.757 296.7 204.674L283.266 243.405C283.104 243.72 283.04 244.077 283.083 244.429C283.127 244.781 283.274 245.112 283.507 245.379L285.281 246.911C285.539 247.089 285.836 247.201 286.148 247.239C286.459 247.276 286.775 247.237 287.067 247.126L305.754 242.048C306.694 241.734 307.556 241.222 308.279 240.545C309.002 239.867 309.571 239.042 309.946 238.125C312.633 230.508 320.693 207.011 323.38 199.394C323.702 198.44 323.541 197.715 323.031 197.352Z" fill="#455A64"/>
<path d="M285.025 244.896L298.459 206.165C298.833 205.248 299.401 204.424 300.125 203.749C300.849 203.074 301.711 202.564 302.651 202.256L321.298 197.178C323.031 196.707 323.984 197.702 323.366 199.394C320.68 207.011 312.619 230.508 309.932 238.125C309.557 239.042 308.989 239.867 308.265 240.544C307.542 241.222 306.681 241.734 305.741 242.048L287.094 247.18C285.375 247.583 284.448 246.588 285.025 244.896Z" fill="#407BFF"/>
<path d="M300.621 203.33C299.651 204.065 298.899 205.05 298.445 206.178L285.011 244.896C284.857 245.203 284.793 245.548 284.826 245.89C284.86 246.232 284.989 246.558 285.199 246.83L283.533 245.406C283.294 245.142 283.142 244.812 283.096 244.459C283.051 244.106 283.114 243.747 283.278 243.431L296.712 204.701C297.137 203.648 297.826 202.722 298.714 202.014L300.621 203.33Z" fill="#37474F"/>
<path d="M317.911 215.005C316.568 218.941 311.906 221.574 304.195 223.401C296.484 225.228 292.225 233.41 293.448 235.895C294.67 238.38 307.137 240.704 312.121 239.992C317.105 239.28 322.103 232.08 323.621 229.849C325.139 227.619 326.885 212.063 325.287 209.927C323.688 207.791 320.316 208.126 320.316 208.126L317.911 215.005Z" fill="#F28F8F"/>
</svg>
