<svg width="100" height="85" viewBox="0 0 630 533" fill="none" xmlns="http://www.w3.org/2000/svg">
    <g clip-path="url(#clip0_1346_4090)">
        <path d="M114.865 63.247C113.681 63.3868 112.541 63.8029 111.523 64.4659C110.506 65.129 109.637 66.0227 108.977 67.0844C108.317 68.146 107.883 69.3496 107.704 70.6105C107.526 71.8713 107.608 73.1587 107.944 74.382L84.3916 92.4045L98.4309 98.1899L118.645 80.1884C120.526 79.4469 122.089 77.992 123.035 76.0995C123.982 74.2069 124.248 72.0082 123.782 69.92C123.316 67.8317 122.151 65.999 120.508 64.7691C118.864 63.5393 116.856 62.9977 114.865 63.247L114.865 63.247Z" fill="#FFB8B8"/>
        <path d="M112.675 90.3936L83.4603 121.871C79.4565 126.157 74.177 128.806 68.539 129.357L32.4389 132.884C31.1154 133.019 29.7801 132.869 28.5118 132.442C27.2435 132.015 26.068 131.321 25.0546 130.399C23.6527 129.143 22.6103 127.488 22.047 125.626C21.4837 123.764 21.4225 121.769 21.8703 119.871C22.3181 117.973 23.2568 116.249 24.5786 114.896C25.9004 113.544 27.5516 112.618 29.3426 112.226L66.2229 103.817L99.7997 77.313C100.266 77.0317 100.794 76.886 101.329 76.8902C101.865 76.8945 102.39 77.0487 102.853 77.3374L111.984 85.3472C112.534 85.6696 112.975 86.1681 113.246 86.7727C113.518 87.3774 113.605 88.0578 113.497 88.7185C113.391 89.3542 113.104 89.9391 112.675 90.3936Z" fill="#2F2E41"/>
        <path d="M462.944 107.31C463.161 105.161 462.756 102.993 461.782 101.1C460.808 99.2063 459.314 97.6799 457.502 96.7279L275.685 1.57016C274.529 0.964433 273.273 0.608497 271.988 0.522682C270.703 0.436868 269.415 0.622847 268.198 1.07001C266.98 1.51717 265.857 2.21675 264.892 3.12881C263.927 4.04086 263.139 5.14753 262.573 6.38563L262.57 6.39294L194.377 155.799C193.239 158.301 193.074 161.185 193.918 163.817C194.762 166.45 196.547 168.617 198.881 169.843L380.697 265C383.034 266.219 385.727 266.396 388.186 265.492C390.644 264.588 392.668 262.677 393.813 260.178L462.006 110.772C462.504 109.685 462.821 108.514 462.944 107.31Z" fill="#F2F2F2"/>
        <path d="M356.429 438.917H120.512C117.542 438.913 114.695 437.648 112.594 435.399C110.494 433.15 109.313 430.101 109.31 426.921V83.9709C109.313 80.7904 110.494 77.7412 112.594 75.4923C114.695 73.2433 117.542 71.9783 120.512 71.9747H356.429C359.399 71.9783 362.246 73.2433 364.347 75.4923C366.447 77.7412 367.628 80.7904 367.631 83.9709V426.921C367.628 430.101 366.447 433.15 364.347 435.399C362.246 437.648 359.399 438.913 356.429 438.917Z" fill="white"/>
        <path d="M183.086 174.239C191.586 174.239 198.478 166.86 198.478 157.757C198.478 148.655 191.586 141.276 183.086 141.276C174.585 141.276 167.694 148.655 167.694 157.757C167.694 166.86 174.585 174.239 183.086 174.239Z" fill="#E6E6E6"/>
        <path d="M159.627 202.804C161.802 204.128 164.078 205.251 166.431 206.162L166.847 206.316C171.586 208.097 176.573 209.004 181.595 208.998C182.606 208.998 183.579 208.961 184.489 208.887C186.702 208.742 188.902 208.417 191.069 207.915C192.259 207.637 193.444 207.304 194.592 206.927C194.869 206.839 195.126 206.753 195.407 206.659C200.083 205.036 204.476 202.598 208.411 199.443C208.095 198.804 207.749 198.182 207.375 197.579C205.352 194.269 202.59 191.552 199.339 189.673C196.088 187.794 192.451 186.812 188.756 186.817H180.656C176.383 186.818 172.2 188.134 168.606 190.608C165.012 193.083 162.157 196.611 160.383 200.773C160.099 201.436 159.847 202.114 159.627 202.804Z" fill="#E6E6E6"/>
        <path d="M188.309 207.505C187.792 207.546 187.295 207.733 186.867 208.047C189.039 207.902 191.198 207.581 193.324 207.087L188.309 207.505Z" fill="#2F2E41"/>
        <path d="M184.019 113.031C174.106 113.032 164.471 116.538 156.608 123.003C148.746 129.468 143.097 138.532 140.537 148.787C137.978 159.042 138.651 169.915 142.453 179.719C146.255 189.522 152.973 197.707 161.563 203.004C163.844 204.418 166.238 205.611 168.717 206.569L169.138 206.726C173.919 208.523 178.951 209.438 184.019 209.432C184.999 209.432 185.979 209.397 186.943 209.319C189.175 209.172 191.393 208.845 193.578 208.339C194.801 208.053 196 207.714 197.134 207.341C197.41 207.255 197.669 207.168 197.952 207.073C208.141 203.519 216.811 196.19 222.405 186.404C228 176.618 230.15 165.016 228.471 153.683C226.792 142.351 221.394 132.032 213.246 124.58C205.097 117.129 194.734 113.034 184.019 113.031L184.019 113.031ZM210.136 197.34C206.253 200.548 201.882 203.016 197.215 204.635C196.964 204.722 196.705 204.808 196.446 204.895C195.368 205.251 194.234 205.563 193.068 205.832C191 206.315 188.902 206.628 186.79 206.769C185.874 206.838 184.942 206.873 184.019 206.873C179.222 206.876 174.459 206.011 169.932 204.314L169.535 204.166C167.069 203.218 164.693 202.021 162.438 200.593C154.585 195.642 148.422 188.124 144.854 179.144C141.287 170.165 140.503 160.196 142.618 150.704C144.734 141.212 149.636 132.697 156.606 126.41C163.575 120.122 172.245 116.395 181.339 115.775C190.434 115.154 199.475 117.674 207.133 122.964C214.791 128.253 220.663 136.034 223.886 145.162C227.108 154.29 227.512 164.284 225.037 173.676C222.562 183.068 217.339 191.362 210.136 197.34V197.34Z" fill="#CCCCCC"/>
        <path d="M356.429 438.917H120.512C117.542 438.913 114.695 437.648 112.594 435.399C110.494 433.15 109.313 430.101 109.31 426.921V83.9709C109.313 80.7904 110.494 77.7412 112.594 75.4923C114.695 73.2433 117.542 71.9783 120.512 71.9747H356.429C359.399 71.9783 362.246 73.2433 364.347 75.4923C366.447 77.7412 367.628 80.7904 367.631 83.9709V426.921C367.628 430.101 366.447 433.15 364.347 435.399C362.246 437.648 359.399 438.913 356.429 438.917ZM120.512 73.386C117.892 73.3892 115.379 74.5054 113.526 76.4898C111.673 78.4742 110.631 81.1646 110.628 83.9709V426.921C110.631 429.727 111.673 432.417 113.526 434.402C115.379 436.386 117.892 437.502 120.512 437.505H356.429C359.049 437.502 361.562 436.386 363.415 434.402C365.268 432.417 366.311 429.727 366.314 426.921V83.9709C366.311 81.1646 365.268 78.4742 363.415 76.4898C361.562 74.5054 359.049 73.3892 356.429 73.386L120.512 73.386Z" fill="#CCCCCC"/>
        <path d="M310.758 161.046H244.002C242.601 161.046 241.258 160.45 240.268 159.389C239.277 158.329 238.721 156.89 238.721 155.39C238.721 153.891 239.277 152.452 240.268 151.392C241.258 150.331 242.601 149.735 244.002 149.735H310.758C312.159 149.735 313.502 150.331 314.492 151.392C315.483 152.452 316.039 153.891 316.039 155.39C316.039 156.89 315.483 158.329 314.492 159.389C313.502 160.45 312.159 161.046 310.758 161.046Z" fill="#E6E6E6"/>
        <path d="M332.543 180.132H244.002C242.601 180.132 241.258 179.536 240.268 178.476C239.277 177.415 238.721 175.977 238.721 174.477C238.721 172.977 239.277 171.538 240.268 170.478C241.258 169.417 242.601 168.822 244.002 168.822H332.543C333.944 168.822 335.287 169.417 336.277 170.478C337.268 171.538 337.824 172.977 337.824 174.477C337.824 175.977 337.268 177.415 336.277 178.476C335.287 179.536 333.944 180.132 332.543 180.132Z" fill="#E6E6E6"/>
        <path d="M310.661 253.336H144.398C142.998 253.336 141.654 252.74 140.664 251.68C139.674 250.619 139.117 249.181 139.117 247.681C139.117 246.181 139.674 244.743 140.664 243.682C141.654 242.622 142.998 242.026 144.398 242.026H310.661C312.062 242.026 313.405 242.622 314.396 243.682C315.386 244.743 315.942 246.181 315.942 247.681C315.942 249.181 315.386 250.619 314.396 251.68C313.405 252.74 312.062 253.336 310.661 253.336Z" fill="#E6E6E6"/>
        <path d="M332.446 272.422H144.398C142.998 272.422 141.654 271.827 140.664 270.766C139.674 269.706 139.117 268.267 139.117 266.767C139.117 265.267 139.674 263.829 140.664 262.768C141.654 261.708 142.998 261.112 144.398 261.112H332.446C333.847 261.112 335.19 261.708 336.18 262.768C337.171 263.829 337.727 265.267 337.727 266.767C337.727 268.267 337.171 269.706 336.18 270.766C335.19 271.827 333.847 272.422 332.446 272.422Z" fill="#E6E6E6"/>
        <path d="M310.661 316.29H144.398C142.998 316.29 141.654 315.695 140.664 314.634C139.674 313.573 139.117 312.135 139.117 310.635C139.117 309.135 139.674 307.697 140.664 306.636C141.654 305.576 142.998 304.98 144.398 304.98H310.661C312.062 304.98 313.405 305.576 314.396 306.636C315.386 307.697 315.942 309.135 315.942 310.635C315.942 312.135 315.386 313.573 314.396 314.634C313.405 315.695 312.062 316.29 310.661 316.29Z" fill="#E6E6E6"/>
        <path d="M332.446 335.377H144.398C142.998 335.377 141.654 334.781 140.664 333.72C139.674 332.66 139.117 331.221 139.117 329.722C139.117 328.222 139.674 326.783 140.664 325.723C141.654 324.662 142.998 324.066 144.398 324.066H332.446C333.847 324.066 335.19 324.662 336.18 325.723C337.171 326.783 337.727 328.222 337.727 329.722C337.727 331.221 337.171 332.66 336.18 333.72C335.19 334.781 333.847 335.377 332.446 335.377Z" fill="#E6E6E6"/>
        <path d="M310.661 379.245H144.398C142.998 379.245 141.654 378.649 140.664 377.588C139.674 376.528 139.117 375.089 139.117 373.589C139.117 372.089 139.674 370.651 140.664 369.59C141.654 368.53 142.998 367.934 144.398 367.934H310.661C312.062 367.934 313.405 368.53 314.396 369.59C315.386 370.651 315.942 372.089 315.942 373.589C315.942 375.089 315.386 376.528 314.396 377.588C313.405 378.649 312.062 379.245 310.661 379.245Z" fill="#E6E6E6"/>
        <path d="M332.446 398.331H144.398C142.998 398.331 141.654 397.735 140.664 396.675C139.674 395.614 139.117 394.176 139.117 392.676C139.117 391.176 139.674 389.737 140.664 388.677C141.654 387.616 142.998 387.021 144.398 387.021H332.446C333.846 387.022 335.187 387.619 336.176 388.679C337.165 389.74 337.721 391.177 337.721 392.676C337.721 394.174 337.165 395.612 336.176 396.672C335.187 397.732 333.846 398.329 332.446 398.331Z" fill="#E6E6E6"/>
        <path d="M454.843 205.333C455.061 203.184 454.655 201.016 453.681 199.123C452.708 197.229 451.213 195.703 449.401 194.751L267.585 99.5931C266.428 98.9874 265.172 98.6314 263.887 98.5456C262.603 98.4598 261.315 98.6458 260.097 99.093C258.88 99.5401 257.756 100.24 256.791 101.152C255.826 102.064 255.038 103.17 254.473 104.409L254.469 104.416L186.276 253.822C185.138 256.324 184.973 259.208 185.817 261.84C186.662 264.473 188.446 266.64 190.78 267.866L372.597 363.023C374.934 364.242 377.627 364.419 380.085 363.515C382.544 362.611 384.567 360.7 385.712 358.201L453.905 208.795C454.403 207.708 454.721 206.537 454.843 205.333Z" fill="white"/>
        <path d="M454.843 205.333C455.061 203.184 454.655 201.016 453.681 199.123C452.708 197.229 451.213 195.703 449.401 194.751L267.585 99.5931C266.428 98.9874 265.172 98.6314 263.887 98.5456C262.603 98.4598 261.315 98.6458 260.097 99.093C258.88 99.5401 257.756 100.24 256.791 101.152C255.826 102.064 255.038 103.17 254.473 104.409L254.469 104.416L186.276 253.822C185.138 256.324 184.973 259.208 185.817 261.84C186.662 264.473 188.446 266.64 190.78 267.866L372.597 363.023C374.934 364.242 377.627 364.419 380.085 363.515C382.544 362.611 384.567 360.7 385.712 358.201L453.905 208.795C454.403 207.708 454.721 206.537 454.843 205.333ZM384.676 357.658C383.666 359.864 381.881 361.55 379.711 362.348C377.542 363.146 375.165 362.989 373.103 361.914L191.287 266.756C189.227 265.675 187.652 263.763 186.907 261.44C186.162 259.117 186.308 256.572 187.313 254.364L255.506 104.958C256.516 102.753 258.301 101.066 260.47 100.269C262.64 99.4709 265.016 99.6271 267.078 100.703L448.895 195.861C450.954 196.942 452.529 198.854 453.274 201.177C454.019 203.5 453.873 206.044 452.869 208.253L384.676 357.658Z" fill="#3F3D56"/>
        <path d="M435.012 212.126L387.395 316.452C387.077 317.148 386.514 317.681 385.83 317.933C385.145 318.185 384.396 318.136 383.745 317.796H383.745L218.358 231.237C218.24 231.176 218.127 231.105 218.02 231.023C217.478 230.628 217.087 230.037 216.918 229.358C216.75 228.679 216.816 227.958 217.104 227.326L264.721 123.001C264.879 122.656 265.098 122.348 265.366 122.094C265.635 121.839 265.947 121.644 266.286 121.52C266.625 121.395 266.984 121.343 267.342 121.367C267.699 121.39 268.049 121.489 268.371 121.657L433.758 208.216C434.408 208.556 434.906 209.159 435.141 209.892C435.377 210.625 435.33 211.428 435.013 212.125V212.125L435.012 212.126Z" fill="#E6E6E6"/>
        <path d="M289.815 206.828C303.043 206.828 313.766 195.345 313.766 181.18C313.766 167.015 303.043 155.532 289.815 155.532C276.587 155.532 265.863 167.015 265.863 181.18C265.863 195.345 276.587 206.828 289.815 206.828Z" fill="#0912F1"/>
        <path d="M324.884 287.507L219.32 232.258C219.187 232.191 219.06 232.11 218.94 232.018L311.136 165.542C311.704 165.125 312.365 164.877 313.052 164.822C313.739 164.768 314.427 164.911 315.046 165.234C315.664 165.558 316.192 166.052 316.574 166.666C316.956 167.279 317.18 167.991 317.221 168.727L322.363 248.41L322.611 252.224L324.884 287.507Z" fill="#3F3D56"/>
        <path opacity="0.2" d="M324.884 287.508L288.842 268.644L319.096 250.384L321.274 249.069L322.363 248.41L322.611 252.224L324.884 287.508Z" fill="black"/>
        <path d="M383.662 318.27L292.357 270.484L322.611 252.224L324.79 250.908L364.215 227.11C366.799 225.551 370.502 227.308 371.342 230.291C371.397 230.494 371.441 230.7 371.471 230.908L383.662 318.27Z" fill="#3F3D56"/>
        <path d="M101.944 327.376L111.875 327.375L116.6 286.355L101.941 286.356L101.944 327.376Z" fill="#FFB8B8"/>
        <path d="M99.4102 323.904L118.969 323.903H118.969C120.606 323.903 122.227 324.248 123.739 324.919C125.252 325.59 126.626 326.573 127.783 327.812C128.941 329.052 129.859 330.523 130.485 332.142C131.111 333.762 131.434 335.497 131.434 337.25V337.684L99.4108 337.685L99.4102 323.904Z" fill="#2F2E41"/>
        <path d="M24.749 320.605L35.0387 322.759L47.6987 281.286L32.5129 278.105L24.749 320.605Z" fill="#FFB8B8"/>
        <path d="M22.7819 316.457L43.0457 320.702L43.0465 320.702C44.7423 321.057 46.3563 321.767 47.7961 322.79C49.2358 323.813 50.4734 325.13 51.4379 326.665C52.4024 328.201 53.0751 329.924 53.4175 331.738C53.76 333.552 53.7654 335.42 53.4336 337.236L53.3515 337.685L20.1738 330.735L22.7819 316.457Z" fill="#2F2E41"/>
        <path d="M116.393 185.875C116.057 184.652 115.474 183.522 114.686 182.566C113.898 181.61 112.924 180.85 111.832 180.341C110.741 179.832 109.558 179.585 108.367 179.618C107.177 179.651 106.008 179.963 104.942 180.532L84.241 158.864L81.3848 174.679L101.481 192.832C102.493 194.685 104.104 196.077 106.01 196.743C107.916 197.409 109.984 197.304 111.823 196.446C113.661 195.589 115.141 194.039 115.984 192.091C116.826 190.142 116.972 187.931 116.393 185.875Z" fill="#FFB8B8"/>
        <path d="M39.5899 74.3441C50.5784 74.3441 59.4864 64.8052 59.4864 53.0384C59.4864 41.2715 50.5784 31.7327 39.5899 31.7327C28.6013 31.7327 19.6934 41.2715 19.6934 53.0384C19.6934 64.8052 28.6013 74.3441 39.5899 74.3441Z" fill="#FFB8B8"/>
        <path d="M35.4113 74.6702C36.4685 75.1655 38.6333 66.1454 37.6636 64.3413C36.2214 61.6583 36.3067 61.6776 35.3493 59.9025C34.392 58.1274 34.1777 55.6978 35.4175 54.136C36.6573 52.5741 39.5262 52.7813 40.092 54.7396C39.728 51.0201 43.1638 48.0302 46.567 47.19C49.9703 46.3497 53.56 46.8714 56.982 46.1237C60.9534 45.256 65.0854 41.6912 63.5009 37.0148C63.229 36.2362 62.8219 35.5197 62.3012 34.9033C60.4704 32.6991 57.9095 31.758 55.4057 30.8479C50.1968 28.9547 44.8454 27.0378 39.3481 27.2468C34.8186 27.5004 30.4564 29.1624 26.7953 32.0295C23.1342 34.8965 20.333 38.8442 18.7345 43.3895C18.3557 44.5266 18.0622 45.6942 17.8568 46.8813C15.97 57.7456 21.8616 68.4619 31.4308 72.599L35.4113 74.6702Z" fill="#2F2E41"/>
        <path d="M30.526 191.711C30.0186 191.383 29.6119 190.902 29.356 190.33C29.1001 189.757 29.0062 189.116 29.0858 188.487L20.1077 140.862L11.0069 104.312H11.0071C10.0079 100.307 10.3097 96.0575 11.8628 92.2603C13.4159 88.4631 16.1281 85.3439 19.5545 83.4144L25.571 77.3185L38.6963 83.3738L44.9331 90.1643C49.4065 92.4967 53.3746 95.8056 56.5824 99.8782C59.7903 103.951 62.1669 108.697 63.5595 113.812L73.5627 150.466L96.6642 187.27C97.0499 187.883 97.2303 188.618 97.1759 189.355C97.1216 190.093 96.8357 190.788 96.3649 191.329C93.1511 195.031 30.526 191.711 30.526 191.711Z" fill="#2F2E41"/>
        <path d="M91.0507 188.328L56.9861 163.05C52.3432 159.581 48.9819 154.48 47.4864 148.633L37.9111 111.194C37.5547 109.823 37.4585 108.389 37.6285 106.977C37.7984 105.565 38.2309 104.204 38.9004 102.974C39.8096 101.275 41.1478 99.8862 42.7612 98.9657C44.3747 98.0452 46.1979 97.6307 48.0214 97.7699C49.8449 97.909 51.5948 98.5962 53.07 99.7524C54.5452 100.909 55.6859 102.487 56.3611 104.306L70.5615 141.711L100.818 172.459C101.159 172.902 101.385 173.433 101.475 173.998C101.565 174.563 101.516 175.144 101.331 175.683L95.5691 186.714C95.3691 187.35 94.9882 187.902 94.4799 188.295C93.9716 188.687 93.3614 188.899 92.735 188.901C92.1319 188.9 91.5438 188.7 91.0507 188.328Z" fill="#2F2E41"/>
        <path d="M20.2818 314.256C20.0034 313.829 19.825 313.336 19.7619 312.819C19.6988 312.302 19.7528 311.777 19.9193 311.287L35.6784 249.94L36.8433 189.83L89.8927 185.934L90.1502 185.915L106.128 216.926C111.131 226.622 114.193 237.326 115.121 248.359L120.386 310.147C120.466 310.987 120.235 311.827 119.742 312.486C119.25 313.146 118.535 313.572 117.753 313.673L101.757 315.302C100.987 315.403 100.21 315.177 99.5924 314.672C98.9751 314.168 98.5662 313.426 98.453 312.603L91.9577 249.814L68.5871 207.53L60.7422 252.046L44.4896 313.522C44.2771 314.136 43.8953 314.666 43.3949 315.042C42.8946 315.418 42.2993 315.622 41.6881 315.627L22.732 315.635C22.2494 315.637 21.7736 315.513 21.3464 315.273C20.9192 315.032 20.5536 314.683 20.2818 314.256Z" fill="#2F2E41"/>
        <path d="M426.481 516.018H26.7328C19.6453 516.01 12.8503 512.991 7.83869 507.624C2.82706 502.258 0.00800605 494.982 0 487.392V252.311C0.00800605 244.721 2.82706 237.445 7.83869 232.078C12.8503 226.712 19.6453 223.693 26.7328 223.684H75.7451C82.3952 223.678 88.8077 226.333 93.725 231.127L146.876 271.768C150.341 275.159 154.867 277.038 159.561 277.033H428.963C432.506 277.033 436.014 277.788 439.283 279.253C442.552 280.717 445.516 282.864 448.003 285.566C450.491 288.269 452.451 291.474 453.771 294.995C455.091 298.517 455.745 302.284 455.693 306.078L453.211 487.811C453.079 495.32 450.209 502.475 445.213 507.747C440.218 513.019 433.494 515.987 426.481 516.018Z" fill="white"/>
        <path d="M422.93 502.139H29.0982C25.6792 502.135 22.4012 500.678 19.9836 498.09C17.5659 495.501 16.206 491.991 16.2021 488.329V249.404C16.206 245.743 17.566 242.233 19.9836 239.644C22.4012 237.055 25.6792 235.599 29.0982 235.595C32.1224 235.598 35.0217 236.886 37.1601 239.176C39.2984 241.466 40.5013 244.571 40.5047 247.809V471.848C40.5083 475.279 41.7828 478.568 44.0486 480.995C46.3144 483.421 49.3864 484.786 52.5907 484.79H421.6C423.433 484.768 425.22 485.404 426.676 486.597C428.132 487.79 429.173 489.471 429.632 491.371C430.146 493.174 430.082 495.108 429.45 496.867C428.818 498.625 427.653 500.107 426.143 501.074C425.185 501.741 424.072 502.11 422.93 502.139Z" fill="#F2F2F2"/>
        <path d="M229.597 387.398L228.56 386.287C228.345 386.072 228.219 385.774 228.21 385.459C228.2 385.144 228.308 384.838 228.509 384.608C228.525 384.589 228.542 384.57 228.56 384.553L237.657 374.802C237.757 374.688 237.877 374.597 238.009 374.532C238.142 374.468 238.285 374.432 238.431 374.427C238.577 374.422 238.722 374.447 238.858 374.502C238.995 374.557 239.12 374.64 239.226 374.747C239.244 374.765 239.261 374.783 239.278 374.802L248.375 384.544C248.481 384.654 248.566 384.785 248.625 384.93C248.684 385.076 248.716 385.232 248.719 385.39C248.721 385.548 248.695 385.706 248.64 385.853C248.586 386 248.506 386.135 248.403 386.249L248.375 386.279L247.338 387.389C247.235 387.503 247.113 387.594 246.977 387.657C246.841 387.72 246.696 387.754 246.548 387.757C246.4 387.76 246.253 387.732 246.115 387.673C245.978 387.615 245.852 387.529 245.746 387.419L245.718 387.389L240.339 381.317V395.725C240.34 395.883 240.312 396.038 240.257 396.184C240.202 396.33 240.12 396.462 240.017 396.574C239.914 396.686 239.791 396.775 239.656 396.837C239.521 396.898 239.376 396.93 239.229 396.931L239.221 396.931H237.722C237.424 396.931 237.137 396.804 236.926 396.578C236.715 396.352 236.596 396.045 236.596 395.725V381.334L231.217 387.406C231.009 387.635 230.724 387.766 230.425 387.77C230.127 387.774 229.839 387.651 229.625 387.428L229.597 387.398Z" fill="#0912F1"/>
        <path d="M238.452 365.946C242.103 365.946 245.672 367.105 248.708 369.277C251.745 371.45 254.111 374.537 255.508 378.149C256.905 381.762 257.271 385.737 256.559 389.572C255.846 393.407 254.088 396.929 251.506 399.694C248.924 402.459 245.635 404.342 242.053 405.104C238.472 405.867 234.76 405.476 231.387 403.979C228.013 402.483 225.13 399.949 223.101 396.698C221.073 393.447 219.99 389.625 219.99 385.715C219.994 380.473 221.941 375.447 225.402 371.741C228.863 368.034 233.557 365.95 238.452 365.946ZM238.452 363.343C234.32 363.343 230.28 364.655 226.845 367.113C223.409 369.572 220.731 373.066 219.15 377.154C217.569 381.242 217.155 385.74 217.961 390.079C218.767 394.419 220.757 398.405 223.679 401.534C226.601 404.663 230.323 406.794 234.376 407.657C238.428 408.52 242.629 408.077 246.447 406.384C250.264 404.69 253.527 401.823 255.823 398.144C258.118 394.465 259.344 390.14 259.344 385.715C259.344 379.782 257.143 374.091 253.225 369.896C249.307 365.7 243.993 363.343 238.452 363.343Z" fill="#3F3D56"/>
        <path d="M426.481 516.018H26.7328C19.6453 516.01 12.8503 512.991 7.83869 507.624C2.82706 502.258 0.00800605 494.982 0 487.392V252.311C0.00800605 244.721 2.82706 237.445 7.83869 232.078C12.8503 226.712 19.6453 223.693 26.7328 223.684H75.7451C82.3952 223.678 88.8077 226.333 93.725 231.127L146.876 271.768C150.341 275.159 154.867 277.038 159.561 277.033H428.963C432.506 277.033 436.014 277.788 439.283 279.253C442.552 280.717 445.516 282.864 448.003 285.566C450.491 288.269 452.451 291.474 453.771 294.995C455.091 298.517 455.745 302.284 455.693 306.078L453.211 487.811C453.079 495.32 450.209 502.475 445.213 507.747C440.218 513.019 433.494 515.987 426.481 516.018ZM26.7328 225.419C20.0748 225.427 13.6917 228.263 8.98384 233.305C4.27596 238.346 1.62774 245.181 1.62017 252.311V487.392C1.62774 494.522 4.27596 501.357 8.98384 506.398C13.6917 511.439 20.0748 514.275 26.7328 514.283H426.481C433.069 514.254 439.385 511.466 444.078 506.513C448.771 501.561 451.467 494.839 451.591 487.785L454.073 306.052C454.121 302.488 453.508 298.949 452.268 295.641C451.028 292.334 449.186 289.323 446.85 286.784C444.513 284.245 441.728 282.229 438.658 280.853C435.587 279.477 432.292 278.768 428.963 278.768H159.561C154.479 278.773 149.579 276.746 145.82 273.085L92.6692 232.444C88.0459 227.92 82.008 225.414 75.7451 225.419H26.7328Z" fill="#3F3D56"/>
        <path d="M460.359 520.595H450.428L447.323 479.574L460.361 479.575L460.359 520.595Z" fill="#FFB8B8"/>
        <path d="M462.891 530.904L430.868 530.903V530.469C430.868 528.716 431.191 526.981 431.817 525.362C432.443 523.742 433.361 522.271 434.519 521.031C435.676 519.792 437.05 518.809 438.563 518.138C440.075 517.467 441.696 517.122 443.333 517.122H443.333L462.892 517.123L462.891 530.904Z" fill="#2F2E41"/>
        <path d="M571.341 520.595H561.409L556.685 479.574L571.342 479.575L571.341 520.595Z" fill="#FFB8B8"/>
        <path d="M573.873 530.904L541.85 530.903V530.469C541.85 528.716 542.172 526.981 542.798 525.362C543.425 523.742 544.343 522.271 545.5 521.031C546.658 519.792 548.032 518.809 549.544 518.138C551.056 517.467 552.677 517.122 554.314 517.122H554.315L573.873 517.123L573.873 530.904Z" fill="#2F2E41"/>
        <path d="M538.685 393.785C540.056 392.064 540.828 389.889 540.871 387.627C540.915 385.366 540.225 383.158 538.921 381.379C538.657 381.039 538.366 380.722 538.053 380.432L545.534 350.859L533.066 355.288L527.874 382.692C527.012 384.382 526.631 386.305 526.778 388.224C526.924 390.143 527.592 391.974 528.698 393.492C529.277 394.311 530.02 394.98 530.873 395.45C531.726 395.92 532.667 396.179 533.626 396.207C534.585 396.235 535.537 396.032 536.413 395.613C537.289 395.194 538.065 394.569 538.685 393.785Z" fill="#FFB8B8"/>
        <path d="M538.205 375.593C538.048 375.593 537.892 375.581 537.738 375.556L531.241 374.507C530.736 374.414 530.255 374.203 529.834 373.891C529.412 373.578 529.059 373.17 528.801 372.696C528.238 371.687 528.035 370.493 528.231 369.337L536.336 320.861L530.839 289.719C529.779 283.725 532.513 277.672 537.199 275.638C538.589 275.029 540.103 274.817 541.593 275.021C543.083 275.225 544.498 275.84 545.7 276.804C546.996 277.856 548.071 279.188 548.856 280.713C549.641 282.239 550.117 283.924 550.253 285.66L554.144 325.369L554.097 325.541L541.576 372.6C541.396 373.424 540.969 374.163 540.36 374.703C539.751 375.244 538.994 375.556 538.205 375.593Z" fill="#0912F1"/>
        <path d="M536.286 258.476C547.275 258.476 556.183 248.937 556.183 237.17C556.183 225.403 547.275 215.864 536.286 215.864C525.298 215.864 516.39 225.403 516.39 237.17C516.39 248.937 525.298 258.476 536.286 258.476Z" fill="#FFB8B8"/>
        <path d="M526.1 336.208C525.604 336.208 525.113 336.11 524.65 335.919L493.202 322.967C492.351 322.619 491.635 321.973 491.17 321.134C490.705 320.295 490.519 319.312 490.641 318.345L491.904 308.202C491.155 304.606 491.224 300.87 492.105 297.309C492.986 293.748 494.654 290.465 496.967 287.738L497.733 286.836L507.037 268.668C507.667 267.437 508.519 266.352 509.543 265.476C510.567 264.599 511.743 263.948 513.003 263.56C514.262 263.172 515.582 263.056 516.884 263.217C518.186 263.378 519.446 263.813 520.59 264.498L537.021 274.33C539.183 275.622 540.816 277.734 541.598 280.25C543.809 287.374 543.645 295.098 541.134 302.107L529.885 333.428C529.587 334.244 529.067 334.946 528.392 335.442C527.717 335.938 526.918 336.205 526.1 336.208Z" fill="#0912F1"/>
        <path d="M443.683 510.523L443.641 510.515C443.104 510.404 442.594 510.178 442.142 509.851C441.689 509.524 441.302 509.103 441.006 508.612C440.709 508.121 440.508 507.57 440.415 506.994C440.322 506.418 440.338 505.827 440.464 505.258L464.563 392.454C468.508 374.572 473.959 357.109 480.847 340.28L491.1 315.248L529.357 333.951L534.819 344.648C539.078 356.563 541.268 369.211 541.281 381.969L580.154 503.961C580.344 504.557 580.41 505.189 580.349 505.815C580.287 506.441 580.099 507.045 579.798 507.586C579.497 508.126 579.089 508.59 578.603 508.944C578.118 509.299 577.566 509.536 576.987 509.64L555.706 509.382C555.506 509.421 555.302 509.439 555.098 509.437C554.291 509.438 553.503 509.179 552.836 508.694C552.168 508.21 551.652 507.521 551.354 506.718L506.918 383.378C506.854 383.214 506.746 383.075 506.607 382.979C506.467 382.882 506.304 382.834 506.139 382.84C505.977 382.843 505.82 382.899 505.689 383.001C505.558 383.103 505.46 383.246 505.407 383.41L463.244 507.364C462.921 508.328 462.288 509.137 461.459 509.647C460.63 510.158 459.658 510.335 458.718 510.149L443.683 510.523Z" fill="#2F2E41"/>
        <path d="M472.776 371.803C473.898 371.375 474.919 370.69 475.767 369.794C476.614 368.899 477.269 367.815 477.683 366.619C478.097 365.424 478.262 364.145 478.165 362.874C478.068 361.603 477.712 360.371 477.122 359.263L496.178 335.928L481.273 333.751L465.462 356.244C463.79 357.429 462.582 359.229 462.066 361.304C461.551 363.379 461.764 365.584 462.666 367.502C463.567 369.42 465.094 370.917 466.958 371.71C468.821 372.502 470.891 372.535 472.776 371.803Z" fill="#FFB8B8"/>
        <path d="M481.76 355.364C481.096 355.364 480.443 355.189 479.858 354.856L473.152 351.026C472.66 350.745 472.227 350.358 471.881 349.89C471.536 349.421 471.284 348.882 471.142 348.304C470.999 347.727 470.97 347.124 471.056 346.534C471.141 345.944 471.339 345.379 471.638 344.875L496.406 303.083L500.701 271.545C500.923 269.915 501.451 268.35 502.255 266.945C503.058 265.541 504.119 264.325 505.374 263.372C506.629 262.419 508.051 261.749 509.555 261.402C511.059 261.055 512.613 261.038 514.123 261.353C515.633 261.667 517.067 262.307 518.34 263.232C519.612 264.158 520.696 265.351 521.525 266.738C522.355 268.125 522.913 269.678 523.166 271.303C523.418 272.928 523.36 274.591 522.995 276.191L514.128 315.063L484.914 353.755C484.534 354.259 484.054 354.666 483.508 354.944C482.962 355.223 482.364 355.366 481.76 355.364Z" fill="#0912F1"/>
        <path d="M518.378 219.591C520.679 211.509 533.976 207.904 545.028 211.257C556.08 214.61 564.02 223.401 565.868 231.997C569.961 251.031 548.613 266.479 552.481 285.515C555.041 298.109 569.846 310.017 586.521 312.893C568.145 317.01 545.715 313.391 528.673 303.56C518.067 297.441 509.169 288.207 509.303 278.893C509.385 273.254 512.735 268.268 516.831 263.959C520.928 259.651 525.832 255.822 529.592 251.325C533.352 246.828 535.957 241.443 534.86 235.735C533.762 230.026 528.188 224.073 520.688 222.412L518.378 219.591Z" fill="#2F2E41"/>
        <path d="M629.189 532.5H320.547C320.333 532.5 320.126 532.409 319.975 532.246C319.823 532.083 319.737 531.863 319.737 531.633C319.737 531.403 319.823 531.182 319.975 531.019C320.126 530.857 320.333 530.765 320.547 530.765H629.189C629.404 530.765 629.61 530.857 629.762 531.019C629.914 531.182 630 531.403 630 531.633C630 531.863 629.914 532.083 629.762 532.246C629.61 532.409 629.404 532.5 629.189 532.5Z" fill="#CCCCCC"/>
    </g>
    <defs>
        <clipPath id="clip0_1346_4090">
            <rect width="630" height="532" fill="white" transform="translate(0 0.5)"/>
        </clipPath>
    </defs>
</svg>
