<svg width="556" height="476" viewBox="0 0 556 476" fill="none" xmlns="http://www.w3.org/2000/svg">
    <path d="M64.8664 151.064C108.861 90.9387 173.816 75.2746 217.424 71.2492C271.48 66.2602 350.07 81.9876 398.103 118.887C439.929 151.026 472.112 199.295 482.78 260.042C491.279 308.446 486.156 345.594 472.352 381.856C458.547 418.119 416.412 460.912 354.412 442.992C292.413 425.072 280.34 376.974 266.582 343.796C246.821 296.136 220.776 283.712 170.575 284.779C120.372 285.846 84.015 279.986 60.5632 257.767C41.9432 240.122 30.7517 197.686 64.8664 151.064Z" fill="#F5F5F5"/>
    <path d="M232.721 168.687L230.758 163.217C227.976 155.463 220.176 150.647 211.949 151.604L133.778 160.691C124.027 161.824 117.046 170.6 118.187 180.293L140.436 369.384C141.219 376.031 147.273 380.788 153.962 380.011L433.649 347.497C440.336 346.719 445.122 340.701 444.34 334.054L425.106 170.592C424.324 163.945 418.269 159.187 411.582 159.964L249.171 178.845C241.976 179.681 235.154 175.469 232.721 168.687Z" fill="#0D0D36"/>
    <path d="M264.797 247.663L176.424 265.169L152.16 144.154L240.533 126.648L264.797 247.663Z" fill="#006BA6"/>
    <path d="M264.797 247.663L176.424 265.169L152.16 144.154L240.533 126.648L264.797 247.663Z" fill="#006BA6"/>
    <path d="M228.731 155.773L174.293 166.556C171.653 167.08 169.087 165.377 168.561 162.753C168.035 160.129 169.748 157.578 172.388 157.055L226.825 146.271C229.465 145.748 232.032 147.451 232.558 150.075C233.084 152.699 231.37 155.25 228.731 155.773Z" fill="white"/>
    <path d="M232.743 175.783L178.306 186.566C175.666 187.09 173.1 185.387 172.573 182.764C172.048 180.139 173.761 177.588 176.401 177.066L230.838 166.281C233.478 165.758 236.045 167.462 236.57 170.086C237.097 172.71 235.383 175.26 232.743 175.783Z" fill="white"/>
    <path d="M236.755 195.792L182.318 206.575C179.677 207.099 177.112 205.396 176.585 202.773C176.059 200.149 177.773 197.597 180.412 197.075L234.85 186.29C237.49 185.767 240.056 187.471 240.582 190.095C241.109 192.719 239.394 195.269 236.755 195.792Z" fill="white"/>
    <path d="M240.768 215.802L186.33 226.587C183.691 227.11 181.124 225.405 180.598 222.783C180.072 220.159 181.785 217.607 184.425 217.085L238.862 206.301C241.503 205.778 244.069 207.481 244.595 210.105C245.122 212.729 243.407 215.28 240.768 215.802Z" fill="white"/>
    <path d="M229.902 238.76L190.342 246.596C187.702 247.119 185.136 245.416 184.61 242.792C184.083 240.168 185.797 237.617 188.437 237.094L227.996 229.257C230.636 228.735 233.202 230.437 233.728 233.062C234.255 235.686 232.542 238.236 229.902 238.76Z" fill="white"/>
    <path d="M383.287 239.534L294.008 251.68L277.175 129.424L366.453 117.278L383.287 239.534Z" fill="#006BA6"/>
    <path d="M383.287 239.535L294.008 251.68L277.175 129.425L366.453 117.279L383.287 239.535Z" fill="#006BA6"/>
    <path d="M352.894 145.64L297.899 153.12C295.232 153.483 292.773 151.629 292.409 148.978C292.044 146.327 293.91 143.884 296.577 143.521L351.572 136.04C354.239 135.677 356.697 137.532 357.062 140.183C357.427 142.833 355.561 145.276 352.894 145.64Z" fill="white"/>
    <path d="M355.677 165.853L300.683 173.335C298.015 173.697 295.558 171.843 295.193 169.192C294.828 166.541 296.693 164.099 299.361 163.736L354.356 156.255C357.023 155.892 359.481 157.746 359.845 160.397C360.21 163.048 358.345 165.491 355.677 165.853Z" fill="white"/>
    <path d="M318.619 191.489L303.465 193.55C300.798 193.913 298.34 192.058 297.975 189.407C297.611 186.756 299.476 184.314 302.143 183.951L317.297 181.89C319.963 181.527 322.422 183.381 322.786 186.032V186.033C323.152 188.683 321.287 191.126 318.619 191.489Z" fill="white"/>
    <path d="M348.004 187.491L332.85 189.552C330.183 189.915 327.725 188.06 327.36 185.409C326.995 182.759 328.862 180.316 331.528 179.953L346.681 177.892C349.349 177.529 351.807 179.383 352.172 182.034C352.536 184.685 350.672 187.129 348.004 187.491Z" fill="white"/>
    <path d="M361.246 206.283L306.25 213.765C303.583 214.128 301.125 212.273 300.761 209.622C300.395 206.971 302.261 204.528 304.928 204.165L359.923 196.684C362.59 196.321 365.049 198.176 365.413 200.826C365.779 203.478 363.912 205.921 361.246 206.283Z" fill="white"/>
    <path d="M348.998 228.544L309.032 233.98C306.366 234.343 303.908 232.488 303.543 229.837C303.177 227.187 305.045 224.744 307.71 224.381L347.675 218.944C350.343 218.582 352.801 220.436 353.166 223.087C353.53 225.738 351.665 228.181 348.998 228.544Z" fill="white"/>
    <path d="M292.989 278.902L203.218 286.678L192.439 163.749L282.21 155.973L292.989 278.902Z" fill="#00346B"/>
    <path d="M292.989 278.902L203.218 286.678L192.439 163.749L282.21 155.973L292.989 278.902Z" fill="#00346B"/>
    <path d="M267.268 183.637L211.97 188.427C209.289 188.659 206.925 186.687 206.692 184.022C206.458 181.356 208.442 179.007 211.124 178.774L266.422 173.984C269.103 173.752 271.467 175.724 271.701 178.389C271.934 181.055 269.949 183.404 267.268 183.637Z" fill="white"/>
    <path d="M269.051 203.962L213.753 208.752C211.071 208.985 208.707 207.012 208.474 204.347C208.24 201.682 210.225 199.332 212.907 199.101L268.204 194.309C270.886 194.078 273.248 196.049 273.483 198.715C273.716 201.381 271.733 203.73 269.051 203.962Z" fill="white"/>
    <path d="M270.833 224.289L215.534 229.079C212.853 229.312 210.49 227.34 210.256 224.674C210.022 222.009 212.006 219.659 214.688 219.427L269.987 214.637C272.668 214.404 275.031 216.376 275.266 219.042C275.499 221.708 273.514 224.057 270.833 224.289Z" fill="white"/>
    <path d="M272.615 244.616L217.317 249.406C214.635 249.638 212.272 247.666 212.038 245.001C211.805 242.335 213.789 239.986 216.471 239.754L271.769 234.963C274.45 234.731 276.813 236.704 277.048 239.369C277.281 242.034 275.297 244.383 272.615 244.616Z" fill="white"/>
    <path d="M259.284 266.251L219.099 269.732C216.417 269.964 214.054 267.991 213.82 265.326C213.587 262.661 215.57 260.312 218.252 260.08L258.437 256.598C261.119 256.366 263.483 258.338 263.716 261.003C263.951 263.669 261.966 266.018 259.284 266.251Z" fill="white"/>
    <path d="M414.275 311.31L324.27 315.628L318.282 192.377L408.287 188.058L414.275 311.31Z" fill="#00346B"/>
    <path d="M414.275 311.31L324.27 315.628L318.283 192.377L408.288 188.058L414.275 311.31Z" fill="#00346B"/>
    <path d="M392.281 215.128L336.837 217.788C334.149 217.917 331.864 215.854 331.734 213.182C331.604 210.51 333.679 208.239 336.368 208.111L391.811 205.45C394.499 205.321 396.784 207.383 396.914 210.055C397.043 212.727 394.969 214.999 392.281 215.128Z" fill="white"/>
    <path d="M393.271 235.506L337.828 238.167C335.139 238.296 332.855 236.233 332.725 233.561C332.595 230.889 334.669 228.618 337.358 228.49L392.801 225.828C395.49 225.7 397.775 227.762 397.904 230.434C398.033 233.106 395.96 235.377 393.271 235.506Z" fill="white"/>
    <path d="M354.095 257.814L338.818 258.547C336.129 258.677 333.844 256.615 333.715 253.943C333.584 251.27 335.659 248.999 338.347 248.87L353.624 248.136C356.313 248.007 358.598 250.07 358.727 252.742C358.857 255.415 356.783 257.685 354.095 257.814Z" fill="white"/>
    <path d="M383.718 256.393L368.441 257.126C365.752 257.254 363.467 255.193 363.338 252.521C363.207 249.849 365.282 247.577 367.971 247.448L383.247 246.715C385.936 246.586 388.221 248.648 388.35 251.32C388.48 253.992 386.407 256.264 383.718 256.393Z" fill="white"/>
    <path d="M395.249 276.267L339.805 278.927C337.117 279.056 334.832 276.994 334.703 274.322C334.572 271.65 336.648 269.378 339.336 269.249L394.779 266.589C397.467 266.46 399.753 268.522 399.882 271.194C400.012 273.866 397.937 276.138 395.249 276.267Z" fill="white"/>
    <path d="M381.087 297.374L340.796 299.308C338.108 299.437 335.823 297.374 335.693 294.702C335.563 292.03 337.638 289.759 340.327 289.63L380.617 287.696C383.306 287.567 385.591 289.63 385.72 292.303C385.85 294.975 383.776 297.245 381.087 297.374Z" fill="white"/>
    <path d="M257.684 175.58L256.251 170.229C254.22 162.644 246.951 157.946 238.725 158.902L160.554 167.991C150.802 169.124 143.082 177.734 143.309 187.222L147.744 372.313C147.9 378.82 153.448 383.463 160.134 382.686L439.821 350.172C446.509 349.394 451.803 343.49 451.647 336.984L447.813 176.979C447.657 170.473 442.111 165.828 435.423 166.605L273.012 185.486C265.817 186.323 259.46 182.214 257.684 175.58Z" fill="url(#paint0_linear_1346_4282)"/>
    <path d="M257.684 175.58L256.251 170.229C254.22 162.644 246.951 157.946 238.725 158.902L160.554 167.991C150.802 169.124 143.082 177.734 143.309 187.222L147.744 372.313C147.9 378.82 153.448 383.463 160.134 382.686L439.821 350.172C446.509 349.394 451.804 343.49 451.648 336.984L447.814 176.979C447.657 170.473 442.111 165.828 435.423 166.605L273.012 185.486C265.817 186.323 259.46 182.214 257.684 175.58Z" fill="url(#paint1_linear_1346_4282)"/>
    <defs>
        <linearGradient id="paint0_linear_1346_4282" x1="210.885" y1="328.676" x2="438.544" y2="170.656" gradientUnits="userSpaceOnUse">
            <stop stop-color="#00346B"/>
            <stop offset="0.58" stop-color="#005088"/>
            <stop offset="1" stop-color="#006BA6"/>
        </linearGradient>
        <linearGradient id="paint1_linear_1346_4282" x1="210.921" y1="328.746" x2="438.579" y2="170.727" gradientUnits="userSpaceOnUse">
            <stop stop-color="#00346B"/>
            <stop offset="0.58" stop-color="#005088"/>
            <stop offset="1" stop-color="#006BA6"/>
        </linearGradient>
    </defs>
</svg>
