<svg width="28" height="27" viewBox="0 0 28 27" fill="none" xmlns="http://www.w3.org/2000/svg">
<path d="M13.7674 0.666687C6.40075 0.666687 0.434084 6.63335 0.434084 14C0.432572 16.7991 1.3125 19.5275 2.94904 21.7983C4.58557 24.069 6.89561 25.7668 9.55142 26.6507C10.2181 26.7667 10.4674 26.3667 10.4674 26.016C10.4674 25.7 10.4501 24.6507 10.4501 23.5334C7.10075 24.1507 6.23408 22.7174 5.96742 21.9667C5.81675 21.5827 5.16742 20.4 4.60075 20.0827C4.13408 19.8334 3.46742 19.216 4.58342 19.2C5.63408 19.1827 6.38342 20.1667 6.63408 20.5667C7.83408 22.5827 9.75142 22.016 10.5168 21.6667C10.6341 20.8 10.9834 20.2174 11.3674 19.884C8.40075 19.5507 5.30075 18.4 5.30075 13.3C5.30075 11.8494 5.81675 10.6507 6.66742 9.71602C6.53408 9.38269 6.06742 8.01602 6.80075 6.18269C6.80075 6.18269 7.91675 5.83335 10.4674 7.55069C11.5528 7.24943 12.6743 7.09781 13.8008 7.10002C14.9341 7.10002 16.0674 7.24935 17.1341 7.54935C19.6834 5.81602 20.8008 6.18402 20.8008 6.18402C21.5341 8.01735 21.0674 9.38402 20.9341 9.71735C21.7834 10.6507 22.3008 11.8334 22.3008 13.3C22.3008 18.4174 19.1848 19.5507 16.2181 19.884C16.7008 20.3 17.1181 21.1 17.1181 22.3507C17.1181 24.1334 17.1008 25.5667 17.1008 26.0174C17.1008 26.3667 17.3514 26.7827 18.0181 26.6494C20.6648 25.7558 22.9646 24.0547 24.594 21.7856C26.2233 19.5164 27.1 16.7935 27.1008 14C27.1008 6.63335 21.1341 0.666687 13.7674 0.666687Z" fill="black"/>
</svg>
