<svg width="631" height="532" viewBox="0 0 631 532" fill="none" xmlns="http://www.w3.org/2000/svg">
    <g clip-path="url(#clip0_1346_4026)">
        <path d="M513.9 256.763C513.9 264.238 513.585 271.638 512.956 278.962C512.461 284.679 511.785 290.345 510.929 295.959C510.019 301.903 508.903 307.776 507.583 313.578V313.585C506.72 317.403 505.772 321.19 504.739 324.945C501.743 335.863 498.016 346.568 493.585 356.987C492.621 359.254 491.626 361.505 490.6 363.74C486.718 372.207 482.371 380.453 477.579 388.44C464.14 410.872 447.364 431.13 427.828 448.519C425.714 450.398 423.57 452.246 421.398 454.062C375.271 492.567 317.053 513.618 256.95 513.525C115.039 513.525 0 398.571 0 256.763C0 114.955 115.039 -0.000109226 256.95 -0.000109226C314.984 -0.0915483 371.324 19.5379 416.721 55.6652C418.848 57.3502 420.949 59.0731 423.024 60.8339C433.146 69.4126 442.594 78.7567 451.282 88.7836H451.288C491.754 135.396 513.991 195.055 513.9 256.763Z" fill="#F2F2F2"/>
        <path d="M75.8512 301.115C51.3737 286.557 32.899 259.351 35.2975 230.988C57.6759 252.391 86.909 265.194 117.825 267.132C129.75 267.836 143.088 267.379 151.866 275.476C157.329 280.514 159.871 288.098 160.288 295.514C160.705 302.931 159.219 310.307 157.739 317.587L158.248 319.37C129.764 319.477 100.329 315.673 75.8512 301.115Z" fill="#E6E6E6"/>
        <path d="M35.894 230.958C45.7015 252.383 62.0154 270.175 82.5186 281.808C86.9263 284.273 91.6123 286.391 96.592 287.373C101.453 288.293 106.472 287.896 111.128 286.222C115.5 284.749 119.802 282.736 124.456 282.35C129.362 281.944 133.904 283.835 137.473 287.148C141.839 291.201 144.488 296.58 146.894 301.931C149.567 307.872 152.249 314.084 157.372 318.356C157.993 318.874 157.153 319.806 156.533 319.29C147.619 311.857 146.164 299.409 139.038 290.655C135.713 286.571 131.136 283.463 125.698 283.545C120.943 283.616 116.506 285.688 112.092 287.218C107.457 288.825 102.814 289.58 97.9206 288.873C92.9152 288.15 88.1364 286.211 83.685 283.869C73.6304 278.483 64.4858 271.551 56.5861 263.326C47.5182 253.989 40.1155 243.171 34.6982 231.34C34.3632 230.608 35.5612 230.23 35.894 230.958H35.894Z" fill="white"/>
        <path d="M75.6966 278.451C73.2765 281.623 69.8067 283.833 65.9068 284.685C62.0068 285.537 57.9308 284.976 54.4066 283.102C53.6948 282.72 54.2548 281.597 54.9675 281.979C58.246 283.73 62.0429 284.252 65.6729 283.452C69.3029 282.651 72.5268 280.58 74.7628 277.612C75.2495 276.968 76.1805 277.81 75.6966 278.451L75.6966 278.451Z" fill="white"/>
        <path d="M109.01 287.261C107.992 279.17 103.959 271.76 97.716 266.509C97.097 265.989 97.9369 265.057 98.5551 265.576C105.042 271.053 109.223 278.773 110.264 287.194C110.363 287.997 109.109 288.06 109.01 287.261V287.261Z" fill="white"/>
        <path d="M49.0755 253.401C50.2679 252.368 51.185 251.056 51.7443 249.581C52.3037 248.107 52.4879 246.517 52.2804 244.954C52.1716 244.153 53.4259 244.092 53.5341 244.887C53.7553 246.615 53.5497 248.371 52.9353 250.001C52.3209 251.631 51.3163 253.086 50.0093 254.239C49.8953 254.358 49.7401 254.429 49.5755 254.438C49.4108 254.447 49.249 254.393 49.1229 254.286C48.9998 254.175 48.9258 254.019 48.9169 253.853C48.9081 253.687 48.9651 253.525 49.0755 253.401V253.401Z" fill="white"/>
        <path d="M114.529 176.04C114.611 176.538 114.693 177.036 114.785 177.539C115.925 184.233 117.607 190.823 119.815 197.245C119.978 197.744 120.15 198.248 120.327 198.741C125.811 214.155 134.112 228.418 144.807 240.805C149.067 245.73 153.696 250.324 158.654 254.547C165.501 260.379 173.389 266.158 177.779 273.688C178.246 274.468 178.664 275.277 179.031 276.109L160.386 318.611C160.295 318.687 160.213 318.767 160.122 318.842L159.455 320.574C159.185 320.374 158.908 320.16 158.637 319.96C158.479 319.845 158.326 319.72 158.168 319.605C158.064 319.525 157.961 319.445 157.863 319.378C157.828 319.352 157.794 319.325 157.769 319.303C157.67 319.237 157.586 319.165 157.498 319.103C155.948 317.915 154.404 316.715 152.865 315.501C152.855 315.497 152.855 315.497 152.85 315.483C141.15 306.208 130.123 295.875 121.016 284.198C120.742 283.846 120.458 283.491 120.193 283.12C116.117 277.834 112.48 272.224 109.319 266.346C107.598 263.121 106.042 259.812 104.656 256.43C101.093 247.686 98.9276 238.436 98.2405 229.019C96.8734 210.247 101.53 191.247 113.597 177.111C113.905 176.749 114.21 176.397 114.529 176.04Z" fill="#E6E6E6"/>
        <path d="M115.027 176.372C109.949 199.379 112.255 223.4 121.617 245.023C123.65 249.644 126.116 254.154 129.5 257.934C132.827 261.594 137.074 264.296 141.8 265.76C146.179 267.214 150.826 268.195 154.775 270.687C158.937 273.314 161.424 277.557 162.277 282.349C163.321 288.213 162.195 294.101 160.893 299.821C159.447 306.172 157.845 312.746 159.362 319.24C159.546 320.027 158.314 320.266 158.13 319.48C155.491 308.182 161.829 297.368 161.413 286.091C161.219 280.83 159.438 275.594 155.047 272.388C151.207 269.585 146.415 268.57 141.969 267.136C137.3 265.63 133.138 263.439 129.657 259.931C126.097 256.342 123.449 251.919 121.306 247.371C116.523 237.021 113.398 225.984 112.046 214.665C110.432 201.755 111.039 188.663 113.842 175.958C114.016 175.171 115.2 175.591 115.027 176.372Z" fill="white"/>
        <path d="M118.192 238.238C114.349 239.315 110.247 238.992 106.62 237.326C102.992 235.66 100.076 232.76 98.3909 229.143C98.0525 228.41 99.1763 227.85 99.5152 228.584C101.078 231.955 103.795 234.656 107.176 236.201C110.557 237.745 114.379 238.031 117.952 237.007C118.729 236.785 118.965 238.018 118.192 238.238H118.192Z" fill="white"/>
        <path d="M139.483 265.315C143.544 258.243 144.789 249.9 142.968 241.951C142.787 241.163 144.02 240.924 144.2 241.711C146.079 249.986 144.767 258.665 140.524 266.016C140.119 266.717 139.08 266.012 139.483 265.315Z" fill="white"/>
        <path d="M112.029 202.221C113.604 202.114 115.126 201.618 116.461 200.777C117.796 199.937 118.901 198.778 119.677 197.405C120.073 196.7 121.112 197.406 120.719 198.106C119.854 199.619 118.632 200.897 117.159 201.829C115.687 202.761 114.008 203.318 112.27 203.452C112.107 203.479 111.94 203.442 111.804 203.35C111.667 203.258 111.57 203.118 111.534 202.957C111.503 202.794 111.537 202.625 111.63 202.487C111.723 202.349 111.866 202.254 112.029 202.221V202.221Z" fill="white"/>
        <path d="M177.992 59.5101L209.441 427.398L146.542 432.124V64.1907C154.037 59.2348 164.796 58.4595 177.992 59.5101Z" fill="#CCCCCC"/>
        <path d="M333.232 59.5101L301.782 427.398L364.681 432.124V64.1907C357.186 59.2348 346.427 58.4595 333.232 59.5101Z" fill="#CCCCCC"/>
        <path d="M355.264 447.329H155.291C152.084 447.325 149.01 446.051 146.743 443.785C144.475 441.519 143.2 438.447 143.196 435.243V69.5899C143.2 66.3856 144.475 63.3137 146.743 61.048C149.01 58.7823 152.084 57.5078 155.291 57.5042H355.264C358.47 57.5078 361.544 58.7823 363.812 61.048C366.079 63.3137 367.355 66.3856 367.358 69.5899V435.243C367.355 438.447 366.079 441.519 363.812 443.785C361.545 446.051 358.47 447.325 355.264 447.329ZM155.291 61.516C153.149 61.5184 151.095 62.3698 149.58 63.8834C148.066 65.3971 147.214 67.4493 147.211 69.5899V435.243C147.213 437.383 148.066 439.436 149.58 440.949C151.095 442.463 153.149 443.314 155.291 443.317H355.264C357.406 443.314 359.46 442.463 360.974 440.949C362.489 439.436 363.341 437.383 363.343 435.243V69.5899C363.341 67.4493 362.489 65.3971 360.974 63.8835C359.46 62.3698 357.406 61.5184 355.264 61.5161L155.291 61.516Z" fill="#CCCCCC"/>
        <path d="M365.35 118.352H145.203V122.363H365.35V118.352Z" fill="#CCCCCC"/>
        <path d="M365.35 185.217H145.203V189.229H365.35V185.217Z" fill="#CCCCCC"/>
        <path d="M216.644 59.5101H212.629V242.052H216.644V59.5101Z" fill="#CCCCCC"/>
        <path d="M297.926 59.5101H293.911V242.052H297.926V59.5101Z" fill="#CCCCCC"/>
        <path d="M390.443 458.362H126.802C122.011 458.362 117.415 456.459 114.027 453.074C110.639 449.688 108.735 445.096 108.735 440.308C108.735 435.52 110.639 430.928 114.027 427.542C117.415 424.156 122.011 422.254 126.802 422.254H390.443C395.235 422.254 399.83 424.156 403.219 427.542C406.607 430.928 408.51 435.52 408.51 440.308C408.51 445.096 406.607 449.688 403.219 453.074C399.83 456.459 395.235 458.362 390.443 458.362Z" fill="#CCCCCC"/>
        <path d="M365.351 232.691H146.542V246.064H365.351V232.691Z" fill="#CCCCCC"/>
        <path d="M217.266 275.251L216.989 275.118C202.072 267.917 182.539 267.924 153.652 275.141L153.344 275.218L153.251 274.914C150.195 264.901 146.734 253.561 153.237 247.982C153.328 231.609 167.7 218.315 185.353 218.315C203.002 218.315 217.372 231.603 217.468 247.971C227.142 255.362 222.532 266.284 217.423 274.986L217.266 275.251Z" fill="#2F2E41"/>
        <path d="M308.946 240.194C308.679 241.52 308.124 242.772 307.32 243.861C306.516 244.95 305.482 245.85 304.293 246.497C303.103 247.144 301.786 247.522 300.434 247.605C299.083 247.688 297.729 247.475 296.469 246.978L243.756 299.912L239.053 283.476L291.407 234.32C292.381 232.26 294.078 230.629 296.175 229.735C298.273 228.842 300.625 228.748 302.787 229.472C304.949 230.196 306.77 231.687 307.905 233.663C309.041 235.64 309.411 237.963 308.946 240.194L308.946 240.194Z" fill="#FFB6B6"/>
        <path d="M178.666 291.153C178.666 291.153 173.883 301.983 185.684 308.662C197.484 315.341 238.728 306.113 245.421 304.825C252.113 303.537 277.108 266.158 277.108 266.158L273.573 247.827L240.424 276.583L178.666 291.153Z" fill="#0912F1"/>
        <path d="M169.961 351.043L170.63 363.747C170.63 363.747 168.655 375.001 170.28 377.43C171.892 379.846 215.882 380.151 215.882 380.151C215.882 380.151 218.789 364.494 221.292 350.789L169.961 351.043Z" fill="#FFB6B6"/>
        <path d="M296.438 519.023L305.635 517.166L303.003 480.047L289.43 482.786L296.438 519.023Z" fill="#FFB6B6"/>
        <path d="M309.612 470.717L318.162 466.876L307.071 431.359L294.452 437.03L309.612 470.717Z" fill="#FFB6B6"/>
        <path d="M317.059 450.705L300.961 459.814L261.259 396.063C233.389 414.826 206.135 423.812 178.66 428.607C169.371 430.259 159.901 429.422 158.117 419.974C158.034 419.533 157.967 419.088 157.918 418.642C156.821 408.322 169.667 395.095 171.3 382.47L206.457 380.361L210.792 385.915L251.45 360.937C259.626 355.913 270.38 358.63 275.47 367.005C275.738 367.447 275.988 367.901 276.218 368.365L317.059 450.705Z" fill="#2F2E41"/>
        <path d="M307.206 493.591L288.786 495.302L255.387 427.045C222.267 432.737 191.022 434.56 163.997 427.675C154.846 425.375 149.253 415.934 151.504 406.587C151.609 406.15 151.73 405.718 151.869 405.29C155.103 395.429 163.57 388.451 170.24 377.605L218.965 378.345L213.523 397.109L260.855 390.988C270.374 389.757 279.067 396.642 280.272 406.366C280.336 406.879 280.377 407.395 280.397 407.912L307.206 493.591Z" fill="#2F2E41"/>
        <path d="M188.987 265.547C199.914 265.547 208.772 256.696 208.772 245.777C208.772 234.858 199.914 226.006 188.987 226.006C178.06 226.006 169.202 234.858 169.202 245.777C169.202 256.696 178.06 265.547 188.987 265.547Z" fill="#FFB6B6"/>
        <path d="M177.388 272.684L195.529 274.817C196.294 274.907 197.011 275.233 197.582 275.75C198.153 276.267 198.548 276.949 198.712 277.701L201.597 290.893L219.582 312.056C219.582 312.056 226.04 324.156 223.618 337.869C221.196 351.583 220.132 361.772 220.132 361.772C220.132 361.772 171.89 379.847 170.275 377.427C168.661 375.007 168.137 364.015 168.137 364.015L161.679 292.222C161.679 292.222 168.944 280.122 172.98 280.122C175.585 280.035 175.251 274.176 177.388 272.684Z" fill="#0912F1"/>
        <path d="M220.623 366.186C223.167 366.186 225.229 363.713 225.229 360.663C225.229 357.612 223.167 355.139 220.623 355.139C218.079 355.139 216.017 357.612 216.017 360.663C216.017 363.713 218.079 366.186 220.623 366.186Z" fill="#6C63FF"/>
        <path d="M291.875 509.465L305.896 502.444L308.538 508.604L326.268 512.185C327.144 512.362 327.94 512.814 328.541 513.475C329.141 514.136 329.515 514.971 329.606 515.859C329.698 516.747 329.503 517.642 329.05 518.411C328.597 519.181 327.91 519.785 327.089 520.137L309.958 527.475L304.392 522.646L305.853 529.233L299.394 532L291.875 509.465Z" fill="#2F2E41"/>
        <path d="M305.6 467.762L319.495 460.495L322.245 466.608L340.035 469.877C340.914 470.039 341.718 470.476 342.33 471.127C342.942 471.777 343.33 472.606 343.438 473.492C343.545 474.378 343.366 475.276 342.927 476.053C342.487 476.831 341.811 477.447 340.996 477.813L323.997 485.451L318.347 480.721L319.923 487.282L313.514 490.161L305.6 467.762Z" fill="#2F2E41"/>
        <path d="M177.683 239.575C172.456 239.584 167.354 237.975 163.078 234.971L162.936 234.871V234.697C162.941 229.645 164.952 224.801 168.528 221.228C172.103 217.656 176.95 215.646 182.006 215.64H190.036C195.092 215.646 199.939 217.656 203.514 221.228C207.089 224.801 209.1 229.645 209.106 234.697C209.101 235.853 208.644 236.962 207.833 237.787C207.022 238.611 205.92 239.087 204.763 239.113L178.134 239.571C177.984 239.574 177.833 239.575 177.683 239.575Z" fill="#2F2E41"/>
        <path d="M210.445 231.037C213.005 229.56 213.433 225.511 211.4 221.993C209.368 218.475 205.645 216.82 203.084 218.298C200.524 219.775 200.096 223.824 202.129 227.342C204.161 230.86 207.884 232.514 210.445 231.037Z" fill="#2F2E41"/>
        <path d="M170.401 227.113C173.276 224.24 173.911 220.218 171.821 218.129C169.73 216.04 165.705 216.675 162.831 219.548C159.956 222.42 159.321 226.442 161.411 228.531C163.502 230.62 167.527 229.985 170.401 227.113Z" fill="#2F2E41"/>
        <path d="M345.503 407.878H325.755C325.309 407.877 324.869 407.974 324.464 408.16C324.06 408.347 323.701 408.62 323.414 408.96C322.685 408.826 321.935 408.867 321.226 409.079C320.516 409.291 319.867 409.668 319.332 410.179C318.796 410.69 318.39 411.321 318.146 412.02C317.901 412.718 317.827 413.465 317.927 414.198C318.028 414.931 318.301 415.63 318.724 416.237C319.147 416.845 319.709 417.343 320.362 417.691C321.016 418.04 321.742 418.228 322.483 418.242C323.223 418.255 323.956 418.093 324.622 417.768L326.26 423.087C326.454 423.717 326.845 424.268 327.376 424.66C327.907 425.052 328.549 425.263 329.209 425.263H342.049C342.708 425.263 343.351 425.052 343.882 424.66C344.413 424.268 344.804 423.717 344.998 423.087L348.452 411.869C348.594 411.407 348.626 410.919 348.545 410.444C348.463 409.968 348.272 409.518 347.985 409.13C347.698 408.742 347.324 408.426 346.893 408.209C346.462 407.992 345.986 407.878 345.503 407.878ZM322.58 416.905C321.693 416.905 320.842 416.553 320.215 415.926C319.587 415.299 319.235 414.449 319.235 413.562C319.235 412.675 319.587 411.825 320.215 411.198C320.842 410.571 321.693 410.219 322.58 410.219C322.642 410.219 322.698 410.233 322.759 410.237C322.626 410.775 322.642 411.339 322.806 411.869L324.219 416.459C323.721 416.748 323.156 416.902 322.58 416.905Z" fill="#3F3D56"/>
        <path d="M257.32 393.364C255.971 393.488 254.612 393.316 253.337 392.859C252.062 392.402 250.903 391.671 249.942 390.717C248.981 389.764 248.24 388.612 247.772 387.342C247.305 386.072 247.122 384.715 247.236 383.366L181.366 348.094L195.773 338.876L257.918 374.888C260.173 375.23 262.223 376.386 263.682 378.138C265.14 379.889 265.905 382.114 265.831 384.392C265.757 386.669 264.85 388.84 263.281 390.494C261.713 392.147 259.592 393.168 257.32 393.364Z" fill="#FFB6B6"/>
        <path d="M171.088 283.273C171.088 283.273 159.333 281.802 156.316 295.014C153.299 308.227 173.979 345.06 177.134 351.097C180.289 357.133 223.293 370.336 223.293 370.336L239.852 361.693L202.775 338.211L171.088 283.273Z" fill="#0912F1"/>
        <path d="M253.939 228.679H257.954C259.906 228.679 261.778 229.454 263.158 230.834C264.539 232.213 265.314 234.084 265.314 236.035H246.578C246.578 234.084 247.354 232.213 248.734 230.834C250.114 229.454 251.987 228.679 253.939 228.679Z" fill="#CCCCCC"/>
        <path d="M126.629 91.4487C148.597 91.4487 166.404 73.6538 166.404 51.7027C166.404 29.7516 148.597 11.9567 126.629 11.9567C104.662 11.9567 86.8545 29.7516 86.8545 51.7027C86.8545 73.6538 104.662 91.4487 126.629 91.4487Z" fill="#FF6584"/>
        <path d="M248.41 49.6314C237.884 38.597 225.658 28.5307 211.186 23.2113C207.155 21.7233 202.975 20.6736 198.718 20.0804C198.684 20.0758 198.652 20.0827 198.618 20.0799C198.548 20.0621 198.478 20.0483 198.407 20.0387C192.454 19.2808 186.412 19.6454 180.593 21.1134C177.748 21.8269 174.972 22.7932 172.299 24.0007C169.616 25.3085 167.017 26.7805 164.516 28.4083C159.222 31.5749 153.393 33.7478 147.317 34.8197C144.267 35.3684 141.178 35.6713 138.08 35.7257C135.392 35.7796 132.856 35.8729 130.309 36.8434C127.588 37.8658 125.144 39.5096 123.172 41.6435C121.2 43.7775 119.754 46.3425 118.95 49.1339C118.888 49.3825 118.907 49.6444 119.003 49.8816C119.1 50.1189 119.269 50.3194 119.488 50.4541C120.177 50.9472 120.848 51.5067 121.572 51.946C122.216 52.2406 122.904 52.4281 123.608 52.501C124.759 52.7437 125.912 52.9793 127.066 53.2078C131.317 54.0494 135.585 54.7945 139.871 55.4429C148.544 56.7548 157.264 57.679 166.031 58.2154C183.593 59.2784 201.216 58.7491 218.682 56.6341C228.499 55.446 238.248 53.7609 247.894 51.5853C248.089 51.5282 248.266 51.4217 248.408 51.2761C248.55 51.1305 248.652 50.9506 248.704 50.754C248.756 50.5575 248.756 50.3508 248.705 50.1541C248.653 49.9574 248.552 49.7774 248.41 49.6314Z" fill="#E6E6E6"/>
        <path d="M128.517 76.206C124.486 74.7179 120.306 73.6683 116.049 73.0751C116.015 73.0705 115.983 73.0774 115.949 73.0746C115.879 73.0568 115.809 73.043 115.738 73.0334C109.785 72.2755 103.743 72.6401 97.9243 74.108C95.0789 74.8216 92.3031 75.7879 89.6299 76.9954C86.9473 78.3032 84.348 79.7752 81.8469 81.403C76.553 84.5696 70.7243 86.7425 64.6483 87.8144C61.5985 88.3631 58.5095 88.666 55.4111 88.7203C52.7227 88.7742 50.1874 88.8676 47.6402 89.8381C44.9193 90.8605 42.4753 92.5043 40.503 94.6382C38.5308 96.7721 37.085 99.3371 36.281 102.129C36.219 102.377 36.2377 102.639 36.3343 102.876C36.431 103.114 36.6005 103.314 36.8186 103.449C37.5076 103.942 38.1793 104.501 38.9033 104.941C39.5472 105.235 40.2351 105.423 40.9395 105.496C42.0905 105.738 43.2429 105.974 44.3968 106.202C48.6477 107.044 52.9162 107.789 57.2025 108.437C65.8755 109.749 74.5953 110.674 83.362 111.21C100.924 112.273 118.547 111.744 136.013 109.629C145.83 108.441 155.579 106.756 165.225 104.58C165.42 104.523 165.597 104.416 165.739 104.271C165.881 104.125 165.983 103.945 166.035 103.749C166.087 103.552 166.087 103.345 166.036 103.149C165.984 102.952 165.883 102.772 165.741 102.626C155.215 91.5917 142.989 81.5254 128.517 76.206Z" fill="#E6E6E6"/>
        <path d="M415.351 372.506L384.763 332.353L360.629 345.989L411.772 406.677L415.351 372.506Z" fill="#3F3D56"/>
        <path d="M485.81 307.233C486.489 324.06 489.098 340.754 493.585 356.987C492.621 359.254 491.627 361.505 490.601 363.741C486.718 372.207 482.371 380.453 477.579 388.441C464.14 410.872 447.365 431.13 427.829 448.519C425.714 450.398 423.571 452.246 421.398 454.062C409.012 436.998 402.328 418.169 399.685 398.791C399.35 396.331 399.076 393.843 398.868 391.369V391.356C398.361 385.343 398.198 379.307 398.38 373.276C398.386 372.794 398.4 372.306 398.42 371.818C398.654 365.372 399.236 358.913 400.113 352.514V352.507C400.213 351.772 400.314 351.036 400.427 350.301C400.748 348.094 401.11 345.887 401.505 343.694C403.802 331.045 407.009 318.578 411.1 306.39V306.383C411.214 306.029 411.328 305.681 411.455 305.334C411.896 304.01 412.345 302.699 412.806 301.389C412.835 301.286 412.871 301.185 412.913 301.088C413.509 299.376 414.118 297.678 414.74 295.993C414.907 295.525 415.081 295.057 415.262 294.588C415.965 292.71 416.681 290.844 417.41 289.005C417.638 288.417 417.872 287.828 418.106 287.247C418.287 286.799 418.461 286.351 418.648 285.909V285.903C419.712 283.275 420.789 280.698 421.88 278.173C424.938 271.072 428.083 264.392 431.148 258.234L431.154 258.227C443.875 232.731 455.437 216.176 455.437 216.176L498.858 230.217C493.679 239.398 489.671 252.938 487.476 268.912C485.785 281.609 485.227 294.431 485.81 307.226L485.81 307.233Z" fill="#3F3D56"/>
        <path d="M413.643 303.147C413.388 302.552 413.101 301.97 412.806 301.389C411.28 298.436 409.315 295.73 406.978 293.365C406.63 293.01 406.269 292.656 405.894 292.322C401.864 288.612 396.962 285.977 391.643 284.661C386.324 283.345 380.759 283.391 375.462 284.793L375.435 284.806L375.234 284.86L375.281 285.087C375.482 286.146 375.773 287.186 376.151 288.196C376.251 288.47 376.365 288.731 376.479 288.992C376.526 289.112 376.586 289.219 376.639 289.34C376.639 289.34 376.633 289.346 376.646 289.346C376.646 289.353 376.653 289.36 376.653 289.366C376.78 289.614 376.9 289.868 377.034 290.109C376.76 289.848 376.499 289.58 376.245 289.306C375.997 289.052 375.769 288.785 375.542 288.517C374.762 287.608 374.057 286.638 373.434 285.615L373.327 285.435L373.14 285.508C370.615 286.383 368.206 287.561 365.966 289.019L365.726 289.179C364.016 290.301 362.089 291.051 360.071 291.38C358.052 291.71 355.987 291.611 354.009 291.091C350.891 290.288 347.639 290.141 344.461 290.66C341.283 291.179 338.247 292.353 335.547 294.107C333.759 295.272 332.142 296.681 330.743 298.293C330.622 298.433 330.502 298.58 330.382 298.721C330.127 299.028 329.886 299.343 329.652 299.664C327.137 303.023 325.593 307.008 325.189 311.185L325.176 311.338L325.303 311.425C327.567 312.976 330.128 314.041 332.824 314.555C331.13 314.791 329.415 314.833 327.712 314.682H327.705C326.932 314.618 326.164 314.511 325.403 314.361L325.263 314.334H325.256L325.082 314.3L325.109 314.621C325.309 318.707 326.595 322.665 328.836 326.089L328.903 326.182C328.928 326.217 328.95 326.252 328.97 326.289C329.919 327.74 330.709 329.289 331.325 330.91C332.89 334.936 333.234 339.333 332.315 343.554C331.276 348.068 331.622 352.791 333.307 357.106C334.992 361.421 337.939 365.129 341.764 367.746C345.123 370.055 349.038 371.429 353.106 371.724C353.661 371.771 354.223 371.798 354.785 371.798C358.003 371.808 361.187 371.145 364.133 369.852L364.24 369.812L364.267 369.692C364.833 367.865 365.629 366.117 366.636 364.49C366.306 365.772 366.14 367.091 366.14 368.414V368.856L366.522 368.635C366.85 368.441 367.184 368.234 367.485 368.04C369.293 366.861 370.93 365.439 372.35 363.814C372.905 363.172 373.468 362.55 374.056 361.929L374.063 361.922C375.207 360.705 376.418 359.515 377.676 358.378C380.353 355.976 383.217 353.792 386.241 351.845C389.264 349.906 392.424 348.19 395.696 346.71H395.703C396.071 346.536 396.446 346.369 396.814 346.209C398.443 345.5 400.012 344.659 401.505 343.694C401.558 343.661 401.605 343.634 401.652 343.601C408.12 339.369 412.876 332.98 415.072 325.572C417.268 318.164 416.761 310.217 413.643 303.147L413.643 303.147Z" fill="#0912F1"/>
        <path opacity="0.15" d="M333.417 353.048C333.235 353.861 333.097 354.683 333.003 355.511C331.757 351.577 331.577 347.383 332.48 343.357C332.619 342.741 332.724 342.118 332.805 341.491C334.042 345.219 334.253 349.21 333.417 353.048Z" fill="black"/>
        <path opacity="0.15" d="M333.924 324.043C331.942 324.318 329.932 324.328 327.947 324.071C327.427 323.092 326.979 322.076 326.604 321.033C328.814 322.523 331.305 323.547 333.924 324.043Z" fill="black"/>
        <path opacity="0.15" d="M327.789 314.467C327.057 316.336 326.571 318.293 326.342 320.287C325.732 318.388 325.371 316.417 325.27 314.424L325.254 314.103L325.57 314.164C326.304 314.302 327.044 314.403 327.789 314.467Z" fill="black"/>
        <path opacity="0.15" d="M335.719 293.908C338.416 292.152 341.45 290.977 344.627 290.457C347.804 289.937 351.054 290.084 354.171 290.889C356.149 291.412 358.216 291.512 360.236 291.183C362.256 290.854 364.183 290.103 365.894 288.98L366.135 288.821C368.372 287.36 370.78 286.178 373.304 285.302L373.497 285.235L373.603 285.409C374.601 287.058 375.81 288.57 377.2 289.906C376.356 288.335 375.764 286.64 375.448 284.884L375.403 284.653L375.631 284.592C380.599 283.279 385.808 283.157 390.832 284.238C395.856 285.318 400.553 287.57 404.541 290.81C408.528 294.051 411.692 298.187 413.775 302.881C415.858 307.576 416.801 312.697 416.526 317.825C415.472 313.644 413.599 309.714 411.014 306.262C408.429 302.81 405.184 299.905 401.467 297.715C397.751 295.525 393.636 294.094 389.362 293.505C385.088 292.916 380.74 293.181 376.569 294.283L376.34 294.344L376.386 294.575C376.702 296.33 377.293 298.025 378.138 299.597C376.748 298.261 375.538 296.749 374.54 295.1L374.435 294.926L374.242 294.993C371.718 295.869 369.31 297.051 367.073 298.511L366.831 298.67C365.121 299.794 363.193 300.545 361.173 300.874C359.153 301.202 357.087 301.102 355.108 300.58C349.928 299.237 344.442 299.73 339.586 301.977C334.729 304.224 330.803 308.085 328.477 312.901C327.441 312.403 326.437 311.843 325.47 311.222L325.339 311.139L325.354 310.985C325.687 307.543 326.792 304.221 328.587 301.265C330.381 298.308 332.819 295.794 335.719 293.908Z" fill="black"/>
        <path d="M584.48 123.059L583.845 122.638L583.383 123.239C579.81 127.735 576.967 132.765 574.958 138.144C575.236 131.947 576.32 125.813 578.184 119.896L578.384 119.274L577.809 118.947C570.322 114.71 562.345 111.405 554.055 109.104L553.151 108.863C546.798 107.121 540.883 104.06 535.792 99.8806C530.702 95.7007 526.551 90.4956 523.609 84.6047C516.772 71.0849 505.972 59.97 492.65 52.7432C479.327 45.5164 464.116 42.5214 449.046 44.1578H449.04C448.879 44.1712 448.712 44.1913 448.551 44.2113C448.277 44.2381 448.009 44.2715 447.742 44.3049C447.193 44.3785 446.658 44.452 446.122 44.5323C445.667 44.5992 445.205 44.6727 444.75 44.7529C444.51 44.7864 444.275 44.8265 444.041 44.8733C443.807 44.9134 443.566 44.9535 443.332 45.0003H443.325C438.832 45.8495 434.428 47.1143 430.17 48.7782H430.163V48.7849L429.086 49.2061C427.975 49.6608 426.873 50.1423 425.78 50.6504C425.533 50.7641 425.292 50.8845 425.044 50.9981C424.977 51.0316 424.904 51.065 424.837 51.1051C424.134 51.4394 423.438 51.7871 422.749 52.1549C422.649 52.2017 422.548 52.2552 422.448 52.3087L421.806 52.6497C420.394 53.412 419.006 54.221 417.644 55.0769C417.53 55.1438 417.423 55.2106 417.309 55.2842C417.189 55.3644 417.061 55.4447 416.941 55.5249C416.867 55.565 416.794 55.6185 416.72 55.6653C416.513 55.7924 416.312 55.9261 416.111 56.0665C415.71 56.3273 415.308 56.5947 414.914 56.8689C414.505 57.143 414.104 57.4306 413.702 57.7181L413.301 58.0056L413.374 58.5004C413.441 58.9083 413.502 59.3162 413.575 59.7174C413.642 60.1186 413.709 60.5131 413.783 60.9076C413.896 61.5695 414.024 62.2248 414.151 62.86C414.238 63.2813 414.318 63.6958 414.412 64.1037C414.499 64.525 414.592 64.9462 414.693 65.3675C414.887 66.2367 415.094 67.0792 415.315 67.9084C415.422 68.3229 415.536 68.7375 415.656 69.1454C415.723 69.3928 415.79 69.6402 415.864 69.8809C415.917 70.0481 415.971 70.2152 416.024 70.3824C416.038 70.4359 416.051 70.496 416.071 70.5562C416.086 70.6129 416.104 70.6687 416.125 70.7234C416.198 70.9708 416.272 71.2115 416.345 71.4455C416.386 71.5726 416.426 71.6996 416.473 71.82C416.566 72.1075 416.667 72.4017 416.767 72.6825C416.874 73.0035 416.988 73.3244 417.102 73.6387C417.128 73.719 417.155 73.7925 417.182 73.8727C417.202 73.9329 417.222 73.9931 417.249 74.0533C417.276 74.1202 417.302 74.1937 417.329 74.2606C417.443 74.5615 417.557 74.869 417.677 75.1699C417.717 75.2769 417.757 75.3906 417.804 75.4976C418.889 78.2216 420.222 80.8403 421.786 83.3208C420.053 81.8364 418.384 80.2628 416.78 78.6001C414.304 76.0292 412.023 73.2779 409.955 70.369C409.788 70.1417 409.621 69.9076 409.467 69.6736C409.152 69.2256 408.844 68.7776 408.543 68.3229C408.222 67.8549 407.914 67.3668 407.613 66.8853C407.412 66.5644 407.212 66.2367 407.018 65.9158C406.824 65.6082 406.643 65.3073 406.469 64.9997L405.947 64.1037H405.94V64.1104L405.204 64.8325C404.91 65.1201 404.616 65.4076 404.328 65.6951C395.334 74.7374 388.82 85.9398 385.411 98.2251L385.311 98.5928L385.21 98.9739C385.016 99.656 384.822 100.318 384.615 100.993V101C384.414 101.669 384.2 102.337 383.973 102.993C383.765 103.614 383.551 104.23 383.323 104.845C383.25 105.052 383.17 105.259 383.083 105.467C382.942 105.868 382.788 106.262 382.634 106.663C382.561 106.844 382.487 107.031 382.413 107.212C382.233 107.653 382.052 108.094 381.871 108.529C381.845 108.596 381.811 108.669 381.778 108.736C381.724 108.87 381.664 109.004 381.61 109.131C381.47 109.452 381.323 109.779 381.182 110.1C381.082 110.308 380.988 110.522 380.894 110.729C380.854 110.822 380.807 110.916 380.767 111.01C380.52 111.545 380.265 112.073 379.998 112.594C379.697 113.21 379.389 113.825 379.061 114.427C378.773 114.988 378.472 115.537 378.158 116.085C377.616 117.054 377.047 118.017 376.458 118.953C376.231 119.314 376.003 119.675 375.769 120.037C375.715 120.123 375.662 120.21 375.608 120.291C375.414 120.605 375.213 120.906 375.006 121.213C374.866 121.421 374.725 121.628 374.584 121.829C374.35 122.19 374.103 122.537 373.848 122.878C373.781 122.985 373.708 123.086 373.634 123.186C373.26 123.707 372.885 124.216 372.503 124.724C372.49 124.73 372.49 124.737 372.483 124.744C372.47 124.744 372.47 124.751 372.463 124.757C372.296 124.978 372.129 125.199 371.955 125.413C371.727 125.727 371.48 126.034 371.232 126.335C370.831 126.843 370.409 127.358 369.981 127.86C369.967 127.873 369.961 127.887 369.947 127.893C367.73 130.496 365.329 132.936 362.761 135.195C362.714 135.235 362.68 135.275 362.634 135.309C362.272 135.623 361.911 135.937 361.536 136.245C361.382 136.372 361.228 136.499 361.075 136.626C360.82 136.84 360.559 137.054 360.305 137.248C360.275 137.278 360.241 137.305 360.205 137.328C359.977 137.515 359.756 137.689 359.529 137.863C359.254 138.084 358.98 138.291 358.699 138.498C357.374 139.501 356.014 140.448 354.617 141.34C354.41 141.48 354.189 141.621 353.975 141.754C353.848 141.835 353.721 141.915 353.6 141.982C353.092 142.296 352.583 142.604 352.075 142.898C351.566 143.199 351.044 143.486 350.529 143.767C349.425 144.369 348.334 144.997 347.27 145.653C346.735 145.987 346.2 146.321 345.671 146.662C343.57 148.026 341.547 149.486 339.602 151.042C337.657 152.599 335.792 154.252 334.015 155.997C333.794 156.211 333.573 156.431 333.352 156.659C332.91 157.093 332.482 157.535 332.074 157.976C331.418 158.651 330.789 159.347 330.167 160.049C326.886 163.769 323.981 167.805 321.495 172.098C320.247 174.241 319.112 176.449 318.096 178.711C317.326 180.403 316.624 182.134 315.988 183.886C315.566 185.056 315.172 186.238 314.803 187.43C314.623 188.025 314.449 188.627 314.282 189.229C313.713 191.268 313.238 193.328 312.85 195.394C312.535 197.052 312.281 198.713 312.087 200.375C311.986 201.211 311.906 202.047 311.832 202.876C311.66 204.914 311.572 206.954 311.568 208.996C311.557 215.121 312.302 221.225 313.786 227.168C314.114 228.479 314.478 229.783 314.877 231.08C315.078 231.728 315.292 232.37 315.506 233.012C316.048 234.617 316.648 236.206 317.306 237.78C317.701 238.722 318.116 239.659 318.551 240.588C321.315 246.497 324.842 252.018 329.043 257.01C329.732 257.833 330.444 258.642 331.177 259.437C331.184 259.437 331.177 259.444 331.177 259.444C332.998 261.428 334.926 263.312 336.952 265.087H336.959C337.768 265.803 338.591 266.496 339.428 267.167C339.435 267.16 339.435 267.167 339.435 267.167C340.278 267.849 341.127 268.504 341.997 269.139C342.432 269.454 342.874 269.768 343.322 270.082C344.199 270.704 345.093 271.304 346.005 271.881H346.012C346.922 272.469 347.846 273.031 348.782 273.566C350.663 274.642 352.59 275.652 354.57 276.568L354.905 276.722L355.246 276.568C358.422 275.14 361.696 273.94 365.043 272.978C365.779 272.764 366.521 272.57 367.257 272.382C369.118 271.921 370.991 271.533 372.878 271.219C371.04 272.141 369.265 273.184 367.565 274.342C366.247 275.231 364.949 276.2 363.644 277.27C363.209 277.625 362.774 277.992 362.339 278.367L361.255 279.303L362.614 279.751C363.109 279.911 363.604 280.072 364.099 280.219C364.775 280.433 365.444 280.627 366.1 280.807C367.532 281.209 368.973 281.563 370.422 281.871C370.777 281.944 371.125 282.018 371.48 282.091C372.169 282.225 372.865 282.359 373.561 282.479C373.589 282.486 373.618 282.491 373.648 282.492C374.37 282.613 375.1 282.726 375.822 282.827C377.167 283.021 378.512 283.174 379.857 283.288C380.005 283.308 380.152 283.315 380.306 283.322C380.634 283.348 380.955 283.375 381.283 283.395C382.005 283.442 382.735 283.475 383.464 283.502C383.518 283.502 383.564 283.509 383.618 283.509C383.986 283.522 384.354 283.536 384.722 283.542C384.722 283.542 384.722 283.549 384.729 283.542C385.097 283.549 385.465 283.556 385.833 283.556H387.867C388.248 283.556 388.63 283.562 389.018 283.562C389.553 283.562 390.095 283.569 390.631 283.576C390.771 283.576 390.918 283.582 391.065 283.582C391.922 283.596 392.778 283.616 393.635 283.636C393.688 283.636 393.742 283.643 393.796 283.643C394.652 283.669 395.509 283.696 396.365 283.736C396.552 283.743 396.74 283.75 396.934 283.763C397.757 283.796 398.58 283.836 399.403 283.883C399.637 283.897 399.878 283.917 400.119 283.93C400.741 283.963 401.37 284.004 401.992 284.05C402.361 284.07 402.722 284.097 403.09 284.131C404.575 284.244 406.054 284.371 407.54 284.518C408.035 284.559 408.53 284.612 409.025 284.666C410.35 284.806 411.679 284.96 413.013 285.127C413.609 285.194 414.204 285.274 414.8 285.354C414.867 285.361 414.934 285.368 415.001 285.381C415.737 285.481 416.466 285.582 417.202 285.689C417.684 285.755 418.166 285.829 418.647 285.903C419.143 285.976 419.638 286.05 420.133 286.137C420.401 286.177 420.668 286.224 420.943 286.27C421.585 286.371 422.234 286.478 422.883 286.598C422.941 286.604 423 286.613 423.057 286.625C424.435 286.865 425.821 287.12 427.199 287.394C428.009 287.547 428.812 287.708 429.615 287.875C430.244 288.002 430.873 288.136 431.502 288.27C431.609 288.29 431.716 288.316 431.823 288.343C431.847 288.35 431.871 288.355 431.896 288.357C432.847 288.564 433.803 288.778 434.754 289.005C438.053 289.767 441.347 290.614 444.637 291.546C445.393 291.753 446.149 291.974 446.905 292.195C447.226 292.288 447.541 292.382 447.855 292.475C448.511 292.669 449.16 292.863 449.816 293.071C450.391 293.244 450.974 293.425 451.549 293.612C451.91 293.726 452.272 293.839 452.633 293.96C453.195 294.134 453.757 294.314 454.313 294.508C454.788 294.655 455.256 294.809 455.724 294.976C456.394 295.197 457.069 295.424 457.739 295.665C457.933 295.732 458.133 295.799 458.327 295.872C459.144 296.153 459.96 296.441 460.776 296.741C461.573 297.029 462.369 297.323 463.159 297.617C463.707 297.825 464.256 298.025 464.798 298.239C465.407 298.473 466.016 298.707 466.618 298.948C467.488 299.289 468.365 299.637 469.234 299.991C470.037 300.312 470.834 300.64 471.637 300.981C471.784 301.041 471.938 301.101 472.085 301.168C472.781 301.455 473.477 301.756 474.166 302.057C474.614 302.245 475.056 302.438 475.498 302.632C477.425 303.475 479.35 304.346 481.272 305.247H481.279C482.483 305.815 483.708 306.357 484.939 306.872C485.227 306.992 485.515 307.112 485.809 307.226C486.298 307.433 486.793 307.627 487.288 307.828C487.609 307.955 487.93 308.082 488.258 308.202C488.733 308.389 489.215 308.57 489.697 308.744C490.205 308.931 490.707 309.118 491.222 309.292C491.403 309.359 491.584 309.419 491.771 309.486C492.367 309.687 492.962 309.887 493.564 310.081C493.625 310.101 493.685 310.121 493.752 310.141C494.381 310.342 495.01 310.542 495.645 310.73C495.696 310.748 495.747 310.764 495.799 310.777C496.482 310.984 497.178 311.184 497.867 311.378C498.884 311.659 499.908 311.927 500.932 312.174C501.119 312.221 501.306 312.268 501.494 312.308C502.042 312.441 502.584 312.568 503.133 312.689C503.715 312.823 504.304 312.943 504.886 313.063C505.475 313.184 506.064 313.304 506.646 313.411C506.961 313.471 507.275 313.531 507.583 313.585L508.406 313.725C508.975 313.826 509.543 313.913 510.119 314.006C510.135 314.005 510.151 314.008 510.166 314.013C510.815 314.113 511.457 314.207 512.106 314.287C512.729 314.374 513.351 314.447 513.973 314.521C514.1 314.534 514.234 314.548 514.368 314.561C514.883 314.621 515.398 314.681 515.914 314.728C516.061 314.742 516.208 314.755 516.355 314.768C516.864 314.815 517.372 314.862 517.881 314.895C517.983 314.909 518.086 314.915 518.189 314.915C518.644 314.956 519.099 314.989 519.554 315.009C519.875 315.036 520.189 315.049 520.511 315.069C520.678 315.076 520.839 315.083 521.006 315.089C521.447 315.116 521.889 315.129 522.337 315.143C522.879 315.163 523.421 315.176 523.957 315.19C524.606 315.203 525.262 315.21 525.911 315.21H525.924C526.56 315.21 527.202 315.203 527.838 315.19H528.079L528.781 315.17C529.143 315.163 529.504 315.15 529.859 315.136C530.541 315.109 531.217 315.076 531.893 315.036C532.16 315.022 532.435 315.002 532.702 314.989C532.823 314.982 532.95 314.969 533.071 314.962C533.492 314.936 533.907 314.909 534.329 314.875C534.763 314.842 535.205 314.802 535.64 314.755C536.202 314.702 536.764 314.641 537.326 314.581C537.768 314.534 538.21 314.481 538.644 314.427C538.703 314.422 538.761 314.413 538.818 314.401C539.24 314.354 539.662 314.3 540.076 314.24C540.572 314.173 541.06 314.1 541.549 314.026C541.602 314.02 541.649 314.013 541.702 314.006C542.546 313.872 543.395 313.739 544.245 313.585C545.135 313.424 546.025 313.251 546.908 313.07C547.236 313.003 547.557 312.93 547.885 312.863C548.066 312.823 548.253 312.789 548.427 312.749C548.702 312.689 548.969 312.629 549.237 312.562C549.284 312.555 549.337 312.542 549.384 312.535C549.759 312.455 550.127 312.361 550.502 312.268C551.251 312.087 551.987 311.9 552.723 311.699C553.051 311.619 553.379 311.532 553.693 311.445C553.787 311.418 553.881 311.392 553.968 311.365C555.326 310.984 556.673 310.58 558.009 310.155C558.598 309.967 559.18 309.774 559.763 309.566C561.014 309.138 562.254 308.688 563.483 308.216C563.811 308.095 564.139 307.962 564.467 307.835C564.948 307.641 565.43 307.447 565.905 307.253C566.333 307.072 566.762 306.892 567.197 306.704C567.411 306.618 567.625 306.524 567.839 306.43C568.481 306.149 569.124 305.862 569.76 305.574C570.188 305.374 570.609 305.18 571.031 304.979C571.7 304.658 572.362 304.331 573.025 304.003C573.192 303.916 573.353 303.829 573.513 303.749C573.935 303.535 574.357 303.314 574.785 303.1C575.461 302.739 576.136 302.378 576.806 302.004C577.033 301.883 577.254 301.756 577.481 301.629C578.217 301.215 578.947 300.794 579.669 300.366C581.269 299.409 582.846 298.411 584.4 297.37C584.788 297.116 585.176 296.849 585.558 296.588C586.281 296.093 586.99 295.585 587.699 295.077C587.773 295.023 587.84 294.97 587.913 294.923C588.268 294.662 588.622 294.401 588.977 294.134C589.713 293.579 590.443 293.017 591.172 292.442C591.185 292.435 591.205 292.415 591.226 292.402C591.553 292.141 591.881 291.88 592.202 291.62C593.199 290.811 594.183 289.988 595.147 289.139C595.622 288.731 596.09 288.31 596.552 287.889C596.9 287.574 597.248 287.26 597.589 286.939C598.278 286.29 598.954 285.649 599.623 284.993C599.958 284.672 600.286 284.338 600.62 284.004C600.948 283.669 601.283 283.335 601.611 282.994C601.724 282.88 601.838 282.76 601.952 282.64C602.286 282.285 602.621 281.924 602.956 281.57C603.243 281.262 603.524 280.941 603.812 280.62C604.294 280.085 604.782 279.55 605.257 279.009C605.282 278.978 605.309 278.949 605.338 278.922C605.364 278.889 605.391 278.862 605.411 278.835H605.405C615.131 267.596 622.358 254.421 626.606 240.182C630.855 225.943 632.03 210.965 630.052 196.238C628.074 181.511 622.988 167.373 615.132 154.757C607.276 142.142 596.828 131.337 584.48 123.059Z" fill="#0912F1"/>
        <g opacity="0.15">
            <path d="M449.04 44.1526C450.374 48.9404 452.381 53.515 455.001 57.7395C450.615 53.9748 446.697 49.6985 443.329 45.0022C445.221 44.6447 447.124 44.3615 449.04 44.1526Z" fill="black"/>
            <path d="M383.748 118.197C378.795 120.898 374.164 124.151 369.944 127.893C377.07 119.473 382.278 109.605 385.207 98.974C385.242 98.8463 385.278 98.7177 385.312 98.5898L385.412 98.2279C388.932 85.5393 395.761 74.0125 405.201 64.8264L405.943 64.1038L406.467 64.9968C409.361 69.9139 412.824 74.4735 416.784 78.5815C410.715 95.6949 398.905 109.938 383.748 118.197Z" fill="black"/>
            <path d="M418.629 72.6518L418.53 73.0137C418.495 73.1416 418.46 73.2702 418.424 73.3979C418.229 74.1016 418.021 74.7999 417.807 75.4952C415.69 70.0164 414.203 64.3149 413.376 58.5006L413.298 58.0072L413.704 57.7173C418.796 54.0611 424.326 51.057 430.165 48.7751C424.922 55.9808 421.015 64.0677 418.629 72.6518Z" fill="black"/>
            <path d="M350.531 143.773C354.914 141.376 359.016 138.499 362.762 135.194C355.28 143.899 349.916 154.217 347.092 165.34C344.268 176.462 344.06 188.087 346.483 199.304C348.907 210.52 353.897 221.024 361.063 229.991C368.228 238.958 377.374 246.145 387.784 250.989L388.122 251.145L388.46 250.993C394.083 248.455 400.011 246.656 406.097 245.641C402.299 247.575 398.758 249.977 395.558 252.791L394.475 253.727L395.833 254.175C397.005 254.562 398.178 254.919 399.318 255.235C406.014 257.099 412.938 258.024 419.889 257.985C451.474 257.783 483.303 265.08 514.493 279.672C519.842 282.171 525.39 284.22 531.08 285.798C555.875 292.697 582.345 290.215 605.423 278.829C592.412 293.866 575.399 304.905 556.36 310.666C537.32 316.427 517.036 316.673 497.863 311.374C492.174 309.796 486.625 307.747 481.276 305.248C450.086 290.656 418.257 283.359 386.672 283.561C379.721 283.6 372.797 282.675 366.101 280.811C364.961 280.495 363.788 280.138 362.616 279.751L361.258 279.303L362.341 278.367C365.541 275.553 369.082 273.151 372.88 271.217C366.794 272.232 360.866 274.031 355.243 276.569L354.905 276.721L354.567 276.565C342.066 270.751 331.428 261.58 323.839 250.075C316.251 238.57 312.011 225.185 311.592 211.412C311.173 197.64 314.593 184.022 321.468 172.078C328.344 160.135 338.406 150.335 350.531 143.773L350.531 143.773Z" fill="black"/>
        </g>
    </g>
    <defs>
        <clipPath id="clip0_1346_4026">
            <rect width="631" height="532" fill="white"/>
        </clipPath>
    </defs>
</svg>
