<svg width="24" height="25" viewBox="0 0 24 25" fill="none" xmlns="http://www.w3.org/2000/svg">
    <path d="M16.9999 21.5H6.99987C5.5831 21.5009 4.21172 21.0004 3.12856 20.0872C2.0454 19.1739 1.32035 17.9069 1.08178 16.5103C0.843215 15.1138 1.10653 13.6779 1.82511 12.4568C2.54368 11.2358 3.67115 10.3085 5.00787 9.83899C4.96259 8.89265 5.10989 7.94697 5.44083 7.05923C5.77178 6.17149 6.2795 5.36017 6.93322 4.67441C7.58694 3.98866 8.37307 3.44275 9.24398 3.06975C10.1149 2.69675 11.0525 2.50443 11.9999 2.50443C12.9473 2.50443 13.8849 2.69675 14.7558 3.06975C15.6267 3.44275 16.4128 3.98866 17.0665 4.67441C17.7203 5.36017 18.228 6.17149 18.5589 7.05923C18.8899 7.94697 19.0372 8.89265 18.9919 9.83899C20.3286 10.3085 21.4561 11.2358 22.1746 12.4568C22.8932 13.6779 23.1565 15.1138 22.918 16.5103C22.6794 17.9069 21.9543 19.1739 20.8712 20.0872C19.788 21.0004 18.4166 21.5009 16.9999 21.5ZM16.9999 9.49999C17.0001 8.833 16.8669 8.17269 16.6081 7.55796C16.3493 6.94323 15.9701 6.38649 15.4928 5.92053C15.0156 5.45457 14.4499 5.08881 13.8292 4.84478C13.2084 4.60075 12.5451 4.48339 11.8783 4.4996C11.2115 4.51582 10.5547 4.66528 9.94657 4.93919C9.33841 5.2131 8.7912 5.60592 8.33716 6.09452C7.88312 6.58312 7.53143 7.15763 7.3028 7.78421C7.07417 8.4108 6.97321 9.0768 7.00587 9.74299L7.07587 11.231L5.67187 11.725C4.78238 12.0396 4.03263 12.6583 3.55497 13.4719C3.07732 14.2856 2.90249 15.2418 3.06133 16.1718C3.22018 17.1018 3.7025 17.9458 4.42314 18.5548C5.14378 19.1637 6.0564 19.4985 6.99987 19.5H16.9999C17.7362 19.4998 18.4582 19.2963 19.0863 18.9119C19.7144 18.5276 20.2242 17.9774 20.5596 17.3219C20.895 16.6663 21.0429 15.931 20.9871 15.1967C20.9312 14.4625 20.6738 13.758 20.2432 13.1607C19.8126 12.5634 19.2254 12.0966 18.5464 11.8116C17.8675 11.5267 17.123 11.4347 16.3951 11.5458C15.6672 11.6569 14.9841 11.9667 14.421 12.4412C13.8579 12.9157 13.4367 13.5364 13.2039 14.235L11.3059 13.602C11.7047 12.4074 12.4692 11.3685 13.491 10.6323C14.5129 9.89613 15.7404 9.5 16.9999 9.49999Z" fill="#1C1C1C"/>
</svg>
