<svg width="48" height="15" viewBox="0 0 200 60" fill="none" xmlns="http://www.w3.org/2000/svg">
    <g clip-path="url(#clip0_1346_4224)">
        <path fill-rule="evenodd" clip-rule="evenodd" d="M123.996 46.922C112.412 55.45 95.6223 60.0001 81.1665 60.0001C60.8972 60.0001 42.6495 52.512 28.8445 40.0579C27.7599 39.0785 28.7317 37.7439 30.0333 38.5065C44.9316 47.1646 63.3527 52.3733 82.3813 52.3733C95.2145 52.3733 109.332 49.7213 122.313 44.2179C124.274 43.3859 125.914 45.5006 123.996 46.922Z" fill="#FF9900"/>
        <path fill-rule="evenodd" clip-rule="evenodd" d="M128.811 41.4185C127.336 39.5292 119.024 40.5259 115.293 40.9679C114.156 41.1065 113.982 40.1185 115.006 39.4079C121.627 34.7538 132.49 36.0972 133.757 37.6572C135.024 39.2259 133.427 50.1026 127.206 55.294C126.252 56.0914 125.341 55.6667 125.766 54.6093C127.163 51.1253 130.295 43.3166 128.811 41.4185Z" fill="#FF9900"/>
        <path fill-rule="evenodd" clip-rule="evenodd" d="M115.553 6.55209V2.02804C115.553 1.34337 116.074 0.884033 116.699 0.884033H136.977C137.628 0.884033 138.148 1.35204 138.148 2.02804V5.90208C138.14 6.55209 137.593 7.40143 136.621 8.74478L126.113 23.7296C130.018 23.6343 134.139 24.2149 137.68 26.2083C138.478 26.659 138.695 27.3176 138.756 27.9676V32.795C138.756 33.4537 138.027 34.225 137.263 33.8264C131.024 30.559 122.738 30.2037 115.84 33.861C115.137 34.2424 114.399 33.4797 114.399 32.821V28.2363C114.399 27.4996 114.408 26.243 115.146 25.125L127.319 7.68744H116.725C116.074 7.68744 115.553 7.2281 115.553 6.55209Z" fill="black"/>
        <path fill-rule="evenodd" clip-rule="evenodd" d="M41.5818 34.7798H35.4125C34.8225 34.7365 34.3539 34.2945 34.3105 33.7311V2.10616C34.3105 1.47348 34.8398 0.970809 35.4993 0.970809H41.2521C41.8508 0.996792 42.328 1.45615 42.3714 2.02815V6.1622H42.4842C43.9853 2.16682 46.8054 0.303467 50.6059 0.303467C54.4671 0.303467 56.8793 2.16682 58.6147 6.1622C60.1071 2.16682 63.4998 0.303467 67.1354 0.303467C69.7212 0.303467 72.5499 1.36948 74.2766 3.7615C76.2289 6.4222 75.8298 10.2876 75.8298 13.6763L75.8211 33.6358C75.8211 34.2685 75.2918 34.7798 74.6323 34.7798H68.4717C67.8556 34.7365 67.3611 34.2425 67.3611 33.6358V16.8743C67.3611 15.5396 67.4825 12.2116 67.1875 10.9462C66.7276 8.82289 65.348 8.22488 63.5605 8.22488C62.0681 8.22488 60.5063 9.22156 59.8728 10.8162C59.2394 12.4109 59.3002 15.0803 59.3002 16.8743V33.6358C59.3002 34.2685 58.7709 34.7798 58.1114 34.7798H51.9508C51.326 34.7365 50.8401 34.2425 50.8401 33.6358L50.8315 16.8743C50.8315 13.3469 51.4128 8.15555 47.031 8.15555C42.597 8.15555 42.7706 13.2169 42.7706 16.8743V33.6358C42.7706 34.2685 42.2413 34.7798 41.5818 34.7798" fill="black"/>
        <path fill-rule="evenodd" clip-rule="evenodd" d="M155.606 0.303467C164.76 0.303467 169.714 8.15555 169.714 18.1397C169.714 27.7857 164.239 35.4385 155.606 35.4385C146.616 35.4385 141.723 27.5864 141.723 17.8016C141.723 7.95621 146.677 0.303467 155.606 0.303467ZM155.658 6.7602C151.111 6.7602 150.825 12.9483 150.825 16.805C150.825 20.6703 150.764 28.9211 155.606 28.9211C160.387 28.9211 160.612 22.265 160.612 18.209C160.612 15.5396 160.5 12.3503 159.693 9.81956C158.998 7.61821 157.619 6.7602 155.658 6.7602Z" fill="black"/>
        <path fill-rule="evenodd" clip-rule="evenodd" d="M181.585 34.7798H175.442C174.826 34.7365 174.331 34.2425 174.331 33.6358L174.322 2.00215C174.374 1.42148 174.886 0.970809 175.511 0.970809H181.229C181.767 0.996792 182.21 1.36081 182.331 1.85482V6.69086H182.444C184.171 2.36616 186.591 0.303467 190.852 0.303467C193.62 0.303467 196.318 1.30015 198.054 4.03017C199.668 6.56086 199.668 10.8162 199.668 13.8756V33.7831C199.598 34.3378 199.086 34.7798 198.479 34.7798H192.292C191.728 34.7365 191.26 34.3205 191.199 33.7831V16.6056C191.199 13.1476 191.598 8.08621 187.338 8.08621C185.837 8.08621 184.457 9.09156 183.771 10.6169C182.904 12.5496 182.791 14.4736 182.791 16.6056V33.6358C182.782 34.2685 182.244 34.7798 181.585 34.7798" fill="black"/>
        <path fill-rule="evenodd" clip-rule="evenodd" d="M99.3882 19.6735C99.3882 22.0742 99.4489 24.0762 98.2341 26.2083C97.2536 27.9416 95.6918 29.0076 93.9651 29.0076C91.5963 29.0076 90.208 27.2049 90.208 24.5443C90.208 19.2922 94.9195 18.3389 99.3882 18.3389V19.6735ZM105.61 34.693C105.202 35.057 104.612 35.083 104.152 34.8404C102.104 33.1417 101.731 32.353 100.612 30.7323C97.2276 34.1817 94.8241 35.213 90.4422 35.213C85.2447 35.213 81.21 32.015 81.21 25.6103C81.21 20.6095 83.9172 17.2035 87.7871 15.5395C91.1364 14.0661 95.8133 13.8061 99.3882 13.3988V12.6015C99.3882 11.1368 99.501 9.40343 98.6333 8.13809C97.8871 7.00274 96.4467 6.53473 95.1712 6.53473C92.8197 6.53473 90.7286 7.73941 90.2166 10.2354C90.1125 10.7901 89.7047 11.3361 89.1407 11.3621L83.1623 10.7208C82.659 10.6081 82.095 10.2008 82.2425 9.42943C83.6135 2.18403 90.1733 0 96.0389 0C99.0411 0 102.963 0.797343 105.332 3.06803C108.334 5.86739 108.048 9.60277 108.048 13.6675V23.2702C108.048 26.1563 109.245 27.4216 110.373 28.9816C110.764 29.5363 110.85 30.2036 110.347 30.6196C109.089 31.6683 106.85 33.6183 105.618 34.7104L105.61 34.693" fill="black"/>
        <path fill-rule="evenodd" clip-rule="evenodd" d="M18.5102 19.6738C18.5102 22.0745 18.571 24.0765 17.3562 26.2085C16.3757 27.9419 14.8225 29.0079 13.0871 29.0079C10.7183 29.0079 9.3387 27.2052 9.3387 24.5445C9.3387 19.2924 14.0503 18.3391 18.5102 18.3391V19.6738ZM24.7316 34.6933C24.3238 35.0573 23.7338 35.0833 23.2739 34.8406C21.2261 33.1419 20.8617 32.3532 19.7337 30.7326C16.3497 34.1819 13.9548 35.2133 9.5643 35.2133C4.37548 35.2133 0.332031 32.0152 0.332031 25.6105C0.332031 20.6098 3.04792 17.2038 6.90916 15.5397C10.2585 14.0664 14.9353 13.8064 18.5102 13.3991V12.6017C18.5102 11.137 18.623 9.40367 17.764 8.13833C17.0091 7.00298 15.5688 6.53498 14.3019 6.53498C11.9505 6.53498 9.85064 7.73966 9.3387 10.2357C9.23458 10.7904 8.82676 11.3364 8.27144 11.3624L2.28434 10.721C1.78108 10.6084 1.22576 10.201 1.36459 9.42968C2.74422 2.18427 9.29531 0.000244141 15.1609 0.000244141C18.1632 0.000244141 22.0851 0.797587 24.4539 3.06828C27.4562 5.86764 27.1698 9.60301 27.1698 13.6677V23.2705C27.1698 26.1565 28.3673 27.4219 29.4953 28.9819C29.8944 29.5365 29.9812 30.2039 29.4779 30.6199C28.2197 31.6686 25.9811 33.6186 24.749 34.7106L24.7316 34.6932" fill="black"/>
    </g>
    <defs>
        <clipPath id="clip0_1346_4224">
            <rect width="199.336" height="60" fill="white" transform="translate(0.332031)"/>
        </clipPath>
    </defs>
</svg>
