<svg width="400" height="290" viewBox="0 0 598 461" fill="none" xmlns="http://www.w3.org/2000/svg">
<path d="M303.513 386.591C293.422 389.42 282.948 383.534 280.118 373.442L265.188 320.193C262.358 310.102 268.245 299.627 278.337 296.799C288.427 293.969 298.901 299.856 301.732 309.948L316.662 363.197C319.49 373.287 313.604 383.761 303.513 386.591Z" fill="#92C6EA"/>
<path d="M282.022 386.09C274.557 378.734 274.469 366.719 281.825 359.254L320.642 319.864C327.998 312.399 340.013 312.31 347.478 319.666C354.943 327.022 355.03 339.039 347.674 346.503L308.858 385.894C301.502 393.358 289.488 393.446 282.022 386.09Z" fill="#92C6EA"/>
<path d="M359.261 310.449C364.334 318.104 362.239 328.42 354.583 333.492C346.929 338.564 336.611 336.47 331.539 328.815C326.468 321.161 328.561 310.843 336.216 305.771C343.87 300.7 354.189 302.794 359.261 310.449Z" fill="#FF8383"/>
<path d="M334.272 317.207C331.953 317.798 329.593 316.398 329.002 314.079L327.541 308.354C326.95 306.034 328.35 303.676 330.669 303.085C332.988 302.492 335.347 303.894 335.938 306.211L337.398 311.937C337.991 314.256 336.59 316.614 334.272 317.207Z" fill="#FF8383"/>
<path d="M350.997 297.547L345.071 312.448C344.152 314.757 341.536 315.883 339.228 314.966C336.92 314.047 335.793 311.431 336.711 309.124L342.638 294.223C343.557 291.915 346.171 290.788 348.48 291.706C350.788 292.624 351.914 295.239 350.997 297.547Z" fill="#FF8383"/>
<path d="M361.372 300.697L354.221 315.05C353.115 317.275 350.415 318.179 348.191 317.073C345.966 315.965 345.063 313.265 346.171 311.041L353.318 296.687C354.426 294.463 357.126 293.559 359.349 294.665C361.573 295.773 362.479 298.473 361.372 300.697Z" fill="#FF8383"/>
<path d="M369.079 308.717L359.114 321.28C357.57 323.227 354.74 323.553 352.794 322.009C350.848 320.465 350.523 317.636 352.067 315.69L362.031 303.128C363.575 301.181 366.404 300.855 368.35 302.399C370.296 303.943 370.624 306.77 369.079 308.717Z" fill="#FF8383"/>
<path d="M262.621 278.156L256.17 277.902C251.834 277.731 248.458 274.078 248.627 269.743L249.976 235.456L272.129 236.328L270.78 270.615C270.609 274.95 266.957 278.326 262.621 278.156Z" fill="#FF8383"/>
<path d="M272.127 235.121L249.975 234.25L249.633 242.95C249.298 251.476 256.239 258.96 264.748 258.341C265.278 258.302 265.808 258.236 266.34 258.141C268.116 257.824 269.772 257.193 271.293 256.33L272.127 235.121Z" fill="#D15E79"/>
<path d="M283.249 201.188C288.971 211.592 282.348 224.947 268.456 231.018C254.563 237.088 238.663 233.575 232.941 223.172C227.218 212.768 233.841 199.413 247.733 193.341C261.626 187.271 277.526 190.784 283.249 201.188Z" fill="#1B2A67"/>
<path d="M298.605 204.326C302.403 212.493 295.025 222.16 282.127 225.92C269.229 229.679 255.694 226.107 251.898 217.941C248.101 209.774 255.479 200.106 268.376 196.346C281.275 192.587 294.809 196.16 298.605 204.326Z" fill="#1B2A67"/>
<path d="M277.451 183.94C285.092 188.707 284.192 200.836 275.443 211.03C266.691 221.223 253.403 225.623 245.763 220.855C238.123 216.088 239.021 203.961 247.772 193.767C256.522 183.572 269.811 179.173 277.451 183.94Z" fill="#1B2A67"/>
<path d="M284.959 229.629C287.139 241.847 280.743 253.213 270.675 255.009C260.609 256.806 250.68 248.355 248.499 236.135L246.783 226.518C244.601 214.3 250.994 202.936 261.061 201.139C271.13 199.341 281.06 207.792 283.241 220.013L284.959 229.629Z" fill="#FF8383"/>
<path d="M263.453 199.687C257.886 194.646 248.194 197.084 241.807 205.132C235.421 213.18 234.756 223.788 240.325 228.828C245.894 233.867 255.585 231.43 261.97 223.383C268.358 215.336 269.022 204.726 263.453 199.687Z" fill="#1B2A67"/>
<path d="M267.125 226.913C266.804 226.913 266.486 226.76 266.289 226.478C265.975 226.018 266.088 225.391 266.546 225.075C266.68 224.985 269.89 222.804 273.294 224.787C273.777 225.069 273.942 225.691 273.66 226.172C273.381 226.656 272.765 226.82 272.276 226.537C269.996 225.207 267.791 226.675 267.696 226.738C267.521 226.857 267.323 226.913 267.125 226.913Z" fill="#85294E"/>
<path d="M284.591 226.916C284.393 226.916 284.194 226.859 284.018 226.738C283.923 226.675 281.719 225.207 279.438 226.537C278.953 226.82 278.338 226.656 278.054 226.172C277.772 225.691 277.936 225.069 278.418 224.787C281.829 222.792 285.033 224.981 285.168 225.074C285.627 225.393 285.74 226.023 285.421 226.483C285.226 226.766 284.911 226.916 284.591 226.916Z" fill="#85294E"/>
<path d="M271.695 229.637C271.671 230.219 271.18 230.674 270.597 230.651C270.013 230.629 269.561 230.137 269.585 229.554C269.607 228.971 270.098 228.518 270.681 228.541C271.263 228.563 271.718 229.055 271.695 229.637Z" fill="#85294E"/>
<path d="M281.826 230.035C281.803 230.617 281.311 231.072 280.728 231.049C280.145 231.026 279.692 230.534 279.716 229.952C279.738 229.369 280.23 228.916 280.813 228.94C281.395 228.962 281.85 229.453 281.826 230.035Z" fill="#85294E"/>
<path d="M284.286 237.384C284.174 237.384 284.061 237.38 283.948 237.375C281.733 237.291 279.681 236.345 278.175 234.715C276.671 233.086 275.888 230.965 275.975 228.748C276.063 226.531 277.008 224.482 278.636 222.977C280.268 221.472 282.37 220.675 284.603 220.776C286.82 220.861 288.87 221.808 290.378 223.437C291.883 225.065 292.666 227.184 292.578 229.403C292.491 231.62 291.544 233.671 289.915 235.175C288.368 236.608 286.38 237.384 284.286 237.384ZM284.267 222.172C282.527 222.172 280.876 222.819 279.59 224.007C278.237 225.258 277.451 226.96 277.378 228.805C277.305 230.646 277.954 232.408 279.207 233.761C280.458 235.116 282.163 235.902 284.003 235.975C285.861 236.006 287.607 235.398 288.962 234.145C290.316 232.894 291.103 231.191 291.175 229.347C291.248 227.503 290.597 225.744 289.346 224.388C288.093 223.036 286.39 222.251 284.548 222.178C284.454 222.174 284.361 222.172 284.267 222.172Z" fill="#FFD2D3"/>
<path d="M266.439 237.704C266.312 237.704 266.187 237.701 266.061 237.695C260.921 237.491 256.905 233.147 257.107 228.01C257.204 225.518 258.267 223.217 260.097 221.525C261.924 219.831 264.306 218.937 266.795 219.054C269.284 219.151 271.587 220.213 273.278 222.042C274.97 223.872 275.847 226.25 275.75 228.74C275.65 231.231 274.589 233.532 272.759 235.223C271.022 236.83 268.789 237.704 266.439 237.704ZM266.419 220.624C264.464 220.624 262.609 221.347 261.166 222.682C259.645 224.088 258.763 226.001 258.682 228.072C258.514 232.341 261.852 235.95 266.122 236.12C268.17 236.218 270.167 235.472 271.688 234.067C273.208 232.66 274.09 230.747 274.172 228.677C274.254 226.607 273.525 224.632 272.119 223.113C270.715 221.593 268.802 220.708 266.732 220.629C266.628 220.624 266.524 220.624 266.419 220.624Z" fill="#FFD2D3"/>
<path d="M274.146 229.831L277.577 229.966C277.975 229.982 278.312 229.67 278.327 229.272C278.343 228.873 278.033 228.537 277.633 228.52L274.202 228.386C273.803 228.371 273.467 228.682 273.452 229.08C273.435 229.48 273.747 229.815 274.146 229.831Z" fill="#FFD2D3"/>
<path d="M281.024 234.694C280.926 235.899 279.526 236.998 277.898 237.148C276.269 237.298 275.028 236.443 275.127 235.237C275.224 234.031 276.623 232.932 278.252 232.781C279.882 232.633 281.122 233.489 281.024 234.694Z" fill="#85294E"/>
<path d="M280.327 241.179C280.218 243.976 277.671 246.148 274.64 246.028C271.61 245.909 269.861 242.908 269.972 240.11C273.527 239.792 276.985 240.121 280.327 241.179Z" fill="#85294E"/>
<path d="M275.078 242.93C272.683 242.652 271.205 241.831 271.064 240.031C274.052 239.872 276.969 240.175 279.805 241.002C279.396 242.625 277.426 243.201 275.078 242.93Z" fill="#FFD2D3"/>
<path d="M267.995 247.145L262.039 247.141C259.636 247.141 257.331 246.254 255.547 244.641L251.819 241.279C251.522 241.01 251.499 240.553 251.767 240.258C252.033 239.961 252.491 239.938 252.787 240.204L256.515 243.568C258.033 244.94 259.994 245.695 262.039 245.695L267.995 245.701C268.394 245.701 268.717 246.025 268.717 246.424C268.717 246.825 268.394 247.145 267.995 247.145Z" fill="#1F1028"/>
<path d="M267.994 247.868L267.991 247.868L265.577 247.866C264.778 247.866 264.132 247.216 264.133 246.416C264.135 245.621 264.781 244.975 265.578 244.975L267.993 244.977C268.793 244.977 269.441 245.628 269.439 246.426C269.438 247.223 268.792 247.868 267.994 247.868Z" fill="#FFD2D3"/>
<path d="M260.699 234.259C260.437 240.941 254.806 246.146 248.124 245.883C241.442 245.62 236.237 239.991 236.5 233.309C236.763 226.627 242.393 221.421 249.075 221.685C255.757 221.947 260.961 227.577 260.699 234.259Z" fill="#445EEA"/>
<path d="M256.27 234.084C256.047 239.789 251.636 244.249 246.421 244.043C241.206 243.838 237.159 239.047 237.384 233.343C237.609 227.639 242.018 223.179 247.234 223.385C252.449 223.59 256.495 228.381 256.27 234.084Z" fill="#91A8F6"/>
<path d="M248.306 233.772C248.216 236.083 246.688 237.9 244.896 237.829C243.103 237.759 241.724 235.828 241.815 233.518C241.906 231.207 243.431 229.39 245.224 229.46C247.017 229.531 248.397 231.461 248.306 233.772Z" fill="#DFEDF7"/>
<path d="M277.859 402.829L219.938 404.462C210.282 404.082 202.762 395.946 203.142 386.29L206.8 289.359C206.998 284.293 210.35 279.894 215.181 278.355L258.362 264.605L292.878 281.148C297.213 283.226 299.898 287.682 299.709 292.485L296.03 386.033C295.651 395.69 287.516 403.21 277.859 402.829Z" fill="#92C6EA"/>
<path d="M299.711 292.483C299.91 302.591 299.793 312.686 299.628 322.779C299.495 332.872 299.134 342.959 298.775 353.043C298.347 363.125 297.912 373.209 297.253 383.281C297.105 385.729 296.981 388.488 296.057 390.995C295.182 393.499 293.78 395.814 291.926 397.677C288.207 401.378 282.914 403.379 277.86 402.828C282.92 402.72 287.765 400.453 290.885 396.717C292.487 394.897 293.656 392.729 294.319 390.433C295.027 388.131 295.007 385.771 295.031 383.194C295.166 373.099 295.524 363.015 295.888 352.928C296.321 342.848 296.754 332.766 297.415 322.691C298.043 312.617 298.719 302.544 299.711 292.483Z" fill="#6DACCE"/>
<path d="M274.216 282.941L242.955 280.926L244.154 262.344C244.303 260.034 246.296 258.283 248.606 258.432L271.501 259.908C273.811 260.057 275.563 262.051 275.413 264.361L274.216 282.941Z" fill="#92C6EA"/>
<path d="M185.511 370.544C175.832 366.524 171.244 355.42 175.264 345.741L196.474 294.668C200.494 284.99 211.599 280.402 221.277 284.421C230.956 288.441 235.544 299.545 231.524 309.225L210.313 360.297C206.294 369.975 195.189 374.563 185.511 370.544Z" fill="#92C6EA"/>
<path d="M221.274 284.421C224.663 285.517 227.752 287.697 230.04 290.579C232.283 293.488 233.716 297.089 234.029 300.828C234.531 304.544 233.335 308.504 231.971 311.701L227.965 321.554C225.216 328.091 222.459 334.627 219.498 341.076L215.045 350.746C213.462 353.928 211.974 357.148 210.311 360.297C211.368 356.897 212.598 353.569 213.736 350.203L217.444 340.221C219.921 333.571 222.606 327.009 225.296 320.447L229.45 310.653C230.159 308.979 230.893 307.502 231.246 305.888C231.637 304.283 231.869 302.621 231.819 300.953C231.729 294.25 227.628 287.661 221.274 284.421Z" fill="#6DACCE"/>
<path d="M273.831 343.777L264.168 343.154C260.546 342.92 257.79 339.782 258.024 336.161L258.305 331.804C258.537 328.183 261.673 325.426 265.297 325.659L274.958 326.282L273.831 343.777ZM265.017 329.988C263.781 329.908 262.712 330.849 262.633 332.084L262.351 336.44C262.273 337.674 263.211 338.745 264.447 338.825L269.782 339.169L270.352 330.332L265.017 329.988Z" fill="#85294E"/>
<path d="M283.227 357.674L274.868 357.135C269.793 356.808 265.946 352.428 266.274 347.353L268.006 320.486C268.199 317.488 294.935 319.212 294.741 322.21L293.008 349.077C292.681 354.152 288.302 358.002 283.227 357.674Z" fill="#D15E79"/>
<path d="M292.073 322.937C292.005 324.017 287.039 324.574 280.986 324.185C274.934 323.794 270.083 322.603 270.151 321.524C270.222 320.445 275.185 319.886 281.238 320.276C287.293 320.666 292.142 321.858 292.073 322.937Z" fill="#85294E"/>
<path d="M174.999 353.483C175.163 343.003 183.792 334.643 194.272 334.808L249.567 335.679C260.046 335.844 268.406 344.474 268.24 354.953C268.076 365.432 259.447 373.793 248.967 373.628L193.672 372.755C183.193 372.59 174.834 363.961 174.999 353.483Z" fill="#92C6EA"/>
<path d="M194.271 334.808C201.372 334.324 208.466 334.155 215.561 334.037C222.657 333.884 229.748 333.958 236.84 334.034L247.473 334.277C250.95 334.301 255.06 334.776 258.268 336.716C261.575 338.493 264.306 341.243 266.085 344.458C267.817 347.706 268.585 351.406 268.24 354.954C267.794 347.835 263.382 341.451 257.271 338.703C255.759 337.995 254.146 337.542 252.519 337.264C250.897 336.947 249.248 337.031 247.431 337.015L236.794 336.924C229.704 336.775 222.612 336.626 215.525 336.251C208.439 335.907 201.352 335.517 194.271 334.808Z" fill="#6DACCE"/>
<path d="M287.326 349.266C288.177 358.409 281.454 366.51 272.311 367.361C263.168 368.212 255.066 361.49 254.215 352.346C253.364 343.203 260.087 335.101 269.23 334.251C278.373 333.4 286.474 340.122 287.326 349.266Z" fill="#FF8383"/>
<path d="M262.169 342.836C260.094 342.119 258.994 339.855 259.712 337.78L261.485 332.655C262.203 330.58 264.467 329.482 266.542 330.199C268.617 330.916 269.717 333.18 269 335.255L267.226 340.38C266.509 342.455 264.244 343.554 262.169 342.836Z" fill="#FF8383"/>
<path d="M294.007 345.012L279.251 346.385C276.966 346.598 274.94 344.917 274.727 342.631C274.515 340.346 276.195 338.32 278.482 338.108L293.237 336.734C295.523 336.521 297.548 338.203 297.762 340.488C297.973 342.774 296.292 344.799 294.007 345.012Z" fill="#FF8383"/>
<path d="M290.883 358.581L276.095 357.627C273.803 357.48 272.066 355.504 272.214 353.212C272.362 350.922 274.339 349.184 276.629 349.332L291.418 350.286C293.709 350.433 295.447 352.41 295.298 354.701C295.15 356.991 293.173 358.729 290.883 358.581Z" fill="#FF8383"/>
<path d="M344.612 33.2723C346.446 34.7428 348.132 36.4028 349.624 38.2032C350.236 38.943 350.132 40.0347 349.396 40.6463C348.654 41.2603 347.561 41.1231 346.951 40.417C344.63 37.6111 341.762 35.1842 338.643 33.3685C337.82 32.8779 337.537 31.8225 338.017 30.9941C338.499 30.1663 339.56 29.8874 340.39 30.3676C341.852 31.2217 343.273 32.1991 344.612 33.2723ZM329.791 26.5822C330.269 26.9658 330.525 27.5895 330.417 28.2337C330.255 29.1775 329.357 29.8109 328.413 29.6511C324.801 29.0281 321.139 29.0555 317.52 29.7262C316.578 29.9022 315.673 29.2767 315.498 28.3384C315.323 27.3979 315.943 26.4919 316.886 26.3188C320.906 25.5709 324.983 25.5412 328.999 26.2284C329.301 26.2818 329.57 26.4056 329.791 26.5822ZM355.007 47.9933C355.251 48.1892 355.449 48.4572 355.559 48.7766C356.893 52.6296 357.527 56.6559 357.447 60.7426C357.428 61.7005 356.635 62.4625 355.677 62.4435C354.718 62.4207 353.957 61.6289 353.976 60.6734C354.049 56.9985 353.478 53.3771 352.282 49.9128C351.966 49.0058 352.447 48.0191 353.352 47.7053C353.939 47.503 354.557 47.6326 355.007 47.9933ZM307.528 30.7352C307.685 30.8612 307.819 31.0173 307.931 31.2003C308.423 32.0217 308.155 33.089 307.332 33.5803C304.201 35.4563 301.44 37.8648 299.131 40.7448C298.533 41.491 297.441 41.6103 296.694 41.0114C295.948 40.4132 295.827 39.3218 296.426 38.5757C298.992 35.3745 302.064 32.6892 305.551 30.6016C306.19 30.2203 306.979 30.2956 307.528 30.7352ZM354.532 70.6269C355.111 71.0915 355.345 71.8948 355.057 72.6202C353.802 75.7929 352.071 78.7636 349.917 81.4557C349.513 81.96 349.1 82.4479 348.674 82.9201C348.034 83.6345 346.907 83.6475 346.224 83.0503C345.514 82.4111 345.454 81.3122 346.097 80.6005C346.476 80.1778 346.849 79.7391 347.209 79.29C349.148 76.8665 350.702 74.1916 351.832 71.3437C352.183 70.4538 353.191 70.0177 354.082 70.3701C354.248 70.4337 354.399 70.521 354.532 70.6269ZM294.699 45.0254C295.308 45.5135 295.53 46.3685 295.187 47.1078C293.65 50.4391 292.727 53.9823 292.45 57.6467C292.378 58.6025 291.544 59.3179 290.589 59.245C289.632 59.1787 288.917 58.3425 288.989 57.3849C289.3 53.3044 290.325 49.3594 292.038 45.6553C292.44 44.7834 293.472 44.4037 294.34 44.8058C294.472 44.8661 294.594 44.9409 294.699 45.0254ZM339.398 87.4785C339.579 87.6232 339.734 87.8101 339.849 88.0282C340.292 88.8777 339.968 89.9252 339.119 90.3698C335.51 92.2661 331.619 93.4935 327.563 94.0123C326.611 94.1423 325.742 93.4655 325.621 92.515C325.496 91.565 326.17 90.6948 327.12 90.5738C330.769 90.1045 334.262 89.0027 337.507 87.2969C338.137 86.9669 338.877 87.0603 339.398 87.4785ZM292.964 67.6126C293.236 67.8307 293.446 68.1289 293.548 68.4901C294.551 72.0182 296.162 75.3086 298.335 78.2638C298.903 79.0368 298.736 80.1235 297.967 80.6901C297.193 81.254 296.114 81.098 295.54 80.3217C293.119 77.0315 291.326 73.3683 290.209 69.4394C289.947 68.5155 290.482 67.559 291.403 67.2955C291.966 67.1343 292.54 67.2719 292.964 67.6126ZM316.942 90.3812C317.444 90.7835 317.701 91.452 317.545 92.1234C317.332 93.0587 316.402 93.6413 315.468 93.4244C311.494 92.5122 307.747 90.9057 304.33 88.6542C303.555 88.145 303.31 87.0516 303.836 86.2504C304.364 85.4513 305.439 85.2291 306.24 85.7567C309.31 87.7779 312.677 89.2222 316.244 90.0446C316.508 90.1045 316.744 90.2227 316.942 90.3812Z" fill="#445EEA"/>
<path d="M323.19 43.4824C310.629 43.4824 300.447 50.2131 300.447 58.5166V58.5598C300.457 60.7281 302.167 62.2135 303.766 61.5306L309.736 58.9837C311.173 58.3705 311.869 56.2786 311.224 54.5165L310.49 52.5153C310.49 52.5153 321.461 54.4689 335.804 52.5153L335.065 55.0843C334.597 56.7114 335.203 58.5244 336.446 59.2018L342.35 62.4249C343.786 63.2086 345.462 62.1571 345.791 60.1957C345.884 59.6445 345.932 59.0845 345.932 58.5166C345.932 50.2131 335.75 43.4824 323.19 43.4824Z" fill="#445EEA"/>
<path d="M338.943 76.4398H307.422L312.093 61.8062C312.968 59.0623 315.517 57.2006 318.397 57.2006H327.968C330.848 57.2006 333.396 59.0623 334.273 61.8062L338.943 76.4398Z" fill="#91A8F6"/>
<path d="M540.715 230.227V227.429C540.715 225.367 542.386 223.697 544.446 223.697C546.507 223.697 548.178 225.367 548.178 227.429V232.07H540.715" fill="#445EEA"/>
<path d="M546.242 254.92H505.896V232.041H546.242V254.92Z" fill="#91A8F6"/>
<path d="M546.241 254.92H526.068H505.895L524.016 245.242C525.25 244.386 526.886 244.386 528.12 245.242L546.241 254.92Z" fill="#445EEA"/>
<path d="M540.791 227.374V251.153H513.283V227.374C513.283 225.314 514.955 223.643 517.015 223.643H544.211L543.456 223.8C541.915 224.259 540.791 225.684 540.791 227.374Z" fill="#DFEDF7"/>
<path d="M514.988 233.776H521.087V227.515H514.988V233.776Z" fill="#445EEA"/>
<path d="M514.988 235.885H538.461" stroke="#445EEA" stroke-width="0.329" stroke-linecap="round" stroke-linejoin="round"/>
<path d="M514.988 237.993H538.461" stroke="#445EEA" stroke-width="0.329" stroke-linecap="round" stroke-linejoin="round"/>
<path d="M514.988 240.055H538.461" stroke="#445EEA" stroke-width="0.329" stroke-linecap="round" stroke-linejoin="round"/>
<path d="M514.988 242.164H526.397" stroke="#445EEA" stroke-width="0.329" stroke-linecap="round" stroke-linejoin="round"/>
<path d="M522.957 227.479H538.463" stroke="#445EEA" stroke-width="0.329" stroke-linecap="round" stroke-linejoin="round"/>
<path d="M522.957 229.587H538.463" stroke="#445EEA" stroke-width="0.329" stroke-linecap="round" stroke-linejoin="round"/>
<path d="M522.957 231.697H538.463" stroke="#445EEA" stroke-width="0.329" stroke-linecap="round" stroke-linejoin="round"/>
<path d="M523.102 233.805H538.607" stroke="#445EEA" stroke-width="0.329" stroke-linecap="round" stroke-linejoin="round"/>
<path d="M536.33 254.92H505.896V232.041L536.33 254.92Z" fill="#445EEA"/>
<path d="M515.809 254.92H546.242V232.041L515.809 254.92Z" fill="#445EEA"/>
<path d="M504.916 211.526C506.758 210.049 508.744 208.763 510.827 207.702C511.682 207.271 512.728 207.61 513.162 208.462C513.595 209.318 513.237 210.361 512.403 210.798C509.164 212.442 506.157 214.73 503.719 217.373C503.06 218.067 501.972 218.119 501.265 217.468C500.562 216.817 500.52 215.72 501.169 215.015C502.314 213.779 503.577 212.604 504.916 211.526ZM495.163 224.534C495.642 224.151 496.306 224.037 496.91 224.283C497.798 224.646 498.222 225.66 497.858 226.545C496.468 229.94 495.695 233.521 495.564 237.196C495.531 238.153 494.729 238.904 493.77 238.867C492.814 238.834 492.064 238.031 492.099 237.072C492.243 232.99 493.101 229.005 494.648 225.231C494.764 224.947 494.943 224.711 495.163 224.534ZM521.545 204.581C521.79 204.385 522.096 204.252 522.431 204.214C526.483 203.752 530.551 204.008 534.519 204.975C535.449 205.201 536.021 206.141 535.794 207.072C535.563 208.003 534.626 208.572 533.696 208.349C530.127 207.475 526.469 207.245 522.827 207.66C521.873 207.77 521.014 207.087 520.906 206.135C520.834 205.518 521.095 204.941 521.545 204.581ZM494.377 247.168C494.534 247.043 494.715 246.945 494.918 246.876C495.827 246.575 496.81 247.068 497.11 247.977C498.26 251.442 500.01 254.661 502.318 257.54C502.918 258.288 502.797 259.378 502.05 259.977C501.304 260.575 500.213 260.456 499.614 259.708C497.047 256.507 495.095 252.925 493.816 249.069C493.581 248.36 493.828 247.608 494.377 247.168ZM543.541 209.968C544.12 209.504 544.956 209.449 545.6 209.886C548.425 211.803 550.948 214.138 553.102 216.825C553.505 217.328 553.89 217.836 554.26 218.355C554.817 219.136 554.535 220.295 553.858 220.773C553.078 221.329 551.994 221.149 551.44 220.371C551.105 219.903 550.758 219.444 550.397 218.994C548.459 216.577 546.19 214.478 543.653 212.758C542.86 212.222 542.654 211.141 543.191 210.349C543.289 210.201 543.409 210.074 543.541 209.968ZM505.53 262.8C506.139 262.312 507.022 262.282 507.669 262.777C510.585 265 513.844 266.67 517.359 267.739C518.276 268.016 518.793 268.987 518.514 269.901C518.239 270.824 517.267 271.336 516.35 271.059C512.437 269.87 508.806 268.009 505.565 265.534C504.803 264.953 504.658 263.864 505.239 263.105C505.325 262.987 505.425 262.885 505.53 262.8ZM556.693 228.404C556.873 228.259 557.088 228.148 557.326 228.084C558.251 227.834 559.204 228.38 559.453 229.306C560.516 233.246 560.867 237.307 560.494 241.379C560.415 242.338 559.562 243.035 558.609 242.947C557.654 242.861 556.953 242.017 557.04 241.063C557.375 237.403 557.059 233.751 556.104 230.211C555.918 229.523 556.173 228.821 556.693 228.404ZM527.197 269.402C527.468 269.184 527.804 269.045 528.178 269.023C531.85 268.812 535.411 267.956 538.762 266.478C539.64 266.092 540.664 266.49 541.05 267.364C541.434 268.24 541.037 269.253 540.163 269.653C536.429 271.297 532.465 272.252 528.38 272.489C527.422 272.544 526.604 271.812 526.547 270.856C526.513 270.272 526.772 269.743 527.197 269.402ZM554.639 250.957C555.142 250.554 555.85 250.449 556.472 250.747C557.339 251.159 557.705 252.194 557.291 253.058C555.534 256.741 553.15 260.049 550.209 262.892C549.501 263.572 548.417 263.537 547.756 262.851C547.09 262.161 547.108 261.061 547.797 260.397C550.438 257.843 552.582 254.873 554.161 251.566C554.277 251.321 554.441 251.116 554.639 250.957Z" fill="#445EEA"/>
<path d="M408.878 160.811H337.89C330.909 160.811 325.249 166.471 325.249 173.451V214.386C325.249 221.056 330.417 226.506 336.965 226.979L322.328 250.966L360.905 227.027H408.878C415.859 227.027 421.517 221.368 421.517 214.386V173.451C421.517 166.471 415.859 160.811 408.878 160.811Z" fill="#91A8F6"/>
<path d="M384.779 183.986C384.779 188.627 381.017 192.391 376.375 192.391C371.734 192.391 367.971 188.627 367.971 183.986C367.971 179.345 371.734 175.582 376.375 175.582C381.017 175.582 384.779 179.345 384.779 183.986Z" fill="#445EEA"/>
<path d="M384.779 183.986C384.779 188.627 381.017 192.391 376.375 192.391C371.734 192.391 367.971 188.627 367.971 183.986C367.971 179.345 371.734 175.582 376.375 175.582C381.017 175.582 384.779 179.345 384.779 183.986Z" stroke="#445EEA" stroke-width="1.3805" stroke-linecap="round" stroke-linejoin="round"/>
<path d="M393.249 212.255H353.518C353.518 205.222 359.219 199.522 366.252 199.522H380.515C387.548 199.522 393.249 205.222 393.249 212.255Z" fill="#445EEA"/>
<path d="M393.249 212.255H353.518C353.518 205.222 359.219 199.522 366.252 199.522H380.515C387.548 199.522 393.249 205.222 393.249 212.255Z" stroke="#445EEA" stroke-width="1.3805" stroke-linecap="round" stroke-linejoin="round"/>
<path d="M420.608 65.3004H513.336C524.927 65.3004 534.322 74.6967 534.322 86.2878V134.115C534.322 145.707 524.927 155.104 513.336 155.104H452.698L430.888 174.347V155.104H420.608C409.015 155.104 399.619 145.707 399.619 134.115V86.2878C399.619 74.6967 409.015 65.3004 420.608 65.3004Z" fill="#445EEA"/>
<path d="M434.097 94.8932H499.852C501.305 94.8932 502.482 93.7144 502.482 92.2622C502.482 90.81 501.305 89.6312 499.852 89.6312H434.097C432.644 89.6312 431.467 90.81 431.467 92.2622C431.467 93.7144 432.644 94.8932 434.097 94.8932Z" fill="#91A8F6"/>
<path d="M434.097 112.428H499.852C501.305 112.428 502.482 111.249 502.482 109.797C502.482 108.344 501.305 107.166 499.852 107.166H434.097C432.644 107.166 431.467 108.344 431.467 109.797C431.467 111.249 432.644 112.428 434.097 112.428Z" fill="#91A8F6"/>
<path d="M490.206 129.961H499.85C501.302 129.961 502.48 128.783 502.48 127.33C502.48 125.877 501.302 124.699 499.85 124.699H490.206C488.754 124.699 487.576 125.877 487.576 127.33C487.576 128.783 488.754 129.961 490.206 129.961Z" fill="#91A8F6"/>
<path d="M468.289 129.961H477.933C479.385 129.961 480.563 128.783 480.563 127.33C480.563 125.877 479.385 124.699 477.933 124.699H468.289C466.837 124.699 465.658 125.877 465.658 127.33C465.658 128.783 466.837 129.961 468.289 129.961Z" fill="#91A8F6"/>
<path d="M434.097 129.961H456.017C457.468 129.961 458.646 128.783 458.646 127.33C458.646 125.877 457.468 124.699 456.017 124.699H434.097C432.644 124.699 431.467 125.877 431.467 127.33C431.467 128.783 432.644 129.961 434.097 129.961Z" fill="#91A8F6"/>
<path d="M529.312 300.587C529.312 300.587 531.378 310.786 519.35 311.277C519.35 311.277 529.674 310.756 529.989 320.424C529.989 320.424 530.457 312.776 539.825 310.505C539.825 310.505 531.933 312.827 529.312 300.587Z" fill="#91A8F6"/>
<path d="M586.622 155.249C586.622 155.249 588.848 165.414 576.828 166.095C576.828 166.095 587.145 165.411 587.611 175.073C587.611 175.073 587.959 167.418 597.29 165C597.29 165 589.436 167.445 586.622 155.249Z" fill="#91A8F6"/>
<path d="M204.09 15.8005C204.09 15.8005 207.105 25.7597 195.175 27.3782C195.175 27.3782 205.405 25.8913 206.626 35.486C206.626 35.486 206.375 27.8283 215.488 24.6884C215.488 24.6884 207.848 27.7386 204.09 15.8005Z" fill="#91A8F6"/>
<path d="M109.862 48.5248C109.862 48.5248 102.413 55.7886 95.4794 45.9474C95.4794 45.9474 101.513 54.3413 93.5594 59.8469C93.5594 59.8469 100.24 56.0934 107.227 62.7337C107.227 62.7337 100.998 57.3615 109.862 48.5248Z" fill="#91A8F6"/>
<path d="M164.965 0.160159C164.965 0.160159 165.311 3.7714 161.125 3.5065C161.125 3.5065 164.724 3.70046 164.481 7.06345C164.481 7.06345 164.921 4.42802 168.25 3.97881C168.25 3.97881 165.431 4.4967 164.965 0.160159Z" fill="#91A8F6"/>
<path d="M351.823 124.248C351.823 124.248 353.8 127.29 349.966 128.992C349.966 128.992 353.246 127.499 354.587 130.592C354.587 130.592 353.757 128.053 356.5 126.114C356.5 126.114 354.242 127.877 351.823 124.248Z" fill="#91A8F6"/>
<path d="M3.66862 185.372C3.66862 185.372 4.5742 188.884 0.398003 189.277C0.398003 189.277 3.98401 188.906 4.27052 192.266C4.27052 192.266 4.29201 189.594 7.50968 188.631C7.50968 188.631 4.80644 189.582 3.66862 185.372Z" fill="#91A8F6"/>
<path d="M314.765 283.339C314.765 283.339 317.843 285.255 315.091 288.422C315.091 288.422 317.43 285.679 319.955 287.913C319.955 287.913 318.128 285.965 319.792 283.047C319.792 283.047 318.493 285.602 314.765 283.339Z" fill="#91A8F6"/>
<path d="M465.962 219.249C465.962 221.603 464.048 223.518 461.695 223.518C459.34 223.518 457.424 221.603 457.424 219.249C457.424 216.895 459.34 214.98 461.695 214.98C464.048 214.98 465.962 216.895 465.962 219.249ZM463.847 219.249C463.847 218.061 462.882 217.095 461.695 217.095C460.505 217.095 459.539 218.061 459.539 219.249C459.539 220.436 460.505 221.403 461.695 221.403C462.882 221.403 463.847 220.436 463.847 219.249Z" fill="#91A8F6"/>
<path d="M560.404 101.394C560.404 103.458 562.077 105.13 564.14 105.13C566.202 105.13 567.875 103.458 567.875 101.394C567.875 99.3312 566.202 97.6588 564.14 97.6588C562.077 97.6588 560.404 99.3312 560.404 101.394Z" fill="#91A8F6"/>
<path d="M135.709 110.609C135.146 110.762 134.811 111.343 134.964 111.908L135.606 114.275C135.759 114.839 136.342 115.172 136.905 115.019C137.468 114.866 137.802 114.285 137.649 113.721L137.007 111.354C136.854 110.79 136.272 110.457 135.709 110.609Z" fill="#91A8F6"/>
<path d="M132.39 108.957L130.02 109.599C129.457 109.752 129.124 110.334 129.277 110.898C129.43 111.461 130.011 111.795 130.574 111.642L132.943 110.999C133.506 110.847 133.84 110.266 133.687 109.703C133.534 109.139 132.953 108.804 132.39 108.957Z" fill="#91A8F6"/>
<path d="M133.732 103.326C133.169 103.479 132.835 104.061 132.988 104.625L133.63 106.991C133.783 107.555 134.365 107.888 134.928 107.736C135.491 107.583 135.825 107.002 135.672 106.437L135.031 104.071C134.878 103.507 134.295 103.173 133.732 103.326Z" fill="#91A8F6"/>
<path d="M140.065 106.703L137.696 107.346C137.133 107.498 136.8 108.079 136.953 108.643C137.105 109.206 137.687 109.541 138.25 109.388L140.619 108.746C141.183 108.593 141.515 108.011 141.363 107.448C141.21 106.884 140.629 106.55 140.065 106.703Z" fill="#91A8F6"/>
<path d="M401.855 42.0056C401.298 42.1823 400.989 42.7775 401.166 43.3345L401.908 45.6735C402.084 46.2305 402.68 46.5374 403.237 46.3607C403.793 46.1843 404.102 45.5906 403.925 45.0335L403.183 42.6945C403.006 42.1375 402.411 41.8292 401.855 42.0056Z" fill="#91A8F6"/>
<path d="M398.471 40.4967L396.132 41.2387C395.576 41.4151 395.267 42.0113 395.443 42.5684C395.62 43.1244 396.216 43.4323 396.772 43.2559L399.111 42.5139C399.668 42.3371 399.976 41.7423 399.8 41.1863C399.623 40.6293 399.028 40.3199 398.471 40.4967Z" fill="#91A8F6"/>
<path d="M399.57 34.8135C399.013 34.9902 398.704 35.5864 398.881 36.1435L399.622 38.4803C399.799 39.0374 400.395 39.3453 400.952 39.1686C401.508 38.9922 401.816 38.3974 401.639 37.8404L400.898 35.5035C400.721 34.9464 400.126 34.6371 399.57 34.8135Z" fill="#91A8F6"/>
<path d="M406.036 37.9197L403.696 38.6621C403.14 38.8384 402.831 39.4336 403.007 39.9906C403.184 40.5477 403.78 40.8556 404.336 40.6793L406.676 39.9369C407.232 39.7605 407.54 39.1657 407.364 38.6086C407.187 38.0516 406.592 37.7433 406.036 37.9197Z" fill="#91A8F6"/>
<path d="M423.762 460.12H400.283C397.279 460.12 394.834 457.676 394.834 454.672C394.834 451.728 397.184 449.319 400.108 449.227C400.184 444.644 403.939 440.941 408.539 440.941C411.395 440.941 414.05 442.392 415.599 444.768C418.764 444.315 421.588 446.305 422.389 449.224H423.762C426.766 449.224 429.21 451.669 429.21 454.672C429.21 457.676 426.766 460.12 423.762 460.12ZM400.283 450.837C398.168 450.837 396.447 452.558 396.447 454.672C396.447 456.787 398.168 458.508 400.283 458.508H423.762C425.878 458.508 427.599 456.787 427.599 454.672C427.599 452.558 425.878 450.837 423.762 450.837H421.053L420.943 450.158C420.536 447.592 418.102 445.797 415.386 446.446L414.793 446.59L414.497 446.056C413.291 443.894 411.007 442.553 408.539 442.553C404.779 442.553 401.719 445.611 401.719 449.371C401.719 449.57 401.733 449.767 401.75 449.962L401.824 450.837H400.283Z" fill="#91A8F6"/>
<path d="M540.907 182.599H517.428C514.424 182.599 511.979 180.158 511.979 177.154C511.979 174.208 514.329 171.801 517.254 171.709C517.33 167.127 521.083 163.422 525.683 163.422C528.539 163.422 531.193 164.874 532.744 167.25C535.906 166.798 538.733 168.787 539.535 171.706H540.907C543.911 171.706 546.355 174.151 546.355 177.154C546.355 180.158 543.911 182.599 540.907 182.599ZM517.428 173.317C515.312 173.317 513.591 175.04 513.591 177.154C513.591 179.269 515.312 180.989 517.428 180.989H540.907C543.022 180.989 544.742 179.269 544.742 177.154C544.742 175.04 543.022 173.317 540.907 173.317H538.197L538.089 172.638C537.682 170.073 535.245 168.282 532.532 168.929L531.938 169.069L531.642 168.538C530.435 166.376 528.152 165.033 525.683 165.033C521.924 165.033 518.863 168.093 518.863 171.853C518.863 172.052 518.877 172.248 518.894 172.442L518.968 173.317H517.428Z" fill="#91A8F6"/>
<path d="M308.078 391.529H410.931C413.984 391.529 416.612 389.354 417.177 386.355L431.041 326.87C431.787 322.952 428.782 319.322 424.793 319.322H321.942C318.884 319.322 316.263 321.497 315.692 324.497L301.83 383.981C301.088 387.899 304.09 391.529 308.078 391.529Z" fill="#DFEDF7"/>
<path d="M315.691 324.497C316 322.847 316.943 321.45 318.228 320.522C320.151 321.911 321.252 324.322 320.765 326.87L306.906 386.356C306.591 388.007 305.658 389.399 304.371 390.326C302.449 388.94 301.347 386.524 301.83 383.981L315.691 324.497Z" fill="#6DACCE"/>
<path d="M380.38 363.014H363.513C360.053 363.014 357.248 360.209 357.248 356.749C357.248 353.289 360.053 350.484 363.513 350.484H380.38C383.84 350.484 386.645 353.289 386.645 356.749C386.645 360.209 383.84 363.014 380.38 363.014Z" fill="white"/>
<path d="M262.434 396.661H405.703C409.7 396.661 410.931 393.422 410.931 389.424H255.195C255.195 393.422 258.437 396.661 262.434 396.661Z" fill="#6DACCE"/>
<path d="M254.121 389.424H304.905C304.905 393.422 301.227 396.661 296.687 396.661H263.405C263.36 396.661 253.951 396.66 253.905 396.66C249.223 396.593 249.439 389.424 254.121 389.424Z" fill="#6DACCE"/>
<path d="M487.607 404.942H54.8299C52.4336 404.942 50.4922 403.001 50.4922 400.606C50.4922 398.211 52.4336 396.268 54.8299 396.268H487.607C490.002 396.268 491.944 398.211 491.944 400.606C491.944 403.001 490.002 404.942 487.607 404.942Z" fill="#1B2A67"/>
<path d="M269.456 391.418H264.395C263.397 391.418 262.588 390.61 262.588 389.61C262.588 388.613 263.397 387.803 264.395 387.803H269.456C270.453 387.803 271.263 388.613 271.263 389.61C271.263 390.61 270.453 391.418 269.456 391.418Z" fill="#6DACCE"/>
<path d="M279.337 391.418H274.276C273.278 391.418 272.469 390.61 272.469 389.61C272.469 388.613 273.278 387.803 274.276 387.803H279.337C280.334 387.803 281.144 388.613 281.144 389.61C281.144 390.61 280.334 391.418 279.337 391.418Z" fill="#6DACCE"/>
<path d="M289.213 391.418H284.153C283.154 391.418 282.346 390.61 282.346 389.61C282.346 388.613 283.154 387.803 284.153 387.803H289.213C290.211 387.803 291.02 388.613 291.02 389.61C291.02 390.61 290.211 391.418 289.213 391.418Z" fill="#6DACCE"/>
<path d="M299.093 391.418H294.034C293.035 391.418 292.227 390.61 292.227 389.61C292.227 388.613 293.035 387.803 294.034 387.803H299.093C300.092 387.803 300.901 388.613 300.901 389.61C300.901 390.61 300.092 391.418 299.093 391.418Z" fill="#6DACCE"/>
<path d="M118.155 369.333C118.155 369.333 118.113 345.19 113.16 338.606" stroke="#1B2A67" stroke-width="0.4135" stroke-miterlimit="10" stroke-linecap="round"/>
<path d="M115.94 324.611C116.805 329.867 115.892 334.395 113.904 334.722C111.915 335.048 109.602 331.052 108.738 325.794C108.731 325.741 108.722 325.688 108.713 325.637C108.011 320.961 115.083 319.8 115.914 324.453C115.924 324.506 115.931 324.558 115.94 324.611Z" fill="#FFD2D3"/>
<path d="M123.526 337.101C118.269 337.966 113.74 337.055 113.414 335.066C113.088 333.077 117.085 330.764 122.342 329.901C122.395 329.892 122.447 329.883 122.5 329.874C127.174 329.172 128.337 336.245 123.683 337.075C123.631 337.084 123.578 337.093 123.526 337.101Z" fill="#FFD2D3"/>
<path d="M105.543 340.057C110.801 339.193 114.798 336.882 114.471 334.893C114.144 332.904 109.617 331.993 104.361 332.857C104.307 332.865 104.255 332.873 104.203 332.882C99.5496 333.712 100.711 340.787 105.386 340.083L105.543 340.057Z" fill="#FFD2D3"/>
<path d="M113.298 346.922C115.387 342.021 115.578 337.408 113.724 336.617C111.87 335.827 108.673 339.159 106.584 344.06C106.564 344.109 106.543 344.159 106.522 344.208C104.729 348.582 111.321 351.391 113.234 347.069C113.256 347.02 113.277 346.972 113.298 346.922Z" fill="#FFD2D3"/>
<path d="M118.375 346.089C114.827 342.114 113.169 337.803 114.673 336.461C116.176 335.119 120.272 337.253 123.82 341.228C123.855 341.268 123.89 341.307 123.925 341.348C127.024 344.917 121.678 349.689 118.481 346.207C118.446 346.166 118.41 346.128 118.375 346.089Z" fill="#FFD2D3"/>
<path d="M116.194 335.697C116.418 337.056 115.497 338.339 114.137 338.564C112.778 338.786 111.495 337.865 111.272 336.506C111.048 335.146 111.969 333.863 113.327 333.639C114.688 333.417 115.971 334.338 116.194 335.697Z" fill="#D15E79"/>
<path d="M133.593 362.374C126.508 368.842 118.779 371.913 116.332 369.233C113.885 366.552 117.646 359.135 124.732 352.667C131.818 346.197 141.993 345.807 141.993 345.807C141.993 345.807 140.679 355.904 133.593 362.374Z" fill="#445EEA"/>
<path d="M110.138 354.259C116.788 359.449 120.59 365.695 118.626 368.21C116.664 370.725 109.679 368.559 103.029 363.369C96.3786 358.181 94.543 349.42 94.543 349.42C94.543 349.42 103.488 349.07 110.138 354.259Z" fill="#445EEA"/>
<path d="M128.34 397.715H105.455L101.449 368.923H132.345L128.34 397.715Z" fill="#1B2A67"/>
<path d="M133.543 376.306H100.254C99.3553 376.306 98.627 375.578 98.627 374.68V367.228C98.627 366.329 99.3553 365.602 100.254 365.602H133.543C134.442 365.602 135.169 366.329 135.169 367.228V374.68C135.169 375.578 134.442 376.306 133.543 376.306Z" fill="#1B2A67"/>
<g opacity="0.8">
<path d="M276.912 300.173C277.058 300.799 277.266 301.459 277.524 302.16C278.785 305.572 279.109 305.274 278.636 308.247" stroke="white" stroke-width="0.2"/>
</g>
<g opacity="0.8">
<path d="M285.845 292.968C285.209 293.605 284.72 294.227 284.359 294.851M284.526 313.844C284.129 315.902 283.88 317.821 284.185 319.809L284.526 313.844Z" stroke="white" stroke-width="0.2"/>
</g>
</svg>
