<svg width="100" height="85" viewBox="0 0 630 533" fill="none" xmlns="http://www.w3.org/2000/svg">
    <g clip-path="url(#clip0_1346_4191)">
        <path d="M20.6083 329.504C20.5106 329.403 20.4413 329.283 20.406 329.154C7.25121 281.202 9.46288 230.967 26.7939 184.06C44.1248 137.154 75.8925 95.4237 118.548 63.5323C161.203 31.641 213.065 10.8444 268.341 3.46613C323.617 -3.91217 380.128 2.41841 431.562 21.7506C431.679 21.7942 431.784 21.8575 431.872 21.937C431.961 22.0165 432.031 22.1106 432.078 22.214C432.125 22.3173 432.149 22.4278 432.147 22.5392C432.146 22.6506 432.12 22.7607 432.071 22.8632C432.021 22.9658 431.95 23.0587 431.86 23.1367C431.77 23.2148 431.663 23.2764 431.546 23.3181C431.429 23.3598 431.304 23.3807 431.177 23.3796C431.051 23.3786 430.926 23.3556 430.81 23.312C325.581 -16.1769 206.174 -0.0835035 119.187 65.3122C32.7318 130.309 -4.40261 231.254 22.2756 328.755C22.3264 328.941 22.3048 329.136 22.2144 329.309C22.1239 329.483 21.9698 329.624 21.7771 329.711C21.5843 329.797 21.3641 329.824 21.152 329.786C20.94 329.749 20.7484 329.649 20.6083 329.504Z" fill="#E6E6E6"/>
        <path d="M196.356 511.581C196.215 511.436 196.134 511.253 196.126 511.062C196.117 510.871 196.182 510.683 196.31 510.529C196.438 510.375 196.62 510.263 196.829 510.212C197.037 510.161 197.259 510.173 197.459 510.247C302.292 548.994 421.124 532.686 507.582 467.689C595.387 401.678 632.674 300.207 604.892 202.875C604.862 202.767 604.855 202.655 604.874 202.544C604.892 202.434 604.935 202.328 605 202.233C605.065 202.137 605.15 202.053 605.252 201.987C605.353 201.921 605.468 201.872 605.591 201.845C605.713 201.818 605.84 201.812 605.965 201.829C606.09 201.845 606.21 201.883 606.319 201.94C606.427 201.997 606.521 202.073 606.597 202.162C606.672 202.252 606.727 202.353 606.757 202.461C620.239 249.758 618.53 299.433 601.821 345.921C584.52 393.828 552.295 436.473 508.828 468.98C466.387 500.904 414.742 521.809 359.639 529.371C304.536 536.933 248.136 530.855 196.715 511.812C196.576 511.761 196.453 511.682 196.356 511.581Z" fill="#E6E6E6"/>
        <path d="M174.137 526.641C174.055 526.556 173.993 526.458 173.954 526.352C173.915 526.246 173.9 526.134 173.91 526.023C173.92 525.912 173.955 525.803 174.013 525.704C174.07 525.605 174.149 525.517 174.245 525.445L628.415 184.005C628.609 183.859 628.861 183.787 629.115 183.805C629.369 183.823 629.605 183.929 629.77 184.1C629.935 184.272 630.017 184.494 629.996 184.718C629.976 184.942 629.856 185.15 629.662 185.296L175.492 526.736C175.396 526.809 175.285 526.864 175.165 526.898C175.045 526.932 174.918 526.945 174.792 526.936C174.666 526.928 174.544 526.897 174.431 526.846C174.319 526.795 174.219 526.726 174.137 526.641Z" fill="#E6E6E6"/>
        <path d="M0.229637 346.472C0.147737 346.388 0.0855835 346.289 0.0467064 346.183C0.00782922 346.077 -0.00700841 345.966 0.00305971 345.855C0.0131278 345.743 0.0478982 345.635 0.105378 345.536C0.162857 345.437 0.241925 345.349 0.33806 345.276L454.507 3.8363C454.702 3.69065 454.953 3.61897 455.207 3.63702C455.461 3.65506 455.697 3.76135 455.862 3.93253C456.027 4.10372 456.109 4.3258 456.088 4.54997C456.068 4.77413 455.948 4.98206 455.754 5.12805L1.58492 346.568C1.48883 346.64 1.37754 346.695 1.25742 346.73C1.13729 346.764 1.01068 346.777 0.884822 346.768C0.758962 346.759 0.63633 346.728 0.523911 346.678C0.411493 346.627 0.311489 346.557 0.229637 346.472Z" fill="#E6E6E6"/>
        <path d="M174.137 526.641C174.055 526.556 173.993 526.458 173.954 526.352C173.915 526.246 173.9 526.134 173.91 526.023C173.92 525.912 173.955 525.803 174.013 525.704C174.07 525.605 174.149 525.517 174.245 525.445L628.415 184.005C628.609 183.859 628.861 183.787 629.115 183.805C629.369 183.823 629.605 183.929 629.77 184.1C629.935 184.272 630.017 184.494 629.996 184.718C629.976 184.942 629.856 185.15 629.662 185.296L175.492 526.736C175.396 526.809 175.285 526.864 175.165 526.898C175.045 526.932 174.918 526.945 174.792 526.936C174.666 526.928 174.544 526.897 174.431 526.846C174.319 526.795 174.219 526.726 174.137 526.641Z" fill="#E6E6E6"/>
        <path d="M530.992 141.23H355.214V140.417C355.214 139.785 354.929 139.178 354.422 138.731C353.916 138.284 353.228 138.032 352.511 138.032H278.212C277.495 138.032 276.808 138.284 276.301 138.731C275.794 139.178 275.51 139.785 275.51 140.417V141.23H99.0072C95.8538 141.23 92.8295 142.335 90.5997 144.303C88.3699 146.271 87.1172 148.94 87.1172 151.723V364.142C87.1172 366.925 88.3699 369.594 90.5997 371.562C92.8295 373.529 95.8538 374.635 99.0072 374.635H530.992C534.145 374.635 537.169 373.529 539.399 371.562C541.629 369.594 542.882 366.925 542.882 364.142V151.723C542.882 148.94 541.629 146.271 539.399 144.303C537.169 142.335 534.145 141.23 530.992 141.23Z" fill="#3F3D56"/>
        <path d="M108.463 163.562C108.168 163.563 107.885 163.666 107.677 163.85C107.468 164.034 107.351 164.284 107.351 164.544V366.029C107.351 366.289 107.468 366.538 107.677 366.722C107.885 366.907 108.168 367.01 108.463 367.01H521.536C521.831 367.01 522.114 366.907 522.322 366.723C522.531 366.538 522.648 366.289 522.648 366.029V164.544C522.648 164.284 522.531 164.034 522.322 163.85C522.114 163.666 521.831 163.563 521.536 163.562H108.463Z" fill="#0912F1"/>
        <path d="M314.638 154.019C317.039 154.019 318.985 152.301 318.985 150.182C318.985 148.063 317.039 146.345 314.638 146.345C312.236 146.345 310.29 148.063 310.29 150.182C310.29 152.301 312.236 154.019 314.638 154.019Z" fill="#6C63FF"/>
        <path d="M550.799 360.319H509.43V356.549C509.43 356.341 509.166 356.174 508.839 356.174H494.656C494.33 356.174 494.065 356.341 494.065 356.549V360.319H485.2V356.549C485.2 356.341 484.936 356.174 484.609 356.174H470.426C470.1 356.174 469.835 356.341 469.835 356.549V360.319H460.97V356.549C460.97 356.341 460.706 356.174 460.379 356.174H446.196C445.87 356.174 445.605 356.341 445.605 356.549V360.319H436.741V356.549C436.741 356.341 436.476 356.174 436.15 356.174H421.966C421.64 356.174 421.375 356.341 421.375 356.549V360.319H412.51V356.549C412.51 356.341 412.246 356.174 411.92 356.174H397.736C397.41 356.174 397.145 356.341 397.145 356.549V360.319H388.281V356.549C388.281 356.341 388.016 356.174 387.69 356.174H373.506C373.18 356.174 372.915 356.341 372.915 356.549V360.319H364.051V356.549C364.051 356.341 363.786 356.174 363.46 356.174H252.356C252.03 356.174 251.765 356.341 251.765 356.549V360.319H242.901V356.549C242.901 356.341 242.636 356.174 242.31 356.174H228.126C227.8 356.174 227.536 356.341 227.536 356.549V360.319H218.671V356.549C218.671 356.341 218.406 356.174 218.08 356.174H203.897C203.57 356.174 203.306 356.341 203.306 356.549V360.319H194.441V356.549C194.441 356.341 194.176 356.174 193.85 356.174H179.667C179.34 356.174 179.076 356.341 179.076 356.549V360.319H170.211V356.549C170.211 356.341 169.946 356.174 169.62 356.174H155.437C155.11 356.174 154.846 356.341 154.846 356.549V360.319H145.981V356.549C145.981 356.341 145.717 356.174 145.39 356.174H131.207C130.88 356.174 130.616 356.341 130.616 356.549V360.319H121.751V356.549C121.751 356.341 121.487 356.174 121.16 356.174H106.977C106.65 356.174 106.386 356.341 106.386 356.549V360.319H79.201C71.3677 360.319 65.0176 364.347 65.0176 369.317V373.386C65.0176 378.355 71.3677 382.384 79.201 382.384H550.799C558.632 382.384 564.982 378.355 564.982 373.386V369.317C564.982 364.347 558.632 360.319 550.799 360.319Z" fill="#3F3D56"/>
        <path d="M266.907 248.33H144.812C144.557 248.33 144.312 248.241 144.132 248.081C143.952 247.922 143.851 247.707 143.851 247.481C143.851 247.256 143.952 247.041 144.132 246.882C144.312 246.722 144.557 246.633 144.812 246.633H266.907C267.162 246.633 267.407 246.722 267.587 246.882C267.767 247.041 267.868 247.256 267.868 247.481C267.868 247.707 267.767 247.922 267.587 248.081C267.407 248.241 267.162 248.33 266.907 248.33Z" fill="#F2F2F2"/>
        <path d="M266.907 266.996H144.812C144.557 266.996 144.312 266.906 144.132 266.747C143.952 266.588 143.851 266.372 143.851 266.147C143.851 265.922 143.952 265.706 144.132 265.547C144.312 265.388 144.557 265.299 144.812 265.299H266.907C267.162 265.299 267.407 265.388 267.587 265.547C267.767 265.706 267.868 265.922 267.868 266.147C267.868 266.372 267.767 266.588 267.587 266.747C267.407 266.906 267.162 266.996 266.907 266.996Z" fill="#F2F2F2"/>
        <path d="M266.907 285.661H144.812C144.685 285.662 144.56 285.64 144.443 285.597C144.326 285.555 144.22 285.492 144.13 285.414C144.041 285.335 143.97 285.241 143.921 285.138C143.873 285.035 143.848 284.924 143.848 284.813C143.848 284.701 143.873 284.591 143.921 284.488C143.97 284.384 144.041 284.291 144.13 284.212C144.22 284.133 144.326 284.071 144.443 284.028C144.56 283.986 144.685 283.964 144.812 283.964H266.907C267.033 283.964 267.159 283.986 267.276 284.028C267.393 284.071 267.499 284.133 267.589 284.212C267.678 284.291 267.749 284.384 267.798 284.488C267.846 284.591 267.871 284.701 267.871 284.813C267.871 284.924 267.846 285.035 267.798 285.138C267.749 285.241 267.678 285.335 267.589 285.414C267.499 285.492 267.393 285.555 267.276 285.597C267.159 285.64 267.033 285.662 266.907 285.661Z" fill="#F2F2F2"/>
        <path d="M474.084 199.544H323.148C321.555 199.544 320.264 200.684 320.264 202.09V330.205C320.264 331.61 321.555 332.75 323.148 332.75H474.084C475.677 332.75 476.968 331.61 476.968 330.205V202.09C476.968 200.684 475.677 199.544 474.084 199.544Z" fill="white"/>
        <path d="M351.642 270.041C352.159 261.973 355.906 254.329 362.215 248.473C368.524 242.616 376.985 238.927 386.089 238.064C395.193 237.2 404.349 239.218 411.924 243.758C419.498 248.298 425 255.065 427.448 262.852C427.916 262.837 428.383 262.82 428.856 262.82C430.466 262.834 432.065 263.074 433.59 263.531C452.808 269.101 447.748 294.423 427.52 294.423H377.806C374.29 294.432 370.809 293.815 367.569 292.608C364.33 291.401 361.4 289.63 358.955 287.401C356.509 285.171 354.599 282.529 353.338 279.632C352.076 276.736 351.491 273.645 351.615 270.544C351.623 270.376 351.632 270.209 351.642 270.041Z" fill="#0912F1"/>
        <path d="M396.955 269.51V255.553H388.44V269.51H381.642L387.169 277.96L392.698 286.41L398.226 277.96L403.753 269.51H396.955Z" fill="white"/>
    </g>
    <defs>
        <clipPath id="clip0_1346_4191">
            <rect width="630" height="532" fill="white" transform="translate(0 0.5)"/>
        </clipPath>
    </defs>
</svg>
