<svg width="100" height="85" viewBox="0 0 630 532" fill="none" xmlns="http://www.w3.org/2000/svg">
    <g clip-path="url(#clip0_1346_4144)">
        <path d="M279.803 128.454H0.119141V294.253H279.803V128.454Z" fill="#F2F2F2"/>
        <path d="M271.806 149.249H8.11719V284.444H271.806V149.249Z" fill="white"/>
        <path d="M279.684 128.307H0V139.305H279.684V128.307Z" fill="#0912F1"/>
        <path d="M8.83017 135.968C10.0464 135.968 11.0324 135.056 11.0324 133.93C11.0324 132.804 10.0464 131.892 8.83017 131.892C7.6139 131.892 6.62793 132.804 6.62793 133.93C6.62793 135.056 7.6139 135.968 8.83017 135.968Z" fill="white"/>
        <path d="M17.1886 135.968C18.4048 135.968 19.3908 135.056 19.3908 133.93C19.3908 132.804 18.4048 131.892 17.1886 131.892C15.9723 131.892 14.9863 132.804 14.9863 133.93C14.9863 135.056 15.9723 135.968 17.1886 135.968Z" fill="white"/>
        <path d="M25.5479 135.968C26.7642 135.968 27.7502 135.056 27.7502 133.93C27.7502 132.804 26.7642 131.892 25.5479 131.892C24.3317 131.892 23.3457 132.804 23.3457 133.93C23.3457 135.056 24.3317 135.968 25.5479 135.968Z" fill="white"/>
        <path d="M99.8328 163.277H32.0771V270.417H99.8328V163.277Z" fill="#F2F2F2"/>
        <path d="M167.991 163.277H111.528V192.768H167.991V163.277Z" fill="#0912F1"/>
        <path d="M167.991 200.981H111.528V232.712H167.991V200.981Z" fill="#F2F2F2"/>
        <path d="M167.991 240.925H111.528V270.417H167.991V240.925Z" fill="#F2F2F2"/>
        <path d="M247.846 163.277H180.091V209.968H247.846V163.277Z" fill="#F2F2F2"/>
        <path d="M247.846 223.726H180.091V270.417H247.846V223.726Z" fill="#F2F2F2"/>
        <path d="M630 128.454H350.316V294.253H630V128.454Z" fill="#F2F2F2"/>
        <path d="M622.003 149.249H358.313V284.444H622.003V149.249Z" fill="white"/>
        <path d="M629.88 128.307H350.196V139.305H629.88V128.307Z" fill="#0912F1"/>
        <path d="M359.026 135.968C360.243 135.968 361.229 135.056 361.229 133.93C361.229 132.804 360.243 131.892 359.026 131.892C357.81 131.892 356.824 132.804 356.824 133.93C356.824 135.056 357.81 135.968 359.026 135.968Z" fill="white"/>
        <path d="M367.386 135.968C368.602 135.968 369.588 135.056 369.588 133.93C369.588 132.804 368.602 131.892 367.386 131.892C366.17 131.892 365.184 132.804 365.184 133.93C365.184 135.056 366.17 135.968 367.386 135.968Z" fill="white"/>
        <path d="M375.744 135.968C376.96 135.968 377.946 135.056 377.946 133.93C377.946 132.804 376.96 131.892 375.744 131.892C374.528 131.892 373.542 132.804 373.542 133.93C373.542 135.056 374.528 135.968 375.744 135.968Z" fill="white"/>
        <path d="M597.981 163.277H530.226V270.417H597.981V163.277Z" fill="#F2F2F2"/>
        <path d="M519 163.275H382.334V192.766H519V163.275Z" fill="#0912F1"/>
        <path d="M519 200.979H382.334V232.711H519V200.979Z" fill="#F2F2F2"/>
        <path d="M519 240.923H382.334V270.415H519V240.923Z" fill="#F2F2F2"/>
        <path d="M313.416 0H311.853V79.0601H313.416V0Z" fill="#CCCCCC"/>
        <path d="M469.754 128.262H468.19V79.784H157.078V128.262H155.515V78.3369H469.754V128.262Z" fill="#CCCCCC"/>
        <path d="M324.137 221.02L322.96 215.572C322.96 215.572 305.646 210.124 303.709 221.02H324.137Z" fill="#E6E6E6"/>
        <path d="M290.909 520.987L279.558 520.986L274.158 480.461L290.911 480.461L290.909 520.987Z" fill="#FFB8B8"/>
        <path d="M293.803 531.171L257.203 531.169V530.741C257.203 527.244 258.704 523.89 261.376 521.417C264.047 518.945 267.671 517.555 271.449 517.555H271.45L293.804 517.556L293.803 531.171Z" fill="#2F2E41"/>
        <path d="M329.931 520.987L341.282 520.986L346.682 480.461L329.93 480.461L329.931 520.987Z" fill="#FFB8B8"/>
        <path d="M327.036 517.556L349.39 517.555H349.391C353.169 517.555 356.792 518.945 359.464 521.417C362.135 523.89 363.636 527.244 363.637 530.741V531.169L327.037 531.171L327.036 517.556Z" fill="#2F2E41"/>
        <path d="M340.617 243.901L353.565 242.811L361.804 278.767L360.627 311.454L347.679 355.037L330.022 345.231L339.439 300.558L340.617 243.901Z" fill="#2F2E41"/>
        <path d="M348.812 351.223L345.913 374.104L349.445 427.493V507.053L327.079 505.942L322.371 423.134L309.422 385L300.005 428.583L294.12 510.3L271.166 508.597V428.295L270.577 369.746L278.817 346.865L348.812 351.223Z" fill="#2F2E41"/>
        <path d="M300.594 222.11C300.594 222.11 308.834 211.214 324.136 218.841L331.199 227.557L353.565 242.811L348.856 294.021L354.742 358.305L271.166 357.216L285.291 292.931V224.289L300.594 222.11Z" fill="#2F2E41"/>
        <path opacity="0.25" d="M345.913 260.896L352.662 335.594L344.147 295.111L345.913 260.896Z" fill="black"/>
        <path d="M284.52 372.196C285.335 371.295 285.927 370.24 286.253 369.105C286.58 367.969 286.633 366.782 286.41 365.625C286.187 364.469 285.693 363.371 284.962 362.411C284.231 361.45 283.282 360.65 282.18 360.066L284.697 341.85L273.111 337.735L269.948 363.505C269.01 365.282 268.809 367.316 269.384 369.221C269.958 371.126 271.267 372.77 273.063 373.842C274.86 374.913 277.018 375.337 279.13 375.034C281.241 374.731 283.159 373.721 284.52 372.196Z" fill="#FFB8B8"/>
        <path d="M269.989 353.947H288.823V346.32H269.989V353.947Z" fill="#E6E6E6"/>
        <path d="M297.652 233.55L285.292 224.289C285.292 224.289 276.463 223.744 275.286 235.729C274.109 247.714 272.677 298.924 272.677 298.924L268.224 350.134L292.943 351.223L297.652 295.797V233.55Z" fill="#2F2E41"/>
        <path d="M334.435 198.139C340.697 187.536 336.487 174.242 325.032 168.446C313.577 162.65 299.215 166.547 292.953 177.15C286.691 187.753 290.901 201.047 302.356 206.843C313.811 212.639 328.173 208.742 334.435 198.139Z" fill="#FFB8B8"/>
        <path d="M311.929 206.945C317.712 208.23 323.805 207.48 329.024 204.84C334.243 202.201 338.216 197.86 340.171 192.661C342.126 187.462 341.924 181.776 339.604 176.707C337.284 171.638 333.011 167.548 327.616 165.232C323.461 163.515 318.917 162.76 314.377 163.032C307.308 163.377 300.437 165.795 293.36 165.617L292.335 167.143L288.469 166.275L287.641 169.116L286.623 169.083C284.799 172.221 287.733 176.712 291.582 176.674C293.106 176.659 294.546 176.071 296.037 175.776C297.527 175.48 299.281 175.554 300.309 176.596C301.644 177.949 301.063 180.062 300.784 181.877C300.506 183.692 301.201 186.136 303.181 186.196C304.192 186.226 305.154 185.555 306.147 185.731C307.304 185.937 307.889 187.23 307.72 188.309C307.434 189.369 306.966 190.379 306.336 191.301C303.467 196.603 305.889 203.815 311.501 206.675" fill="#2F2E41"/>
        <path d="M461.546 532H163.723C163.516 532 163.317 531.924 163.17 531.788C163.024 531.652 162.941 531.468 162.941 531.277C162.941 531.085 163.024 530.901 163.17 530.765C163.317 530.629 163.516 530.553 163.723 530.553H461.546C461.754 530.553 461.953 530.629 462.099 530.765C462.246 530.901 462.328 531.085 462.328 531.277C462.328 531.468 462.246 531.652 462.099 531.788C461.953 531.924 461.754 532 461.546 532Z" fill="#CCCCCC"/>
    </g>
    <defs>
        <clipPath id="clip0_1346_4144">
            <rect width="630" height="532" fill="white"/>
        </clipPath>
    </defs>
</svg>
