<svg width="100" height="85" viewBox="0 0 100 85" fill="none" xmlns="http://www.w3.org/2000/svg">
    <g clip-path="url(#clip0_1763_3963)">
        <path d="M81.4421 40.6912C81.4421 41.8759 81.3923 43.0486 81.2926 44.2093C81.2141 45.1153 81.107 46.0132 80.9713 46.903C80.8271 47.845 80.6503 48.7758 80.4411 49.6952V49.6963C80.3043 50.3014 80.154 50.9015 79.9904 51.4967C79.5155 53.2269 78.9249 54.9234 78.2226 56.5746C78.0699 56.9339 77.9122 57.2906 77.7496 57.6449C77.1344 58.9866 76.4454 60.2934 75.686 61.5593C73.5562 65.1142 70.8977 68.3246 67.8016 71.0805C67.4665 71.3783 67.1268 71.6711 66.7825 71.959C59.4725 78.0611 50.2461 81.3973 40.7211 81.3826C18.2312 81.3826 0 63.1647 0 40.6912C0 18.2177 18.2312 -0.000193741 40.7211 -0.000193741C49.9182 -0.0146849 58.8469 3.09616 66.0413 8.82157C66.3785 9.08861 66.7115 9.36165 67.0402 9.6407C68.6444 11.0002 70.1416 12.4811 71.5185 14.0701H71.5195C77.9325 21.4571 81.4566 30.9119 81.4421 40.6912Z" fill="#F2F2F2"/>
        <path d="M12.0207 47.7203C8.14149 45.4132 5.21366 41.1016 5.59377 36.6067C9.14027 39.9986 13.7731 42.0276 18.6725 42.3347C20.5625 42.4463 22.6762 42.3738 24.0674 43.657C24.9331 44.4554 25.336 45.6574 25.4021 46.8327C25.4682 48.0081 25.2326 49.1771 24.9982 50.3308L25.0789 50.6134C20.5647 50.6303 15.8998 50.0274 12.0207 47.7203Z" fill="#E6E6E6"/>
        <path d="M5.68805 36.6019C7.24233 39.9973 9.82774 42.817 13.077 44.6606C13.7756 45.0513 14.5182 45.3869 15.3074 45.5425C16.0778 45.6884 16.8732 45.6254 17.611 45.3601C18.3039 45.1266 18.9856 44.8076 19.7233 44.7465C20.5008 44.6821 21.2206 44.9818 21.7861 45.5068C22.4781 46.1492 22.8978 47.0017 23.2792 47.8496C23.7028 48.7911 24.1278 49.7757 24.9398 50.4527C25.0382 50.5347 24.905 50.6825 24.8068 50.6006C23.394 49.4227 23.1634 47.45 22.0341 46.0627C21.5072 45.4154 20.7818 44.9228 19.9201 44.9358C19.1666 44.9471 18.4633 45.2755 17.7638 45.518C17.0292 45.7726 16.2934 45.8922 15.5179 45.7802C14.7247 45.6656 13.9674 45.3583 13.2619 44.9872C11.6685 44.1336 10.2192 43.035 8.96731 41.7316C7.53024 40.2519 6.35706 38.5375 5.49853 36.6625C5.44544 36.5464 5.63531 36.4866 5.68805 36.6019H5.68805Z" fill="white"/>
        <path d="M11.9965 44.1285C11.613 44.6312 11.0631 44.9814 10.4451 45.1164C9.827 45.2515 9.18103 45.1626 8.62252 44.8656C8.50972 44.8051 8.59846 44.6271 8.71141 44.6877C9.23099 44.9652 9.83272 45.0479 10.408 44.921C10.9833 44.7941 11.4942 44.4659 11.8485 43.9956C11.9257 43.8935 12.0732 44.0269 11.9965 44.1285L11.9965 44.1285Z" fill="white"/>
        <path d="M17.2755 45.5248C17.1141 44.2426 16.4749 43.0682 15.4856 42.236C15.3875 42.1536 15.5206 42.0058 15.6185 42.0881C16.6465 42.9561 17.3091 44.1795 17.4742 45.5142C17.4898 45.6414 17.291 45.6513 17.2755 45.5248V45.5248Z" fill="white"/>
        <path d="M7.77723 40.1586C7.9662 39.995 8.11153 39.787 8.20018 39.5534C8.28883 39.3198 8.31803 39.0678 8.28514 38.8201C8.26789 38.6931 8.46668 38.6834 8.48381 38.8095C8.51888 39.0833 8.48629 39.3616 8.38892 39.6199C8.29155 39.8783 8.13235 40.1088 7.92522 40.2915C7.90714 40.3104 7.88256 40.3216 7.85646 40.323C7.83037 40.3244 7.80472 40.3158 7.78474 40.299C7.76523 40.2813 7.7535 40.2567 7.7521 40.2304C7.75069 40.2041 7.75973 40.1783 7.77723 40.1586V40.1586Z" fill="white"/>
        <path d="M18.1502 27.8984C18.1632 27.9774 18.1762 28.0564 18.1908 28.1361C18.3714 29.1969 18.638 30.2413 18.9879 31.259C19.0137 31.3381 19.041 31.4179 19.0691 31.4961C19.9382 33.939 21.2536 36.1993 22.9485 38.1623C23.6237 38.9428 24.3573 39.6709 25.143 40.3401C26.2281 41.2644 27.4783 42.1802 28.174 43.3736C28.248 43.4972 28.3142 43.6254 28.3724 43.7573L25.4175 50.493C25.4031 50.5049 25.3902 50.5176 25.3757 50.5296L25.2701 50.804C25.2271 50.7723 25.1833 50.7385 25.1403 50.7068C25.1154 50.6885 25.091 50.6687 25.0661 50.6504C25.0496 50.6378 25.0332 50.625 25.0176 50.6146C25.0121 50.6104 25.0067 50.6061 25.0027 50.6026C24.9871 50.5921 24.9738 50.5807 24.9598 50.5709C24.7142 50.3827 24.4694 50.1924 24.2256 50.0001C24.2241 49.9995 24.2241 49.9995 24.2232 49.9973C22.3691 48.5273 20.6215 46.8898 19.1782 45.0392C19.1348 44.9835 19.0898 44.9272 19.0478 44.8684C18.4018 44.0307 17.8255 43.1416 17.3245 42.21C17.0518 41.699 16.8052 41.1745 16.5856 40.6386C16.0208 39.2528 15.6777 37.7869 15.5688 36.2946C15.3521 33.3196 16.0901 30.3084 18.0024 28.0682C18.0514 28.0109 18.0997 27.955 18.1502 27.8984Z" fill="#E6E6E6"/>
        <path d="M18.2292 27.9511C17.4245 31.5973 17.7899 35.4041 19.2735 38.8309C19.5959 39.5632 19.9866 40.2779 20.5229 40.877C21.0502 41.4569 21.7232 41.8852 22.4721 42.1173C23.1661 42.3477 23.9026 42.5031 24.5284 42.8981C25.188 43.3145 25.5822 43.9869 25.7174 44.7463C25.8828 45.6755 25.7043 46.6087 25.498 47.5152C25.2689 48.5217 25.015 49.5635 25.2554 50.5926C25.2846 50.7173 25.0892 50.7552 25.0602 50.6307C24.6418 48.8402 25.6463 47.1264 25.5805 45.3393C25.5497 44.5054 25.2674 43.6757 24.5715 43.1677C23.963 42.7234 23.2036 42.5625 22.499 42.3352C21.7591 42.0966 21.0995 41.7494 20.5478 41.1934C19.9835 40.6247 19.564 39.9237 19.2243 39.2029C18.4663 37.5628 17.9711 35.8137 17.7569 34.0198C17.501 31.9738 17.5972 29.8991 18.0414 27.8855C18.0689 27.7609 18.2566 27.8273 18.2292 27.9511Z" fill="white"/>
        <path d="M18.7311 37.7556C18.1219 37.9263 17.4719 37.875 16.897 37.611C16.3222 37.347 15.86 36.8874 15.593 36.3143C15.5393 36.1981 15.7174 36.1094 15.7711 36.2257C16.0188 36.7598 16.4494 37.1879 16.9852 37.4327C17.521 37.6775 18.1267 37.7228 18.693 37.5605C18.8161 37.5253 18.8535 37.7207 18.7311 37.7556H18.7311Z" fill="white"/>
        <path d="M22.1053 42.0468C22.7489 40.9259 22.9462 39.6037 22.6576 38.344C22.6289 38.2192 22.8243 38.1812 22.8529 38.3059C23.1507 39.6174 22.9427 40.9929 22.2703 42.1578C22.2061 42.2688 22.0414 42.1571 22.1053 42.0468Z" fill="white"/>
        <path d="M17.7542 32.0478C18.0036 32.0308 18.245 31.9522 18.4565 31.819C18.6681 31.6858 18.8432 31.5021 18.9662 31.2846C19.0289 31.1728 19.1935 31.2846 19.1312 31.3956C18.9942 31.6354 18.8006 31.8379 18.5672 31.9856C18.3338 32.1333 18.0677 32.2216 17.7923 32.2429C17.7665 32.2471 17.7401 32.2413 17.7184 32.2267C17.6967 32.2121 17.6814 32.1898 17.6756 32.1644C17.6707 32.1385 17.6762 32.1117 17.6909 32.0899C17.7056 32.0681 17.7283 32.0529 17.7542 32.0478V32.0478Z" fill="white"/>
        <path d="M28.2077 9.431L33.1918 67.7333L23.2236 68.4823V10.1728C24.4114 9.38738 26.1165 9.2645 28.2077 9.431Z" fill="#CCCCCC"/>
        <path d="M52.8103 9.431L47.8262 67.7333L57.7943 68.4823V10.1728C56.6065 9.38738 54.9015 9.2645 52.8103 9.431Z" fill="#CCCCCC"/>
        <path d="M56.3015 70.8921H24.6101C24.1019 70.8916 23.6147 70.6896 23.2554 70.3305C22.8961 69.9714 22.6939 69.4846 22.6934 68.9768V11.0286C22.6939 10.5208 22.8961 10.034 23.2554 9.67491C23.6147 9.31584 24.1019 9.11386 24.6101 9.11328H56.3015C56.8097 9.11386 57.2969 9.31584 57.6562 9.67491C58.0155 10.034 58.2177 10.5208 58.2182 11.0286V68.9768C58.2177 69.4846 58.0155 69.9714 57.6562 70.3305C57.2969 70.6896 56.8097 70.8916 56.3015 70.8921ZM24.6101 9.74908C24.2706 9.74946 23.9451 9.88439 23.7051 10.1243C23.465 10.3641 23.33 10.6894 23.3296 11.0286V68.9768C23.33 69.316 23.465 69.6412 23.7051 69.8811C23.9451 70.121 24.2706 70.256 24.6101 70.2563H56.3015C56.641 70.256 56.9665 70.121 57.2065 69.8811C57.4466 69.6412 57.5816 69.316 57.582 68.9768V11.0286C57.5816 10.6894 57.4466 10.3641 57.2065 10.1243C56.9665 9.88439 56.641 9.74946 56.3015 9.74908L24.6101 9.74908Z" fill="#CCCCCC"/>
        <path d="M57.9003 18.7561H23.0117V19.3919H57.9003V18.7561Z" fill="#CCCCCC"/>
        <path d="M57.9003 29.353H23.0117V29.9888H57.9003V29.353Z" fill="#CCCCCC"/>
        <path d="M34.3335 9.43115H33.6973V38.3602H34.3335V9.43115Z" fill="#CCCCCC"/>
        <path d="M47.2144 9.43115H46.5781V38.3602H47.2144V9.43115Z" fill="#CCCCCC"/>
        <path d="M61.8771 72.6404H20.0956C19.3363 72.6404 18.608 72.339 18.071 71.8024C17.5341 71.2659 17.2324 70.5381 17.2324 69.7793C17.2324 69.0205 17.5341 68.2928 18.071 67.7562C18.608 67.2197 19.3363 66.9182 20.0956 66.9182H61.8771C62.6365 66.9182 63.3648 67.2197 63.9017 67.7562C64.4387 68.2928 64.7403 69.0205 64.7403 69.7793C64.7403 70.5381 64.4387 71.2659 63.9017 71.8024C63.3648 72.339 62.6365 72.6404 61.8771 72.6404Z" fill="#CCCCCC"/>
        <path d="M57.9002 36.8765H23.2236V38.9958H57.9002V36.8765Z" fill="#CCCCCC"/>
        <path d="M34.4321 43.6213L34.3881 43.6001C32.0242 42.459 28.9286 42.4601 24.3507 43.6039L24.3018 43.6161L24.2871 43.5678C23.8028 41.9811 23.2542 40.1839 24.2848 39.2997C24.2993 36.705 26.5769 34.5981 29.3745 34.5981C32.1715 34.5981 34.4489 36.7039 34.4641 39.2979C35.9973 40.4692 35.2666 42.2002 34.4569 43.5792L34.4321 43.6213Z" fill="#2F2E41"/>
        <path d="M48.9614 38.0656C48.919 38.2759 48.831 38.4743 48.7036 38.6469C48.5762 38.8195 48.4124 38.962 48.2239 39.0646C48.0354 39.1671 47.8267 39.227 47.6124 39.2402C47.3982 39.2534 47.1837 39.2195 46.984 39.1409L38.6301 47.5297L37.8848 44.925L46.1818 37.1348C46.3362 36.8083 46.605 36.5498 46.9375 36.4082C47.2699 36.2666 47.6427 36.2517 47.9853 36.3665C48.328 36.4812 48.6166 36.7176 48.7964 37.0307C48.9763 37.3439 49.035 37.7121 48.9614 38.0656L48.9614 38.0656Z" fill="#FFB6B6"/>
        <path d="M28.315 46.1416C28.315 46.1416 27.5571 47.8579 29.4272 48.9164C31.2974 49.9748 37.8337 48.5125 38.8942 48.3083C39.9548 48.1041 43.916 42.1805 43.916 42.1805L43.3559 39.2754L38.1024 43.8325L28.315 46.1416Z" fill="#0912F1"/>
        <path d="M26.9349 55.6328L27.041 57.6462C27.041 57.6462 26.728 59.4297 26.9854 59.8145C27.2409 60.1975 34.2123 60.2458 34.2123 60.2458C34.2123 60.2458 34.673 57.7645 35.0698 55.5925L26.9349 55.6328Z" fill="#FFB6B6"/>
        <path d="M46.9789 82.254L48.4363 81.9598L48.0192 76.0771L45.8682 76.5113L46.9789 82.254Z" fill="#FFB6B6"/>
        <path d="M49.0666 74.5987L50.4215 73.9899L48.6638 68.3613L46.6641 69.2599L49.0666 74.5987Z" fill="#FFB6B6"/>
        <path d="M50.2476 71.4272L47.6964 72.8707L41.4045 62.7676C36.9876 65.7412 32.6685 67.1652 28.3143 67.9251C26.8422 68.187 25.3413 68.0542 25.0587 66.557C25.0455 66.487 25.035 66.4166 25.0271 66.3459C24.8533 64.7105 26.8891 62.6142 27.1479 60.6133L32.7195 60.2791L33.4065 61.1594L39.8499 57.2008C41.1457 56.4048 42.85 56.8353 43.6566 58.1626C43.6992 58.2326 43.7387 58.3045 43.7752 58.378L50.2476 71.4272Z" fill="#2F2E41"/>
        <path d="M48.686 78.2236L45.7668 78.4946L40.4738 67.6774C35.2251 68.5795 30.2734 68.8684 25.9904 67.7772C24.5403 67.4129 23.6539 65.9166 24.0105 64.4353C24.0272 64.366 24.0465 64.2975 24.0684 64.2297C24.581 62.6669 25.9227 61.5612 26.9799 59.8423L34.7017 59.9595L33.8392 62.9332L41.3405 61.9632C42.849 61.7681 44.2267 62.8592 44.4176 64.4002C44.4277 64.4816 44.4343 64.5633 44.4374 64.6454L48.686 78.2236Z" fill="#2F2E41"/>
        <path d="M29.9499 42.0836C31.6816 42.0836 33.0854 40.6808 33.0854 38.9504C33.0854 37.2199 31.6816 35.8171 29.9499 35.8171C28.2183 35.8171 26.8145 37.2199 26.8145 38.9504C26.8145 40.6808 28.2183 42.0836 29.9499 42.0836Z" fill="#FFB6B6"/>
        <path d="M28.1126 43.2146L30.9875 43.5526C31.1088 43.5668 31.2225 43.6185 31.313 43.7005C31.4034 43.7824 31.466 43.8905 31.4921 44.0096L31.9493 46.1003L34.7994 49.4542C34.7994 49.4542 35.8229 51.3718 35.4391 53.545C35.0553 55.7183 34.8866 57.3331 34.8866 57.3331C34.8866 57.3331 27.2412 60.1976 26.9854 59.8141C26.7295 59.4305 26.6465 57.6885 26.6465 57.6885L25.623 46.3109C25.623 46.3109 26.7744 44.3934 27.4141 44.3934C27.8269 44.3794 27.774 43.451 28.1126 43.2146Z" fill="#0912F1"/>
        <path d="M34.9644 58.0327C35.3675 58.0327 35.6943 57.6408 35.6943 57.1573C35.6943 56.6739 35.3675 56.282 34.9644 56.282C34.5612 56.282 34.2344 56.6739 34.2344 57.1573C34.2344 57.6408 34.5612 58.0327 34.9644 58.0327Z" fill="#6C63FF"/>
        <path d="M46.2559 80.7392L48.4779 79.6265L48.8967 80.6028L51.7065 81.1703C51.8452 81.1983 51.9714 81.27 52.0666 81.3747C52.1618 81.4795 52.2209 81.6119 52.2355 81.7526C52.25 81.8933 52.2191 82.035 52.1473 82.157C52.0756 82.2789 51.9667 82.3748 51.8365 82.4305L49.1217 83.5934L48.2395 82.8281L48.4711 83.8721L47.4474 84.3105L46.2559 80.7392Z" fill="#2F2E41"/>
        <path d="M48.4307 74.1302L50.6327 72.9785L51.0686 73.9473L53.888 74.4654C54.0273 74.491 54.1547 74.5604 54.2517 74.6634C54.3487 74.7665 54.4102 74.8978 54.4272 75.0383C54.4442 75.1787 54.4158 75.321 54.3462 75.4442C54.2766 75.5674 54.1694 75.6651 54.0403 75.7231L51.3463 76.9335L50.4508 76.1839L50.7007 77.2236L49.6849 77.68L48.4307 74.1302Z" fill="#2F2E41"/>
        <path d="M28.1594 37.9675C27.331 37.9688 26.5225 37.7139 25.8449 37.2378L25.8223 37.222V37.1944C25.8232 36.3937 26.1419 35.6261 26.7085 35.0599C27.2751 34.4937 28.0433 34.1752 28.8445 34.1743H30.1171C30.9183 34.1752 31.6865 34.4937 32.2531 35.0599C32.8197 35.6261 33.1384 36.3937 33.1393 37.1944C33.1385 37.3776 33.0661 37.5533 32.9375 37.684C32.809 37.8147 32.6344 37.8901 32.4511 37.8941L28.2309 37.9668C28.2071 37.9672 28.1832 37.9675 28.1594 37.9675Z" fill="#2F2E41"/>
        <path d="M33.3514 36.6144C33.7571 36.3803 33.825 35.7385 33.5028 35.181C33.1807 34.6235 32.5907 34.3613 32.1849 34.5954C31.7791 34.8295 31.7113 35.4712 32.0334 36.0288C32.3556 36.5863 32.9456 36.8485 33.3514 36.6144Z" fill="#2F2E41"/>
        <path d="M27.0051 35.9926C27.4606 35.5374 27.5613 34.9 27.23 34.5689C26.8987 34.2378 26.2608 34.3385 25.8053 34.7937C25.3498 35.2489 25.249 35.8863 25.5803 36.2174C25.9116 36.5484 26.5495 36.4478 27.0051 35.9926Z" fill="#2F2E41"/>
        <path d="M54.7549 64.6399H51.6253C51.5547 64.6397 51.4849 64.655 51.4208 64.6846C51.3567 64.7142 51.2999 64.7574 51.2543 64.8113C51.1389 64.7901 51.02 64.7965 50.9076 64.8301C50.7951 64.8637 50.6923 64.9235 50.6074 65.0045C50.5225 65.0855 50.4581 65.1855 50.4194 65.2962C50.3807 65.4069 50.3689 65.5253 50.3848 65.6415C50.4007 65.7576 50.444 65.8684 50.5111 65.9646C50.5782 66.0609 50.6672 66.1398 50.7707 66.1951C50.8743 66.2503 50.9894 66.2802 51.1068 66.2823C51.2241 66.2844 51.3403 66.2587 51.4458 66.2072L51.7053 67.0501C51.7361 67.15 51.7981 67.2374 51.8822 67.2995C51.9663 67.3616 52.0682 67.395 52.1728 67.395H54.2075C54.3121 67.395 54.4139 67.3615 54.4981 67.2995C54.5822 67.2374 54.6442 67.15 54.6749 67.0501L55.2224 65.2723C55.2449 65.1992 55.2499 65.1218 55.237 65.0465C55.2242 64.9711 55.1938 64.8998 55.1483 64.8383C55.1028 64.7767 55.0436 64.7268 54.9752 64.6923C54.9069 64.6579 54.8315 64.6399 54.7549 64.6399ZM51.1222 66.0705C50.9816 66.0705 50.8468 66.0146 50.7473 65.9153C50.6479 65.8159 50.592 65.6811 50.592 65.5406C50.592 65.4001 50.6479 65.2653 50.7473 65.166C50.8468 65.0666 50.9816 65.0108 51.1222 65.0108C51.1319 65.0108 51.1409 65.0131 51.1505 65.0136C51.1294 65.0989 51.132 65.1883 51.1579 65.2723L51.3819 65.9997C51.303 66.0455 51.2135 66.0699 51.1222 66.0705Z" fill="#3F3D56"/>
        <path d="M40.7792 62.3397C40.5655 62.3595 40.35 62.3322 40.148 62.2597C39.946 62.1873 39.7624 62.0714 39.61 61.9204C39.4576 61.7693 39.3402 61.5867 39.2661 61.3854C39.192 61.1842 39.163 60.9691 39.1811 60.7554L28.7422 55.1654L31.0254 53.7046L40.8741 59.4118C41.2313 59.4659 41.5563 59.6492 41.7874 59.9267C42.0186 60.2043 42.1398 60.557 42.1281 60.9179C42.1164 61.2788 41.9726 61.6229 41.724 61.8849C41.4754 62.147 41.1392 62.3088 40.7792 62.3397Z" fill="#FFB6B6"/>
        <path d="M27.114 44.8927C27.114 44.8927 25.2512 44.6596 24.7731 46.7536C24.295 48.8475 27.5722 54.6848 28.0722 55.6415C28.5723 56.5981 35.3875 58.6904 35.3875 58.6904L38.0118 57.3207L32.1358 53.5993L27.114 44.8927Z" fill="#0912F1"/>
        <path d="M40.2436 36.2407H40.8799C41.1893 36.2407 41.486 36.3635 41.7047 36.5821C41.9235 36.8007 42.0464 37.0972 42.0464 37.4064H39.0771C39.0771 37.0972 39.2 36.8007 39.4188 36.5821C39.6376 36.3635 39.9343 36.2407 40.2436 36.2407Z" fill="#CCCCCC"/>
        <path d="M20.0681 14.4925C23.5494 14.4925 26.3716 11.6724 26.3716 8.19366C26.3716 4.71488 23.5494 1.89478 20.0681 1.89478C16.5868 1.89478 13.7646 4.71488 13.7646 8.19366C13.7646 11.6724 16.5868 14.4925 20.0681 14.4925Z" fill="#FF6584"/>
        <path d="M39.3681 7.8655C37.6998 6.11677 35.7624 4.52148 33.4688 3.67847C32.8299 3.44265 32.1675 3.2763 31.4929 3.1823C31.4875 3.18156 31.4824 3.18266 31.477 3.18222C31.466 3.17939 31.4549 3.17721 31.4437 3.17568C30.5002 3.05558 29.5426 3.11335 28.6205 3.346C28.1696 3.45907 27.7297 3.61221 27.306 3.80358C26.8809 4.01083 26.469 4.24411 26.0726 4.50208C25.2336 5.00393 24.3099 5.34828 23.347 5.51816C22.8637 5.60511 22.3741 5.65313 21.8831 5.66173C21.457 5.67027 21.0552 5.68506 20.6516 5.83888C20.2204 6.00091 19.833 6.26141 19.5205 6.59959C19.2079 6.93777 18.9788 7.34427 18.8514 7.78666C18.8416 7.82605 18.8445 7.86755 18.8598 7.90515C18.8752 7.94276 18.902 7.97453 18.9366 7.99588C19.0458 8.07403 19.1522 8.16269 19.267 8.23231C19.369 8.279 19.478 8.3087 19.5897 8.32027C19.7721 8.35873 19.9547 8.39606 20.1376 8.43228C20.8112 8.56566 21.4877 8.68373 22.167 8.78649C23.5415 8.99441 24.9234 9.14087 26.3127 9.22587C29.096 9.39434 31.8887 9.31046 34.6568 8.97527C36.2125 8.78699 37.7576 8.51993 39.2862 8.17514C39.3172 8.1661 39.3453 8.14922 39.3678 8.12614C39.3903 8.10306 39.4064 8.07456 39.4147 8.04341C39.4229 8.01225 39.4229 7.9795 39.4148 7.94833C39.4066 7.91716 39.3905 7.88863 39.3681 7.8655Z" fill="#E6E6E6"/>
        <path d="M20.3673 12.0769C19.7284 11.8411 19.0659 11.6747 18.3914 11.5807C18.386 11.58 18.3808 11.5811 18.3754 11.5807C18.3645 11.5778 18.3533 11.5756 18.3421 11.5741C17.3987 11.454 16.4411 11.5118 15.519 11.7444C15.068 11.8575 14.6281 12.0106 14.2045 12.202C13.7794 12.4093 13.3674 12.6425 12.9711 12.9005C12.1321 13.4024 11.2084 13.7467 10.2454 13.9166C9.76211 14.0035 9.27257 14.0516 8.78154 14.0602C8.35548 14.0687 7.95369 14.0835 7.55002 14.2373C7.11882 14.3993 6.73149 14.6598 6.41893 14.998C6.10637 15.3362 5.87724 15.7427 5.74983 16.1851C5.74 16.2245 5.74296 16.266 5.75828 16.3036C5.77359 16.3412 5.80047 16.373 5.83503 16.3943C5.94422 16.4725 6.05067 16.5611 6.1654 16.6307C6.26746 16.6774 6.37646 16.7071 6.48811 16.7187C6.67051 16.7572 6.85314 16.7945 7.03601 16.8307C7.70968 16.9641 8.38616 17.0822 9.06543 17.1849C10.4399 17.3928 11.8218 17.5393 13.2112 17.6243C15.9944 17.7928 18.7872 17.7089 21.5553 17.3737C23.111 17.1854 24.6561 16.9184 26.1847 16.5736C26.2156 16.5645 26.2437 16.5477 26.2662 16.5246C26.2887 16.5015 26.3049 16.473 26.3131 16.4418C26.3213 16.4107 26.3214 16.3779 26.3132 16.3468C26.305 16.3156 26.2889 16.2871 26.2665 16.2639C24.5983 14.5152 22.6608 12.9199 20.3673 12.0769Z" fill="#E6E6E6"/>
        <path d="M65.8247 59.0343L60.9772 52.6709L57.1523 54.832L65.2574 64.4498L65.8247 59.0343Z" fill="#3F3D56"/>
        <path d="M76.9902 48.6899C77.0979 51.3567 77.5113 54.0023 78.2225 56.5749C78.0698 56.9341 77.9121 57.2909 77.7495 57.6452C77.1342 58.9869 76.4453 60.2937 75.6859 61.5596C73.5561 65.1145 70.8976 68.3249 67.8015 71.0807C67.4664 71.3785 67.1267 71.6713 66.7824 71.9592C64.8195 69.2549 63.7601 66.2709 63.3413 63.2C63.2882 62.81 63.2448 62.4158 63.2119 62.0237V62.0216C63.1315 61.0687 63.1056 60.1121 63.1345 59.1563C63.1355 59.08 63.1377 59.0026 63.1408 58.9253C63.1779 57.9037 63.2702 56.8801 63.4091 55.866V55.8649C63.425 55.7484 63.4409 55.6318 63.459 55.5152C63.5099 55.1655 63.5671 54.8158 63.6297 54.4683C63.9938 52.4637 64.502 50.4879 65.1504 48.5564V48.5553C65.1684 48.4991 65.1864 48.444 65.2066 48.3889C65.2766 48.1791 65.3476 47.9714 65.4208 47.7637C65.4253 47.7475 65.431 47.7315 65.4378 47.7161C65.5321 47.4448 65.6286 47.1756 65.7273 46.9086C65.7538 46.8344 65.7813 46.7602 65.81 46.6861C65.9213 46.3883 66.0348 46.0926 66.1504 45.8012C66.1864 45.708 66.2235 45.6147 66.2607 45.5225C66.2893 45.4515 66.3169 45.3805 66.3466 45.3106V45.3095C66.5152 44.8931 66.6859 44.4848 66.8588 44.0846C67.3434 42.9592 67.8418 41.9006 68.3275 40.9246L68.3285 40.9236C70.3444 36.883 72.1769 34.2593 72.1769 34.2593L79.0581 36.4846C78.2373 37.9395 77.6021 40.0854 77.2543 42.6169C76.9863 44.6291 76.8979 46.661 76.9902 48.6888L76.9902 48.6899Z" fill="#3F3D56"/>
        <path d="M65.5535 48.0423C65.5132 47.948 65.4676 47.8558 65.421 47.7636C65.1791 47.2956 64.8677 46.8669 64.4973 46.492C64.4422 46.4359 64.3849 46.3797 64.3255 46.3267C63.6868 45.7388 62.91 45.3213 62.0671 45.1127C61.2241 44.9042 60.3421 44.9113 59.5026 45.1335L59.4984 45.1357L59.4666 45.1441L59.474 45.1802C59.5058 45.348 59.5519 45.5129 59.6119 45.6729C59.6278 45.7163 59.6458 45.7577 59.6638 45.799C59.6713 45.8181 59.6808 45.835 59.6893 45.8541C59.6893 45.8541 59.6882 45.8552 59.6903 45.8552C59.6903 45.8562 59.6914 45.8573 59.6914 45.8583C59.7116 45.8976 59.7306 45.9378 59.7518 45.976C59.7084 45.9346 59.667 45.8923 59.6267 45.8488C59.5875 45.8085 59.5514 45.7662 59.5154 45.7238C59.3918 45.5797 59.2801 45.4259 59.1813 45.2639L59.1644 45.2353L59.1347 45.2469C58.7345 45.3855 58.3528 45.5723 57.9979 45.8032L57.9597 45.8287C57.6887 46.0064 57.3834 46.1253 57.0635 46.1775C56.7436 46.2297 56.4163 46.2141 56.1029 46.1317C55.6087 46.0044 55.0934 45.9812 54.5897 46.0634C54.086 46.1457 53.605 46.3317 53.1771 46.6097C52.8937 46.7943 52.6374 47.0176 52.4157 47.273C52.3966 47.2953 52.3775 47.3186 52.3584 47.3408C52.3181 47.3896 52.28 47.4394 52.2428 47.4902C51.8442 48.0226 51.5995 48.6542 51.5355 49.3161L51.5334 49.3404L51.5536 49.3542C51.9123 49.6 52.3182 49.7688 52.7455 49.8501C52.4771 49.8876 52.2053 49.8943 51.9353 49.8703H51.9342C51.8118 49.8602 51.69 49.8432 51.5695 49.8194L51.5472 49.8152H51.5461L51.5186 49.8099L51.5228 49.8607C51.5545 50.5082 51.7584 51.1356 52.1135 51.6781L52.1241 51.6929C52.128 51.6983 52.1315 51.704 52.1347 51.7099C52.2851 51.9398 52.4103 52.1853 52.508 52.4421C52.7559 53.0802 52.8105 53.7771 52.6649 54.4459C52.5002 55.1613 52.5549 55.9097 52.822 56.5936C53.0891 57.2774 53.5561 57.865 54.1622 58.2798C54.6947 58.6459 55.3151 58.8635 55.9597 58.9103C56.0477 58.9178 56.1368 58.922 56.2259 58.922C56.7358 58.9236 57.2404 58.8185 57.7073 58.6136L57.7243 58.6073L57.7285 58.5882C57.8183 58.2986 57.9444 58.0216 58.1039 57.7638C58.0517 57.967 58.0254 58.176 58.0254 58.3858V58.4557L58.0859 58.4208C58.1378 58.39 58.1909 58.3572 58.2386 58.3265C58.525 58.1395 58.7845 57.9142 59.0095 57.6567C59.0976 57.555 59.1866 57.4565 59.2799 57.3579L59.281 57.3569C59.4623 57.164 59.6543 56.9754 59.8536 56.7952C60.2778 56.4146 60.7317 56.0684 61.211 55.7599C61.69 55.4526 62.1908 55.1806 62.7094 54.9461H62.7105C62.7688 54.9186 62.8282 54.8921 62.8865 54.8666C63.1448 54.7543 63.3934 54.621 63.6299 54.4682C63.6384 54.4629 63.6458 54.4587 63.6532 54.4534C64.6783 53.7826 65.432 52.7701 65.78 51.5961C66.128 50.4221 66.0477 49.1628 65.5535 48.0423L65.5535 48.0423Z" fill="#0912F1"/>
        <path opacity="0.15" d="M52.8398 55.9506C52.8109 56.0794 52.789 56.2097 52.7741 56.341C52.5767 55.7175 52.5481 55.0529 52.6912 54.4148C52.7133 54.3172 52.7298 54.2184 52.7428 54.1191C52.9388 54.7099 52.9723 55.3425 52.8398 55.9506Z" fill="black"/>
        <path opacity="0.15" d="M52.9197 51.3538C52.6056 51.3974 52.2871 51.3989 51.9726 51.3583C51.8902 51.2031 51.8191 51.0421 51.7598 50.8767C52.1099 51.1129 52.5046 51.2752 52.9197 51.3538Z" fill="black"/>
        <path opacity="0.15" d="M51.9476 49.8362C51.8316 50.1325 51.7546 50.4425 51.7184 50.7586C51.6216 50.4576 51.5645 50.1452 51.5485 49.8295L51.5459 49.7786L51.5959 49.7883C51.7123 49.8101 51.8296 49.8261 51.9476 49.8362Z" fill="black"/>
        <path opacity="0.15" d="M53.2047 46.5782C53.6321 46.2998 54.1128 46.1135 54.6163 46.0311C55.1197 45.9487 55.6348 45.9721 56.1288 46.0996C56.4423 46.1825 56.7699 46.1983 57.09 46.1462C57.4101 46.0941 57.7156 45.9751 57.9866 45.7971L58.0249 45.7718C58.3795 45.5404 58.761 45.3531 59.1611 45.2142L59.1916 45.2036L59.2083 45.2312C59.3665 45.4926 59.5582 45.7321 59.7784 45.9439C59.6446 45.6948 59.5509 45.4262 59.5008 45.148L59.4936 45.1113L59.5298 45.1018C60.3171 44.8935 61.1426 44.8743 61.9388 45.0455C62.735 45.2168 63.4794 45.5737 64.1113 46.0872C64.7432 46.6007 65.2447 47.2562 65.5748 48.0002C65.9049 48.7442 66.0543 49.5557 66.0108 50.3684C65.8438 49.7058 65.5469 49.0829 65.1372 48.5359C64.7276 47.9888 64.2133 47.5284 63.6243 47.1814C63.0353 46.8344 62.3833 46.6076 61.7059 46.5143C61.0286 46.4209 60.3394 46.4628 59.6784 46.6375L59.6422 46.6471L59.6494 46.6838C59.6995 46.962 59.7932 47.2306 59.927 47.4796C59.7068 47.2679 59.5151 47.0283 59.3569 46.767L59.3402 46.7394L59.3097 46.75C58.9096 46.8888 58.5281 47.0761 58.1735 47.3076L58.1352 47.3328C57.8642 47.5109 57.5587 47.6298 57.2386 47.682C56.9185 47.7341 56.5909 47.7182 56.2774 47.6354C55.4564 47.4225 54.587 47.5008 53.8174 47.8569C53.0477 48.213 52.4255 48.8248 52.0568 49.588C51.8927 49.5092 51.7336 49.4203 51.5804 49.322L51.5596 49.3088L51.562 49.2844C51.6148 48.739 51.7899 48.2125 52.0743 47.7439C52.3586 47.2754 52.745 46.877 53.2047 46.5782Z" fill="black"/>
        <path d="M92.6277 19.5022L92.5269 19.4354L92.4538 19.5308C91.8875 20.2432 91.4369 21.0403 91.1186 21.8928C91.1626 20.9107 91.3344 19.9386 91.6298 19.0009L91.6616 18.9024L91.5704 18.8505C90.3839 18.1791 89.1196 17.6553 87.8058 17.2906L87.6627 17.2525C86.6557 16.9764 85.7184 16.4913 84.9117 15.8289C84.105 15.1665 83.447 14.3416 82.9808 13.408C81.8974 11.2654 80.1858 9.50392 78.0745 8.35863C75.9632 7.21334 73.5526 6.73869 71.1643 6.99803H71.1632C71.1378 7.00015 71.1113 7.00333 71.0858 7.00651C71.0423 7.01075 70.9999 7.01605 70.9575 7.02135C70.8705 7.033 70.7857 7.04466 70.7009 7.05738C70.6288 7.06797 70.5556 7.07963 70.4835 7.09234C70.4453 7.09764 70.4082 7.104 70.3711 7.11142C70.3339 7.11778 70.2958 7.12413 70.2587 7.13155H70.2576C69.5456 7.26613 68.8476 7.46657 68.1728 7.73027H68.1717V7.73132L68.001 7.79808C67.8249 7.87014 67.6503 7.94643 67.4771 8.02697C67.4379 8.04498 67.3997 8.06406 67.3605 8.08207C67.3499 8.08737 67.3382 8.09267 67.3276 8.09903C67.2162 8.15201 67.106 8.20711 66.9967 8.2654C66.9808 8.27281 66.9649 8.28129 66.949 8.28977L66.8472 8.34381C66.6235 8.46461 66.4036 8.59283 66.1876 8.72847C66.1696 8.73907 66.1526 8.74967 66.1346 8.76132C66.1155 8.77404 66.0954 8.78675 66.0763 8.79947C66.0646 8.80583 66.0529 8.81431 66.0413 8.82172C66.0084 8.84186 65.9766 8.86305 65.9448 8.8853C65.8811 8.92663 65.8175 8.96902 65.7549 9.01246C65.6903 9.05591 65.6266 9.10148 65.563 9.14704L65.4994 9.19261L65.511 9.27102C65.5217 9.33566 65.5312 9.4003 65.5429 9.46389C65.5535 9.52747 65.5641 9.58999 65.5757 9.65251C65.5938 9.75741 65.6139 9.86126 65.6341 9.96193C65.6478 10.0287 65.6606 10.0944 65.6754 10.159C65.6892 10.2258 65.7041 10.2925 65.72 10.3593C65.7507 10.4971 65.7836 10.6306 65.8186 10.762C65.8355 10.8277 65.8536 10.8934 65.8727 10.958C65.8833 10.9972 65.8939 11.0364 65.9055 11.0746C65.914 11.1011 65.9225 11.1276 65.931 11.1541C65.9331 11.1625 65.9352 11.1721 65.9384 11.1816C65.9408 11.1906 65.9436 11.1994 65.9469 11.2081C65.9586 11.2473 65.9702 11.2855 65.9819 11.3225C65.9882 11.3427 65.9946 11.3628 66.002 11.3819C66.0169 11.4275 66.0328 11.4741 66.0487 11.5186C66.0657 11.5695 66.0837 11.6203 66.1017 11.6701C66.106 11.6828 66.1102 11.6945 66.1144 11.7072C66.1176 11.7167 66.1208 11.7263 66.125 11.7358C66.1293 11.7464 66.1335 11.7581 66.1378 11.7687C66.1558 11.8164 66.1738 11.8651 66.1929 11.9128C66.1993 11.9297 66.2056 11.9478 66.2131 11.9647C66.385 12.3964 66.5962 12.8114 66.844 13.2045C66.5694 12.9693 66.305 12.7199 66.0508 12.4564C65.6584 12.049 65.2969 11.6129 64.9692 11.1519C64.9427 11.1159 64.9161 11.0788 64.8918 11.0417C64.8419 10.9707 64.7931 10.8997 64.7454 10.8277C64.6945 10.7535 64.6457 10.6761 64.598 10.5999C64.5662 10.549 64.5344 10.4971 64.5036 10.4462C64.4729 10.3975 64.4442 10.3498 64.4167 10.301L64.334 10.159H64.3329V10.1601L64.2163 10.2745C64.1696 10.3201 64.1229 10.3657 64.0773 10.4112C62.652 11.8442 61.6197 13.6196 61.0795 15.5665L61.0635 15.6248L61.0476 15.6852C61.0169 15.7933 60.9861 15.8982 60.9533 16.0052V16.0063C60.9215 16.1123 60.8875 16.2182 60.8515 16.3221C60.8186 16.4206 60.7847 16.5181 60.7486 16.6156C60.7369 16.6485 60.7242 16.6813 60.7104 16.7142C60.6882 16.7777 60.6638 16.8403 60.6394 16.9038C60.6277 16.9324 60.616 16.9621 60.6044 16.9907C60.5758 17.0607 60.5471 17.1306 60.5185 17.1995C60.5142 17.2101 60.5089 17.2217 60.5036 17.2323C60.4952 17.2535 60.4856 17.2747 60.4771 17.2949C60.4549 17.3457 60.4315 17.3976 60.4093 17.4485C60.3934 17.4814 60.3785 17.5153 60.3637 17.5481C60.3573 17.563 60.3499 17.5778 60.3435 17.5926C60.3043 17.6774 60.264 17.7611 60.2216 17.8438C60.1738 17.9413 60.1251 18.0388 60.0731 18.1341C60.0275 18.2231 59.9798 18.31 59.9299 18.3969C59.844 18.5506 59.7539 18.7032 59.6606 18.8515C59.6245 18.9087 59.5885 18.966 59.5514 19.0232C59.5429 19.037 59.5344 19.0507 59.5259 19.0635C59.4952 19.1133 59.4633 19.1609 59.4305 19.2097C59.4082 19.2425 59.3859 19.2754 59.3637 19.3072C59.3265 19.3644 59.2873 19.4195 59.247 19.4735C59.2364 19.4905 59.2247 19.5064 59.2131 19.5223C59.1537 19.6049 59.0943 19.6855 59.0339 19.766C59.0317 19.7671 59.0317 19.7681 59.0307 19.7692C59.0286 19.7692 59.0286 19.7703 59.0275 19.7713C59.001 19.8063 58.9745 19.8413 58.9469 19.8752C58.9109 19.925 58.8716 19.9737 58.8324 20.0214C58.7688 20.1019 58.7019 20.1835 58.6341 20.263C58.632 20.2651 58.6309 20.2672 58.6288 20.2683C58.2774 20.6808 57.8968 21.0675 57.4899 21.4255C57.4824 21.4318 57.4771 21.4382 57.4697 21.4435C57.4124 21.4933 57.3552 21.5431 57.2958 21.5918C57.2714 21.612 57.247 21.6321 57.2226 21.6522C57.1823 21.6861 57.141 21.72 57.1007 21.7508C57.0959 21.7556 57.0906 21.7599 57.0848 21.7635C57.0487 21.7932 57.0137 21.8207 56.9777 21.8483C56.9342 21.8832 56.8907 21.9161 56.8462 21.9489C56.6362 22.1079 56.4206 22.258 56.1993 22.3993C56.1664 22.4216 56.1314 22.4438 56.0975 22.465C56.0773 22.4777 56.0572 22.4904 56.0381 22.501C55.9575 22.5508 55.8769 22.5996 55.7963 22.6462C55.7157 22.6939 55.633 22.7395 55.5514 22.784C55.3764 22.8793 55.2035 22.9789 55.0349 23.0828C54.9501 23.1358 54.8653 23.1888 54.7815 23.2428C54.4485 23.459 54.1279 23.6903 53.8197 23.9369C53.5115 24.1836 53.2159 24.4457 52.9342 24.7221C52.8992 24.756 52.8642 24.791 52.8292 24.827C52.7592 24.8959 52.6913 24.9658 52.6267 25.0358C52.5227 25.1428 52.423 25.253 52.3244 25.3643C51.8044 25.9539 51.344 26.5935 50.9501 27.2738C50.7523 27.6135 50.5725 27.9633 50.4114 28.3218C50.2894 28.5899 50.1781 28.8644 50.0774 29.142C50.0105 29.3274 49.948 29.5146 49.8897 29.7036C49.861 29.7979 49.8335 29.8933 49.8069 29.9887C49.7168 30.3119 49.6415 30.6382 49.58 30.9657C49.5302 31.2285 49.4899 31.4916 49.4591 31.7551C49.4432 31.8876 49.4305 32.0201 49.4188 32.1515C49.3915 32.4744 49.3776 32.7977 49.377 33.1213C49.3751 34.0921 49.4931 35.0594 49.7285 36.0012C49.7804 36.2089 49.838 36.4156 49.9013 36.6212C49.9331 36.7239 49.9671 36.8257 50.001 36.9274C50.0869 37.1817 50.182 37.4336 50.2863 37.6829C50.3488 37.8324 50.4146 37.9807 50.4835 38.128C50.9216 39.0644 51.4806 39.9394 52.1463 40.7306C52.2555 40.8609 52.3683 40.9891 52.4846 41.1152C52.4856 41.1152 52.4846 41.1163 52.4846 41.1163C52.7731 41.4308 53.0786 41.7293 53.3997 42.0106H53.4008C53.5291 42.124 53.6595 42.2339 53.7921 42.3402C53.7931 42.3391 53.7931 42.3402 53.7931 42.3402C53.9268 42.4483 54.0614 42.5521 54.1993 42.6528C54.2682 42.7026 54.3382 42.7524 54.4093 42.8022C54.5482 42.9008 54.6899 42.9958 54.8345 43.0873H54.8356C54.9798 43.1805 55.1261 43.2695 55.2746 43.3543C55.5726 43.5249 55.878 43.6849 56.1919 43.8301L56.2449 43.8545L56.299 43.8301C56.8023 43.6038 57.3211 43.4136 57.8515 43.2611C57.9681 43.2271 58.0858 43.1964 58.2025 43.1667C58.4973 43.0936 58.7942 43.0322 59.0932 42.9824C58.8019 43.1284 58.5206 43.2937 58.2513 43.4772C58.0423 43.6182 57.8366 43.7718 57.6298 43.9414C57.5609 43.9975 57.492 44.0558 57.423 44.1152L57.2513 44.2635L57.4665 44.3345C57.545 44.3599 57.6235 44.3854 57.7019 44.4087C57.809 44.4426 57.9151 44.4733 58.019 44.5019C58.2459 44.5655 58.4743 44.6217 58.7041 44.6704C58.7603 44.6821 58.8154 44.6937 58.8716 44.7054C58.9808 44.7266 59.0911 44.7478 59.2014 44.7668C59.2059 44.768 59.2106 44.7687 59.2152 44.769C59.3297 44.788 59.4453 44.8061 59.5598 44.8219C59.773 44.8527 59.9861 44.8771 60.1993 44.8951C60.2226 44.8982 60.246 44.8993 60.2703 44.9004C60.3223 44.9046 60.3732 44.9088 60.4252 44.912C60.5397 44.9194 60.6553 44.9247 60.7709 44.929C60.7794 44.929 60.7868 44.93 60.7953 44.93C60.8536 44.9322 60.9119 44.9343 60.9702 44.9353C60.9702 44.9353 60.9702 44.9364 60.9713 44.9353C61.0296 44.9364 61.0879 44.9375 61.1463 44.9375H61.4686C61.5291 44.9375 61.5895 44.9385 61.651 44.9385C61.7359 44.9385 61.8218 44.9396 61.9066 44.9406C61.9289 44.9406 61.9522 44.9417 61.9755 44.9417C62.1113 44.9438 62.247 44.947 62.3827 44.9502C62.3912 44.9502 62.3997 44.9512 62.4082 44.9512C62.5439 44.9555 62.6797 44.9597 62.8154 44.9661C62.8451 44.9671 62.8748 44.9682 62.9055 44.9703C63.036 44.9756 63.1664 44.982 63.2969 44.9894C63.334 44.9915 63.3721 44.9947 63.4103 44.9968C63.5089 45.0021 63.6086 45.0085 63.7072 45.0159C63.7656 45.0191 63.8228 45.0233 63.8812 45.0286C64.1166 45.0466 64.3509 45.0667 64.5863 45.09C64.6648 45.0964 64.7433 45.1049 64.8218 45.1134C65.0317 45.1356 65.2424 45.16 65.4538 45.1865C65.5482 45.1971 65.6426 45.2098 65.7369 45.2225C65.7475 45.2236 65.7581 45.2246 65.7687 45.2267C65.8854 45.2426 66.001 45.2585 66.1176 45.2755C66.194 45.2861 66.2703 45.2977 66.3467 45.3094C66.4252 45.3211 66.5036 45.3327 66.5821 45.3465C66.6245 45.3528 66.6669 45.3603 66.7104 45.3677C66.8122 45.3836 66.9151 45.4005 67.0179 45.4196C67.0272 45.4205 67.0364 45.4219 67.0455 45.4238C67.264 45.462 67.4835 45.5023 67.7019 45.5457C67.8302 45.5701 67.9575 45.5955 68.0848 45.622C68.1844 45.6421 68.2841 45.6633 68.3838 45.6845C68.4008 45.6877 68.4177 45.6919 68.4347 45.6962C68.4385 45.6973 68.4424 45.698 68.4464 45.6983C68.597 45.7312 68.7486 45.7651 68.8992 45.8011C69.422 45.9219 69.9441 46.0561 70.4655 46.2038C70.5853 46.2366 70.7051 46.2716 70.8249 46.3066C70.8758 46.3214 70.9257 46.3362 70.9755 46.3511C71.0795 46.3818 71.1823 46.4125 71.2862 46.4454C71.3774 46.4729 71.4697 46.5015 71.5609 46.5312C71.6182 46.5492 71.6754 46.5672 71.7327 46.5863C71.8218 46.6139 71.9108 46.6425 71.9989 46.6732C72.0741 46.6965 72.1484 46.7209 72.2226 46.7474C72.3287 46.7823 72.4358 46.8184 72.5418 46.8565C72.5726 46.8671 72.6044 46.8777 72.6351 46.8894C72.7645 46.9339 72.8939 46.9794 73.0232 47.0271C73.1494 47.0727 73.2756 47.1193 73.4008 47.1659C73.4877 47.1988 73.5747 47.2306 73.6606 47.2645C73.7571 47.3016 73.8536 47.3387 73.949 47.3768C74.0869 47.4309 74.2258 47.486 74.3636 47.5421C74.4909 47.593 74.6171 47.6449 74.7443 47.699C74.7677 47.7085 74.7921 47.718 74.8154 47.7286C74.9257 47.7742 75.036 47.8219 75.1452 47.8696C75.2162 47.8992 75.2862 47.93 75.3562 47.9607C75.6616 48.0942 75.9667 48.2323 76.2714 48.375H76.2724C76.4633 48.4651 76.6574 48.5509 76.8525 48.6325C76.8981 48.6516 76.9437 48.6707 76.9904 48.6887C77.0678 48.7215 77.1463 48.7523 77.2247 48.7841C77.2756 48.8042 77.3265 48.8243 77.3785 48.8434C77.4538 48.8731 77.5301 48.9017 77.6065 48.9292C77.6871 48.9589 77.7666 48.9886 77.8483 49.0161C77.8769 49.0267 77.9055 49.0363 77.9352 49.0469C78.0296 49.0787 78.124 49.1104 78.2194 49.1412C78.229 49.1444 78.2385 49.1475 78.2491 49.1507C78.3488 49.1825 78.4485 49.2143 78.5492 49.244C78.5572 49.2469 78.5653 49.2494 78.5736 49.2514C78.6818 49.2842 78.7921 49.316 78.9013 49.3468C79.0625 49.3913 79.2247 49.4337 79.387 49.4729C79.4167 49.4803 79.4464 49.4877 79.4761 49.4941C79.563 49.5153 79.6489 49.5354 79.7359 49.5544C79.8281 49.5756 79.9214 49.5947 80.0137 49.6138C80.107 49.6329 80.2003 49.6519 80.2926 49.6689C80.3424 49.6784 80.3923 49.688 80.4411 49.6964L80.5715 49.7187C80.6616 49.7346 80.7518 49.7484 80.843 49.7632C80.8455 49.7631 80.848 49.7635 80.8504 49.7643C80.9533 49.7802 81.0551 49.795 81.1579 49.8077C81.2565 49.8215 81.3552 49.8331 81.4538 49.8448C81.4739 49.8469 81.4951 49.849 81.5163 49.8512C81.598 49.8607 81.6797 49.8702 81.7613 49.8777C81.7846 49.8798 81.808 49.8819 81.8313 49.884C81.9119 49.8914 81.9925 49.8988 82.0731 49.9041C82.0893 49.9063 82.1055 49.9073 82.1219 49.9073C82.194 49.9137 82.2661 49.919 82.3382 49.9222C82.3891 49.9264 82.4389 49.9285 82.4898 49.9317C82.5163 49.9328 82.5418 49.9338 82.5683 49.9349C82.6383 49.9391 82.7083 49.9412 82.7793 49.9434C82.8652 49.9465 82.9511 49.9487 83.036 49.9508C83.1388 49.9529 83.2428 49.9539 83.3456 49.9539H83.3477C83.4485 49.9539 83.5503 49.9529 83.651 49.9508H83.6892L83.8006 49.9476C83.8578 49.9465 83.9151 49.9444 83.9713 49.9423C84.0795 49.9381 84.1866 49.9328 84.2937 49.9264C84.3361 49.9243 84.3796 49.9211 84.422 49.919C84.4411 49.9179 84.4612 49.9158 84.4803 49.9147C84.5471 49.9105 84.6129 49.9063 84.6797 49.901C84.7486 49.8957 84.8186 49.8893 84.8875 49.8819C84.9766 49.8734 85.0657 49.8639 85.1547 49.8543C85.2247 49.8469 85.2947 49.8384 85.3637 49.83C85.3729 49.8292 85.3821 49.8277 85.3912 49.8257C85.458 49.8183 85.5248 49.8098 85.5906 49.8003C85.6691 49.7897 85.7465 49.778 85.8239 49.7664C85.8324 49.7653 85.8398 49.7643 85.8483 49.7632C85.9819 49.742 86.1166 49.7208 86.2512 49.6965C86.3923 49.671 86.5333 49.6435 86.6733 49.6149C86.7253 49.6043 86.7762 49.5926 86.8281 49.582C86.8568 49.5757 86.8865 49.5704 86.914 49.564C86.9575 49.5545 86.9999 49.5449 87.0423 49.5343C87.0498 49.5333 87.0583 49.5311 87.0657 49.5301C87.1251 49.5174 87.1834 49.5025 87.2428 49.4877C87.3615 49.4591 87.4782 49.4294 87.5948 49.3976C87.6468 49.3849 87.6988 49.3711 87.7486 49.3574C87.7634 49.3531 87.7783 49.3489 87.7921 49.3446C88.0073 49.2842 88.2208 49.2203 88.4326 49.1528C88.5259 49.1232 88.6182 49.0924 88.7104 49.0596C88.9087 48.9918 89.1053 48.9204 89.3 48.8455C89.352 48.8265 89.404 48.8053 89.4559 48.7851C89.5323 48.7544 89.6086 48.7237 89.6839 48.6929C89.7518 48.6643 89.8196 48.6357 89.8886 48.6061C89.9225 48.5923 89.9564 48.5774 89.9904 48.5626C90.0922 48.5181 90.194 48.4725 90.2947 48.427C90.3626 48.3952 90.4294 48.3644 90.4962 48.3327C90.6023 48.2818 90.7072 48.2299 90.8122 48.1779C90.8387 48.1642 90.8642 48.1504 90.8897 48.1377C90.9564 48.1038 91.0233 48.0688 91.0911 48.0349C91.1982 47.9777 91.3053 47.9204 91.4114 47.8611C91.4474 47.842 91.4824 47.8219 91.5185 47.8018C91.6351 47.7361 91.7507 47.6693 91.8652 47.6015C92.1187 47.45 92.3686 47.2917 92.615 47.1268C92.6765 47.0865 92.738 47.0441 92.7984 47.0028C92.913 46.9244 93.0254 46.8438 93.1378 46.7633C93.1494 46.7548 93.16 46.7463 93.1717 46.7389C93.2279 46.6976 93.2841 46.6563 93.3403 46.6139C93.457 46.5259 93.5726 46.4369 93.6881 46.3458C93.6903 46.3447 93.6935 46.3415 93.6966 46.3394C93.7486 46.2981 93.8006 46.2568 93.8515 46.2154C94.0095 46.0872 94.1653 45.9569 94.318 45.8223C94.3933 45.7577 94.4676 45.6909 94.5407 45.6241C94.5959 45.5743 94.651 45.5245 94.7051 45.4737C94.8143 45.3709 94.9214 45.2691 95.0275 45.1653C95.0805 45.1144 95.1325 45.0615 95.1855 45.0085C95.2375 44.9555 95.2905 44.9025 95.3424 44.8485C95.3605 44.8304 95.3785 44.8114 95.3965 44.7923C95.4496 44.7361 95.5026 44.6789 95.5556 44.6227C95.6012 44.574 95.6457 44.5231 95.6913 44.4723C95.7677 44.3875 95.8451 44.3027 95.9204 44.2169C95.9244 44.2121 95.9286 44.2075 95.9331 44.2031C95.9373 44.1978 95.9416 44.1936 95.9448 44.1893H95.9437C97.4851 42.4082 98.6304 40.3202 99.3038 38.0637C99.9771 35.8071 100.163 33.4333 99.8497 31.0995C99.5363 28.7656 98.7303 26.5249 97.4853 24.5257C96.2403 22.5264 94.5845 20.8141 92.6277 19.5022Z" fill="#0912F1"/>
        <g opacity="0.15">
            <path d="M71.1629 6.99731C71.3743 7.75608 71.6924 8.48105 72.1075 9.15055C71.4125 8.55392 70.7915 7.87623 70.2578 7.13196C70.5576 7.0753 70.8593 7.03042 71.1629 6.99731Z" fill="black"/>
            <path d="M60.8154 18.7318C60.0306 19.1599 59.2967 19.6753 58.6279 20.2684C59.7572 18.934 60.5825 17.3702 61.0467 15.6854C61.0523 15.6651 61.058 15.6448 61.0634 15.6245L61.0792 15.5671C61.637 13.5563 62.7193 11.7295 64.2154 10.2737L64.333 10.1592L64.4159 10.3007C64.8746 11.08 65.4234 11.8026 66.0511 12.4536C65.0892 15.1657 63.2176 17.4229 60.8154 18.7318Z" fill="black"/>
            <path d="M66.344 11.5139L66.3282 11.5713C66.3227 11.5915 66.3171 11.6119 66.3114 11.6322C66.2805 11.7437 66.2475 11.8543 66.2136 11.9645C65.8781 11.0963 65.6425 10.1927 65.5114 9.27126L65.499 9.19307L65.5634 9.14712C66.3703 8.5677 67.2467 8.09161 68.1722 7.72998C67.3413 8.87193 66.7221 10.1535 66.344 11.5139Z" fill="black"/>
            <path d="M55.5514 22.7852C56.246 22.4052 56.8961 21.9492 57.4897 21.4255C56.304 22.8051 55.454 24.4403 55.0065 26.203C54.5589 27.9657 54.5259 29.808 54.91 31.5856C55.2941 33.3631 56.0849 35.0277 57.2205 36.4488C58.3561 37.8699 59.8055 39.0089 61.4553 39.7766L61.5089 39.8014L61.5624 39.7772C62.4535 39.3749 63.393 39.0898 64.3575 38.9291C63.7555 39.2355 63.1944 39.6162 62.6872 40.0622L62.5156 40.2104L62.7309 40.2814C62.9166 40.3428 63.1025 40.3993 63.2831 40.4494C64.3444 40.7448 65.4416 40.8915 66.5432 40.8853C71.5487 40.8533 76.593 42.0096 81.536 44.3222C82.3837 44.7182 83.2629 45.043 84.1646 45.293C88.0941 46.3863 92.289 45.9931 95.9464 44.1886C93.8844 46.5716 91.1882 48.3212 88.1709 49.2341C85.1536 50.1471 81.939 50.186 78.9004 49.3463C77.9988 49.0962 77.1195 48.7715 76.2718 48.3755C71.3288 46.0629 66.2845 44.9065 61.2791 44.9386C60.1774 44.9447 59.0802 44.7981 58.0189 44.5027C57.8383 44.4526 57.6525 44.3961 57.4667 44.3347L57.2515 44.2637L57.423 44.1155C57.9302 43.6694 58.4913 43.2887 59.0933 42.9823C58.1288 43.1431 57.1893 43.4282 56.2982 43.8305L56.2447 43.8546L56.1911 43.8299C54.2099 42.9084 52.524 41.4549 51.3214 39.6317C50.1187 37.8085 49.4468 35.6872 49.3804 33.5045C49.3141 31.3219 49.856 29.1637 50.9457 27.2709C52.0353 25.3781 53.6299 23.8251 55.5514 22.7852L55.5514 22.7852Z" fill="black"/>
        </g>
    </g>
    <defs>
        <clipPath id="clip0_1763_3963">
            <rect width="100" height="84.3106" fill="white"/>
        </clipPath>
    </defs>
</svg>
