<svg width="34" height="34" viewBox="0 0 56 56" fill="none" xmlns="http://www.w3.org/2000/svg">
    <rect width="56" height="56" rx="28" fill="#F5F5F5"/>
    <rect x="14" y="14" width="28" height="28" rx="14" fill="#1275B1"/>
    <path d="M24.6186 21.6921C24.6186 22.6267 23.8085 23.3843 22.8093 23.3843C21.81 23.3843 21 22.6267 21 21.6921C21 20.7576 21.81 20 22.8093 20C23.8085 20 24.6186 20.7576 24.6186 21.6921Z" fill="white"/>
    <path d="M21.2474 24.6281H24.3402V34H21.2474V24.6281Z" fill="white"/>
    <path d="M29.3196 24.6281H26.2268V34H29.3196C29.3196 34 29.3196 31.0496 29.3196 29.2049C29.3196 28.0976 29.6977 26.9855 31.2062 26.9855C32.911 26.9855 32.9008 28.4345 32.8928 29.5571C32.8824 31.0244 32.9072 32.5219 32.9072 34H36V29.0537C35.9738 25.8954 35.1508 24.4401 32.4433 24.4401C30.8354 24.4401 29.8387 25.1701 29.3196 25.8305V24.6281Z" fill="white"/>
</svg>
