<svg width="400" height="290" viewBox="0 0 612 448" fill="none" xmlns="http://www.w3.org/2000/svg">
<path d="M0 401.363H612V401.057H0V401.363Z" fill="#E6E6E6"/>
<path d="M112.24 419.882H152.78V419.576H112.24V419.882Z" fill="#E6E6E6"/>
<path d="M75.9248 419.882H99.4128V419.576H75.9248V419.882Z" fill="#E6E6E6"/>
<path d="M234.225 424.386H257.713V424.08H234.225V424.386Z" fill="#E6E6E6"/>
<path d="M327.322 431.216H380.186V430.91H327.322V431.216Z" fill="#E6E6E6"/>
<path d="M308.68 431.216H316.428V430.91H308.68V431.216Z" fill="#E6E6E6"/>
<path d="M440.236 424.386H554.9V424.08H440.236V424.386Z" fill="#E6E6E6"/>
<path d="M290.088 346.467H53.746C49.891 346.461 46.769 343.332 46.769 339.477V7.248C46.803 3.41701 49.915 0.326004 53.746 0.319H290.088C293.948 0.319 297.077 3.44901 297.077 7.30901V339.477C297.077 343.337 293.948 346.467 290.088 346.467ZM53.746 0.564011C50.06 0.570999 47.075 3.56201 47.075 7.248V339.477C47.075 343.163 50.06 346.155 53.746 346.161H290.088C293.776 346.155 296.764 343.165 296.771 339.477V7.248C296.764 3.56001 293.776 0.570999 290.088 0.564011H53.746Z" fill="#E6E6E6"/>
<path d="M554.851 346.467H318.497C314.64 346.461 311.515 343.334 311.508 339.477V7.248C311.548 3.41501 314.664 0.326004 318.497 0.319H554.851C558.678 0.332001 561.783 3.42201 561.816 7.248V339.477C561.816 343.328 558.702 346.454 554.851 346.467ZM318.497 0.564011C314.809 0.570999 311.821 3.56001 311.814 7.248V339.477C311.821 343.165 314.809 346.155 318.497 346.161H554.851C558.54 346.155 561.528 343.165 561.534 339.477V7.248C561.528 3.56001 558.54 0.570999 554.851 0.564011H318.497Z" fill="#E6E6E6"/>
<path d="M300.382 296.503H327.298V403.273H300.382V296.503Z" fill="#DFDFDF"/>
<path d="M182.437 296.503H209.353V403.273H182.437V296.503Z" fill="#DFDFDF"/>
<path d="M322.855 301.313V327.201H209.305V301.313H322.818H322.855ZM323.296 300.836H208.864V327.666H323.332V300.836H323.296Z" fill="#DFDFDF"/>
<path d="M263.392 314.251C263.392 315.745 264.603 316.956 266.097 316.956C267.591 316.956 268.802 315.745 268.802 314.251C268.802 312.757 267.591 311.546 266.097 311.546C264.603 311.546 263.392 312.757 263.392 314.251Z" fill="#E6E6E6"/>
<path d="M322.855 332.476V358.364H209.305V332.476H322.818H322.855ZM323.296 332.011H208.864V358.841H323.332V332.023L323.296 332.011Z" fill="#DFDFDF"/>
<path d="M263.392 345.487C263.392 346.981 264.603 348.192 266.097 348.192C267.591 348.192 268.802 346.981 268.802 345.487C268.802 343.993 267.591 342.782 266.097 342.782C264.603 342.782 263.392 343.993 263.392 345.487Z" fill="#E6E6E6"/>
<path d="M263.393 376.601C263.4 378.095 264.615 379.302 266.109 379.295C267.603 379.288 268.809 378.07 268.802 376.577C268.795 375.087 267.586 373.885 266.097 373.885C264.603 373.885 263.393 375.095 263.393 376.589V376.601Z" fill="#E6E6E6"/>
<path d="M165.999 234.495H192.915V403.285H165.999V234.495Z" fill="#DFDFDF"/>
<path d="M187.799 403.273H192.914V388.732H182.449L187.799 403.273Z" fill="#F9F9F9"/>
<path d="M188.386 275.194H92.3878V239H188.386V275.194ZM188.949 238.449H91.7998V275.72H188.925V238.461L188.949 238.449Z" fill="#DFDFDF"/>
<path d="M188.386 375.61H142.657V279.612H188.386V375.61ZM188.949 279.049H142.107V376.173H188.949V279.049Z" fill="#DFDFDF"/>
<path d="M138.116 279.612V375.61H92.3878V279.612H138.116ZM138.668 279.049H91.7998V376.173H138.644V279.049H138.668Z" fill="#DFDFDF"/>
<path d="M137.676 257.114C137.669 258.615 138.88 259.838 140.381 259.844C141.882 259.851 143.104 258.64 143.111 257.14C143.117 255.639 141.906 254.417 140.406 254.41C140.401 254.41 140.397 254.41 140.393 254.41C138.897 254.41 137.683 255.618 137.676 257.114Z" fill="#E6E6E6"/>
<path d="M147.37 325.328C147.37 326.829 148.586 328.045 150.086 328.045C151.587 328.045 152.804 326.829 152.804 325.328C152.804 323.827 151.587 322.611 150.086 322.611C150.082 322.611 150.078 322.611 150.074 322.611C148.58 322.611 147.37 323.822 147.37 325.316C147.37 325.32 147.37 325.324 147.37 325.328Z" fill="#E6E6E6"/>
<path d="M127.994 325.327C128.001 326.821 129.216 328.028 130.71 328.021C132.204 328.014 133.41 326.796 133.403 325.303C133.396 323.813 132.187 322.611 130.698 322.611C129.204 322.611 127.994 323.821 127.994 325.315C127.994 325.319 127.994 325.323 127.994 325.327Z" fill="#E6E6E6"/>
<path d="M239.501 280.933C239.501 289.501 249.084 296.502 260.798 296.502H271.373C283.087 296.502 292.671 289.501 292.671 280.933H239.501Z" fill="#DFDFDF"/>
<path d="M519.723 268.375C513.309 273.614 504.447 283.198 496.345 296.686C490.935 305.67 487.679 315.046 486.247 327.506C486.247 313.43 486.332 298.314 486.381 284.042C488.009 280.37 491.73 271.9 494.398 265.217C503.297 242.904 506.638 237.408 514.631 218.166C525.317 192.462 536.259 162.034 533.126 164.47C526.736 169.427 502.256 215.266 499.613 221.826C492.406 239.335 487.951 257.852 486.406 276.723C486.406 263.259 486.504 251.019 486.553 241.52C486.724 210.541 487.25 200.541 487.507 197.456C488.499 195.89 489.662 194.066 490.347 193.087C496.1 184.764 498.315 177.689 503.725 165.277C511.412 147.713 518.022 116.513 516.088 118.08C508.034 124.641 501.693 138.717 493.346 156.673C484.998 174.629 487.385 184.947 485.732 200.272C485.39 203.283 485.12 214.641 484.925 230.37C482.77 213.601 478.707 202.56 471.301 192.524C462.195 180.174 453.382 171.838 446.919 167.481C440.457 163.123 458.082 193.454 466.503 206.649C474.007 218.448 480.922 228.84 484.863 239.085C484.655 260.419 484.557 287.42 484.557 312.525C482.624 301.092 479.466 288.767 475.255 279.232C470.188 267.775 462.403 250.199 456.197 244.238C454.716 242.806 462.684 276.992 467.801 286.074C472.917 295.156 476.675 303.736 479.894 308.889C480.641 310.113 483.138 314.728 484.557 317.396C484.557 348.082 484.729 375.157 484.998 384.373H486.32C486.234 381.999 486.21 366.381 486.246 345.72C489.441 334.508 496.736 321.705 502.758 310.028C509.319 297.384 526.137 263.173 519.723 268.375Z" fill="#DFDFDF"/>
<path d="M424.348 132.939L412.078 128.374C412.078 128.374 396.854 158.015 392.306 159.62C386.119 161.795 373.351 167.726 365.718 168.913C364.71 170.164 363.113 174.016 363.31 175.394C373.693 178.553 396.18 173.377 400.928 169.647C411.731 161.188 424.348 132.939 424.348 132.939Z" fill="#E4897A"/>
<path d="M427.9 126.194C430.39 134.49 418.586 151.634 418.586 151.634L402.277 143.064C402.277 143.064 405.099 136.069 408.579 128.934C414.156 117.409 425.059 116.733 427.9 126.194Z" fill="#0288D1"/>
<path d="M427.9 126.194C430.39 134.49 418.586 151.634 418.586 151.634L402.277 143.064C402.277 143.064 405.099 136.069 408.579 128.934C414.156 117.409 425.059 116.733 427.9 126.194Z" fill="#0288D1"/>
<path d="M408.749 146.489L415.171 149.866L415.758 130.418C412.152 133.344 409.789 141.93 408.749 146.489Z" fill="#0288D1"/>
<path d="M417.157 120.192C417.157 120.192 405.407 148.355 414.105 199.962L463.376 198.626C463.955 191.044 460.36 154.212 468.779 118.327C463.345 117.417 457.857 116.867 452.351 116.679C445.368 116.464 438.377 116.654 431.416 117.247C426.596 117.869 421.83 118.853 417.157 120.192Z" fill="#0288D1"/>
<path d="M417.157 120.192C417.157 120.192 405.407 148.355 414.105 199.962L463.376 198.626C463.955 191.044 460.36 154.212 468.779 118.327C463.345 117.417 457.857 116.867 452.351 116.679C445.368 116.464 438.377 116.654 431.416 117.247C426.596 117.869 421.83 118.853 417.157 120.192Z" fill="#0288D1"/>
<path d="M414.499 443.862C414.462 445.186 433.173 445.744 456.286 445.117C479.399 444.49 498.189 442.915 498.226 441.592C498.265 440.268 479.565 439.722 456.439 440.349C433.314 440.976 414.55 442.55 414.499 443.862Z" fill="#E8EBF0"/>
<path d="M437.8 411.869L446.446 408.249L454.501 427.492L445.854 431.112L437.8 411.869Z" fill="#E4897A"/>
<path d="M486.103 432.504L476.888 432.754L472.933 411.519L482.147 411.27L486.103 432.504Z" fill="#E4897A"/>
<path d="M476.224 431.707L486.576 431.426C486.946 431.417 487.27 431.677 487.34 432.041L488.895 440.191C489.024 440.978 488.491 441.722 487.705 441.851C487.635 441.862 487.565 441.869 487.495 441.87C483.885 441.907 482.141 441.734 477.589 441.857C474.787 441.933 469.032 442.383 465.142 442.488C461.251 442.594 460.891 438.784 462.483 438.386C469.636 436.636 472.368 434.444 474.711 432.323C475.123 431.941 475.662 431.721 476.224 431.707Z" fill="#253138"/>
<path d="M445.55 429.38L455.261 426.251C455.618 426.139 456.004 426.293 456.189 426.619L460.059 433.861C460.402 434.558 460.114 435.402 459.416 435.744C459.345 435.779 459.271 435.808 459.194 435.831C455.66 436.906 453.29 437.57 448.872 438.987C445.825 439.964 442.732 441.504 439.724 442.553C437.638 443.283 432.696 443.442 430.138 443.511C426.357 443.614 425.405 439.648 427.028 439.42C431.114 438.856 431.67 439.049 433.903 437.85C437.562 436.13 440.856 433.722 443.604 430.756C444.12 430.133 444.792 429.659 445.55 429.38Z" fill="#253138"/>
<path d="M367.258 168.821L357.012 164.851L353.143 176.195C357.313 176.715 361.537 176.601 365.672 175.856L367.258 168.821Z" fill="#E4897A"/>
<path d="M349.467 164.761L349.4 172.231L353.143 176.171L357.01 164.825L349.467 164.761Z" fill="#E4897A"/>
<path d="M439.016 413.49L447.689 409.867L451.844 419.818L443.17 423.441L439.016 413.49Z" fill="#CF6E63"/>
<path d="M482.148 411.27L472.933 411.519L474.983 422.472L484.195 422.222L482.148 411.27Z" fill="#CF6E63"/>
<path d="M412.159 185.995C412.403 188.204 412.672 190.463 413.004 192.78L449.315 179.894C454.989 178.043 459.864 174.314 463.134 169.319C463.192 166.048 463.282 162.606 463.467 159.012C463.541 157.272 463.64 155.481 463.75 153.667C463.861 151.851 464.026 149.839 464.206 147.899L412.159 185.995Z" fill="#0288D1"/>
<path d="M423.037 145.537L421.809 145.425C422.365 139.287 426.798 134.343 431.61 134.335L431.643 135.558C427.431 135.587 423.537 140.038 423.037 145.537Z" fill="white"/>
<path d="M429.866 156.654L429.658 156.66L429.624 155.436C433.837 155.481 437.67 150.982 438.17 145.495L439.398 145.609C438.911 151.609 434.625 156.525 429.866 156.654Z" fill="white"/>
<path d="M451.027 93.1193C449.484 99.9076 447.788 112.309 452.351 116.679C452.351 116.679 449.429 123.604 436.912 123.943C425.473 124.253 431.417 117.247 431.417 117.247C438.979 115.254 438.963 109.694 437.817 104.461L451.027 93.1193Z" fill="#E4897A"/>
<path d="M445.642 97.747L437.828 104.461C438.108 105.664 438.285 106.888 438.356 108.12C440.756 110.382 445.283 104.37 445.679 101.347C445.889 100.155 445.877 98.934 445.642 97.747Z" fill="#CF6E63"/>
<path d="M423.787 93.7719C424.964 95.6898 426.886 97.0301 429.092 97.4725C432.046 98.0416 433.44 95.2978 432.56 92.6037C431.771 90.1762 429.272 86.9508 426.302 87.5945C424.103 88.1103 422.739 90.3091 423.254 92.5069C423.359 92.9553 423.54 93.3835 423.787 93.7719Z" fill="#CF6E63"/>
<path d="M428.061 72.0691C423.541 74.2855 422.42 92.5125 428.243 95.0476C434.067 97.5837 436.616 67.8577 428.061 72.0691Z" fill="#253138"/>
<path d="M452.146 82.9382C451.292 92.0957 451.315 97.4711 446.547 102.278C442.129 107.05 434.679 107.335 429.908 102.915C428.087 101.23 426.847 99.0139 426.361 96.5812C424.658 88.4234 426.334 74.8219 435.388 70.9401C441.27 68.1526 448.3 70.661 451.088 76.5446C452.031 78.5347 452.398 80.7496 452.146 82.9382Z" fill="#E4897A"/>
<path d="M436.926 76.5555C443.657 74.6463 448.605 73.3367 446.971 79.026C444.814 86.6273 442.173 93.9966 445.987 94.2233C448.318 94.3682 458.478 89.7341 457.049 85.3522C455.807 81.5415 460.586 80.3585 461.39 78.3899C464.368 71.2566 455.327 72.4321 456.826 68.1059C458.324 63.7797 449.182 57.1221 444.381 60.6925C436.566 66.4635 422.896 66.7482 429.83 57.4138C434.804 50.7525 425.652 52.3352 425.652 52.3352C425.652 52.3352 431.297 55.4763 422.088 60.8199C412.349 66.52 421.81 80.8718 436.926 76.5555Z" fill="#253138"/>
<path d="M456.016 92.8979C454.73 94.8705 452.757 96.2945 450.48 96.8925C447.475 97.6232 446.24 94.9507 447.304 92.2039C448.254 89.7292 450.952 86.3628 453.856 86.8473C456.759 87.3318 457.505 90.4577 456.016 92.8979Z" fill="#E4897A"/>
<path d="M414.106 199.962C414.106 199.962 407.842 274.211 407.955 302.322C408.087 331.558 439.252 421.946 439.252 421.946L453.767 415.43C453.767 415.43 434.38 332.596 436.049 303.838C437.794 272.481 446.53 199.132 446.53 199.132L414.106 199.962Z" fill="#053F5F"/>
<path d="M435.211 219.728C428.987 233.585 434.162 260.518 438.17 276.449C439.22 265.095 440.503 252.766 441.724 241.358C441.103 223.89 439.38 210.431 435.211 219.728Z" fill="#053F5F"/>
<path d="M452.987 410.603C453.06 410.601 454.851 415.231 454.851 415.231L438.11 422.811L435.309 417.916L452.987 410.603Z" fill="#053F5F"/>
<path d="M431.59 199.488C431.59 199.488 439.824 269.72 444.724 295.974C450.107 324.737 470.752 420.456 470.752 420.456L487.624 419.998C487.624 419.998 474.974 326.402 472.289 297.847C469.368 266.874 463.378 198.626 463.378 198.626L431.59 199.488Z" fill="#053F5F"/>
<path d="M487.762 415.598C487.835 415.596 488.452 420.293 488.452 420.293L469.903 420.796L468.435 415.424L487.762 415.598Z" fill="#0288D1"/>
<path d="M481.151 410.194C481.072 410.197 481.003 410.142 480.989 410.064C480.868 409.211 469.453 324.665 467.043 299.017C464.427 271.195 459.007 209.471 458.953 208.848C458.944 208.767 459.002 208.695 459.083 208.685C459.087 208.685 459.092 208.685 459.096 208.685C459.179 208.682 459.25 208.744 459.259 208.827C459.276 209.451 464.731 271.125 467.349 298.997C469.758 324.645 481.171 409.128 481.282 410.044C481.297 410.123 481.247 410.201 481.167 410.217C481.162 410.218 481.157 410.218 481.152 410.219L481.151 410.194Z" fill="black"/>
<path d="M438.218 85.8629C438.238 86.6096 437.789 87.221 437.299 87.2342C436.811 87.2475 436.44 86.6583 436.468 85.9103C436.497 85.1622 436.897 84.5522 437.385 84.5389C437.875 84.5256 438.247 85.1278 438.218 85.8629Z" fill="#253138"/>
<path d="M429.825 86.0905C429.845 86.8372 429.384 87.4489 428.907 87.4619C428.43 87.4748 428.047 86.886 428.062 86.1383C428.079 85.3905 428.504 84.7798 428.993 84.7665C429.482 84.7533 429.854 85.3554 429.825 86.0905Z" fill="#253138"/>
<path d="M432.478 86.3977C431.518 88.7045 430.258 90.8765 428.733 92.8555C429.99 94.0459 432.263 93.4211 432.263 93.4211L432.478 86.3977Z" fill="#DF5652"/>
<path d="M432.972 96.523C432.857 96.5261 432.762 96.4356 432.759 96.3207C432.759 96.3167 432.758 96.3127 432.758 96.3087C432.761 96.1846 432.86 96.0848 432.983 96.0815C434.88 96.0441 436.656 95.1486 437.815 93.6486C437.901 93.5703 438.032 93.5667 438.121 93.6403C438.206 93.724 438.21 93.859 438.129 93.9462C436.888 95.5414 434.993 96.4882 432.972 96.523Z" fill="#253138"/>
<path d="M439.65 83.5702C439.532 83.6344 439.39 83.6382 439.27 83.5805C438.325 83.0059 437.164 82.9153 436.141 83.3362C435.939 83.4437 435.686 83.3676 435.577 83.1644C435.575 83.1615 435.574 83.1585 435.572 83.1556C435.472 82.9312 435.568 82.6685 435.789 82.5615C437.073 81.9965 438.552 82.0934 439.75 82.8212C439.95 82.9488 440.009 83.2143 439.882 83.4138C439.881 83.4149 439.879 83.4169 439.878 83.418C439.818 83.4896 439.739 83.5418 439.65 83.5702Z" fill="#253138"/>
<path d="M426.454 81.4801C426.389 81.4659 426.328 81.4335 426.281 81.3868C426.107 81.2264 426.097 80.9546 426.257 80.7812C426.259 80.7792 426.262 80.7771 426.264 80.775C427.186 79.6836 428.564 79.0841 429.991 79.1554C430.219 79.1842 430.38 79.3929 430.351 79.6208C430.35 79.6298 430.349 79.6389 430.347 79.6479C430.299 79.8843 430.084 80.0472 429.843 80.0287C428.715 79.9883 427.63 80.4699 426.903 81.3329C426.793 81.4629 426.619 81.5197 426.454 81.4801Z" fill="#253138"/>
<path d="M473.84 130.237L461.023 127.195C461.023 127.195 449.377 158.256 445.014 160.37C439.092 163.274 424.166 173.18 417.827 177.845C417.514 179.384 417.905 183.426 418.742 184.518C429.7 182.212 450.562 173.529 454.855 169.287C464.645 159.606 473.84 130.237 473.84 130.237Z" fill="#E4897A"/>
<path d="M473.173 433.405C472.553 433.472 471.93 433.32 471.41 432.976C471.082 432.694 470.926 432.262 470.999 431.835C471.008 431.571 471.162 431.332 471.398 431.212C472.413 430.659 475.337 432.404 475.673 432.603C475.749 432.647 475.786 432.736 475.765 432.821C475.746 432.908 475.683 432.98 475.599 433.009C474.806 433.227 473.993 433.36 473.173 433.405ZM471.897 431.53C471.804 431.511 471.708 431.514 471.615 431.538C471.522 431.589 471.466 431.692 471.476 431.798C471.417 432.09 471.519 432.39 471.742 432.587C472.231 433.002 473.431 433.019 475.001 432.67C474.045 432.077 472.975 431.689 471.86 431.531L471.897 431.53Z" fill="#0288D1"/>
<path d="M475.538 433.011C475.506 433.022 475.472 433.023 475.44 433.013C474.508 432.524 472.728 430.552 472.957 429.517C473.027 429.18 473.32 428.934 473.664 428.923C473.995 428.87 474.333 428.963 474.59 429.18C475.628 430.021 475.762 432.687 475.766 432.822C475.78 432.903 475.736 432.985 475.66 433.019C475.618 433.03 475.577 433.027 475.538 433.011ZM473.797 429.324L473.71 429.326C473.429 429.334 473.398 429.493 473.387 429.555C473.257 430.159 474.386 431.658 475.311 432.356C475.279 431.322 474.932 430.323 474.315 429.494C474.17 429.374 473.985 429.312 473.797 429.324Z" fill="#0288D1"/>
<path d="M440.646 432.758C439.905 433.039 439.089 433.061 438.333 432.82C437.982 432.642 437.747 432.297 437.708 431.906C437.67 431.661 437.762 431.413 437.948 431.251C438.903 430.343 442.928 431.116 443.385 431.275C443.474 431.295 443.537 431.375 443.536 431.467C443.543 431.561 443.492 431.649 443.408 431.69C442.519 432.122 441.595 432.479 440.646 432.758ZM438.612 431.355C438.473 431.387 438.343 431.453 438.238 431.549C438.159 431.611 438.124 431.712 438.147 431.809C438.17 432.069 438.323 432.3 438.554 432.422C439.212 432.747 440.71 432.437 442.634 431.564C441.314 431.27 439.956 431.199 438.612 431.355Z" fill="#0288D1"/>
<path d="M443.371 431.691L443.273 431.694C442.044 431.506 439.559 430.166 439.458 429.115C439.451 428.87 439.551 428.527 440.132 428.315C440.529 428.161 440.972 428.175 441.358 428.355C442.697 428.968 443.458 431.298 443.498 431.407C443.517 431.481 443.498 431.561 443.443 431.616C443.426 431.647 443.4 431.671 443.371 431.691ZM440.388 428.675L440.266 428.678C439.89 428.824 439.894 428.982 439.896 429.03C439.913 429.666 441.718 430.782 442.964 431.14C442.652 430.165 442.028 429.321 441.186 428.739C440.937 428.621 440.653 428.598 440.388 428.675Z" fill="#0288D1"/>
<path d="M418.847 177.095L406.245 183.314L404.864 187.026L409.66 190.067C409.66 190.067 418.444 188.875 420.799 183.142L418.847 177.095Z" fill="#E4897A"/>
<path d="M419.593 184.703C419.241 182.259 418.368 179.919 417.031 177.842L419.009 176.27C420.593 178.662 421.636 181.37 422.065 184.208L419.593 184.703Z" fill="#253138"/>
<path d="M421.611 178.759C422.367 179.88 422.072 181.403 420.951 182.158C419.83 182.915 418.309 182.618 417.552 181.497C416.796 180.376 417.092 178.856 418.213 178.1C418.335 178.018 418.465 177.945 418.6 177.885C419.673 177.301 421.017 177.691 421.611 178.759Z" fill="#253138"/>
<path d="M397.748 188.296L399.495 189.964L410.815 184.759L406.245 183.314L397.748 188.296Z" fill="#E4897A"/>
<path d="M452.987 410.603C453.06 410.601 454.851 415.23 454.851 415.23L438.11 422.81L435.309 417.915L452.987 410.603Z" fill="#0288D1"/>
<path d="M487.762 415.599C487.835 415.597 488.452 420.294 488.452 420.294L469.903 420.797L468.435 415.425L487.762 415.599Z" fill="#0288D1"/>
<path d="M477.06 126.624C480.72 137.386 467.969 152.584 467.969 152.584L449.598 145.663C451.582 139.331 453.898 133.108 456.537 127.021C461.79 114.843 473.362 115.765 477.06 126.624Z" fill="#053F5F"/>
<path d="M477.06 126.625C480.72 137.387 467.969 152.585 467.969 152.585L449.598 145.663C451.582 139.331 453.898 133.109 456.537 127.022C461.79 114.843 473.362 115.766 477.06 126.625Z" fill="#0288D1"/>
<path d="M291.911 26.619H299.733V27.879H291.911V26.619Z" fill="#7E57C2"/>
<path d="M400.034 97.524L400.981 76.517L402.24 76.574L401.293 97.581L400.034 97.524Z" fill="#7E57C2"/>
<path d="M398.547 32.274H254.114L240.675 333.034H385.107L398.547 32.274Z" fill="#372655"/>
<path d="M394.239 36.41H249.807L236.367 337.171H380.799L394.239 36.41Z" fill="#F9F9F9"/>
<path d="M389.93 40.535H245.498L232.046 341.296H376.478L389.93 40.535Z" fill="#2068BD"/>
<path d="M373.492 171.711H250.21L249.182 194.723H372.463L373.492 171.711Z" fill="white"/>
<path d="M318.007 154.918H250.956L250.503 165.212H317.554L318.007 154.918Z" fill="#4A90E2"/>
<path d="M370.713 233.817H247.431L246.403 256.829H369.684L370.713 233.817Z" fill="white"/>
<path d="M348.106 287.907H265.204L263.968 315.484H346.87L348.106 287.907Z" fill="#4A90E2"/>
<path d="M303.527 217.024H248.178L247.725 227.33H303.062L303.527 217.024Z" fill="#4A90E2"/>
<path d="M346.527 97.378C346.211 104.075 343.829 110.51 339.709 115.799C333.529 123.896 323.946 128.674 313.761 128.737C297.328 128.862 283.904 115.642 283.779 99.209C283.774 98.598 283.789 97.988 283.821 97.378C284.715 79.907 299.07 66.158 316.563 66.019C332.983 65.866 346.417 79.052 346.57 95.472C346.576 96.107 346.562 96.743 346.527 97.378Z" fill="white"/>
<path d="M349.476 72.58C349.396 74.361 348.763 76.072 347.664 77.476C346.017 79.626 343.47 80.896 340.761 80.915C338.132 80.931 335.665 79.643 334.176 77.476C333.205 76.034 332.724 74.317 332.805 72.58C333.051 67.942 336.863 64.296 341.508 64.257C345.874 64.217 349.447 67.725 349.487 72.091C349.488 72.254 349.485 72.417 349.476 72.58Z" fill="#4A90E2"/>
<path d="M263.491 183.217C263.369 185.263 261.685 186.868 259.635 186.89C257.709 186.913 256.129 185.369 256.106 183.442C256.105 183.367 256.106 183.292 256.11 183.217C256.22 181.165 257.91 179.555 259.965 179.545C261.898 179.529 263.479 181.085 263.495 183.018C263.496 183.085 263.494 183.15 263.491 183.217Z" fill="#253138"/>
<path d="M279.99 183.217C279.874 185.266 278.187 186.874 276.134 186.89C274.208 186.906 272.633 185.357 272.617 183.43C272.616 183.359 272.618 183.288 272.622 183.217C272.731 181.17 274.415 179.561 276.465 179.545C278.391 179.522 279.971 181.066 279.994 182.993C279.994 183.068 279.994 183.142 279.99 183.217Z" fill="#253138"/>
<path d="M296.502 183.217C296.386 185.266 294.699 186.874 292.646 186.89C290.713 186.906 289.133 185.35 289.117 183.417C289.117 183.35 289.118 183.284 289.121 183.217C289.237 181.168 290.925 179.561 292.977 179.545C294.903 179.522 296.484 181.066 296.507 182.993C296.507 183.068 296.506 183.142 296.502 183.217Z" fill="#253138"/>
<path d="M260.712 245.323C260.59 247.369 258.906 248.973 256.856 248.995C254.923 249.011 253.343 247.456 253.327 245.523C253.327 245.456 253.328 245.39 253.331 245.323C253.447 243.274 255.135 241.667 257.187 241.651C259.12 241.635 260.7 243.19 260.716 245.123C260.717 245.19 260.715 245.256 260.712 245.323Z" fill="#253138"/>
<path d="M277.212 245.323C277.096 247.367 275.416 248.974 273.369 248.996C271.442 249.019 269.862 247.475 269.839 245.548C269.838 245.473 269.84 245.398 269.844 245.323C269.96 243.274 271.647 241.667 273.699 241.651C275.626 241.635 277.199 243.184 277.216 245.111C277.216 245.182 277.216 245.252 277.212 245.323Z" fill="#253138"/>
<path d="M293.76 245.323C293.644 247.372 291.957 248.979 289.904 248.995C287.964 249.004 286.384 247.438 286.376 245.498C286.375 245.44 286.377 245.381 286.379 245.323C286.501 243.277 288.185 241.673 290.235 241.651C292.161 241.628 293.742 243.171 293.765 245.098C293.765 245.173 293.764 245.248 293.76 245.323Z" fill="#253138"/>
<path d="M310.235 245.323C310.113 247.369 308.429 248.974 306.379 248.996C304.439 249.005 302.859 247.438 302.851 245.498C302.85 245.44 302.852 245.381 302.854 245.323C302.976 243.277 304.66 241.673 306.71 241.651C308.643 241.635 310.223 243.19 310.239 245.123C310.24 245.19 310.238 245.256 310.235 245.323Z" fill="#253138"/>
<path d="M326.808 245.323C326.686 247.369 325.002 248.974 322.952 248.996C321.026 249.019 319.446 247.475 319.423 245.548C319.422 245.473 319.423 245.398 319.427 245.323C319.543 243.274 321.23 241.667 323.282 241.651C325.215 241.635 326.796 243.191 326.812 245.124C326.813 245.191 326.811 245.256 326.808 245.323Z" fill="#253138"/>
<path d="M306.965 78.015C312.088 73.005 320.122 72.913 324.91 77.809C329.698 82.705 329.426 90.735 324.303 95.745C319.18 100.755 311.146 100.847 306.358 95.951C301.57 91.055 301.842 83.025 306.965 78.015Z" fill="#4A90E2"/>
<path d="M339.709 115.799C333.529 123.896 323.946 128.674 313.76 128.737C303.863 128.821 294.572 123.969 288.985 115.799C294.934 109.875 304.347 106.007 314.775 106.007C325.204 106.007 334.287 109.875 339.709 115.799Z" fill="#4A90E2"/>
<path d="M306.964 78.015C312.087 73.005 320.121 72.913 324.909 77.809C329.697 82.705 329.425 90.735 324.302 95.745C319.179 100.755 311.145 100.847 306.357 95.951C301.569 91.055 301.841 83.025 306.964 78.015Z" fill="#4A90E2"/>
<path d="M339.709 115.8C333.529 123.897 323.946 128.675 313.76 128.738C303.863 128.822 294.572 123.97 288.985 115.8C294.934 109.876 304.347 106.008 314.775 106.008C325.204 106.008 334.287 109.876 339.709 115.8Z" fill="#4A90E2"/>
<path d="M157.489 193.708C156.386 196.281 155.227 199.111 154.225 201.852C153.224 204.593 152.199 207.421 151.322 210.233C149.526 215.776 148.192 221.459 147.334 227.221L147.106 229.028C147.088 229.337 147.124 229.647 147.213 229.944C147.526 230.951 148.003 231.899 148.625 232.75C150.249 234.954 152.12 236.965 154.201 238.742C156.397 240.691 158.696 242.523 161.088 244.226C163.48 245.982 165.992 247.688 168.466 249.296L166.277 253.643C160.404 251.245 154.81 248.209 149.598 244.592C146.818 242.661 144.296 240.383 142.095 237.812C140.79 236.281 139.759 234.538 139.049 232.655C138.634 231.48 138.407 230.245 138.376 228.998L138.354 228.067L138.34 227.469L138.435 226.242C138.988 219.85 140.182 213.531 142 207.378C142.884 204.346 143.83 201.324 144.925 198.373C146.019 195.42 147.152 192.529 148.563 189.522L157.489 193.708Z" fill="#E4897A"/>
<path d="M166.722 248.576L175.271 243.995L173.253 253.542C173.253 253.542 167.357 255.345 164.537 252.521L166.722 248.576Z" fill="#E4897A"/>
<path d="M183.225 245.365L181.107 253.275L173.252 253.543L175.271 243.996L183.225 245.365Z" fill="#E4897A"/>
<path d="M193.158 147.04C193.66 148.725 194.342 150.352 195.193 151.891C194.721 152.452 193.98 152.708 193.262 152.56L193.158 147.04Z" fill="#DF5652"/>
<path d="M192.837 144.305C193.344 144.293 193.77 144.914 193.788 145.692C193.806 146.469 193.409 147.108 192.903 147.12C192.396 147.132 191.97 146.511 191.952 145.735C191.934 144.957 192.33 144.316 192.837 144.305Z" fill="#253138"/>
<path d="M192.569 144.361L194.417 143.792C194.417 143.792 193.545 145.256 192.569 144.361Z" fill="#253138"/>
<path d="M169.468 156.578C170.714 162.243 172.07 172.654 168.169 176.553C168.169 176.553 169.871 182.292 180.456 182.046C192.093 181.775 185.876 176.141 185.876 176.141C179.49 174.771 179.539 170.057 180.55 165.601L169.468 156.578Z" fill="#E4897A"/>
<path d="M166.071 143.678C166.88 153.172 167.021 157.21 171.933 161.98C179.334 169.154 190.822 166.097 192.866 156.597C194.71 147.984 193.086 133.917 183.686 130.352C176.986 127.773 169.464 131.114 166.884 137.813C166.165 139.68 165.886 141.686 166.071 143.678Z" fill="#E4897A"/>
<path d="M166.764 132.961C162.032 134.81 155.64 133.662 158.478 148.324C161.483 163.853 157.54 169.074 157.54 169.074C157.54 169.074 175.728 172.507 194.11 167.99C194.11 167.99 188.239 158.26 189.649 150.954C191.455 141.73 189.786 138.377 189.786 138.377C189.786 138.377 173.414 130.358 166.764 132.961Z" fill="#253138"/>
<path d="M187.32 148.144C187.367 149.951 187.925 151.709 188.93 153.212C190.274 155.164 191.786 154.37 192.116 152.256C192.416 150.401 192.083 147.139 190.401 145.905C188.72 144.671 187.293 145.953 187.32 148.144Z" fill="#E4897A"/>
<path d="M162.654 134.661C161.194 130.838 167.59 124.752 181.474 126.878C195.36 129.004 196.226 140.506 196.226 140.506L193.359 137.243L193.563 140.739L179.419 143.798L162.654 134.661Z" fill="#253138"/>
<path d="M164.82 177.28C164.623 176.122 165.385 175.018 166.538 174.791C170.828 173.981 180.584 172.31 185.519 172.88C189.202 173.309 190.205 175.416 190.406 177.162C190.53 178.345 189.671 179.406 188.488 179.529C188.391 179.539 188.293 179.543 188.196 179.54L166.906 179.08C165.871 179.052 165 178.299 164.82 177.28Z" fill="#407AFF"/>
<path d="M164.82 177.279C164.623 176.121 165.385 175.017 166.538 174.79C170.828 173.98 180.584 172.309 185.519 172.879C189.202 173.308 190.205 175.415 190.406 177.161C190.53 178.344 189.671 179.405 188.488 179.528C188.391 179.538 188.293 179.542 188.196 179.539L166.906 179.079C165.871 179.051 165 178.298 164.82 177.279Z" fill="#E91E63"/>
<path d="M182.087 390.768L190.108 396.067L202.895 377.857L194.875 372.572L182.087 390.768Z" fill="#E4897A"/>
<path d="M163.676 390.841L172.118 395.395L183.365 376.193L174.921 371.639L163.676 390.841Z" fill="#E4897A"/>
<path d="M202.883 377.858L196.294 387.243L188.274 381.957L194.863 372.572L202.883 377.858Z" fill="#CF6E63"/>
<path d="M174.909 371.64L183.365 376.205L177.571 386.098L169.115 381.532L174.909 371.64Z" fill="#CF6E63"/>
<path d="M185.164 236.603C185.164 236.603 216.878 274.714 211.954 311.987C207.989 342.087 181.89 383.329 181.89 383.329L169.03 377.311C177.574 359.145 184.789 340.385 190.619 321.175C194.26 309.092 192.151 296.006 184.897 285.68C168.753 263.246 144.057 277.398 159.957 237.189L185.164 236.603Z" fill="#E91E63"/>
<path d="M185.163 236.603C185.163 236.603 216.877 274.714 211.953 311.987C207.988 342.087 181.889 383.329 181.889 383.329L169.029 377.311C177.573 359.145 184.788 340.385 190.618 321.175C194.259 309.092 192.15 296.007 184.896 285.68C168.752 263.246 144.056 277.398 159.956 237.189L185.163 236.603Z" fill="#E91E63"/>
<path d="M200.856 261.19L196.273 256.84C196.282 257.195 206.202 310.553 208.988 325.547C210.322 321.117 211.318 316.592 211.967 312.01C214.407 293.724 207.989 275.251 200.856 261.19Z" fill="#E91E63"/>
<path d="M198.917 236.283C198.917 236.283 237.154 284.22 238.886 313.454C240.323 337.907 200.176 386.282 200.176 386.282L188.004 378.804C188.004 378.804 211.364 344.567 216.806 316.918C213.823 289.709 162.892 237.121 162.892 237.121L198.917 236.283Z" fill="#E91E63"/>
<path d="M198.918 236.283C198.918 236.283 237.155 284.22 238.887 313.454C240.324 337.907 200.177 386.282 200.177 386.282L188.005 378.804C188.005 378.804 211.365 344.567 216.807 316.918C213.824 289.709 162.893 237.121 162.893 237.121L198.918 236.283Z" fill="#E91E63"/>
<path d="M151.665 179.115C147.722 180.149 144.251 194.653 144.251 194.653L159.997 204.644C159.997 204.644 164.895 193.12 162.967 188.17C160.975 183.013 156.618 177.812 151.665 179.115Z" fill="#660325"/>
<path d="M154.915 188.333L154.131 200.924L159.984 204.657C161.492 201.038 162.583 197.258 163.236 193.392L154.915 188.333Z" fill="black"/>
<path d="M202.159 178.222C202.159 178.222 206.773 179.719 198.917 236.27L159.931 237.176C160.222 221.253 160.007 211.464 151.664 179.115C157.096 177.863 162.613 177.006 168.169 176.552C174.054 175.992 179.972 175.854 185.876 176.14C193.503 176.66 202.159 178.222 202.159 178.222Z" fill="#660325"/>
<path d="M206.333 187.137C207.271 189.564 208.263 192.174 209.3 194.684C210.338 197.194 211.328 199.779 212.38 202.325L215.556 209.94L216.36 211.844L216.773 212.79L216.969 213.262L216.971 213.335C216.74 213.026 216.441 212.773 216.097 212.597C215.606 212.324 215.056 212.173 214.495 212.157C214.028 212.153 213.566 212.251 213.141 212.445C212.584 212.715 212.587 212.825 212.599 212.813C212.699 212.729 212.786 212.632 212.861 212.526C213.518 211.62 214.083 210.652 214.546 209.634C215.095 208.495 215.618 207.282 216.141 206.058C217.16 203.585 218.092 201.03 219.025 198.45C219.956 195.868 220.838 193.265 221.695 190.637L224.303 182.766L229.044 183.88C228.243 189.481 227.169 194.941 225.854 200.506C225.22 203.276 224.465 206.023 223.599 208.798C223.166 210.193 222.683 211.574 222.128 212.995C221.551 214.537 220.832 216.021 219.98 217.429C219.665 217.903 219.315 218.353 218.934 218.775C218.325 219.465 217.578 220.02 216.743 220.406C216.002 220.744 215.195 220.914 214.379 220.902C213.466 220.889 212.571 220.644 211.779 220.19C210.844 219.636 210.059 218.859 209.498 217.929C209.306 217.616 209.14 217.301 209.025 217.071L208.782 216.612L208.294 215.668L207.32 213.793C206.037 211.276 204.754 208.735 203.629 206.177C202.504 203.62 201.318 201.028 200.205 198.421C199.091 195.815 198.088 193.206 197.128 190.388L206.333 187.137Z" fill="#E4897A"/>
<path d="M202.159 178.222C206.871 179.227 212.467 192.957 212.467 192.957L198.805 205.137C198.805 205.137 189.436 190.247 191.144 185.224C192.919 179.992 196.007 176.908 202.159 178.222Z" fill="#660224"/>
<path d="M226.416 178.332L231.216 174.132L234.741 179.351L232.335 183.826C232.335 183.826 228.431 187.59 224.863 185.8C223.655 183.244 224.288 180.195 226.416 178.332Z" fill="#E4897A"/>
<path d="M240.051 173.938L239.715 175.281L231.999 176.758L231.179 174.133L240.051 173.938Z" fill="#E4897A"/>
<path d="M201.146 386.884L186.961 378.179L189.368 373.764L205.293 383.055L201.146 386.884Z" fill="#660224"/>
<path d="M177.574 394.632C176.345 394.511 175.156 394.121 174.094 393.488C173.979 393.451 173.916 393.328 173.953 393.212C173.973 393.147 174.022 393.096 174.085 393.073C174.462 392.942 177.729 391.85 178.702 392.61C178.925 392.787 179.035 393.071 178.989 393.351C178.965 393.799 178.71 394.203 178.316 394.42C178.089 394.55 177.835 394.623 177.574 394.632ZM174.789 393.35C176.337 394.098 177.567 394.351 178.148 394.043C178.405 393.893 178.565 393.621 178.572 393.323C178.567 393.127 178.565 393.042 178.454 392.996C177.931 392.592 176.103 392.953 174.765 393.351L174.789 393.35Z" fill="#253138"/>
<path d="M174.182 393.572C174.118 393.573 174.055 393.547 174.009 393.502C173.97 393.434 173.968 393.352 174.004 393.283C174.001 393.173 174.736 390.499 175.97 389.87C176.289 389.715 176.659 389.707 176.985 389.846C177.342 389.949 177.582 390.284 177.567 390.654C177.507 391.757 175.303 393.326 174.28 393.607L174.182 393.572ZM176.479 390.176C176.36 390.183 176.244 390.216 176.138 390.271C175.388 390.656 174.796 392.101 174.511 392.977C175.577 392.499 177.03 391.266 177.064 390.591C177.061 390.481 177.058 390.347 176.774 390.23C176.681 390.183 176.582 390.154 176.478 390.14L176.479 390.176Z" fill="#253138"/>
<path d="M195.159 399.512C193.775 399.544 191.814 397.814 190.736 396.75C190.679 396.674 190.676 396.57 190.73 396.493C190.777 396.411 190.866 396.361 190.96 396.364C191.449 396.353 195.71 396.891 196.337 398.076C196.472 398.292 196.478 398.564 196.353 398.786C196.18 399.17 195.82 399.437 195.403 399.494L195.159 399.512ZM191.547 396.902C193.124 398.359 194.502 399.16 195.27 399.044C195.543 399.001 195.778 398.826 195.895 398.576C195.949 398.489 195.947 398.379 195.889 398.294C195.556 397.641 193.279 397.131 191.547 396.902Z" fill="#253138"/>
<path d="M191.68 396.839C191.406 396.853 191.13 396.838 190.858 396.797C190.781 396.787 190.715 396.737 190.684 396.666C190.646 396.594 190.644 396.508 190.679 396.434C190.75 396.346 192.356 394.313 193.919 394.142C194.362 394.098 194.804 394.227 195.151 394.505C195.639 394.91 195.622 395.278 195.506 395.513C195.219 396.352 193.111 396.805 191.68 396.839ZM191.352 396.393C192.725 396.434 194.903 395.932 195.17 395.325C195.17 395.325 195.264 395.127 194.94 394.865C194.679 394.648 194.339 394.55 194.003 394.593C192.954 394.912 192.031 395.544 191.352 396.405L191.352 396.393Z" fill="#253138"/>
<path d="M174.483 392.243L164.037 389.547C163.665 389.444 163.273 389.637 163.129 389.996L159.813 397.946C159.51 398.742 159.909 399.634 160.705 399.937C160.761 399.958 160.818 399.977 160.876 399.991C164.569 400.86 166.337 401.089 170.932 402.291C173.765 403.01 177.813 404.372 181.718 405.384C185.623 406.395 186.83 402.582 185.307 401.81C178.419 398.37 177.823 395.863 175.9 393.214C175.555 392.734 175.054 392.391 174.483 392.243Z" fill="#E91E63"/>
<path d="M190.984 395.312L181.981 389.4C181.665 389.18 181.235 389.233 180.981 389.521L175.253 395.972C174.711 396.62 174.798 397.585 175.445 398.127C175.494 398.168 175.546 398.206 175.6 398.241C178.769 400.261 180.404 401.068 184.371 403.681C186.857 405.289 191.679 408.874 195.036 411.098C198.394 413.321 200.78 410.106 199.576 408.885C194.184 403.391 192.951 399.895 192.008 396.721C191.845 396.146 191.481 395.646 190.984 395.312Z" fill="#E91E63"/>
<path d="M183.537 384.099L167.383 376.529L168.933 372.158L186.186 380.131L183.537 384.099Z" fill="#82042F"/>
<path d="M159.291 234.903L158.027 238.458C157.898 238.73 158.223 239.005 158.676 238.994L199.156 238.053C199.511 238.045 199.801 237.867 199.819 237.646L200.081 234.139C200.076 233.906 199.789 233.704 199.41 233.713L159.921 234.631C159.679 234.614 159.444 234.715 159.291 234.903Z" fill="#E91E63"/>
<path d="M159.291 234.903L158.027 238.458C157.898 238.73 158.223 239.005 158.676 238.994L199.155 238.053C199.51 238.045 199.8 237.867 199.818 237.646L200.08 234.139C200.075 233.906 199.788 233.704 199.409 233.713L159.921 234.631C159.679 234.614 159.444 234.715 159.291 234.903Z" fill="#EC769E"/>
<path d="M165.769 239.171L164.704 239.196C164.496 239.201 164.335 239.095 164.343 238.959L164.74 234.408C164.737 234.286 164.93 234.171 165.138 234.167L166.203 234.142C166.411 234.137 166.572 234.243 166.563 234.366L166.167 238.917C166.158 239.052 165.977 239.166 165.769 239.171Z" fill="#660325"/>
<path d="M190.732 238.591L189.679 238.615C189.471 238.62 189.31 238.514 189.319 238.379L189.703 233.828C189.7 233.706 189.905 233.591 190.113 233.586L191.166 233.562C191.374 233.557 191.548 233.663 191.526 233.785L191.142 238.336C191.084 238.473 190.952 238.586 190.732 238.591Z" fill="#660325"/>
<path d="M169.546 441.673C187.651 441.252 202.353 441.974 202.383 443.285C202.414 444.596 187.761 446.001 169.656 446.422C151.551 446.843 136.849 446.12 136.819 444.81C136.788 443.498 151.441 442.094 169.546 441.673Z" fill="#294A83"/>
<path d="M189.494 440.23C183.654 438.677 177.168 436.66 173.224 434.487C173.112 434.416 172.989 434.382 172.877 434.324L172.267 408.064L184.002 407.791C185.928 407.631 187.361 405.941 187.203 404.014C187.057 402.247 185.612 400.867 183.839 400.804L172.165 401.075L169.383 281.376L162.334 281.54L165.116 401.239L153.454 401.51C151.522 401.44 149.9 402.95 149.831 404.882C149.761 406.815 151.272 408.437 153.204 408.507C153.342 408.512 153.479 408.509 153.617 408.497L165.279 408.226L165.888 434.449C165.778 434.452 165.671 434.552 165.561 434.628C161.663 437.02 155.326 439.335 149.564 441.121C148.664 441.416 148.175 442.385 148.47 443.284C148.702 443.995 149.371 444.473 150.119 444.463L189.094 443.557C190.036 443.472 190.73 442.637 190.644 441.695C190.583 441.023 190.132 440.449 189.494 440.23Z" fill="#5690D4"/>
<path d="M143.794 269.776L187.307 268.765C190.808 268.683 193.712 271.456 193.794 274.956L194.094 287.89C194.176 291.391 191.404 294.294 187.902 294.376L144.389 295.387C140.888 295.469 137.985 292.697 137.904 289.196L137.603 276.262C137.522 272.762 140.293 269.858 143.794 269.776Z" fill="#5690D4"/>
<path d="M143.986 295.409L144.038 297.637C144.08 299.473 146.109 300.919 148.557 300.862L184.043 300.037C186.491 299.98 188.45 298.441 188.408 296.606L188.356 294.377L143.986 295.409Z" fill="#E91E63"/>
<path d="M143.986 295.409L144.038 297.637C144.08 299.473 146.109 300.919 148.557 300.862L184.043 300.037C186.491 299.98 188.45 298.441 188.408 296.606L188.356 294.377L143.986 295.409Z" fill="#194A83"/>
</svg>
