<svg width="279" height="294" viewBox="0 0 429 444" fill="none" xmlns="http://www.w3.org/2000/svg">
    <g clip-path="url(#clip0_712_619)">
        <path d="M203.796 400.665V409.349H306.67V400.665H253.229H203.796Z" fill="#E7E6E0"/>
        <path d="M255.233 440.412H303.329V409.349H306.669V400.664H253.229V408.545L255.233 440.412Z" fill="#E7E6E0"/>
        <path d="M218.492 360.959V369.643H321.368V360.959H267.925H218.492Z" fill="#E7E6E0"/>
        <path d="M269.93 400.706H318.026V369.643H321.368V360.959H267.925V368.841L269.93 400.706Z" fill="#E7E6E0"/>
        <path d="M428.138 440.65C428.138 440.794 332.288 440.91 214.079 440.91C95.829 440.91 0 440.794 0 440.65C0 440.506 95.829 440.39 214.079 440.39C332.288 440.39 428.138 440.506 428.138 440.65Z" fill="#0D151D"/>
        <path d="M228.141 104.036C228.141 104.207 228.001 104.346 227.83 104.346C227.659 104.346 227.519 104.207 227.519 104.036C227.519 103.864 227.659 103.724 227.83 103.724C228.001 103.724 228.141 103.864 228.141 104.036Z" fill="#4A6CD1"/>
        <path d="M234.773 69.772C234.773 69.943 234.634 70.083 234.462 70.083C234.29 70.083 234.151 69.943 234.151 69.772C234.151 69.6 234.29 69.461 234.462 69.461C234.634 69.461 234.773 69.6 234.773 69.772Z" fill="#4A6CD1"/>
        <path d="M283.264 86.426C283.264 86.597 283.124 86.737 282.953 86.737C282.782 86.737 282.642 86.597 282.642 86.426C282.642 86.254 282.782 86.115 282.953 86.115C283.124 86.115 283.264 86.254 283.264 86.426Z" fill="#4A6CD1"/>
        <path d="M238.495 103.943C238.415 103.943 238.352 100.26 238.352 95.718C238.352 91.175 238.415 87.493 238.495 87.493C238.574 87.493 238.637 91.175 238.637 95.718C238.637 100.26 238.574 103.943 238.495 103.943Z" fill="#FAF9F7"/>
        <path d="M251.615 95.807C251.606 95.821 251.481 95.763 251.279 95.616C251.076 95.471 250.806 95.222 250.538 94.86C250 94.156 249.509 92.878 249.828 91.498C250.162 90.121 251.174 89.198 251.97 88.81C252.372 88.607 252.724 88.506 252.97 88.467C253.217 88.427 253.357 88.43 253.359 88.447C253.371 88.501 252.813 88.553 252.067 88.987C251.332 89.402 250.413 90.291 250.106 91.563C249.811 92.837 250.233 94.045 250.704 94.745C251.176 95.467 251.65 95.764 251.615 95.807Z" fill="#FAF9F7"/>
        <path d="M34.683 440.051H25.73L22.411 399.748H32.953L34.683 440.051Z" fill="#0D151D"/>
        <path d="M112.274 440.051H121.226L124.546 399.748H114.003L112.274 440.051Z" fill="#0D151D"/>
        <path d="M130.699 404.851L15.462 407.556L11.955 333.124C11.612 325.837 17.428 319.74 24.724 319.74H122.906C130.314 319.74 136.172 326.018 135.659 333.408L130.699 404.851Z" fill="#4A6CD1"/>
        <path d="M136.607 332.87C136.607 332.879 136.498 332.888 136.286 332.897C136.045 332.904 135.733 332.914 135.341 332.926C134.476 332.938 133.259 332.957 131.709 332.98C128.519 332.991 123.964 333.008 118.35 333.028C107.071 333.047 91.488 332.92 74.288 333.319C57.079 333.891 41.482 333.793 30.205 333.622C24.565 333.533 20.002 333.423 16.85 333.328C15.301 333.275 14.085 333.233 13.22 333.204C12.828 333.185 12.517 333.17 12.276 333.158C12.064 333.145 11.955 333.134 11.955 333.124C11.955 333.115 12.064 333.109 12.277 333.104C12.518 333.104 12.83 333.102 13.222 333.1C14.087 333.105 15.304 333.114 16.854 333.126C20.043 333.156 24.597 333.2 30.21 333.254C41.488 333.331 57.068 333.37 74.275 332.799C91.488 332.399 107.073 332.585 118.351 332.66C123.965 332.709 128.519 332.749 131.709 332.777C133.259 332.796 134.476 332.811 135.341 332.82C135.733 332.83 136.044 332.838 136.286 332.844C136.498 332.853 136.607 332.86 136.607 332.87Z" fill="#0D151D"/>
        <path d="M53.99 320.903C54.022 321.077 50.379 321.14 46.508 323.148C42.608 325.105 40.42 328.018 40.298 327.89C40.252 327.856 40.725 327.089 41.726 326.038C42.721 324.988 44.292 323.698 46.271 322.685C48.252 321.678 50.219 321.162 51.653 320.973C53.092 320.778 53.99 320.847 53.99 320.903Z" fill="#0D151D"/>
        <path d="M101.386 185.575L115.474 211.307C115.474 211.307 118.516 216.344 119.31 221.69C119.995 226.305 118.622 231.278 116.719 231.926C112.612 233.324 104.833 233.579 100.385 228.014C96.335 222.947 84.549 196.339 84.549 196.339L101.386 185.575Z" fill="#FBA585"/>
        <path d="M152.583 381.796C152.617 381.795 152.65 381.455 152.555 380.849C152.455 380.247 152.208 379.368 151.597 378.437C151.44 378.21 151.284 377.964 151.026 377.741C150.782 377.519 150.36 377.349 149.954 377.499C149.751 377.564 149.55 377.749 149.479 377.976C149.403 378.206 149.441 378.434 149.501 378.619C149.634 379 149.833 379.272 150 379.587C150.372 380.213 150.679 380.836 151.154 381.541C151.394 381.901 151.934 382.199 152.427 382.114C152.912 382.053 153.304 381.817 153.657 381.569C154.342 381.072 154.945 380.507 155.464 379.904C155.723 379.603 155.959 379.292 156.176 378.977C156.379 378.664 156.62 378.347 156.711 377.912C156.803 377.492 156.644 376.941 156.168 376.751C155.685 376.577 155.292 376.819 155.023 377.01C154.477 377.463 154.149 377.928 153.816 378.378C153.182 379.275 152.831 380.099 152.633 380.673C152.439 381.252 152.393 381.587 152.427 381.597C152.525 381.637 152.85 380.302 154.138 378.615C154.458 378.216 154.855 377.729 155.298 377.391C155.524 377.229 155.807 377.125 155.978 377.212C156.159 377.276 156.259 377.547 156.2 377.809C156.143 378.078 155.94 378.367 155.731 378.668C155.521 378.965 155.293 379.257 155.045 379.54C154.548 380.106 153.971 380.642 153.326 381.109C153.016 381.333 152.677 381.517 152.363 381.555C152.047 381.594 151.798 381.469 151.59 381.198C151.195 380.624 150.816 379.914 150.451 379.324C150.276 379.016 150.065 378.717 149.974 378.46C149.877 378.189 149.931 378.015 150.119 377.938C150.553 377.76 150.975 378.25 151.268 378.666C152.488 380.395 152.473 381.831 152.583 381.796Z" fill="#0D151D"/>
        <path d="M128.008 382.637L115.806 409.082L96.116 399.985L108.736 367.256L128.008 382.637Z" fill="#FBA585"/>
        <path d="M118.112 407.318L110.982 420.912C110.982 420.912 129.231 439.781 127.517 444L84.617 423.431L96.403 396.162L118.112 407.318Z" fill="#283C46"/>
        <path d="M127.517 444L121.018 440.884L127.517 444C127.765 443.39 127.596 442.475 127.125 441.354C127.514 441.925 128.144 443.096 127.517 444Z" fill="#FEFEFE"/>
        <path d="M127.517 444L121.019 440.884L84.617 423.431L86.402 420.01L126.867 441.01C126.867 441.01 126.979 441.139 127.125 441.353C127.596 442.474 127.765 443.39 127.517 444Z" fill="#A4AFAA"/>
        <path d="M111.782 421.026C111.675 421.232 110.581 420.826 109.227 421.006C107.869 421.149 106.903 421.803 106.749 421.627C106.576 421.493 107.49 420.391 109.133 420.202C110.773 419.999 111.92 420.856 111.782 421.026Z" fill="#0D151D"/>
        <path d="M115.39 425.046C115.34 425.271 114.262 425.193 113.125 425.738C111.973 426.249 111.334 427.121 111.13 427.012C110.917 426.951 111.36 425.654 112.786 425.004C114.205 424.341 115.481 424.844 115.39 425.046Z" fill="#0D151D"/>
        <path d="M115.362 431.656C115.151 431.609 115.361 430.424 116.449 429.534C117.531 428.637 118.735 428.658 118.741 428.875C118.776 429.104 117.845 429.415 116.963 430.158C116.064 430.881 115.58 431.735 115.362 431.656Z" fill="#0D151D"/>
        <path d="M113.828 415.79C113.648 415.939 112.826 415.189 111.603 414.702C110.391 414.189 109.279 414.145 109.256 413.913C109.207 413.704 110.479 413.359 111.912 413.954C113.348 414.537 114.01 415.675 113.828 415.79Z" fill="#0D151D"/>
        <path d="M122.131 403.788L154.295 323.293C154.295 323.293 153.573 309.559 151.043 305.222C148.513 300.885 71.891 275.585 71.891 275.585C71.891 275.585 52.374 270.886 39.363 275.585C26.352 280.283 16.593 296.547 18.4 305.583C20.207 314.618 27.834 321.256 27.834 321.256L84.179 322.931L114.891 334.135L94.209 393.408L122.131 403.788Z" fill="#0D151D"/>
        <path d="M150.74 348.782L151.465 377.898L129.781 378.429L126.657 343.489L150.74 348.782Z" fill="#FBA585"/>
        <path d="M152.755 375.297L152.36 390.644C152.36 390.644 177.064 399.518 177.389 404.059L129.814 404.541L128.351 374.871L152.755 375.297Z" fill="#283C46"/>
        <path d="M137.628 388.73C136.71 388.991 136.084 390.033 136.307 390.961C136.53 391.89 137.583 392.535 138.506 392.29C139.428 392.045 140.219 390.817 139.893 389.92C139.568 389.022 138.287 388.333 137.451 388.792" fill="#D9D9D1"/>
        <path d="M130.721 404.532L177.389 404.059C177.342 403.403 176.787 402.657 175.872 401.861C176.474 402.202 177.551 402.973 177.389 404.059L130.721 404.532Z" fill="#FEFEFE"/>
        <path d="M129.813 404.541L129.906 400.685L175.485 401.665C175.485 401.665 175.644 401.732 175.871 401.861C176.786 402.657 177.342 403.403 177.389 404.059L130.72 404.532L129.813 404.541Z" fill="#A4AFAA"/>
        <path d="M153.128 390.393C153.123 390.625 151.962 390.742 150.827 391.501C149.672 392.229 149.093 393.242 148.878 393.152C148.663 393.109 148.996 391.717 150.387 390.822C151.769 389.916 153.177 390.179 153.128 390.393Z" fill="#0D151D"/>
        <path d="M158.139 392.406C158.194 392.631 157.191 393.036 156.412 394.026C155.604 394.994 155.416 396.059 155.184 396.051C154.967 396.089 154.793 394.73 155.785 393.518C156.766 392.296 158.132 392.185 158.139 392.406Z" fill="#0D151D"/>
        <path d="M161.034 398.35C160.823 398.4 160.488 397.243 161.072 395.965C161.646 394.683 162.737 394.17 162.837 394.362C162.97 394.552 162.271 395.242 161.809 396.299C161.321 397.344 161.264 398.324 161.034 398.35Z" fill="#0D151D"/>
        <path d="M152.653 384.79C152.558 385.003 151.488 384.693 150.176 384.796C148.862 384.872 147.845 385.322 147.722 385.125C147.585 384.958 148.574 384.088 150.121 383.989C151.667 383.878 152.765 384.606 152.653 384.79Z" fill="#0D151D"/>
        <path d="M138.078 267.948C138.078 267.948 151.069 266.909 152.515 281.005C153.96 295.101 155.38 360.881 155.38 360.881L125.02 363.41L120.322 296.186L71.892 275.586C71.892 275.586 129.403 266.141 138.078 267.948Z" fill="#0D151D"/>
        <path d="M84.529 248.927C84.529 248.927 92.413 271.032 90.912 273.496C89.41 275.96 69.135 286.098 69.135 286.098L18.401 305.583C18.401 305.583 13.19 297.294 13.19 284.562C13.19 271.83 30.837 248.927 30.837 248.927H84.529Z" fill="#0D151D"/>
        <path d="M69.491 274.457C69.488 274.465 69.568 274.508 69.729 274.585C69.914 274.671 70.152 274.78 70.449 274.918C71.118 275.216 72.057 275.634 73.259 276.168C75.75 277.253 79.327 278.812 83.805 280.763C92.854 284.658 105.538 290.118 120.215 296.436L120.051 296.205C120.511 302.845 121.009 310.017 121.523 317.437C122.757 334.781 123.895 350.773 124.795 363.426L124.811 363.655L125.039 363.635C134.273 362.825 141.85 362.16 147.157 361.694C149.766 361.45 151.814 361.259 153.246 361.125C153.92 361.055 154.448 361 154.838 360.96C155.197 360.919 155.381 360.892 155.38 360.881C155.379 360.869 155.193 360.873 154.832 360.892C154.441 360.916 153.912 360.949 153.235 360.992C151.801 361.098 149.748 361.248 147.135 361.439C141.826 361.858 134.242 362.456 125.001 363.186L125.246 363.395C124.377 350.739 123.279 334.745 122.088 317.397C121.566 309.979 121.061 302.807 120.593 296.167L120.581 296.001L120.429 295.936C105.72 289.692 93.008 284.297 83.94 280.447C79.435 278.559 75.837 277.05 73.332 275.999C72.115 275.499 71.164 275.109 70.486 274.831C70.181 274.711 69.939 274.615 69.748 274.541C69.581 274.479 69.494 274.449 69.491 274.457Z" fill="#283C46"/>
        <path d="M29.143 276.668C29.156 276.705 29.662 276.564 30.567 276.279C31.574 275.954 32.856 275.541 34.387 275.048C37.61 274.025 42.082 272.601 47.171 271.817C52.26 271.032 56.969 271.275 60.258 271.985C63.562 272.669 65.461 273.612 65.503 273.505C65.517 273.476 65.057 273.217 64.183 272.838C63.31 272.455 62.005 271.992 60.344 271.595C57.032 270.772 52.238 270.461 47.086 271.257C41.936 272.05 37.456 273.547 34.259 274.668C32.659 275.236 31.375 275.723 30.493 276.071C29.611 276.421 29.13 276.632 29.143 276.668Z" fill="#283C46"/>
        <path d="M36.313 265.016C36.327 265.105 38.012 264.777 40.749 264.99C42.115 265.086 43.741 265.296 45.551 265.505C47.359 265.72 49.343 265.964 51.397 266.353C55.519 267.087 59.065 268.522 61.338 270.04C63.632 271.533 64.706 272.895 64.785 272.817C64.807 272.799 64.575 272.435 64.048 271.863C63.522 271.294 62.707 270.505 61.562 269.708C59.302 268.071 55.675 266.537 51.502 265.796C49.422 265.402 47.422 265.173 45.608 264.986C43.795 264.806 42.159 264.636 40.77 264.591C39.383 264.541 38.255 264.62 37.487 264.737C36.718 264.854 36.306 264.982 36.313 265.016Z" fill="#283C46"/>
        <path d="M68.833 96.347L45.55 101.279C43.298 101.429 41.535 103.278 41.492 105.535L41.772 155.921C41.791 159.363 42.944 162.703 45.053 165.423L47.273 168.287C52.336 174.816 62.591 174.158 66.458 166.857C66.728 166.347 66.915 165.9 66.994 165.539C67.072 165.085 67.193 164.786 67.214 164.401L67.657 159.489C67.884 155.002 67.915 150.444 67.916 150.486C67.916 150.486 77.444 149.282 79.885 137.005C81.099 130.9 81.182 120.816 80.983 112.563C80.803 105.135 76.247 95.852 68.833 96.347Z" fill="#FBA585"/>
        <path d="M67.979 147.393C67.979 147.393 58.93 147.574 50.889 142.306C50.889 142.306 53.055 148.868 57.251 151.257C59.737 152.672 63.165 153.719 67.781 153.467L67.979 147.393Z" fill="#FB7E53"/>
        <path d="M103.315 186.076C103.315 186.076 94.24 170.943 91.722 167.883C89.361 165.014 86.318 163.322 84.288 162.433C83.158 161.939 81.97 161.599 80.755 161.388L67.704 158.498C67.704 158.498 67.681 167.406 58.348 167.957C49.014 168.508 41.155 155.506 41.155 155.506C41.155 155.506 26.076 157.838 22.468 159.694C18.86 161.55 13.191 163.907 10.071 179.53L7.88101 194.814L33.88 197.217L36.368 235.852L49.262 244.83C49.262 244.83 85.009 254.125 87.293 254.739C89.577 255.354 90.333 197.217 90.333 197.217C90.333 197.217 99.515 191.281 103.315 186.076Z" fill="#0D151D"/>
        <path d="M86.203 179.578C86.237 179.565 86.413 179.962 86.705 180.692C87.002 181.42 87.381 182.494 87.803 183.835C88.65 186.516 89.579 190.307 90.105 194.572C90.624 198.841 90.636 202.744 90.461 205.55C90.375 206.954 90.267 208.086 90.154 208.864C90.047 209.643 89.971 210.071 89.935 210.067C89.899 210.063 89.907 209.627 89.952 208.846C90.002 208.064 90.055 206.932 90.093 205.534C90.174 202.74 90.102 198.871 89.588 194.636C89.066 190.403 88.202 186.632 87.45 183.939C87.076 182.592 86.752 181.505 86.514 180.759C86.282 180.011 86.169 179.59 86.203 179.578Z" fill="#283C46"/>
        <path d="M36.205 232.206L33.881 197.342L9.36099 195.205C9.36099 195.205 10.167 219.125 11.004 226.235C12.208 236.463 19.813 250.125 24.29 253.145C25.15 253.725 29.32 248.596 31.489 243.088C33.813 237.187 36.205 232.206 36.205 232.206Z" fill="#FBA585"/>
        <path d="M59.65 86.9083C53.8242 85.8471 48.6659 88.0341 43.7042 91.2655C38.7426 94.4979 34.977 99.4197 32.7707 104.915C30.4479 110.703 29.8214 117.24 31.4832 123.251C33.1451 129.262 37.1832 134.673 42.7103 137.564C50.2581 141.511 59.9844 140.28 66.8388 135.225C73.6922 130.169 77.6776 121.722 78.1045 113.216C78.3989 107.356 77.0681 101.341 73.8501 96.4352C70.631 91.5287 65.4455 87.829 59.65 86.9083Z" fill="#0D151D"/>
        <path d="M42.8139 106.561C43.6943 104.338 43.3939 101.841 43.7589 99.4778C44.5646 94.2749 48.8129 90.145 53.6936 88.1707C58.2347 86.3334 63.7484 86.8118 69.1702 88.6362C72.8866 89.8864 76.3725 92.0308 78.8244 95.0911C82.0774 99.153 83.174 104.848 81.6599 109.828L55.0398 105.629C52.5185 107.664 49.9378 109.735 46.8953 110.851C46.0024 111.178 45.0444 111.42 44.1073 111.26C43.1701 111.1 42.2647 110.451 42.0527 109.524C41.8217 108.511 42.4314 107.527 42.8139 106.561Z" fill="#0D151D"/>
        <path d="M69.6529 96.0055L46.3131 100.661C44.0594 100.784 42.2746 102.612 42.2049 104.869L42.0787 138.881C45.642 142.502 54.4785 146.651 58.9159 148.493C62.7404 150.08 68.0934 150.108 68.0942 150.13C68.0942 150.13 77.6358 149.039 80.2221 136.792C81.5084 130.701 81.711 120.619 81.6098 112.364C81.5179 104.935 77.0722 95.5984 69.6529 96.0055Z" fill="#FBA585"/>
        <path d="M77.9569 121.779C77.944 122.617 77.2239 123.296 76.3488 123.299C75.4757 123.301 74.7767 122.625 74.7886 121.787C74.8015 120.95 75.5217 120.27 76.3947 120.267C77.2698 120.264 77.9699 120.942 77.9569 121.779Z" fill="#0D151D"/>
        <path d="M79.1609 117.49C78.9545 117.686 77.7997 116.737 76.0955 116.655C74.3947 116.549 73.0999 117.363 72.9255 117.145C72.8397 117.048 73.058 116.685 73.6224 116.316C74.1788 115.949 75.1118 115.612 76.1732 115.67C77.2346 115.729 78.1065 116.165 78.5995 116.591C79.1024 117.02 79.2629 117.402 79.1609 117.49Z" fill="#0D151D"/>
        <path d="M62.6816 121.215C62.6696 122.053 61.9495 122.732 61.0744 122.735C60.2014 122.736 59.5023 122.062 59.5152 121.224C59.5272 120.387 60.2473 119.707 61.1204 119.704C61.9955 119.701 62.6945 120.377 62.6816 121.215Z" fill="#0D151D"/>
        <path d="M62.9789 116.884C62.7716 117.079 61.6157 116.132 59.9126 116.049C58.2117 115.943 56.918 116.757 56.7436 116.539C56.6577 116.442 56.874 116.079 57.4404 115.71C57.9968 115.343 58.9299 115.006 59.9913 115.063C61.0527 115.123 61.9255 115.559 62.4185 115.985C62.9205 116.413 63.08 116.796 62.9789 116.884Z" fill="#0D151D"/>
        <path d="M67.9399 129.908C67.937 129.811 69.0047 129.681 70.7323 129.549C71.1696 129.526 71.5854 129.461 71.6739 129.168C71.7926 128.858 71.6333 128.38 71.4484 127.864C71.0931 126.79 70.7214 125.665 70.3303 124.485C68.7832 119.679 67.6869 115.735 67.8806 115.674C68.0744 115.613 69.4868 119.46 71.034 124.268C71.405 125.452 71.7596 126.582 72.0968 127.663C72.2368 128.165 72.492 128.74 72.2364 129.381C72.1026 129.701 71.771 129.921 71.4883 129.982C71.2054 130.053 70.9605 130.045 70.7444 130.047C69.0133 130.052 67.9417 130.005 67.9399 129.908Z" fill="#0D151D"/>
        <path d="M67.0115 133.979C66.4405 133.137 65.3883 132.636 64.3165 132.698C63.573 132.739 62.8092 133.058 62.3293 133.637C61.8494 134.217 61.7113 135.068 62.0912 135.663C62.5183 136.333 63.4711 136.53 64.2954 136.341C65.1207 136.151 65.8477 135.65 66.5396 135.15C66.7303 135.012 66.927 134.869 67.0513 134.671C67.1767 134.476 67.2138 134.212 67.0809 134.038" fill="#FB7E53"/>
        <path d="M62.8656 130.831C63.1436 130.83 63.0527 132.68 64.5693 134.072C66.0818 135.47 68.0652 135.362 68.0662 135.621C68.0858 135.739 67.6091 135.959 66.7763 135.939C65.9584 135.926 64.7802 135.603 63.8522 134.751C62.9272 133.897 62.5662 132.802 62.5412 132.04C62.5094 131.263 62.7398 130.815 62.8656 130.831Z" fill="#0D151D"/>
        <path d="M62.9439 111.823C62.7525 112.278 61.062 111.972 59.0512 112.111C57.0369 112.211 55.3958 112.714 55.1519 112.285C55.0443 112.08 55.3473 111.658 56.0213 111.243C56.6903 110.828 57.7417 110.455 58.9487 110.383C60.1556 110.312 61.2448 110.558 61.9579 110.891C62.677 111.224 63.0275 111.607 62.9439 111.823Z" fill="#0D151D"/>
        <path d="M79.0435 110.016C78.724 110.387 77.5714 109.925 76.1604 109.836C74.754 109.696 73.5407 109.963 73.2857 109.544C73.175 109.342 73.3825 108.964 73.9236 108.624C74.4567 108.285 75.3337 108.031 76.3019 108.109C77.27 108.189 78.0924 108.582 78.5634 109.003C79.0425 109.426 79.1856 109.833 79.0435 110.016Z" fill="#0D151D"/>
        <path d="M38.5888 102.916C41.0866 95.8548 51.7394 86.3204 59.1899 87.0788L70.8865 94.61C70.0355 98.6502 66.7856 102.089 62.7995 103.166C60.6705 103.741 58.1262 103.836 56.8151 105.61C55.4766 107.42 56.1384 110.14 54.8861 112.012C53.1502 114.606 48.6401 114.337 47.3105 117.16C46.7299 118.393 46.9641 119.896 46.3615 121.12C45.5581 122.75 41.3066 124.712 39.5926 124.109C37.8797 123.505 37.9686 120.558 37.4511 118.995C36.5677 116.326 37.0098 114.97 37.3751 113.506C38.2403 110.039 37.3968 106.284 38.5888 102.916Z" fill="#0D151D"/>
        <path d="M44.6548 125.73C44.6987 124.811 43.7459 122.589 42.8451 122.402C40.4399 121.9 36.0599 121.873 35.7069 128.029C35.2251 136.443 43.7715 135.192 43.8004 134.952C43.8236 134.764 44.5011 128.905 44.6548 125.73Z" fill="#FBA585"/>
        <path d="M41.4128 131.616C41.3771 131.588 41.2606 131.71 41.0074 131.81C40.7593 131.906 40.3386 131.959 39.9098 131.769C39.0393 131.392 38.3724 129.938 38.4184 128.419C38.4406 127.652 38.6431 126.932 38.9491 126.344C39.2412 125.743 39.6631 125.336 40.1158 125.282C40.5667 125.205 40.8683 125.49 40.9575 125.733C41.0576 125.976 40.9937 126.14 41.0375 126.156C41.0592 126.18 41.226 126.026 41.1782 125.674C41.1532 125.505 41.0656 125.301 40.8776 125.127C40.6847 124.952 40.3929 124.852 40.0787 124.867C39.4275 124.875 38.8098 125.44 38.4731 126.085C38.1014 126.732 37.8558 127.539 37.8306 128.401C37.7875 130.099 38.5641 131.736 39.7602 132.158C40.343 132.346 40.8479 132.196 41.1141 132.012C41.3864 131.819 41.4416 131.634 41.4128 131.616Z" fill="#FB7E53"/>
        <path d="M36.8118 100.709C36.87 98.076 33.6007 96.3151 31.0419 95.6877C28.4842 95.0614 25.7621 95.8082 23.4363 97.0467C22.0756 97.7706 20.7022 98.8084 20.3823 100.316C20.0614 101.823 21.495 103.641 22.9443 103.117C20.1683 104.03 18.7226 107.707 20.1324 110.266C21.5421 112.826 25.4216 113.569 27.6768 111.712C26.9272 114.116 25.3278 116.246 23.2282 117.637C27.5526 118.306 32.1732 116.51 34.9108 113.098C37.6485 109.685 38.4006 104.787 36.8118 100.709Z" fill="#0D151D"/>
        <path d="M30.8085 114.032C30.7484 114.041 30.5347 113.082 30.5235 111.501C30.5082 109.924 30.7683 107.723 31.5654 105.437C32.3696 103.151 33.54 101.268 34.5345 100.045C35.5292 98.8162 36.2935 98.2022 36.335 98.2457C36.4887 98.3565 33.6317 101.121 32.0913 105.621C30.4881 110.097 30.9984 114.041 30.8085 114.032Z" fill="#4A6CD1"/>
        <path d="M68.4709 92.0352C69.2052 95.4721 74.3637 99.9296 76.6189 102.626C80.9222 107.769 81.7621 109.47 81.5842 120.853C83.6916 116.945 85.3142 113.112 85.2088 108.675C85.1034 104.237 83.5222 99.7741 80.4762 96.5458C77.4303 93.3175 72.8711 91.4513 68.4709 92.0352Z" fill="#0D151D"/>
        <path d="M110.522 258.226C110.109 258.869 109.35 259.236 108.598 259.091C108.449 259.062 108.294 259.017 108.137 258.947C107.097 258.489 107.428 256.306 107.428 256.306L102.357 254.922C102.357 254.922 95.193 258.543 92.5047 261.16C89.8164 263.777 83.9711 260.814 83.9711 260.814L77.9531 252.157L93.4149 242.005C93.4149 242.005 92.7773 242.456 93.6015 240.919C94.4248 239.38 97.3455 240.302 97.3455 240.302C97.8935 239.556 99.8726 239.476 99.8726 239.476L108.102 241.312C109.798 241.69 111.231 242.816 112 244.373L114.937 250.319C114.937 250.319 116.375 254.53 115.978 255.431C115.377 256.793 113.922 256.322 113.922 256.322C113.922 256.322 113.235 258.918 112.532 258.937C111.829 258.957 110.522 258.226 110.522 258.226Z" fill="#FBA585"/>
        <path d="M93.6228 248.465C93.6226 248.553 94.7414 248.566 96.5126 248.829C98.2776 249.103 100.702 249.674 103.177 250.818C104.415 251.384 105.544 252.029 106.525 252.683C107.471 253.357 108.473 253.931 108.718 254.699C108.842 255.075 108.731 255.433 108.523 255.683C108.319 255.932 108.059 256.084 107.838 256.149C107.382 256.283 107.112 256.129 107.096 256.178C107.075 256.188 107.331 256.435 107.885 256.35C108.153 256.307 108.472 256.166 108.748 255.881C109.026 255.611 109.224 255.098 109.081 254.597C108.952 254.091 108.577 253.673 108.167 253.316C107.745 252.972 107.303 252.618 106.801 252.278C105.814 251.586 104.666 250.912 103.399 250.332C100.866 249.161 98.3658 248.637 96.5598 248.456C94.7448 248.285 93.62 248.406 93.6228 248.465Z" fill="#FB7E53"/>
        <path d="M92.4828 253.715C92.4761 253.874 95.8804 254.088 100.019 254.769C104.162 255.437 107.458 256.312 107.502 256.16C107.522 256.092 106.72 255.787 105.389 255.407C104.057 255.025 102.192 254.583 100.104 254.242C98.0183 253.904 96.1101 253.73 94.7269 253.669C93.3427 253.608 92.4861 253.645 92.4828 253.715Z" fill="#FB7E53"/>
        <path d="M110.495 258.01C110.524 258.007 110.594 257.705 110.694 257.134C110.789 256.563 110.912 255.735 110.956 254.694C110.975 254.175 110.979 253.602 110.9 252.981C110.833 252.359 110.61 251.687 110.274 251.08C109.642 249.864 108.723 248.578 107.488 247.556C106.257 246.543 105.012 245.668 103.715 245.123C102.429 244.58 101.197 244.351 100.175 244.198C99.1483 244.053 98.3165 243.988 97.7413 243.95C97.1661 243.913 96.8466 243.91 96.8418 243.946C96.8298 244.031 98.0983 244.208 100.112 244.569C101.112 244.769 102.303 245.032 103.52 245.575C104.728 246.107 105.951 246.983 107.14 247.961C108.331 248.952 109.193 250.133 109.841 251.314C110.536 252.45 110.559 253.671 110.578 254.689C110.566 256.726 110.381 258.001 110.495 258.01Z" fill="#FB7E53"/>
        <path d="M100.053 241.635C100.045 241.715 101.287 241.877 103.253 242.316C105.139 242.812 108.191 243.274 109.66 246.1C111.3 248.701 112.67 251.141 113.179 253.076C113.731 255.003 113.53 256.275 113.64 256.276C113.668 256.28 113.748 255.972 113.78 255.399C113.816 254.827 113.781 253.986 113.544 252.982C113.111 250.95 111.76 248.428 110.111 245.811C109.689 245.153 109.224 244.522 108.663 244.005C108.105 243.478 107.428 243.134 106.8 242.878C105.525 242.369 104.329 242.134 103.328 241.946C101.321 241.598 100.059 241.567 100.053 241.635Z" fill="#FB7E53"/>
        <path d="M94.5143 259.576C94.5239 259.589 94.7066 259.478 95.0483 259.25C95.4354 259.001 95.9368 258.679 96.5613 258.277C97.8915 257.455 99.8617 256.293 102.432 255.081L102.312 255.092C103.823 255.516 105.527 255.994 107.373 256.511L107.22 256.274C107.164 256.695 107.144 257.109 107.183 257.545C107.225 257.974 107.311 258.442 107.637 258.848C107.808 259.047 108.068 259.181 108.289 259.233C108.512 259.316 108.759 259.365 109.01 259.352C109.509 259.333 110 259.122 110.368 258.777C110.462 258.692 110.545 258.596 110.624 258.495L110.68 258.418L110.707 258.379L110.72 258.359L110.722 258.358C110.792 258.339 110.125 258.505 110.408 258.435L110.413 258.438L110.424 258.444L110.58 258.527C110.789 258.636 111.002 258.738 111.222 258.833C111.442 258.928 111.668 259.015 111.909 259.085C112.031 259.119 112.155 259.149 112.289 259.166C112.413 259.184 112.564 259.204 112.776 259.124C113.088 258.946 113.218 258.713 113.353 258.494C113.481 258.271 113.589 258.044 113.683 257.812C113.876 257.349 114.029 256.88 114.168 256.388L113.845 256.564C114.501 256.752 115.307 256.674 115.835 256.111C116.074 255.848 116.282 255.514 116.299 255.11C116.32 254.747 116.272 254.421 116.221 254.092C115.993 252.789 115.611 251.522 115.189 250.234L115.185 250.219L115.175 250.202C114.676 249.19 114.147 248.117 113.61 247.03C113.277 246.354 112.945 245.685 112.617 245.02C112.285 244.374 112.001 243.658 111.502 243.056C111.024 242.459 110.426 241.968 109.763 241.618C109.107 241.248 108.351 241.094 107.685 240.953C104.958 240.353 102.358 239.78 99.9261 239.245L99.8926 239.238L99.8643 239.24C99.3733 239.272 98.91 239.336 98.4488 239.457C97.9989 239.586 97.5208 239.734 97.1645 240.168L97.4634 240.108C96.6192 239.654 95.5983 239.543 94.7725 239.976C93.943 240.406 93.4982 241.193 93.2269 241.947L93.3011 241.844C90.3164 244.01 87.8803 245.777 86.1376 247.042C85.3325 247.641 79.6274 250.682 79.1419 251.044C78.7035 251.379 78.4771 251.562 78.4886 251.577C78.4999 251.594 78.7483 251.441 79.2085 251.137C79.7098 250.798 85.4351 247.785 86.2654 247.222C88.0325 245.993 90.5039 244.273 93.5306 242.167L93.5793 242.134L93.6047 242.065C93.8514 241.401 94.2827 240.685 94.9648 240.356C95.6315 240.002 96.5242 240.109 97.2306 240.496L97.4047 240.59L97.5285 240.435C97.7367 240.177 98.1535 240.009 98.5657 239.905C98.983 239.799 99.4389 239.738 99.8839 239.714L99.8231 239.708C102.251 240.256 104.848 240.844 107.573 241.459C108.268 241.61 108.917 241.744 109.517 242.082C110.116 242.401 110.656 242.846 111.088 243.387C111.53 243.913 111.797 244.586 112.139 245.255C112.467 245.92 112.799 246.591 113.131 247.266C113.668 248.352 114.199 249.425 114.699 250.437L114.686 250.406C115.102 251.666 115.485 252.937 115.706 254.177C115.756 254.485 115.797 254.8 115.781 255.075C115.784 255.314 115.637 255.557 115.461 255.755C115.118 256.147 114.499 256.217 114 256.081L113.745 256.011L113.677 256.257C113.549 256.721 113.4 257.186 113.221 257.621C113.052 258.034 112.811 258.531 112.565 258.679C112.552 258.684 112.461 258.702 112.353 258.68C112.252 258.669 112.145 258.643 112.041 258.615C111.829 258.557 111.618 258.476 111.411 258.389C111.203 258.302 110.999 258.206 110.799 258.103L110.653 258.027L110.644 258.021L110.64 258.019C110.922 257.948 110.253 258.114 110.322 258.099L110.32 258.1L110.31 258.115L110.289 258.147L110.245 258.21L110.045 258.431C109.755 258.709 109.373 258.874 108.991 258.891C108.799 258.904 108.613 258.866 108.428 258.798C108.225 258.749 108.094 258.676 107.977 258.552C107.54 257.988 107.565 257.067 107.639 256.338L107.658 256.148L107.485 256.102C105.632 255.609 103.922 255.155 102.405 254.753L102.339 254.735L102.284 254.762C99.7076 256.028 97.7632 257.24 96.4566 258.115C95.8057 258.559 95.3145 258.917 94.9901 259.172C94.6669 259.425 94.5046 259.563 94.5143 259.576Z" fill="#FB7E53"/>
        <path d="M35.2323 233.077C34.2079 232.655 29.2034 231.249 23.4428 236.425C17.7854 241.509 20.6411 251.716 21.5872 252.885C22.5332 254.053 34.9743 255.862 34.9743 255.862L83.9204 261.038L82.8646 248.955C82.8646 248.955 36.2568 233.5 35.2323 233.077Z" fill="#FCA586"/>
        <path d="M137.757 201.456L116.29 211.555C116.29 211.555 106.466 216.201 105.462 222.736C104.524 228.844 109.201 232.444 111.01 232.564C111.915 232.624 114.814 232.817 116.494 232.051C117.298 231.685 147.407 205.165 147.407 205.165L137.757 201.456Z" fill="#FCA586"/>
        <path d="M166.93 175.381C166.655 174.866 166.13 174.531 165.548 174.5L155.657 173.981C154.787 173.95 153.944 174.29 153.34 174.918L127.432 201.846L128.806 203.002L139.529 204.707L167.161 175.814L166.93 175.381Z" fill="#0D151D"/>
        <path d="M159.343 178.07C159.514 178.289 159.89 178.282 160.183 178.054C160.475 177.826 160.574 177.463 160.403 177.244C160.232 177.024 159.857 177.032 159.563 177.26C159.27 177.488 159.172 177.851 159.343 178.07Z" fill="#FEFEFE"/>
        <path d="M167.161 175.814C167.158 175.855 166.471 175.858 165.228 175.828C163.886 175.779 162.113 175.716 159.968 175.639C158.848 175.59 157.634 175.537 156.338 175.481C155.72 175.42 155.122 175.63 154.681 176.073C154.2 176.576 153.706 177.094 153.2 177.624C151.159 179.752 148.925 182.08 146.58 184.523C141.87 189.409 137.584 193.808 134.46 196.971C132.942 198.49 131.686 199.745 130.736 200.696C129.848 201.566 129.344 202.033 129.315 202.005C129.286 201.977 129.734 201.455 130.571 200.535C131.486 199.552 132.695 198.252 134.158 196.68C137.206 193.442 141.446 188.998 146.156 184.113C148.511 181.68 150.758 179.365 152.81 177.247C153.324 176.72 153.824 176.205 154.313 175.705C154.857 175.154 155.671 174.909 156.352 174.991C157.649 175.073 158.863 175.15 159.983 175.221C162.126 175.374 163.899 175.502 165.24 175.598C166.479 175.7 167.164 175.774 167.161 175.814Z" fill="#283C46"/>
        <path d="M154.364 184.764C154.364 184.764 153.535 184.446 152.614 186.706C151.694 188.966 148.887 195.416 148.887 195.416L144.844 192.162L139.072 191.817C139.072 191.817 137.626 192.716 138.409 193.506C139.192 194.294 142.629 195.612 142.629 195.612L144.531 199.89L137.693 194.814C137.693 194.814 135.054 194.988 135.496 196.663C135.939 198.338 140.099 204.111 140.099 204.111L136.379 203.102L132.413 199.517C132.413 199.517 131.024 199.316 131.314 200.587C131.602 201.858 135.458 206.99 135.458 206.99L140.592 210.822C140.592 210.822 143.728 211.171 144.198 210.32C144.669 209.469 144.992 208.19 144.992 208.19C144.992 208.19 146.717 208.062 147.176 207.325C147.635 206.588 147.678 205.291 147.678 205.291C147.678 205.291 150.168 206.236 150.762 204.863C151.356 203.489 151.629 200.611 151.581 199.456C151.532 198.302 154.855 188.302 154.809 187.971C154.764 187.641 156.108 184.395 154.364 184.764Z" fill="#FBA585"/>
        <path d="M144.394 210.37C144.4 210.44 143.807 210.575 142.83 210.546C141.856 210.518 140.502 210.275 139.132 209.661C137.764 209.044 136.684 208.19 136.017 207.48C135.346 206.768 135.054 206.235 135.111 206.193C135.246 206.067 136.741 207.964 139.374 209.123C141.986 210.324 144.398 210.185 144.394 210.37Z" fill="#FB7E53"/>
        <path d="M143.443 208.082C143.329 208.197 142.426 207.479 141.524 206.394C140.62 205.311 140.078 204.294 140.21 204.204C140.346 204.11 141.092 204.956 141.978 206.017C142.861 207.079 143.561 207.966 143.443 208.082Z" fill="#FB7E53"/>
        <path d="M147.356 203.77C147.244 203.884 146.346 203.181 145.52 202.058C144.691 200.938 144.283 199.874 144.425 199.801C144.573 199.724 145.196 200.629 145.996 201.708C146.79 202.789 147.473 203.652 147.356 203.77Z" fill="#FB7E53"/>
        <path d="M151.241 200.436C151.074 200.472 150.709 199.3 150.034 197.972C149.369 196.637 148.645 195.646 148.774 195.533C148.885 195.424 149.854 196.292 150.561 197.706C151.276 199.116 151.394 200.411 151.241 200.436Z" fill="#FB7E53"/>
        <path d="M176.894 216.038L112.415 216.562C110.324 216.562 108.325 217.566 108.012 219.634L100.965 266.63H67.753C66.684 266.63 65.817 267.496 65.817 268.565C65.817 269.635 66.684 270.502 67.753 270.502H100.385H106.579H173.828L181.077 220.902C181.465 218.343 179.483 216.038 176.894 216.038Z" fill="#D9D9D1"/>
        <path d="M176.894 216.038C176.894 216.038 177.245 215.994 177.91 216.134C178.556 216.284 179.572 216.683 180.373 217.768C180.773 218.298 181.076 219.006 181.17 219.824C181.275 220.655 181.037 221.53 180.933 222.477C180.663 224.376 180.352 226.563 180.003 229.021C178.584 238.874 176.538 253.073 174.024 270.53L174 270.702H173.827C146.379 270.718 110.309 270.739 70.92 270.763C69.995 270.763 69.071 270.763 68.15 270.763C67.723 270.781 67.128 270.756 66.685 270.483C66.227 270.231 65.871 269.809 65.693 269.319C65.307 268.336 65.768 267.132 66.694 266.644C67.136 266.376 67.725 266.354 68.147 266.37H69.511C73.144 266.371 76.74 266.371 80.289 266.371C87.388 266.374 94.302 266.376 100.965 266.378L100.717 266.593C103.253 249.763 105.62 234.062 107.742 219.977C107.816 219.085 108.219 218.12 108.935 217.521C109.635 216.9 110.521 216.572 111.401 216.435C112.298 216.298 113.151 216.371 114 216.342C114.851 216.336 115.695 216.331 116.532 216.325C119.88 216.302 123.119 216.28 126.24 216.259C132.48 216.22 138.251 216.183 143.491 216.15C153.96 216.096 162.306 216.054 168.051 216.024C170.907 216.019 173.112 216.015 174.621 216.012C175.359 216.016 175.922 216.019 176.318 216.021C176.699 216.024 176.894 216.038 176.894 216.038C176.894 216.038 176.7 216.054 176.318 216.065C175.923 216.073 175.359 216.086 174.622 216.101C173.113 216.123 170.907 216.154 168.052 216.195C162.306 216.259 153.961 216.352 143.493 216.468C138.252 216.52 132.481 216.577 126.241 216.639C123.12 216.669 119.882 216.701 116.534 216.732C115.697 216.741 114.853 216.748 114.002 216.755C113.154 216.784 112.281 216.719 111.466 216.848C110.647 216.977 109.835 217.288 109.218 217.84C108.584 218.392 108.249 219.161 108.169 220.042C106.067 234.129 103.725 249.832 101.214 266.667L101.182 266.881H100.965C94.302 266.883 87.388 266.885 80.289 266.888C76.74 266.888 73.144 266.889 69.511 266.89H68.147C67.666 266.876 67.306 266.895 66.945 267.098C66.239 267.472 65.887 268.391 66.182 269.141C66.317 269.513 66.589 269.838 66.939 270.029C67.302 270.235 67.663 270.255 68.15 270.241C69.071 270.241 69.995 270.241 70.92 270.241C110.309 270.265 146.379 270.286 173.827 270.303L173.63 270.473C176.218 253.026 178.322 238.836 179.782 228.988C180.151 226.533 180.479 224.349 180.764 222.451C180.878 221.502 181.121 220.63 181.027 219.839C180.945 219.048 180.661 218.357 180.279 217.835C179.515 216.769 178.528 216.357 177.896 216.19C177.245 216.034 176.892 216.063 176.894 216.038Z" fill="#0D151D"/>
        <path d="M137.883 242.672C137.883 244.901 139.69 246.709 141.92 246.709C144.149 246.709 145.957 244.901 145.957 242.672C145.957 240.442 144.149 238.636 141.92 238.636C139.69 238.636 137.883 240.442 137.883 242.672Z" fill="#FEFEFE"/>
        <path d="M103.578 270.067C103.669 270.083 105.722 258.116 108.162 243.343C110.602 228.565 112.507 216.576 112.415 216.561C112.324 216.545 110.272 228.511 107.831 243.289C105.392 258.062 103.487 270.053 103.578 270.067Z" fill="#0D151D"/>
        <path d="M297.68 389.67C310.266 383.045 324.462 370.893 330.088 356.974C316.486 363.8 304.96 375.43 297.68 389.67Z" fill="#0D151D"/>
        <path d="M298.726 368.709C311.311 362.085 325.509 349.933 331.135 336.012C317.532 342.839 306.006 354.469 298.726 368.709Z" fill="#0D151D"/>
        <path d="M300.822 348.233C313.408 341.608 327.605 329.455 333.231 315.536C319.629 322.361 308.101 333.992 300.822 348.233Z" fill="#0D151D"/>
        <path d="M303.796 326.73C315.496 318.401 328.142 304.365 332.074 289.778C319.39 298.449 309.331 311.593 303.796 326.73Z" fill="#0D151D"/>
        <path d="M307.509 310.156C315.501 297.677 322.407 279.526 321.037 264.407C312.248 277.604 307.437 293.876 307.509 310.156Z" fill="#0D151D"/>
        <path d="M305.64 318.044C302.508 302.333 294.675 282.902 283.21 271.88C286.29 288.738 294.267 305.158 305.64 318.044Z" fill="#0D151D"/>
        <path d="M302.869 335.746C298.313 319.657 288.557 300.103 275.708 289.621C280.302 306.91 289.962 323.315 302.869 335.746Z" fill="#0D151D"/>
        <path d="M299.785 357.307C295.231 341.218 285.475 321.665 272.625 311.184C277.22 328.473 286.88 344.877 299.785 357.307Z" fill="#0D151D"/>
        <path d="M298.062 383.608C293.508 367.519 283.751 347.966 270.902 337.485C275.496 354.774 285.157 371.178 298.062 383.608Z" fill="#0D151D"/>
        <path d="M307.857 306.997C307.849 306.995 307.822 307.081 307.777 307.25C307.728 307.448 307.666 307.695 307.589 308.002C307.429 308.705 307.204 309.676 306.92 310.907C306.341 313.431 305.579 317.098 304.708 321.644C303.828 326.189 302.896 331.623 301.972 337.674C301.073 343.728 300.202 350.402 299.469 357.428C298.753 364.458 298.25 371.171 297.893 377.283C297.561 383.396 297.368 388.906 297.301 393.534C297.226 398.163 297.221 401.909 297.273 404.496C297.299 405.76 297.321 406.755 297.335 407.477C297.347 407.792 297.356 408.047 297.364 408.251C297.374 408.426 297.382 408.515 297.391 408.514C297.399 408.515 297.407 408.425 297.415 408.251C297.422 408.046 297.429 407.791 297.438 407.475C297.448 406.755 297.458 405.758 297.474 404.496C297.483 401.908 297.54 398.165 297.66 393.541C297.774 388.919 298.006 383.416 298.363 377.31C298.744 371.206 299.263 364.502 299.977 357.481C300.709 350.462 301.569 343.794 302.439 337.742C303.336 331.694 304.229 326.259 305.063 321.709C305.889 317.16 306.596 313.482 307.115 310.949C307.358 309.709 307.551 308.732 307.69 308.025C307.746 307.713 307.791 307.462 307.828 307.261C307.855 307.089 307.866 306.999 307.857 306.997Z" fill="#0D151D"/>
        <path d="M294.364 397.64C301.794 387.114 308.527 371.681 307.989 358.643C299.842 369.766 294.996 383.637 294.364 397.64Z" fill="#283C46"/>
        <path d="M287.796 381.245C295.226 370.718 301.96 355.286 301.422 342.25C293.274 353.373 288.427 367.242 287.796 381.245Z" fill="#283C46"/>
        <path d="M282.212 364.76C289.64 354.233 296.373 338.802 295.835 325.764C287.689 336.887 282.843 350.757 282.212 364.76Z" fill="#283C46"/>
        <path d="M276.946 347.114C283.089 335.677 287.956 319.491 285.871 306.683C279.084 318.808 275.909 333.189 276.946 347.114Z" fill="#283C46"/>
        <path d="M273.99 332.893C275.796 319.918 274.76 303.104 268.374 292.206C266.203 306.073 268.203 320.546 273.99 332.893Z" fill="#283C46"/>
        <path d="M275.319 339.704C267.357 329.125 254.44 317.766 241.664 314.385C249.989 325.86 261.959 334.867 275.319 339.704Z" fill="#283C46"/>
        <path d="M279.402 354.374C270.204 344.127 255.75 333.514 242.092 331.149C251.742 342.291 265.015 350.552 279.402 354.374Z" fill="#283C46"/>
        <path d="M284.601 372.113C275.403 361.867 260.95 351.253 247.293 348.888C256.943 360.03 270.214 368.29 284.601 372.113Z" fill="#283C46"/>
        <path d="M292.527 392.863C283.328 382.617 268.875 372.003 255.217 369.638C264.869 380.78 278.139 389.042 292.527 392.863Z" fill="#283C46"/>
        <path d="M273.148 330.338C273.14 330.34 273.148 330.416 273.172 330.562C273.203 330.735 273.241 330.947 273.288 331.207C273.409 331.812 273.574 332.637 273.783 333.679C274.212 335.826 274.903 338.918 275.817 342.725C277.642 350.339 280.485 360.787 284.302 372.113C286.22 377.775 288.194 383.115 290.075 387.94C291.983 392.754 293.775 397.058 295.37 400.635C296.952 404.216 298.284 407.09 299.247 409.056C299.716 410.011 300.086 410.765 300.358 411.319C300.479 411.553 300.577 411.745 300.659 411.903C300.728 412.032 300.767 412.098 300.775 412.094C300.783 412.09 300.759 412.018 300.703 411.881C300.634 411.718 300.551 411.519 300.447 411.277C300.195 410.714 299.853 409.946 299.42 408.976C298.51 406.986 297.227 404.092 295.686 400.496C294.134 396.907 292.376 392.593 290.495 387.776C288.638 382.95 286.68 377.611 284.765 371.957C280.953 360.647 278.061 350.228 276.151 342.642C275.196 338.849 274.454 335.771 273.967 333.638C273.72 332.605 273.527 331.786 273.384 331.186C273.319 330.931 273.264 330.723 273.22 330.551C273.181 330.409 273.157 330.336 273.148 330.338Z" fill="#0D151D"/>
        <path d="M267.151 399.081H322.311V409.713H316.643L311.869 440.033H277.773L272.864 409.713H267.151V399.081Z" fill="#4A6CD1"/>
        <path d="M267.151 409.49C267.151 409.35 279.411 409.234 294.53 409.234C309.655 409.234 321.913 409.35 321.913 409.49C321.913 409.632 309.655 409.747 294.53 409.747C279.411 409.747 267.151 409.632 267.151 409.49Z" fill="#0D151D"/>
    </g>
    <defs>
        <clipPath id="clip0_712_619">
            <rect width="429" height="444" fill="white"/>
        </clipPath>
    </defs>
</svg>
