<svg width="100" height="40" viewBox="0 0 129 48" fill="none" xmlns="http://www.w3.org/2000/svg">
    <path d="M48 0H0V48H48V0Z" fill="white" fill-opacity="0.01"/>
    <path d="M44 44V4H24V17L33 26V44H44Z" fill="#5D5FEF"/>
    <path d="M4 4V44H25V30L16 21V4H4Z" fill="#5D5FEF"/>
    <path d="M44 44V4H24V17L33 26V44H44Z" stroke="black" stroke-width="4" stroke-linecap="round" stroke-linejoin="round"/>
    <path d="M4 4V44H25V30L16 21V4H4Z" stroke="black" stroke-width="4" stroke-linecap="round" stroke-linejoin="round"/>
    <path d="M71.812 33.36C70.588 33.36 69.484 33.152 68.5 32.736C67.524 32.32 66.716 31.728 66.076 30.96C65.444 30.184 65.032 29.268 64.84 28.212L67.048 27.864C67.328 28.952 67.908 29.804 68.788 30.42C69.676 31.028 70.72 31.332 71.92 31.332C72.696 31.332 73.396 31.212 74.02 30.972C74.652 30.724 75.152 30.372 75.52 29.916C75.888 29.46 76.072 28.92 76.072 28.296C76.072 27.912 76.004 27.584 75.868 27.312C75.74 27.032 75.56 26.796 75.328 26.604C75.104 26.404 74.848 26.236 74.56 26.1C74.272 25.964 73.972 25.852 73.66 25.764L69.256 24.456C68.776 24.312 68.312 24.132 67.864 23.916C67.416 23.692 67.016 23.416 66.664 23.088C66.312 22.752 66.032 22.352 65.824 21.888C65.616 21.416 65.512 20.86 65.512 20.22C65.512 19.196 65.776 18.324 66.304 17.604C66.84 16.876 67.564 16.32 68.476 15.936C69.388 15.552 70.416 15.364 71.56 15.372C72.72 15.38 73.756 15.588 74.668 15.996C75.588 16.396 76.348 16.972 76.948 17.724C77.556 18.476 77.964 19.376 78.172 20.424L75.904 20.82C75.784 20.116 75.516 19.512 75.1 19.008C74.692 18.496 74.18 18.104 73.564 17.832C72.948 17.552 72.272 17.408 71.536 17.4C70.832 17.392 70.196 17.504 69.628 17.736C69.06 17.968 68.608 18.292 68.272 18.708C67.936 19.116 67.768 19.588 67.768 20.124C67.768 20.652 67.92 21.08 68.224 21.408C68.528 21.728 68.9 21.984 69.34 22.176C69.788 22.36 70.224 22.512 70.648 22.632L73.936 23.58C74.312 23.684 74.744 23.828 75.232 24.012C75.728 24.196 76.208 24.456 76.672 24.792C77.136 25.12 77.52 25.56 77.824 26.112C78.128 26.656 78.28 27.344 78.28 28.176C78.28 29.008 78.112 29.748 77.776 30.396C77.448 31.044 76.988 31.588 76.396 32.028C75.804 32.46 75.116 32.788 74.332 33.012C73.548 33.244 72.708 33.36 71.812 33.36ZM86.7492 33.36C85.5332 33.36 84.5092 33.06 83.6772 32.46C82.8452 31.852 82.2132 31.032 81.7812 30C81.3572 28.96 81.1452 27.796 81.1452 26.508C81.1452 25.204 81.3572 24.036 81.7812 23.004C82.2132 21.972 82.8452 21.16 83.6772 20.568C84.5172 19.976 85.5452 19.68 86.7612 19.68C87.9612 19.68 88.9932 19.98 89.8572 20.58C90.7292 21.172 91.3972 21.984 91.8612 23.016C92.3252 24.048 92.5572 25.212 92.5572 26.508C92.5572 27.804 92.3252 28.968 91.8612 30C91.3972 31.032 90.7292 31.852 89.8572 32.46C88.9932 33.06 87.9572 33.36 86.7492 33.36ZM80.7852 38.76V20.04H82.6932V29.58H82.9332V38.76H80.7852ZM86.4852 31.404C87.3412 31.404 88.0492 31.188 88.6092 30.756C89.1692 30.324 89.5892 29.74 89.8692 29.004C90.1492 28.26 90.2892 27.428 90.2892 26.508C90.2892 25.596 90.1492 24.772 89.8692 24.036C89.5972 23.3 89.1732 22.716 88.5972 22.284C88.0292 21.852 87.3052 21.636 86.4252 21.636C85.5852 21.636 84.8892 21.844 84.3372 22.26C83.7852 22.668 83.3732 23.24 83.1012 23.976C82.8292 24.704 82.6932 25.548 82.6932 26.508C82.6932 27.452 82.8252 28.296 83.0892 29.04C83.3612 29.776 83.7772 30.356 84.3372 30.78C84.8972 31.196 85.6132 31.404 86.4852 31.404ZM95.4278 33V15.36H97.5638V33H95.4278ZM101.404 17.748V15.54H103.54V17.748H101.404ZM101.404 33V20.04H103.54V33H101.404ZM114.377 33C113.609 33.152 112.849 33.212 112.097 33.18C111.353 33.156 110.689 33.008 110.105 32.736C109.521 32.456 109.077 32.024 108.773 31.44C108.517 30.928 108.377 30.412 108.353 29.892C108.337 29.364 108.329 28.768 108.329 28.104V16.44H110.465V28.008C110.465 28.536 110.469 28.988 110.477 29.364C110.493 29.74 110.577 30.064 110.729 30.336C111.017 30.848 111.473 31.148 112.097 31.236C112.729 31.324 113.489 31.3 114.377 31.164V33ZM105.701 21.804V20.04H114.377V21.804H105.701Z" fill="black"/>
    <path d="M120.692 33.36C119.724 33.36 118.912 33.184 118.256 32.832C117.608 32.472 117.116 32 116.78 31.416C116.452 30.832 116.288 30.192 116.288 29.496C116.288 28.816 116.416 28.228 116.672 27.732C116.936 27.228 117.304 26.812 117.776 26.484C118.248 26.148 118.812 25.884 119.468 25.692C120.084 25.524 120.772 25.38 121.532 25.26C122.3 25.132 123.076 25.016 123.86 24.912C124.644 24.808 125.376 24.708 126.056 24.612L125.288 25.056C125.312 23.904 125.08 23.052 124.592 22.5C124.112 21.948 123.28 21.672 122.096 21.672C121.312 21.672 120.624 21.852 120.032 22.212C119.448 22.564 119.036 23.14 118.796 23.94L116.768 23.328C117.08 22.192 117.684 21.3 118.58 20.652C119.476 20.004 120.656 19.68 122.12 19.68C123.296 19.68 124.304 19.892 125.144 20.316C125.992 20.732 126.6 21.364 126.968 22.212C127.152 22.612 127.268 23.048 127.316 23.52C127.364 23.984 127.388 24.472 127.388 24.984V33H125.492V29.892L125.936 30.18C125.448 31.228 124.764 32.02 123.884 32.556C123.012 33.092 121.948 33.36 120.692 33.36ZM121.016 31.572C121.784 31.572 122.448 31.436 123.008 31.164C123.576 30.884 124.032 30.52 124.376 30.072C124.72 29.616 124.944 29.12 125.048 28.584C125.168 28.184 125.232 27.74 125.24 27.252C125.256 26.756 125.264 26.376 125.264 26.112L126.008 26.436C125.312 26.532 124.628 26.624 123.956 26.712C123.284 26.8 122.648 26.896 122.048 27C121.448 27.096 120.908 27.212 120.428 27.348C120.076 27.46 119.744 27.604 119.432 27.78C119.128 27.956 118.88 28.184 118.688 28.464C118.504 28.736 118.412 29.076 118.412 29.484C118.412 29.836 118.5 30.172 118.676 30.492C118.86 30.812 119.14 31.072 119.516 31.272C119.9 31.472 120.4 31.572 121.016 31.572Z" fill="#5D5FEF"/>
</svg>
