<svg width="400" height="290" viewBox="0 0 602 339" fill="none" xmlns="http://www.w3.org/2000/svg">
<g opacity="0.12">
<path d="M565.304 328.945C567.005 326.622 569.909 322.358 573.363 316.631C593.446 283.336 632.106 200.639 560.744 163.012C525.451 144.402 521.254 122.134 497.242 71.3319C452.473 -23.3877 276.77 -16.3798 221.207 49.9005C172.033 108.556 143.78 79.5062 69.9931 118.758C-15.6666 164.324 -5.812 237.156 12.2729 283.535C22.3821 309.464 35.0661 327.125 35.0661 327.125C35.0661 327.125 71.9224 327.922 126.182 328.945C276.216 331.775 559.307 336.327 564.116 330.498C564.391 330.164 564.794 329.64 565.304 328.945Z" fill="#233142"/>
</g>
<path d="M20.9257 273.994L21.4168 273.453C21.4168 273.149 20.7166 273.951 20.9257 273.994Z" fill="#FCCDC5"/>
<path d="M565.258 328.995C566.959 326.672 569.864 322.408 573.317 316.681H571.098C570.828 316.681 570.61 316.428 570.61 316.117V280.119C570.61 279.807 570.391 279.555 570.123 279.555H559.376C559.107 279.555 558.889 279.305 558.889 278.993V250.163C558.889 250.013 558.838 249.869 558.747 249.764L553.787 244.027C553.698 243.921 553.573 243.862 553.444 243.862H547.81C547.54 243.862 547.323 243.61 547.323 243.299V235.321C547.323 235.01 547.103 234.759 546.835 234.759H546.266C545.997 234.759 545.778 235.01 545.778 235.321V243.655C545.778 243.966 545.561 244.219 545.293 244.219H540.428C540.299 244.219 540.176 244.277 540.084 244.383L534.973 250.3C534.882 250.405 534.757 250.464 534.629 250.464H522.982C522.712 250.464 522.494 250.716 522.494 251.028V265.787C522.494 266.098 522.277 266.35 522.009 266.35H520.206C519.936 266.35 519.718 266.098 519.718 265.787V256.027C519.718 255.715 519.5 255.463 519.232 255.463H516.813C516.543 255.463 516.325 255.211 516.325 254.899V232.466C516.325 232.155 516.107 231.902 515.839 231.902H512.031C511.761 231.902 511.544 231.65 511.544 231.341V208.369C511.544 208.06 511.324 207.807 511.056 207.807H456.363C456.093 207.807 455.875 208.06 455.875 208.369V263.287C455.875 263.598 455.657 263.85 455.389 263.85H451.427C451.158 263.85 450.94 263.598 450.94 263.287V255.667C450.94 255.358 450.723 255.105 450.454 255.105H448.188C447.918 255.105 447.7 255.358 447.7 255.667V263.287C447.7 263.598 447.481 263.85 447.213 263.85H444.178C443.908 263.85 443.69 263.598 443.69 263.287V143.045C443.69 142.733 443.473 142.481 443.204 142.481H418.734C418.464 142.481 418.247 142.231 418.247 141.919V136.083C418.247 135.772 418.027 135.52 417.759 135.52H414.878C414.608 135.52 414.39 135.269 414.39 134.958V133.228C414.39 132.917 414.17 132.664 413.902 132.664H412.099C411.83 132.664 411.614 132.917 411.614 133.228V134.598C411.614 134.91 411.394 135.162 411.127 135.162H391.436C391.167 135.162 390.949 135.414 390.949 135.726V141.558C390.949 141.869 390.73 142.122 390.463 142.122H366.917C366.648 142.122 366.43 142.374 366.43 142.685V241.51C366.43 241.821 366.213 242.074 365.944 242.074H360.594C360.324 242.074 360.106 241.821 360.106 241.51V232.106C360.106 231.795 359.889 231.542 359.621 231.542H346.406C346.136 231.542 345.92 231.29 345.92 230.979V220.504C345.92 220.195 345.7 219.942 345.432 219.942H342.705C342.435 219.942 342.217 219.69 342.217 219.379V119.305C342.217 118.994 341.999 118.742 341.731 118.742H304.307C304.037 118.742 303.821 118.994 303.821 119.305V130.137C303.821 130.448 303.602 130.699 303.334 130.699H297.676C297.407 130.699 297.188 130.951 297.188 131.262V169.939C297.188 170.25 296.971 170.502 296.703 170.502H281.638C281.368 170.502 281.152 170.753 281.152 171.064V177.435C281.152 177.746 280.933 177.997 280.665 177.997H261.591C261.321 177.997 261.104 178.25 261.104 178.561V199.747C261.104 200.058 260.885 200.31 260.616 200.31H246.169C245.9 200.31 245.682 200.058 245.682 199.747V145.062C245.682 144.804 245.531 144.578 245.315 144.516L195.19 130.013C195.133 129.993 195.072 129.99 195.012 129.999L159.446 135.102C159.202 135.137 159.019 135.375 159.019 135.66V164.407C159.019 164.718 158.799 164.968 158.531 164.968H142.234C141.965 164.968 141.748 165.221 141.748 165.532V216.347C141.748 216.658 141.529 216.91 141.261 216.91H119.874C119.605 216.91 119.387 217.162 119.387 217.472V223.664C119.387 223.975 119.168 224.227 118.899 224.227H111.082C110.813 224.227 110.595 223.975 110.595 223.664V189.093C110.595 188.782 110.377 188.53 110.109 188.53H108.307C108.037 188.53 107.819 188.277 107.819 187.968V172.493C107.819 172.182 107.6 171.93 107.331 171.93H105.684C105.415 171.93 105.197 171.679 105.197 171.368V163.391C105.197 163.079 104.979 162.827 104.711 162.827H101.059C100.789 162.827 100.571 162.576 100.571 162.265V152.859C100.571 152.548 100.352 152.298 100.083 152.298H98.4358C98.1663 152.298 97.9485 152.045 97.9485 151.734V127.337C97.9485 127.025 97.7313 126.773 97.4631 126.773H96.5849C96.3154 126.773 96.097 127.025 96.097 127.337V151.736C96.097 152.047 95.8798 152.299 95.6115 152.299H93.8085C93.539 152.299 93.3212 152.55 93.3212 152.861V162.98C93.3212 163.292 93.1021 163.544 92.8338 163.544H89.9523C89.6828 163.544 89.4643 163.796 89.4643 164.106V171.013C89.4643 171.323 89.2452 171.575 88.977 171.575H86.5585C86.289 171.575 86.0711 171.828 86.0711 172.139V188.325C86.0711 188.637 85.8521 188.887 85.5838 188.887H83.0097C82.7402 188.887 82.5224 189.139 82.5224 189.451V256.864C82.5224 257.175 82.3052 257.425 82.0369 257.425H78.0749C77.8054 257.425 77.587 257.175 77.587 256.864V244.066C77.587 243.755 77.3698 243.503 77.1015 243.503H66.2006C65.9312 243.503 65.7133 243.252 65.7133 242.941V222.291C65.7133 221.98 65.4943 221.729 65.226 221.729H36.2819C36.0137 221.729 35.7965 221.98 35.7965 222.291V237.942C35.7965 238.253 35.5768 238.505 35.3085 238.505H21.9412C21.6717 238.505 21.4557 238.758 21.4557 239.069V273.46C21.4557 273.771 21.2367 274.023 20.9684 274.023L20.9373 273.998C20.9323 273.998 20.9249 273.998 20.918 273.994L12.2266 283.585C22.3358 309.514 38.8616 328.995 38.8616 328.995C38.8616 328.995 71.8754 327.972 126.135 328.995H565.258Z" fill="#759DCE" fill-opacity="0.38"/>
<path d="M252.65 221.157C260.271 214.671 264.806 224.47 264.806 224.47C279.151 232.037 262.064 315.563 262.064 315.563L240.547 317.005L243.684 268.72C243.684 268.72 245.029 227.643 252.65 221.157Z" fill="#34002F"/>
<path d="M256.939 225.808C256.66 220.215 259.703 211.828 262.443 205.518C264.607 200.536 266.578 196.848 266.578 196.848C266.578 196.848 253.511 179.77 246.467 180.925C244.862 181.189 243.569 182.401 242.816 184.981C238.762 198.869 222.34 202.503 222.34 202.503C222.34 202.503 248.585 256.122 255.657 256.621C262.731 257.122 257.264 232.295 256.939 225.808Z" fill="#FDBD96"/>
<path d="M243.007 325.471C243.007 325.471 248.986 320.922 252.901 309.325C255.506 301.615 257.197 290.791 255.615 276.116C253.025 252.086 250.895 229.749 244.792 216.06C244.512 215.43 244.222 214.818 243.925 214.227C240.798 208.007 236.697 203.88 231.119 202.628C231.119 202.628 224.706 201.878 216.234 204.454C214.821 204.884 213.35 205.406 211.841 206.039C201.809 210.254 190.139 219.402 182.79 239.053C167.716 279.359 168.437 322.589 168.437 322.589L200.87 323.843L243.007 325.471Z" fill="#34EB9B"/>
<path d="M272.723 233.106C269.097 220.98 258.557 218.94 258.557 218.94C258.557 218.94 261.957 222.792 262.755 240.815C264.28 275.276 253.389 325.471 253.389 325.471L269.96 322.589C269.96 322.589 269.96 322.589 267.438 311.061C264.915 299.533 278.633 252.867 272.723 233.106Z" fill="#38CA8B"/>
<path d="M234.426 229.25C232.986 220.9 241.636 217.409 244.797 216.059L243.928 214.225L216.237 204.452L212.324 203.071L211.844 206.038L206.544 238.883L176.74 304.839C176.74 304.839 192.812 317.669 200.874 323.841L243.011 325.469C243.011 325.469 248.99 320.919 252.905 309.323C242.278 307.544 240.356 306.414 235.444 298.152C230.458 289.766 216.407 294.752 214.82 284.779C213.234 274.807 237.259 245.683 234.426 229.25Z" fill="#25C07D"/>
<path d="M270.006 311.242C262.745 312.017 229.987 311.242 229.987 311.242C229.987 311.242 212.16 326.744 219.909 326.743C227.659 326.743 235.411 327.13 245.099 328.681C254.787 330.231 266.027 324.418 268.352 326.355C270.678 328.294 279.203 331.394 280.366 329.069C281.529 326.743 274.941 322.481 274.941 322.481C274.941 322.481 280.366 326.743 286.955 330.231C293.544 333.718 293.931 329.068 293.931 329.068C293.931 329.068 298.192 332.168 300.906 330.231C303.62 328.293 299.745 325.194 295.094 320.543C290.442 315.893 277.267 310.467 270.006 311.242Z" fill="#F9AE8F"/>
<path d="M561.386 336.241V331.181C561.386 329.83 559.964 328.733 558.21 328.733H35.5476C33.7919 328.733 32.3691 329.83 32.3691 331.181V336.241C32.3691 337.592 33.7919 338.691 35.5476 338.691H558.208C559.964 338.691 561.386 337.592 561.386 336.241Z" fill="#564D68"/>
<path d="M304.562 165.557C306.776 147.85 291.256 141.213 291.256 141.213L277.174 193.755C277.174 193.755 302.349 183.263 304.562 165.557Z" fill="#230021"/>
<path d="M285.421 171.912C287.577 163.512 289.757 155.079 291.963 146.63C291.884 146.607 291.812 146.578 291.82 146.585L291.833 146.592L291.887 146.615L291.999 146.666L292.227 146.775C292.382 146.848 292.534 146.929 292.688 147.008C292.995 147.171 293.301 147.341 293.602 147.519C294.207 147.873 294.795 148.262 295.367 148.669C296.515 149.485 297.593 150.399 298.581 151.4C300.563 153.396 302.176 155.75 303.24 158.345C303.771 159.642 304.183 160.99 304.445 162.374C304.7 163.759 304.825 165.168 304.844 166.587C304.822 169.436 304.431 172.262 303.339 174.89C302.843 176.219 302.157 177.478 301.437 178.71C301.048 179.311 300.682 179.925 300.249 180.501C300.036 180.79 299.838 181.091 299.614 181.372L298.944 182.218C298.727 182.506 298.482 182.77 298.248 183.045C298.008 183.316 297.781 183.597 297.532 183.858C297.035 184.384 296.549 184.918 296.024 185.419C295.002 186.444 293.912 187.405 292.796 188.336C291.68 189.267 290.513 190.14 289.331 190.992C288.144 191.835 286.925 192.639 285.686 193.409C283.207 194.942 280.621 196.353 277.981 197.541L278.681 198.152L285.421 171.912ZM292.794 144.409C292.801 144.409 292.677 144.364 292.574 144.336L292.259 145.476C289.875 154.156 287.459 162.849 285.019 171.583L277.678 197.884L277.391 198.911L278.378 198.496C279.764 197.913 281.09 197.27 282.414 196.595C283.733 195.914 285.032 195.199 286.307 194.439C287.583 193.679 288.837 192.886 290.066 192.048C291.288 191.202 292.497 190.333 293.659 189.399C294.82 188.467 295.959 187.502 297.036 186.463C297.587 185.957 298.102 185.414 298.627 184.878C298.891 184.613 299.133 184.324 299.387 184.048C299.635 183.768 299.894 183.495 300.128 183.2L300.845 182.329C301.085 182.04 301.299 181.728 301.528 181.429C301.992 180.834 302.393 180.192 302.816 179.565C303.605 178.274 304.358 176.948 304.921 175.528L305.144 175.001C305.219 174.826 305.272 174.642 305.337 174.462L305.709 173.377C305.818 173.01 305.907 172.637 306.005 172.267L306.15 171.71C306.195 171.524 306.22 171.333 306.256 171.144L306.455 170.009C306.506 169.631 306.538 169.254 306.58 168.875L306.64 168.308C306.656 168.12 306.66 167.929 306.67 167.739L306.721 166.596C306.732 165.07 306.623 163.537 306.374 162.022C306.116 160.506 305.696 159.017 305.138 157.58C304.022 154.702 302.292 152.074 300.17 149.854C299.11 148.739 297.954 147.721 296.719 146.808C296.102 146.35 295.468 145.916 294.811 145.512C294.482 145.31 294.147 145.115 293.808 144.926C293.635 144.835 293.465 144.74 293.289 144.651L293.022 144.517L292.883 144.451L292.812 144.417L292.794 144.409Z" fill="#34002F"/>
<path d="M262.441 205.532C264.605 200.55 266.578 196.862 266.578 196.862C266.578 196.862 254.772 167.978 247.729 169.133C248.418 178.979 257.038 200.769 262.441 205.532Z" fill="#FB9B77"/>
<path d="M280.474 202.411C288.793 199.493 299.982 183.512 299.563 166.75C299.524 165.153 299.383 163.558 299.128 161.98C298.533 158.259 296.806 153.381 294.802 150.019C294.041 148.74 293.201 147.544 292.3 146.441C280.258 131.687 256.9 133.262 252.133 172.889C251.879 174.993 251.679 177.204 251.536 179.526C251.528 179.668 251.519 179.812 251.51 179.955C251.464 180.761 252.05 182.2 252.884 183.774C253.236 184.439 253.633 185.131 254.045 185.807C254.19 186.045 254.335 186.281 254.482 186.513C255.604 188.293 256.758 189.888 257.379 190.569C261.863 195.495 272.144 205.333 280.474 202.411Z" fill="#FDBD96"/>
<path d="M289.236 193.162C289.236 193.162 295.264 195.385 295.225 193.235C295.139 188.367 296.115 182.141 296.115 182.141" fill="#FDBD96"/>
<path d="M281.395 189.665C282.713 191.463 285.625 195.412 286.794 196.829C287.023 197.106 286.92 197.529 286.583 197.66C285.293 198.171 282.496 198.906 280.794 196.64C279.191 194.507 279.819 191.452 280.326 189.841C280.476 189.365 281.1 189.262 281.395 189.665Z" fill="#FFF4F3"/>
<path d="M297.347 158.569C297.712 157.883 297.412 157.03 296.698 156.72L295.815 156.336C295.658 156.719 295.465 157.145 295.278 157.549C295.088 157.958 294.89 158.365 294.686 158.77C294.279 159.58 293.846 160.379 293.396 161.168C292.492 162.745 291.506 164.278 290.435 165.748C289.365 167.217 288.208 168.626 286.949 169.934C285.692 171.245 284.337 172.46 282.866 173.521C281.4 174.589 279.816 175.494 278.137 176.182C277.299 176.53 276.433 176.809 275.553 177.03C274.671 177.249 273.773 177.419 272.864 177.499C271.047 177.679 269.2 177.578 267.392 177.231C265.581 176.89 263.818 176.293 262.121 175.55C263.776 176.382 265.514 177.078 267.328 177.522C269.14 177.971 271.024 178.178 272.906 178.093C273.847 178.06 274.786 177.936 275.713 177.757C276.639 177.575 277.558 177.333 278.451 177.017C280.239 176.393 281.947 175.536 283.535 174.504C285.13 173.478 286.613 172.288 287.993 170.994C289.375 169.701 290.656 168.304 291.849 166.839C293.041 165.374 294.148 163.84 295.175 162.253C295.686 161.458 296.18 160.651 296.65 159.828C296.887 159.418 297.117 159.002 297.341 158.582C297.344 158.577 297.345 158.573 297.347 158.569Z" fill="#11181E"/>
<path d="M139.571 282.642C139.179 241.918 178.469 242.682 178.469 242.682C213.74 254.921 190.301 278.286 184.263 300.209C178.222 322.132 139.963 323.365 139.571 282.642Z" fill="#34002F"/>
<path d="M258.72 175.598C277.396 176.962 290.233 166.816 295.786 161.261C297.887 159.16 298.749 156.13 298.087 153.23C297.412 150.284 296.468 147.612 295.301 145.202C282.888 119.602 245.053 123.688 232.889 141.324C214.92 167.374 232.716 164.057 191.694 195.131C150.672 226.205 170.675 262.319 170.675 262.319C173.51 258.138 176.744 252.835 180.291 247.259C192.035 228.798 207.227 207.308 222.895 213.311C259.15 227.201 250.075 174.964 258.72 175.598Z" fill="#34002F"/>
<path d="M258.723 175.598C277.399 176.962 290.237 166.815 295.789 161.261C297.89 159.159 298.752 156.13 298.088 153.231C297.414 150.285 296.471 147.613 295.303 145.203C294.687 145.959 294.194 146.901 293.838 148.043C293.838 148.043 277.439 173.366 262.02 173.307C246.601 173.247 249.919 181.977 236.486 195.55C223.052 209.122 189.276 204.862 180.704 244.481C180.488 245.475 180.353 246.399 180.295 247.259C192.039 228.797 207.231 207.308 222.898 213.31C259.154 227.201 250.078 174.964 258.723 175.598Z" fill="#230021"/>
<path d="M286.157 143.485L286.376 143.668L290.405 139.489L290.22 139.339L290.056 139.21L289.736 138.965C289.524 138.804 289.312 138.648 289.101 138.494C288.679 138.185 288.254 137.888 287.826 137.595C286.971 137.012 286.101 136.455 285.218 135.919C283.452 134.849 281.626 133.864 279.745 132.972C275.985 131.193 271.987 129.773 267.794 128.93C263.61 128.084 259.214 127.84 254.896 128.415C250.58 128.979 246.388 130.382 242.667 132.429C238.933 134.467 235.664 137.106 232.825 140.016C232.114 140.745 231.432 141.493 230.772 142.255C230.437 142.639 230.126 143.011 229.809 143.387C229.491 143.76 229.181 144.14 228.867 144.517C227.617 146.03 226.402 147.57 225.22 149.132C224.038 150.695 222.893 152.285 221.787 153.893C220.681 155.5 219.617 157.13 218.577 158.757C216.49 162.012 214.534 165.254 212.218 168.166C207.636 174.03 201.241 178.543 194.603 182.664C192.937 183.693 191.25 184.69 189.54 185.679C187.801 186.688 186.096 187.746 184.421 188.848C181.09 191.077 177.893 193.501 174.959 196.193C172.02 198.877 169.328 201.814 167.011 205.001C165.853 206.594 164.789 208.247 163.834 209.954C162.882 211.662 162.046 213.429 161.326 215.232C159.899 218.845 158.974 222.63 158.631 226.46C158.463 228.374 158.435 230.299 158.564 232.215C158.627 233.173 158.735 234.129 158.883 235.081C158.959 235.557 159.047 236.032 159.148 236.507C159.198 236.744 159.254 236.981 159.312 237.219L159.406 237.576C159.44 237.699 159.471 237.809 159.515 237.948L159.961 237.071C159.618 237.213 159.312 237.353 158.995 237.499C158.68 237.645 158.369 237.794 158.061 237.947C157.445 238.252 156.837 238.57 156.235 238.898C155.033 239.555 153.86 240.255 152.716 240.997C150.43 242.479 148.265 244.126 146.279 245.952C144.296 247.777 142.486 249.78 140.971 251.969C140.21 253.061 139.526 254.199 138.928 255.376C138.327 256.551 137.819 257.768 137.409 259.011C136.996 260.253 136.683 261.524 136.483 262.809C136.433 263.13 136.382 263.451 136.349 263.774L136.293 264.258L136.253 264.74L136.172 265.703C136.141 266.024 136.133 266.346 136.113 266.667C136.032 267.953 136.03 269.241 136.049 270.527C136.091 271.813 136.173 273.099 136.327 274.376C136.647 276.928 137.214 279.462 138.18 281.866C138.663 283.066 139.236 284.236 139.936 285.337C140.286 285.887 140.664 286.422 141.08 286.93C141.497 287.436 141.941 287.926 142.456 288.345C141.951 287.915 141.521 287.414 141.118 286.902C140.717 286.386 140.355 285.845 140.02 285.29C139.35 284.18 138.809 283.004 138.361 281.802C137.463 279.396 136.965 276.872 136.711 274.336C136.591 273.067 136.542 271.792 136.532 270.518C136.547 269.242 136.581 267.967 136.694 266.696C136.722 266.378 136.738 266.06 136.775 265.743L136.879 264.79L136.931 264.315L136.996 263.843C137.036 263.528 137.095 263.216 137.151 262.904C137.379 261.656 137.716 260.427 138.146 259.228C138.576 258.028 139.097 256.858 139.711 255.731C140.321 254.6 141.012 253.511 141.777 252.467C143.301 250.375 145.107 248.467 147.081 246.733C149.057 244.998 151.209 243.44 153.471 242.044C154.602 241.347 155.762 240.69 156.947 240.077C157.539 239.772 158.137 239.475 158.742 239.195C159.045 239.056 159.347 238.917 159.652 238.785C159.953 238.653 160.268 238.519 160.556 238.407L161.187 238.162L161.002 237.531C160.977 237.445 160.947 237.326 160.92 237.221L160.841 236.892C160.792 236.672 160.746 236.449 160.703 236.224C160.618 235.775 160.545 235.322 160.484 234.868C160.365 233.959 160.282 233.043 160.242 232.123C160.16 230.285 160.229 228.44 160.434 226.608C160.847 222.945 161.815 219.34 163.259 215.914C163.987 214.203 164.823 212.53 165.772 210.915C166.723 209.3 167.776 207.74 168.92 206.236C171.207 203.228 173.855 200.462 176.742 197.935C179.624 195.4 182.763 193.121 186.036 191.029C187.683 189.994 189.36 189.001 191.07 188.057C192.811 187.098 194.557 186.117 196.279 185.104C199.722 183.074 203.111 180.924 206.327 178.498C207.934 177.284 209.492 175.996 210.972 174.617C212.449 173.239 213.841 171.763 215.121 170.22C216.403 168.676 217.575 167.072 218.684 165.463C219.793 163.855 220.849 162.243 221.916 160.657C224.043 157.482 226.241 154.399 228.61 151.416C229.792 149.924 231.007 148.454 232.258 147.009C232.573 146.649 232.882 146.285 233.201 145.928C233.519 145.571 233.836 145.205 234.148 144.866C234.776 144.178 235.422 143.506 236.088 142.856C238.75 140.261 241.731 137.996 245.013 136.307C248.287 134.611 251.859 133.521 255.525 133.127C259.191 132.729 262.938 133.019 266.573 133.844C270.213 134.668 273.746 136.012 277.091 137.698C278.764 138.541 280.392 139.473 281.962 140.479C282.747 140.982 283.517 141.505 284.267 142.042C284.641 142.312 285.011 142.586 285.37 142.862C285.55 143 285.728 143.14 285.902 143.278L286.157 143.485Z" fill="#34002F"/>
<path d="M235.742 315.388C236.746 312.357 237.272 309.996 237.272 309.996C237.272 309.996 196.565 305.313 186.478 304.232C180.316 303.571 224.664 259.923 228.987 240.829C233.094 222.688 227.444 213.652 219.453 212.49C219.035 212.429 218.609 212.389 218.179 212.37C218.179 212.37 203.41 208.768 179.273 244.071C155.137 279.375 129.559 318.642 144.329 326.206C159.1 333.771 217.818 327.287 225.384 328.368C230.312 329.072 233.864 321.059 235.741 315.39C235.741 315.39 235.741 315.388 235.742 315.388Z" fill="#4BD69A"/>
<path d="M225.384 328.369C230.312 329.073 233.864 321.06 235.741 315.39C226.724 331.251 156.139 325.028 148.208 319.703C140.275 314.377 159.653 282.532 184.204 245.025C200.334 220.383 212.8 213.982 219.453 212.49C219.035 212.429 218.61 212.389 218.18 212.371C218.18 212.371 203.41 208.769 179.273 244.072C155.137 279.376 129.559 318.642 144.329 326.207C159.1 333.772 217.818 327.288 225.384 328.369Z" fill="#11B06B"/>
<path d="M342.715 147.192H433.105C437.993 147.192 441.955 143.232 441.954 138.344V110.189C441.954 105.302 437.992 101.34 433.105 101.34H342.715C337.829 101.34 333.867 105.302 333.867 110.189V138.344C333.867 143.23 337.829 147.192 342.715 147.192Z" fill="#B4D0FC"/>
<path d="M348.16 158.785V141.475L373.899 143.858L348.16 158.785Z" fill="#B4D0FC"/>
<path d="M344.975 111.355C344.161 111.355 343.349 111.355 342.536 111.355C341.584 111.355 340.876 110.801 340.835 110.145C340.794 109.492 341.646 108.935 342.536 108.935C342.587 108.935 342.638 108.935 342.689 108.935C343.862 108.924 345.038 108.935 346.212 108.935C348.696 108.935 351.181 108.935 353.665 108.935C357.121 108.935 360.576 108.935 364.032 108.935C368.107 108.935 372.18 108.935 376.255 108.935C380.655 108.935 385.056 108.935 389.456 108.935C393.786 108.935 398.114 108.935 402.444 108.935C406.411 108.935 410.378 108.935 414.344 108.935C417.594 108.935 420.846 108.935 424.097 108.935C426.29 108.935 428.484 108.935 430.676 108.935C431.49 108.935 432.303 108.935 433.116 108.935C434.068 108.935 434.775 109.489 434.816 110.145C434.857 110.799 434.006 111.355 433.116 111.355C433.064 111.355 433.014 111.355 432.962 111.355C431.79 111.367 430.614 111.355 429.44 111.355C426.956 111.355 424.472 111.355 421.987 111.355C418.531 111.355 415.076 111.355 411.62 111.355C407.544 111.355 403.472 111.355 399.396 111.355C394.996 111.355 390.596 111.355 386.196 111.355C381.866 111.355 377.537 111.355 373.208 111.355C369.241 111.355 365.274 111.355 361.308 111.355C358.058 111.355 354.806 111.355 351.555 111.355C349.362 111.355 347.168 111.355 344.975 111.355Z" fill="white"/>
<path d="M343.686 123.663C343.302 123.663 342.92 123.663 342.536 123.663C341.584 123.663 340.876 123.107 340.835 122.453C340.794 121.799 341.646 121.243 342.536 121.243C342.561 121.243 342.585 121.243 342.609 121.243C343.162 121.239 343.715 121.243 344.269 121.243C345.44 121.243 346.611 121.243 347.782 121.243C349.41 121.243 351.039 121.243 352.667 121.243C354.587 121.243 356.507 121.243 358.428 121.243C360.503 121.243 362.577 121.243 364.65 121.243C366.691 121.243 368.731 121.243 370.772 121.243C372.641 121.243 374.51 121.243 376.379 121.243C377.912 121.243 379.444 121.243 380.977 121.243C382.01 121.243 383.044 121.243 384.077 121.243C384.461 121.243 384.843 121.243 385.227 121.243C386.18 121.243 386.886 121.797 386.927 122.453C386.968 123.106 386.117 123.663 385.227 123.663C385.201 123.663 385.178 123.663 385.154 123.663C384.6 123.666 384.047 123.663 383.493 123.663C382.322 123.663 381.152 123.663 379.98 123.663C378.352 123.663 376.723 123.663 375.095 123.663C373.176 123.663 371.255 123.663 369.335 123.663C367.26 123.663 365.186 123.663 363.113 123.663C361.071 123.663 359.031 123.663 356.991 123.663C355.122 123.663 353.252 123.663 351.383 123.663C349.85 123.663 348.319 123.663 346.786 123.663C345.753 123.663 344.719 123.663 343.686 123.663Z" fill="white"/>
<path d="M396.231 123.704C395.895 123.704 395.559 123.705 395.223 123.705C394.762 123.706 394.353 123.569 394.021 123.351C393.688 123.133 393.542 122.809 393.523 122.495C393.504 122.194 393.726 121.85 394.021 121.64C394.329 121.42 394.786 121.285 395.223 121.285C395.244 121.285 395.266 121.285 395.287 121.285C395.772 121.283 396.258 121.284 396.743 121.284C397.773 121.283 398.805 121.281 399.836 121.28C401.261 121.277 402.685 121.276 404.109 121.275C405.805 121.273 407.503 121.27 409.199 121.269C411.007 121.266 412.812 121.265 414.62 121.263C416.423 121.26 418.225 121.258 420.028 121.256C421.663 121.255 423.297 121.252 424.932 121.25C426.281 121.249 427.629 121.248 428.979 121.247C429.884 121.247 430.792 121.245 431.698 121.244C432.034 121.244 432.37 121.243 432.706 121.243C433.165 121.243 433.575 121.379 433.908 121.597C434.241 121.815 434.386 122.139 434.406 122.453C434.425 122.754 434.203 123.098 433.908 123.308C433.6 123.528 433.143 123.663 432.706 123.663C432.685 123.663 432.663 123.663 432.642 123.663C432.157 123.665 431.671 123.664 431.186 123.664C430.155 123.665 429.124 123.667 428.093 123.668C426.668 123.671 425.244 123.672 423.82 123.673C422.124 123.674 420.426 123.678 418.73 123.679C416.922 123.681 415.116 123.683 413.308 123.685C411.506 123.687 409.704 123.689 407.901 123.692C406.266 123.693 404.632 123.696 402.997 123.697C401.648 123.699 400.3 123.7 398.95 123.701C398.045 123.701 397.137 123.702 396.231 123.704Z" fill="white"/>
<path d="M343.318 136.053C343.056 136.053 342.796 136.053 342.535 136.053C342.074 136.053 341.665 135.916 341.333 135.698C340.999 135.48 340.855 135.157 340.835 134.843C340.816 134.542 341.038 134.198 341.333 133.988C341.641 133.769 342.1 133.633 342.535 133.633C342.552 133.633 342.568 133.633 342.585 133.633C342.96 133.632 343.338 133.633 343.714 133.633C344.513 133.633 345.312 133.633 346.112 133.633C347.218 133.633 348.321 133.633 349.426 133.633C350.743 133.633 352.058 133.633 353.374 133.633C354.777 133.633 356.177 133.633 357.579 133.633C358.977 133.633 360.375 133.633 361.774 133.633C363.041 133.633 364.309 133.633 365.576 133.633C366.623 133.633 367.668 133.633 368.715 133.633C369.419 133.633 370.121 133.633 370.824 133.633C371.086 133.633 371.346 133.633 371.606 133.633C372.068 133.633 372.477 133.77 372.809 133.988C373.142 134.206 373.287 134.529 373.307 134.843C373.325 135.144 373.104 135.489 372.809 135.698C372.501 135.917 372.042 136.053 371.606 136.053C371.59 136.053 371.573 136.053 371.557 136.053C371.181 136.054 370.804 136.053 370.428 136.053C369.629 136.053 368.829 136.053 368.03 136.053C366.924 136.053 365.821 136.053 364.716 136.053C363.399 136.053 362.084 136.053 360.768 136.053C359.365 136.053 357.965 136.053 356.563 136.053C355.165 136.053 353.767 136.053 352.368 136.053C351.101 136.053 349.833 136.053 348.566 136.053C347.519 136.053 346.474 136.053 345.427 136.053C344.723 136.053 344.02 136.053 343.318 136.053Z" fill="white"/>
<path d="M383.652 136.053C383.199 136.053 382.748 136.053 382.295 136.053C381.341 136.053 380.636 135.499 380.595 134.843C380.554 134.19 381.405 133.633 382.295 133.633C382.324 133.633 382.352 133.633 382.381 133.633C383.035 133.63 383.688 133.633 384.342 133.633C385.725 133.633 387.107 133.633 388.49 133.633C390.412 133.633 392.336 133.633 394.259 133.633C396.526 133.633 398.793 133.633 401.061 133.633C403.508 133.633 405.958 133.633 408.406 133.633C410.815 133.633 413.225 133.633 415.634 133.633C417.842 133.633 420.049 133.633 422.257 133.633C424.066 133.633 425.875 133.633 427.684 133.633C428.903 133.633 430.124 133.633 431.345 133.633C431.798 133.633 432.249 133.633 432.702 133.633C433.654 133.633 434.361 134.187 434.402 134.843C434.443 135.497 433.592 136.053 432.702 136.053C432.673 136.053 432.644 136.053 432.616 136.053C431.962 136.057 431.309 136.053 430.655 136.053C429.272 136.053 427.89 136.053 426.507 136.053C424.585 136.053 422.661 136.053 420.738 136.053C418.471 136.053 416.204 136.053 413.936 136.053C411.489 136.053 409.039 136.053 406.591 136.053C404.182 136.053 401.772 136.053 399.363 136.053C397.155 136.053 394.948 136.053 392.74 136.053C390.931 136.053 389.122 136.053 387.313 136.053C386.094 136.053 384.873 136.053 383.652 136.053Z" fill="white"/>
<path d="M113.703 218.824C115.673 218.824 117.269 217.227 117.269 215.258C117.269 213.288 115.673 211.691 113.703 211.691C111.733 211.691 110.137 213.288 110.137 215.258C110.137 217.227 111.733 218.824 113.703 218.824Z" fill="#FFFEFB"/>
<path d="M516.386 253.128C519.773 253.128 522.518 250.382 522.518 246.995C522.518 243.608 519.773 240.863 516.386 240.863C512.999 240.863 510.254 243.608 510.254 246.995C510.254 250.382 512.999 253.128 516.386 253.128Z" fill="white"/>
<path d="M467.319 213.293C470.189 213.293 472.516 210.966 472.516 208.095C472.516 205.225 470.189 202.898 467.319 202.898C464.448 202.898 462.121 205.225 462.121 208.095C462.121 210.966 464.448 213.293 467.319 213.293Z" fill="white"/>
<path d="M478.675 250.872C480.783 250.872 482.493 249.162 482.493 247.054C482.493 244.946 480.783 243.237 478.675 243.237C476.567 243.237 474.857 244.946 474.857 247.054C474.857 249.162 476.567 250.872 478.675 250.872Z" fill="#FFFEFB"/>
<path d="M131.343 187.664C133.451 187.664 135.161 185.954 135.161 183.846C135.161 181.738 133.451 180.029 131.343 180.029C129.235 180.029 127.525 181.738 127.525 183.846C127.525 185.954 129.235 187.664 131.343 187.664Z" fill="#FFFEFB"/>
<path d="M85.8255 241.865C87.9334 241.865 89.6431 240.155 89.6431 238.047C89.6431 235.939 87.9334 234.229 85.8255 234.229C83.7175 234.229 82.0078 235.939 82.0078 238.047C82.0078 240.155 83.7175 241.865 85.8255 241.865Z" fill="white"/>
<path d="M448.649 328.15L443.631 284.849H472.88L466.572 328.15H448.649Z" fill="#B4D0FC"/>
<path d="M472.886 292.735H442.775L445.214 310.084H470.592L472.886 292.735Z" fill="#FFFEFB"/>
<path d="M442.057 286.714H474.174H474.172V284.588C474.172 282.674 472.621 281.122 470.707 281.122H445.522C443.608 281.122 442.057 282.674 442.057 284.588V286.714Z" fill="#34002F"/>
<path d="M445.361 281.122H470.884V278.164C470.884 276.71 469.704 275.53 468.25 275.53H447.995C446.541 275.53 445.361 276.71 445.361 278.164V281.122Z" fill="#34002F"/>
<path d="M247.665 323.291H312.583C314.392 323.291 315.858 324.759 315.86 326.568C315.86 328.379 314.392 329.845 312.583 329.845H247.665C245.855 329.845 244.389 328.377 244.389 326.568C244.389 324.758 245.856 323.291 247.665 323.291Z" fill="#80808E"/>
<path d="M305.423 329.845H404.002C405.696 329.845 407.198 328.756 407.725 327.146L430.153 258.635C430.983 256.102 429.095 253.499 426.43 253.499H327.85C326.156 253.499 324.654 254.588 324.127 256.198L301.7 324.709C300.869 327.242 302.757 329.845 305.423 329.845Z" fill="#80808E"/>
<path d="M308.135 329.845H408.145C409.545 329.845 410.786 328.943 411.222 327.613L434.093 257.743C434.778 255.648 433.22 253.497 431.016 253.497H331.006C329.606 253.497 328.364 254.398 327.929 255.729L305.058 325.598C304.372 327.693 305.931 329.845 308.135 329.845Z" fill="#3B3348"/>
<path d="M371.207 300.208C376.089 300.208 380.046 296.251 380.046 291.37C380.046 286.488 376.089 282.531 371.207 282.531C366.326 282.531 362.369 286.488 362.369 291.37C362.369 296.251 366.326 300.208 371.207 300.208Z" fill="#FFFEFB"/>
<path d="M292.842 174.949C293.005 174.98 293.941 175.22 293.214 175.016C294.902 175.49 295.996 172.954 294.292 172.478C291.796 171.777 288.909 171.71 286.564 172.928C284.999 173.74 286.021 176.303 287.599 175.484C288.795 174.864 290.086 174.669 291.423 174.764C291.899 174.798 292.373 174.86 292.842 174.949Z" fill="#34002F"/>
<path d="M289.408 182.03C290.238 182.34 291.339 181.448 291.866 180.039C292.393 178.63 292.149 177.235 291.32 176.924C290.49 176.615 289.389 177.506 288.862 178.915C288.335 180.326 288.579 181.72 289.408 182.03Z" fill="#34002F"/>
<path d="M251.476 179.735C255.471 182.113 260.576 181.449 264.762 178.482C243.644 179.595 258.724 155.552 260.81 152.37C256.256 152.665 251.544 155.611 248.643 160.486C244.382 167.653 245.649 176.27 251.476 179.735Z" fill="#B4D0FC"/>
<path d="M264.762 178.482C266.679 177.125 268.403 175.286 269.742 173.036C274.004 165.871 272.735 157.252 266.91 153.786C265.047 152.679 262.947 152.232 260.81 152.368C256.256 152.663 251.544 155.61 248.643 160.485C244.382 167.651 245.649 176.269 251.476 179.734C255.471 182.112 260.576 181.448 264.762 178.482Z" fill="#C5DBF9"/>
<path d="M294.421 145.496C296.133 144.822 297.191 144.446 297.191 144.446C294.211 139.112 290.357 137.861 290.357 137.861C279.27 136.784 269.564 144.509 264.62 149.394C262.4 151.587 261.138 153.209 261.138 153.209L259.355 153.463C259.355 153.463 264.821 171.238 268.234 162.381C270.951 155.325 287.714 148.129 294.421 145.496Z" fill="#C5DBF9"/>
<path d="M259.816 171.814C259.755 171.623 259.696 171.431 259.643 171.236C259.546 170.889 259.76 170.549 260.094 170.44C260.426 170.334 260.798 170.567 260.888 170.892C260.892 170.904 260.895 170.916 260.899 170.928C260.982 171.207 261.066 171.486 261.155 171.762C261.347 172.359 261.555 172.95 261.773 173.538C261.919 173.933 262.07 174.326 262.225 174.716C262.311 174.93 262.397 175.144 262.485 175.357C262.532 175.469 262.578 175.581 262.626 175.694C262.665 175.79 262.548 175.512 262.608 175.654C262.621 175.683 262.634 175.711 262.646 175.74C262.669 175.794 262.692 175.851 262.716 175.905C263.154 176.924 263.621 177.929 264.122 178.917C264.689 180.041 265.299 181.142 265.953 182.218C266.658 183.378 267.414 184.505 268.229 185.589C268.281 185.658 268.335 185.728 268.388 185.797C268.414 185.832 268.44 185.867 268.467 185.901C268.479 185.918 268.491 185.931 268.503 185.947C268.552 186.011 268.396 185.808 268.465 185.897C268.572 186.036 268.679 186.175 268.79 186.312C269.007 186.582 269.228 186.852 269.454 187.118C269.912 187.659 270.388 188.184 270.881 188.692C271.382 189.209 271.902 189.707 272.44 190.185C272.711 190.425 272.986 190.661 273.266 190.889C273.407 191.005 273.548 191.118 273.691 191.229C273.714 191.248 273.739 191.266 273.763 191.284C273.763 191.284 273.626 191.18 273.705 191.239C273.736 191.263 273.768 191.289 273.8 191.312C273.871 191.366 273.945 191.422 274.018 191.476C275.185 192.346 276.432 193.111 277.749 193.736C277.916 193.816 278.085 193.893 278.255 193.969C278.345 194.009 278.436 194.047 278.526 194.086C278.602 194.119 278.362 194.018 278.471 194.063C278.49 194.071 278.51 194.079 278.529 194.087C278.567 194.104 278.606 194.119 278.644 194.135C278.992 194.277 279.344 194.41 279.7 194.532C280.425 194.781 281.165 194.988 281.914 195.15C282.268 195.227 282.441 195.619 282.366 195.944C282.286 196.298 281.901 196.467 281.571 196.396C281.205 196.316 280.839 196.227 280.478 196.126C278.987 195.711 277.539 195.119 276.176 194.386C274.843 193.67 273.597 192.809 272.422 191.858C271.304 190.951 270.263 189.951 269.293 188.887C268.314 187.814 267.41 186.673 266.565 185.492C265.782 184.395 265.054 183.259 264.376 182.094C263.755 181.025 263.176 179.93 262.635 178.819C262.148 177.815 261.693 176.795 261.265 175.763C260.942 174.983 260.637 174.195 260.351 173.4C260.163 172.875 259.984 172.347 259.816 171.814Z" fill="#1B2630"/>
<path d="M262.442 173.603C263.56 172.811 264.567 171.738 265.348 170.424C267.836 166.242 267.096 161.21 263.696 159.188C262.608 158.542 261.382 158.282 260.135 158.361C257.477 158.532 254.726 160.253 253.033 163.099C250.545 167.281 251.285 172.312 254.687 174.334C257.019 175.722 259.998 175.333 262.442 173.603Z" fill="#1B2630"/>
<path d="M262.678 167.797C263.157 167.43 263.589 166.932 263.923 166.322C264.987 164.379 264.661 162.034 263.193 161.087C262.725 160.786 262.196 160.661 261.659 160.697C260.516 160.773 259.333 161.568 258.61 162.891C257.546 164.834 257.872 167.178 259.34 168.125C260.347 168.775 261.629 168.6 262.678 167.797Z" fill="#415C7B"/>
<path d="M294.413 145.497C296.125 144.823 297.183 144.447 297.183 144.447C294.203 139.113 290.349 137.861 290.349 137.86C279.262 136.783 269.556 144.508 264.611 149.393C272.569 145.795 285.454 141.4 294.413 145.497Z" fill="#B4D0FC"/>
<path d="M279.109 198.154C279.61 198.493 280.219 198.744 280.905 198.866C283.085 199.257 285.205 198.2 285.633 196.508C285.772 195.966 285.721 195.427 285.516 194.929C285.081 193.871 283.951 193.003 282.466 192.737C280.285 192.347 278.166 193.403 277.736 195.095C277.439 196.256 278.014 197.416 279.109 198.154Z" fill="#415C7B"/>
</svg>
