<svg width="400" height="290" viewBox="0 0 597 319" fill="none" xmlns="http://www.w3.org/2000/svg">
<path d="M298.832 133.602C298.832 132.965 299.347 132.448 299.984 132.448C300.621 132.448 301.135 132.965 301.135 133.602V135.957C301.135 136.595 300.621 137.111 299.984 137.111C299.347 137.111 298.832 136.595 298.832 135.957V133.602ZM305.572 138.044C306.208 138.044 306.724 138.56 306.724 139.198C306.724 139.835 306.208 140.35 305.572 140.35H303.22C302.583 140.35 302.067 139.835 302.067 139.198C302.067 138.56 302.583 138.044 303.22 138.044H305.572ZM296.746 138.044C297.383 138.044 297.899 138.56 297.899 139.198C297.899 139.835 297.383 140.35 296.746 140.35H294.397C293.76 140.35 293.244 139.835 293.244 139.198C293.244 138.56 293.76 138.044 294.397 138.044H296.746ZM298.833 142.436C298.833 141.798 299.349 141.282 299.985 141.282C300.622 141.282 301.138 141.798 301.138 142.436V144.791C301.138 145.428 300.622 145.945 299.985 145.945C299.349 145.945 298.833 145.428 298.833 144.791V142.436Z" fill="white"/>
<path d="M85.5576 96.6972C85.5576 96.0611 86.0721 95.5447 86.7075 95.5447H86.7087C87.3441 95.5434 87.8586 96.0573 87.8599 96.6935C87.8599 96.6947 87.8599 96.696 87.8599 96.6972V99.0534C87.8611 99.6896 87.3478 100.206 86.7125 100.207C86.7112 100.207 86.7112 100.207 86.71 100.207C86.0746 100.207 85.5588 99.6908 85.5588 99.0547C85.5588 99.0534 85.5588 99.0547 85.5588 99.0534V96.6972H85.5576ZM92.2963 101.139C92.9329 101.139 93.4487 101.655 93.4487 102.293C93.4487 102.93 92.9329 103.445 92.2963 103.447H89.9442C89.3075 103.445 88.793 102.93 88.7918 102.293C88.7918 101.655 89.3075 101.139 89.9442 101.139H92.2963ZM83.4733 101.139C84.1099 101.139 84.6257 101.655 84.6257 102.293C84.6244 102.93 84.1099 103.445 83.4733 103.447H81.1199C80.4845 103.445 79.9688 102.929 79.9688 102.293C79.9688 101.657 80.4845 101.139 81.1199 101.139H83.4733ZM85.5588 105.532C85.5588 104.896 86.0746 104.378 86.71 104.378C87.3453 104.378 87.8611 104.893 87.8611 105.53C87.8611 105.531 87.8611 105.531 87.8611 105.532V107.888C87.8624 108.524 87.3478 109.04 86.7125 109.041C86.7112 109.041 86.7112 109.041 86.71 109.041C86.0746 109.041 85.5588 108.524 85.5588 107.888V105.532Z" fill="white"/>
<path d="M461.085 138.202C461.085 137.566 461.601 137.048 462.236 137.048C462.872 137.048 463.387 137.566 463.387 138.202V140.558C463.387 141.195 462.872 141.712 462.236 141.712C461.601 141.712 461.085 141.195 461.085 140.558V138.202ZM467.825 142.644C468.462 142.642 468.977 143.157 468.98 143.794C468.982 144.431 468.468 144.949 467.831 144.952C467.829 144.952 467.828 144.952 467.825 144.952H465.472C464.835 144.954 464.318 144.439 464.316 143.802C464.313 143.164 464.828 142.647 465.464 142.644C465.467 142.644 465.469 142.644 465.472 142.644H467.825ZM459.001 142.644C459.637 142.642 460.154 143.157 460.157 143.794C460.159 144.431 459.645 144.949 459.008 144.952C459.006 144.952 459.003 144.952 459.001 144.952H456.649C456.012 144.949 455.498 144.431 455.5 143.794C455.503 143.159 456.015 142.647 456.649 142.644H459.001ZM461.088 147.036C461.088 146.4 461.603 145.883 462.239 145.883C462.874 145.883 463.39 146.4 463.39 147.036V149.391C463.39 150.027 462.874 150.545 462.239 150.545C461.603 150.545 461.088 150.027 461.088 149.391V147.036Z" fill="white"/>
<path d="M541.978 180.612H497.194C496.769 180.612 496.426 180.265 496.426 179.838V168.45C496.426 168.022 496.769 167.677 497.194 167.677H530.747C531.171 167.689 531.505 168.045 531.493 168.472C531.481 168.882 531.154 169.211 530.747 169.222H497.963V179.065H541.213V169.222H536.443C536.018 169.235 535.666 168.899 535.654 168.472C535.641 168.045 535.975 167.689 536.399 167.677C536.414 167.677 536.428 167.677 536.443 167.677H541.981C542.405 167.677 542.748 168.023 542.748 168.45V179.838C542.748 180.265 542.404 180.612 541.98 180.612H541.978Z" fill="#FFDC8D"/>
<path d="M497.194 180.61H469.58C469.155 180.598 468.822 180.244 468.834 179.817C468.845 179.407 469.173 179.076 469.58 179.065H496.426V169.222H473.856C473.431 169.235 473.079 168.898 473.066 168.471C473.054 168.043 473.388 167.689 473.812 167.677C473.827 167.677 473.841 167.677 473.856 167.677H497.194C497.619 167.677 497.962 168.023 497.962 168.45V179.838C497.962 180.264 497.619 180.61 497.194 180.61ZM464.664 180.61H462.4C461.976 180.598 461.642 180.244 461.655 179.817C461.666 179.407 461.993 179.076 462.4 179.065H464.664C465.089 179.053 465.441 179.389 465.454 179.817C465.466 180.244 465.132 180.598 464.708 180.61C464.693 180.61 464.679 180.61 464.664 180.61Z" fill="#FFDC8D"/>
<path d="M560.578 180.61H541.975C541.551 180.61 541.207 180.264 541.207 179.838V168.45C541.207 168.023 541.551 167.677 541.974 167.677H541.975H565.315C565.74 167.689 566.074 168.043 566.062 168.471C566.051 168.881 565.722 169.211 565.315 169.222H542.741V179.065H560.576C561.001 179.078 561.334 179.433 561.322 179.86C561.311 180.27 560.983 180.599 560.576 180.61H560.578Z" fill="#FFDC8D"/>
<path d="M510.47 191.997H487.131C486.707 191.985 486.372 191.631 486.384 191.203C486.396 190.793 486.724 190.463 487.131 190.452H510.47C510.895 190.439 511.247 190.776 511.259 191.203C511.272 191.631 510.938 191.985 510.514 191.997C510.499 191.997 510.485 191.997 510.47 191.997ZM487.131 188.554C486.708 188.554 486.363 188.209 486.363 187.782V187.781V179.836C486.387 179.41 486.75 179.085 487.174 179.109C487.563 179.131 487.874 179.444 487.897 179.836V187.782C487.897 188.207 487.554 188.553 487.131 188.554Z" fill="#FFDC8D"/>
<path d="M519.932 169.221C519.508 169.221 519.164 168.875 519.164 168.447V168.446V157.059C519.177 156.631 519.529 156.295 519.953 156.307C520.36 156.319 520.689 156.649 520.7 157.059V168.446C520.701 168.872 520.359 169.22 519.935 169.221C519.933 169.221 519.933 169.221 519.932 169.221Z" fill="#FFDC8D"/>
<path d="M215.119 134.882H170.334C169.91 134.882 169.566 134.537 169.566 134.111V134.109V122.721C169.566 122.294 169.91 121.948 170.334 121.948H203.886C204.311 121.948 204.654 122.295 204.654 122.721C204.654 123.147 204.311 123.495 203.888 123.495H203.886H171.096V133.337H214.346V123.495H209.575C209.15 123.495 208.807 123.147 208.807 122.721C208.807 122.294 209.15 121.948 209.575 121.948H215.119C215.543 121.948 215.886 122.294 215.886 122.721V134.109C215.886 134.535 215.543 134.882 215.12 134.882H215.119Z" fill="#FFDC8D"/>
<path d="M170.336 134.882H142.721C142.298 134.882 141.953 134.537 141.953 134.111V134.109C141.953 133.683 142.297 133.337 142.721 133.337H169.568V123.495H146.997C146.572 123.495 146.229 123.149 146.229 122.721C146.229 122.294 146.572 121.948 146.997 121.948H170.336C170.759 121.948 171.102 122.295 171.102 122.721V134.109C171.104 134.535 170.76 134.881 170.337 134.882H170.336ZM137.804 134.882H135.541C135.118 134.883 134.775 134.538 134.773 134.112C134.773 134.111 134.773 134.111 134.773 134.109C134.773 133.683 135.117 133.337 135.54 133.337H135.541H137.804C138.229 133.337 138.572 133.682 138.572 134.109C138.572 134.537 138.229 134.882 137.804 134.882Z" fill="#FFDC8D"/>
<path d="M233.726 134.882H215.123C214.7 134.883 214.357 134.538 214.355 134.112C214.355 134.111 214.355 134.111 214.355 134.109V122.721C214.355 122.295 214.698 121.948 215.122 121.948H215.123H238.462C238.887 121.948 239.23 122.295 239.23 122.721C239.23 123.147 238.887 123.495 238.464 123.495H238.462H215.89V133.337H233.726C234.151 133.337 234.494 133.683 234.494 134.109C234.494 134.535 234.151 134.882 233.727 134.882H233.726Z" fill="#FFDC8D"/>
<path d="M183.615 146.27H160.274C159.849 146.27 159.506 145.925 159.506 145.498C159.506 145.07 159.849 144.724 160.274 144.724H183.615C184.04 144.724 184.383 145.07 184.383 145.498C184.383 145.925 184.04 146.27 183.615 146.27ZM160.274 142.828C159.851 142.827 159.508 142.482 159.508 142.056V134.11C159.508 133.682 159.852 133.337 160.276 133.337C160.7 133.338 161.041 133.685 161.041 134.11V142.056C161.041 142.482 160.698 142.828 160.274 142.828Z" fill="#FFDC8D"/>
<path d="M193.075 123.494C192.65 123.494 192.307 123.149 192.307 122.721V111.331C192.307 110.905 192.65 110.558 193.075 110.558C193.499 110.558 193.843 110.905 193.843 111.331V122.719C193.844 123.145 193.502 123.493 193.077 123.494C193.076 123.494 193.076 123.494 193.075 123.494Z" fill="#FFDC8D"/>
<path d="M75.5975 203.502H52.2561C51.8317 203.502 51.4881 203.157 51.4881 202.731V202.73C51.4881 202.302 51.8317 201.957 52.2561 201.957H75.5975C76.022 201.957 76.3655 202.302 76.3655 202.73C76.3655 203.156 76.022 203.502 75.5975 203.502ZM52.2561 200.06C51.8317 200.06 51.4881 199.715 51.4881 199.288V192.113H34.6991C34.2759 192.113 33.9311 191.768 33.9311 191.341V191.34C33.9323 190.914 34.2759 190.57 34.6991 190.57H61.5456V180.727H38.9748C38.5503 180.727 38.2068 180.381 38.2068 179.953C38.2068 179.526 38.5503 179.181 38.9748 179.181H84.2833V168.565C84.2821 168.139 84.6256 167.794 85.0488 167.793H85.0501C85.4745 167.793 85.8181 168.138 85.8181 168.564V168.565V179.181H95.8669C96.2913 179.181 96.6349 179.526 96.6349 179.953C96.6349 180.381 96.2913 180.727 95.8669 180.727H63.0866V190.57H107.103C107.526 190.57 107.871 190.915 107.871 191.341V191.343C107.87 191.769 107.526 192.114 107.103 192.113C107.102 192.113 107.102 192.113 107.101 192.113H53.0241V199.285C53.0254 199.712 52.6818 200.059 52.2574 200.06H52.2561ZM29.7836 192.113H27.5219C27.0987 192.114 26.7552 191.769 26.7539 191.343C26.7539 191.341 26.7539 191.342 26.7539 191.34C26.7539 190.914 27.0975 190.568 27.5207 190.568H27.5219H29.7836C30.2068 190.566 30.5504 190.912 30.5516 191.338V191.34C30.5516 191.766 30.2093 192.113 29.7861 192.113C29.7848 192.113 29.7848 192.113 29.7836 192.113Z" fill="#FFDC8D"/>
<path d="M510.465 68.5025C513.193 68.5025 515.404 66.2767 515.404 63.53C515.404 60.7833 513.193 58.5576 510.465 58.5576C507.736 58.5576 505.525 60.7833 505.525 63.53C505.53 66.2743 507.739 68.4975 510.465 68.5025Z" fill="#FAC623"/>
<path d="M376.041 63.1022C388.395 63.1383 398.402 73.157 398.438 85.5257V131.141C398.438 144.806 373.284 147.183 368.125 145.088C366.976 144.621 361.498 150.464 361.498 150.464C357.525 144.665 353.645 138.674 353.645 131.141V85.5257C353.681 73.157 363.687 63.1383 376.041 63.1022Z" fill="#EE8B83"/>
<path d="M325.657 140.087C325.657 140.087 321.604 141.084 318.759 143.485C315.913 145.886 296.768 178.316 291.729 192.476C286.689 206.635 281.973 241.629 281.973 241.629L339.194 216.189L325.657 140.087Z" fill="#060CA1"/>
<path d="M351.62 135.552C352.041 135.504 352.419 135.808 352.467 136.229C352.512 136.633 352.235 137.004 351.835 137.072L325.802 140.842C323.427 141.474 321.201 142.569 319.252 144.069C318.572 144.643 316.783 147.236 314.415 151.008C312.027 154.81 309.064 159.8 306.06 165.141C305.827 165.496 305.35 165.594 304.996 165.361C304.679 165.151 304.561 164.74 304.722 164.394C307.721 159.064 310.7 154.048 313.122 150.193C315.57 146.295 317.466 143.575 318.266 142.901C321.117 140.496 325.076 139.446 325.434 139.353C325.472 139.341 325.509 139.334 325.548 139.328L351.62 135.552Z" fill="white"/>
<path d="M402.321 135.314L440.534 155.518C422.443 189.714 416.13 207.181 425.892 236.843L410.209 303.946C410.209 303.946 414.35 308.448 411.293 314.186H300.898L301.88 310.323C301.88 310.323 299.968 307.133 302.432 303.261L300.939 247.006C300.939 247.006 300.25 204.168 300.59 199.841C300.931 195.514 325.657 140.087 325.657 140.087L351.728 136.311L361.499 150.465L375.995 143.032L402.321 135.314Z" fill="#060CA1"/>
<path d="M354.056 176.033C374.799 176.034 391.615 192.87 391.613 213.638C391.612 234.407 374.797 251.242 354.053 251.241C333.311 251.24 316.496 234.404 316.496 213.637C316.496 192.869 333.311 176.033 354.055 176.033H354.056ZM354.056 189.778C340.894 189.778 330.224 200.459 330.224 213.637C330.224 226.815 340.894 237.497 354.056 237.497C367.218 237.497 377.888 226.815 377.888 213.637C377.887 200.46 367.217 189.779 354.056 189.778Z" fill="#060CA1"/>
<path d="M421.326 212.312C421.439 219.902 422.918 227.806 425.892 236.843L410.208 303.946C410.208 303.946 414.349 308.448 411.291 314.186H395.687C392.742 307.763 387.442 306.245 387.442 306.245L302.013 287.453L301.885 282.615C325.702 284.318 404.052 289.009 404.208 277.05C404.392 262.947 405.022 255.891 400.348 251.211C395.674 246.531 393.44 243.684 396.08 242.26C398.72 240.835 408.071 239.411 411.524 232.29C414.978 225.169 420.168 212.143 420.168 212.143L421.326 212.312Z" fill="#060CA1"/>
<path d="M367.314 142.781L361.498 150.465L374.365 148.361L367.314 142.781Z" fill="#F7CDD1"/>
<path d="M359.637 142.553L361.5 150.466L355.258 145.06L359.637 142.553Z" fill="#F7CDD1"/>
<path d="M367.312 142.782L380.114 155.493C380.114 155.493 382.269 157.358 384.43 155.48C386.592 153.601 402.802 134.752 402.802 134.752L398.435 125.586L367.312 142.782Z" fill="white"/>
<path d="M359.638 142.553L348.149 151.38C348.149 151.38 346.5 152.178 346.615 150.923C346.73 149.668 349.629 136.517 349.629 136.517L353.645 129.911L359.638 142.553Z" fill="white"/>
<path d="M273.972 254.371L264.7 220.869C264.557 220.387 264.831 219.878 265.313 219.734C265.367 219.718 265.421 219.708 265.476 219.702C266.533 219.456 315.67 221.084 357.775 212.944C357.775 212.944 359.645 212.618 359.969 214.247C360.293 215.876 367.757 267.975 368.928 273.459C370.099 278.942 273.972 254.371 273.972 254.371Z" fill="#F8C680"/>
<path d="M316.561 227.432C316.561 227.432 329.809 224.014 333.142 223.93C336.474 223.847 336.636 226.208 342.002 233.614C347.368 241.019 362.322 264.213 369.798 275.281C377.274 286.349 383.617 292.697 393.371 292.208C403.125 291.719 404.019 291.151 404.019 291.151C404.019 291.151 399.021 300.227 385.426 299.026C379.414 296.773 373.908 293.349 369.228 288.951C361.267 281.549 316.561 227.432 316.561 227.432Z" fill="#FBDCA3"/>
<path d="M252.738 240.107C253.29 240.066 295.086 282.1 295.086 282.1C295.993 282.835 297.007 283.425 298.093 283.85C299.312 284.176 385.431 299.029 385.431 299.029C385.431 299.029 382.098 297.36 378.319 291.581C374.618 285.923 338.549 235.424 321.325 223.069C319.796 221.973 319.253 222.012 317.195 222.589C315.241 223.139 284.782 239.558 252.738 240.107Z" fill="white"/>
<path d="M440.53 155.517C440.53 155.517 451.294 165.214 454.652 177.932C458.009 190.65 466.809 255.84 467.705 265.231C468.6 274.622 462.08 282.816 462.08 282.816L424.445 260.031L429.646 249.531C428.657 247.932 428.929 245.857 430.297 244.567L425.889 236.844C425.889 236.844 405.912 203.386 440.53 155.517Z" fill="#060CA1"/>
<path d="M426.555 236.462C426.76 236.833 426.626 237.298 426.256 237.503C425.896 237.702 425.441 237.58 425.23 237.226C425.172 237.127 405.001 203.341 439.912 155.068C440.16 154.725 440.64 154.649 440.982 154.897C441.325 155.145 441.401 155.625 441.153 155.968C406.828 203.431 426.5 236.366 426.556 236.462H426.555ZM429.595 250.297C429.173 250.267 428.855 249.899 428.885 249.476C428.915 249.053 429.282 248.735 429.705 248.765L437.491 249.33C437.914 249.36 438.233 249.728 438.203 250.151C438.173 250.573 437.805 250.892 437.383 250.862L429.595 250.297ZM430.502 245.305C430.093 245.411 429.675 245.166 429.569 244.757C429.464 244.354 429.7 243.94 430.1 243.827C437.566 242.048 445.334 241.953 452.843 243.547C453.259 243.627 453.532 244.03 453.452 244.447C453.372 244.863 452.97 245.136 452.554 245.056C452.54 245.054 452.527 245.051 452.514 245.048C445.248 243.499 437.729 243.586 430.502 245.305Z" fill="#060CA1"/>
<path d="M425.133 260.366C424.937 260.742 424.475 260.889 424.1 260.693C423.736 260.503 423.586 260.058 423.76 259.686L428.964 249.189C429.131 248.8 429.581 248.62 429.969 248.787C430.358 248.954 430.537 249.406 430.37 249.795C430.361 249.819 430.349 249.841 430.337 249.864L425.133 260.364V260.366Z" fill="white"/>
<path d="M423.188 267.965L419.701 267.069C419.952 265.721 420.33 264.399 420.831 263.123C421.741 260.672 423.268 260.478 424.448 260.029C425.628 259.58 446.801 255.921 451.678 256.245C456.556 256.569 463.871 272.521 465.66 275.776C467.449 279.032 464.196 285.623 460.539 290.751C456.881 295.878 452.37 295.268 442.859 296.977C433.348 298.686 427.283 291.806 427.283 291.806L423.188 267.965Z" fill="white"/>
<path d="M386.648 272.725L390.375 271.323C390.95 272.443 392.142 273.108 393.395 273.009C395.508 272.806 425.908 265.603 425.908 265.603C425.908 265.603 429.282 264.791 431.675 266.218C434.069 267.645 448.706 279.441 448.706 279.441C448.706 279.441 449.519 279.93 449.112 281.272C448.705 282.614 446.755 287.214 446.755 287.214C445.886 288.684 444.414 289.695 442.732 289.978C440.05 290.304 400.141 295.186 393.152 294.941C386.163 294.697 378.83 292.19 378.83 292.19L386.648 272.725Z" fill="#F2BA95"/>
<path d="M440.961 273.255C444.968 276.422 448.708 279.438 448.708 279.438C448.708 279.438 449.522 279.927 449.114 281.269C448.707 282.611 446.757 287.21 446.757 287.21C445.889 288.68 444.417 289.691 442.735 289.974C441.764 290.092 435.903 290.809 428.494 291.663C431.194 289.792 434.571 287.472 438.137 285.077C446.451 279.497 440.985 273.285 440.961 273.255Z" fill="#EE8B83"/>
<path d="M399.261 294.667C396.5 294.875 394.351 294.982 393.156 294.941C386.167 294.695 378.834 292.188 378.834 292.188L384.575 277.894C387.48 277.714 390.108 280.033 390.108 280.033C390.108 280.033 392.8 289.413 399.261 294.667Z" fill="#EE8B83"/>
<path d="M351.763 256.665C351.996 256.086 352.472 255.64 353.065 255.445C353.999 255.199 366.394 254.427 367.898 254.346C369.656 254.188 371.428 254.325 373.141 254.753C375.621 255.323 381.393 258.008 385.211 259.677C389.03 261.346 388.91 262.811 388.91 263.908C388.91 265.006 388.91 266.674 388.951 267.531C388.992 268.388 390.699 271.558 390.78 272.78C390.861 274.001 389.6 276.238 389.6 277.418C389.6 278.598 390.698 280.957 390.047 282.666C389.397 284.375 387.366 287.713 386.796 290.154C386.225 292.595 381.187 292.677 378.83 292.188C376.473 291.699 361.638 285.553 359.685 284.538C357.731 283.523 352.004 278.964 352.004 278.964C352.004 278.964 348.893 278.089 347.817 277.885C346.741 277.68 344.687 274.06 348.344 272.229C348.344 272.229 344.89 271.945 343.611 270.968C342.541 269.967 342.483 268.284 343.484 267.212C343.83 266.841 344.276 266.576 344.768 266.452C347.165 265.86 353.666 264.741 354.725 264.619C355.784 264.497 368.93 263.807 368.93 263.807C369.323 263.789 369.715 263.819 370.099 263.898C370.779 264.031 374.995 264.854 374.995 264.854C374.995 264.854 370.069 262.799 368.524 262.372C366.979 261.944 366.206 261.72 355.111 261.231C355.114 261.23 350.848 260.619 351.763 256.665Z" fill="#F2BA95"/>
<path d="M374.861 265.607C374.445 265.535 374.165 265.138 374.237 264.722C374.309 264.305 374.705 264.024 375.122 264.097C375.124 264.097 375.128 264.099 375.13 264.099C375.14 264.099 378.534 264.697 380.678 264.879C381.737 265.007 382.812 264.885 383.816 264.523C384.211 264.372 384.654 264.57 384.804 264.965C384.955 265.36 384.759 265.803 384.364 265.954C383.146 266.398 381.84 266.555 380.552 266.412C378.388 266.227 374.872 265.609 374.861 265.607ZM351.888 279.72C351.472 279.645 351.195 279.247 351.27 278.83C351.342 278.427 351.717 278.153 352.122 278.205C352.142 278.209 359.02 279.302 362.092 280.121C365.024 280.903 378.932 283.271 381.433 283.696L381.612 283.728C382.032 283.786 382.325 284.173 382.266 284.593C382.208 285.014 381.822 285.307 381.402 285.248C381.388 285.246 381.374 285.243 381.361 285.241L381.18 285.211C378.67 284.78 364.704 282.405 361.704 281.606C358.679 280.797 351.906 279.722 351.885 279.72L351.888 279.72ZM348.341 272.995C347.918 272.991 347.578 272.645 347.582 272.222C347.586 271.799 347.931 271.458 348.353 271.462C348.387 271.462 360.318 271.594 363.763 271.757C367.27 271.921 382.826 274.525 382.871 274.532C383.288 274.599 383.571 274.994 383.504 275.411C383.436 275.829 383.043 276.112 382.625 276.045C382.582 276.038 367.096 273.448 363.692 273.287C360.234 273.125 348.373 272.995 348.339 272.995L348.341 272.995Z" fill="#EE8B83"/>
<path d="M283.42 260.215C283.42 260.215 277.622 257.451 276.132 257.256C274.642 257.06 265.596 256.682 264.351 256.744C262.977 256.83 261.912 257.983 261.934 259.361C261.934 260.877 262.179 262.693 261.738 263.847C261.297 265 259.496 265.172 259.153 266.851C258.811 268.53 259.76 270.223 259.607 271.674C259.453 273.124 259.178 276.312 259.429 277.224C259.679 278.136 260.643 279.049 261.032 280.234C261.603 281.834 262.959 283.024 264.619 283.379C266.802 283.985 268.648 285.081 270.649 284.439C274.101 283.082 277.454 281.486 280.685 279.665C281.674 278.936 284.78 276.401 284.935 275.564L284.956 275.073C284.956 275.073 288.082 273.316 287.894 271.699C287.894 271.699 290.373 271.491 290.911 271.183C291.449 270.875 292.359 270.4 292.147 268.58C291.935 266.76 291.571 265.167 286.761 264.745L284.803 264.521C284.83 264.494 284.856 264.465 284.881 264.436C286.181 262.945 285.001 261.148 283.42 260.215Z" fill="#F2BA95"/>
<path d="M284.916 263.759C285.335 263.82 285.625 264.211 285.564 264.63C285.503 265.05 285.113 265.34 284.695 265.279C284.676 265.279 278.257 264.323 275.741 263.88C273.314 263.45 263.822 264.195 263.794 264.197C263.371 264.228 263.002 263.909 262.971 263.485C262.94 263.061 263.257 262.692 263.681 262.66C263.707 262.66 273.391 261.903 276.005 262.362C278.533 262.806 284.898 263.753 284.916 263.756V263.759ZM284.806 274.321C285.218 274.228 285.627 274.489 285.719 274.902C285.811 275.315 285.551 275.724 285.138 275.816C285.13 275.819 285.121 275.82 285.112 275.821C285.091 275.825 277.907 277.295 273.845 278.217C270.458 278.875 267.032 279.302 263.589 279.498C263.165 279.511 262.813 279.178 262.8 278.754C262.788 278.343 263.1 277.996 263.509 277.967C266.867 277.777 270.208 277.362 273.511 276.723C277.537 275.805 284.788 274.323 284.809 274.321H284.806ZM287.935 270.931C288.358 270.953 288.683 271.312 288.661 271.735C288.64 272.158 288.28 272.483 287.858 272.462C287.84 272.462 281.727 272.171 279.122 272.069C276.538 271.967 263.041 272.643 263.003 272.644C262.581 272.664 262.222 272.337 262.202 271.914C262.181 271.493 262.506 271.134 262.928 271.112C262.93 271.112 262.93 271.112 262.931 271.112C262.971 271.112 276.514 270.431 279.182 270.537C281.826 270.641 287.918 270.93 287.935 270.931Z" fill="#EE8B83"/>
<path d="M440.887 154.841C441.261 155.038 441.406 155.502 441.209 155.876C441.012 156.25 440.547 156.395 440.174 156.198L401.962 135.993C401.588 135.796 401.444 135.332 401.641 134.958C401.838 134.584 402.302 134.439 402.676 134.636L440.887 154.841Z" fill="white"/>
<path d="M408.179 83.3331C408.179 83.3331 412.492 79.4352 415.158 79.9129C417.824 80.3906 420.672 86.429 419.929 90.7511C419.187 95.0732 412.822 109.761 404.477 103.268C396.132 96.7758 408.179 83.3331 408.179 83.3331Z" fill="#F2BA95"/>
<path d="M404.395 87.9294C404.063 88.2001 403.945 88.6554 404.102 89.0533C404.23 89.324 404.553 89.44 404.823 89.3115C404.853 89.2978 404.882 89.2803 404.908 89.2616C404.908 89.2616 406.164 102.861 408.324 100.939C410.484 99.0171 412.739 97.1835 413.861 93.8568C414.982 90.5301 412.227 87.1548 413.392 86.3615C414.505 85.6044 415.508 87.0201 415.597 87.1548L415.602 87.1586V87.1636C416.096 87.9731 416.458 88.855 416.675 89.778C416.716 90.0749 416.99 90.2807 417.287 90.2395C417.359 90.2295 417.429 90.2033 417.491 90.1659C417.865 89.9539 418.062 89.5273 417.982 89.1044C417.978 89.0895 416.881 83.8718 413.134 83.7246C409.567 83.5849 404.412 87.917 404.395 87.9294Z" fill="#EE8B83"/>
<path d="M342.572 77.9108C342.572 77.9108 338.953 73.3567 336.247 73.3904C333.541 73.4241 329.742 78.9124 329.766 83.2968C329.789 87.6812 333.659 103.216 342.958 98.1839C352.257 93.1521 342.572 77.9108 342.572 77.9108Z" fill="#EE8B83"/>
<path d="M345.541 83.0638C345.824 83.3856 345.868 83.8534 345.647 84.2214C345.477 84.4671 345.14 84.527 344.895 84.3561C344.867 84.3374 344.843 84.3162 344.819 84.2925C344.819 84.2925 341.353 97.5006 339.535 95.2504C337.718 93.0002 335.796 90.8211 335.233 87.3559C334.67 83.8908 337.943 81.0119 336.923 80.0378C335.951 79.1085 334.73 80.3396 334.618 80.4569L334.613 80.4619V80.4656C333.992 81.1828 333.492 81.9948 333.127 82.8705C333.036 83.1561 332.729 83.3133 332.444 83.2222C332.375 83.1998 332.313 83.1661 332.258 83.1199C331.924 82.848 331.798 82.3952 331.946 81.9899C331.95 81.9761 333.888 77.0092 337.605 77.4782C341.152 77.9297 345.529 83.0489 345.541 83.0638Z" fill="#EE8B83"/>
<path d="M376.905 25.3565C328.818 22.0859 332.77 60.1001 334.497 90.6301C335.226 103.48 341.618 111.562 341.618 111.562C341.618 111.562 349.634 123.277 354.103 126.158C356.997 127.902 360.27 128.922 363.641 129.132C367.002 129.479 370.398 129.01 373.54 127.765C377.246 126.167 389.763 118.863 395.587 115.432C403.022 111.052 405.952 105.568 407.957 96.7022C414.698 66.8744 424.874 30.0253 376.905 25.3565Z" fill="#F2BA95"/>
<path d="M333.732 90.6724C333.709 90.2496 334.033 89.8878 334.455 89.8641C334.877 89.8404 335.238 90.1647 335.262 90.5876C335.975 103.196 342.202 111.065 342.22 111.089L342.249 111.129C342.27 111.161 350.177 122.713 354.517 125.512C355.811 126.329 357.21 126.968 358.675 127.412C360.31 127.913 361.996 128.234 363.7 128.366C364.122 128.4 364.437 128.77 364.404 129.193C364.37 129.616 363.999 129.931 363.577 129.898C361.758 129.756 359.961 129.413 358.217 128.877C356.62 128.393 355.096 127.695 353.686 126.803C349.101 123.847 341.048 112.093 340.981 111.997C340.518 111.395 334.442 103.282 333.729 90.6749L333.732 90.6724Z" fill="white"/>
<path d="M333.912 80.2211C333.912 80.2211 330.18 68.9301 329.366 62.1133C328.552 55.2966 332.213 47.7701 332.213 47.7701L340.976 52.8805C340.976 52.8805 342.373 62.0135 335.362 65.4712C335.361 65.4712 335.686 77.7289 333.912 80.2211Z" fill="#361B3E"/>
<path d="M398.763 60.6899C394.701 71.8873 392.185 80.5514 406.081 84.1899C406.081 84.1899 405.958 90.6013 408.711 93.3966C408.711 93.3966 411.691 79.7581 415.161 79.914C415.161 79.914 419.796 61.4034 419.694 58.759C419.592 56.1146 402.418 50.5178 398.763 60.6899Z" fill="#361B3E"/>
<path d="M385.59 21.9722C385.59 21.9722 372.652 13.7859 358.222 18.3637C355.259 -31.5876 291.173 39.8168 342.693 55.8864C353.03 59.1095 367.913 59.2954 387.835 56.0036L388.297 55.9288C388.2 56.0672 388.105 56.2069 388.018 56.3441C381.845 65.9974 395.764 71.6603 403.843 57.0202C420.146 74.0427 436.855 45.2577 422.082 48.1728C430.677 30.4879 417.651 19.5711 404.878 28.6792C404.88 28.678 393.379 22.0171 385.59 21.9722Z" fill="#361B3E"/>
<path d="M337.149 4.96844C330.103 10.3545 323.791 20.327 322.85 30.2534C331.577 43.2782 361.04 56.9217 397.797 46.2269C397.797 46.2257 343.036 50.5602 337.149 4.96844Z" fill="#4E354D"/>
<path d="M413.978 64.5543C413.978 64.5543 414.531 26.4965 385.59 21.9712C385.59 21.9712 387.112 20.856 391.387 21.5246C395.661 22.1932 419.055 30.0739 418.358 65.2391L417.076 67.7775L413.978 64.5543Z" fill="white"/>
<path d="M368.855 116.334C368.436 116.269 368.149 115.875 368.214 115.456C368.279 115.037 368.673 114.75 369.091 114.815L378.01 116.209C382.897 116.733 387.839 116.288 392.553 114.901C396.24 113.786 399.789 111.946 402.181 109.003L402.891 107.866C403.14 107.523 403.62 107.448 403.963 107.697C404.269 107.922 404.368 108.337 404.191 108.674L403.461 109.842C403.444 109.868 403.428 109.893 403.409 109.916C400.796 113.162 396.96 115.169 392.993 116.368C388.059 117.817 382.888 118.28 377.775 117.729L368.855 116.334Z" fill="#442142"/>
<path d="M411.526 72.9042L412.73 65.1831C412.8 64.7391 413.215 64.4359 413.659 64.5058L418.684 65.2916C419.127 65.3615 419.429 65.7768 419.36 66.2197L418.155 73.942C418.085 74.3848 417.67 74.6891 417.228 74.6193L412.202 73.8335C411.759 73.7636 411.456 73.3482 411.526 72.9042Z" fill="#919898"/>
<path d="M414.608 74.2099L416.902 74.5691C417.522 74.6639 418.104 74.2386 418.203 73.6187L419.307 66.5425C419.402 65.9213 418.98 65.3388 418.359 65.2402L416.064 64.8822C415.679 64.8224 415.318 65.0868 415.257 65.4722L414.02 73.4004C413.961 73.7858 414.224 74.1475 414.608 74.2099Z" fill="#AAB1B1"/>
<path d="M417.21 75.3501C418.687 79.4501 419.123 85.264 418.146 91.5244C417.168 97.7849 414.984 103.19 412.327 106.642L411.557 111.581L405.292 110.598C399.967 109.764 397.088 99.8742 398.861 88.5058C400.634 77.1375 406.391 68.5969 411.714 69.4314L417.98 70.4106L417.21 75.3501Z" fill="#DFDDCA"/>
<path d="M417.981 70.4131C423.304 71.2463 426.183 81.1365 424.41 92.5048C422.637 103.873 416.882 112.412 411.557 111.581C406.232 110.749 403.352 100.857 405.128 89.4887C406.905 78.1204 412.655 69.5823 417.981 70.4131Z" fill="white"/>
<path d="M365.017 110.913L374.16 112.343C375.133 112.499 375.799 113.413 375.65 114.388L374.971 118.744C374.817 119.719 373.904 120.385 372.93 120.236L363.783 118.806C362.808 118.65 362.143 117.736 362.292 116.761L362.971 112.406C363.126 111.43 364.04 110.761 365.017 110.913Z" fill="white"/>
<path d="M420.508 74.765C424.854 75.441 427.21 83.4814 425.769 92.718C424.329 101.955 419.637 108.891 415.289 108.211C410.941 107.532 408.588 99.4936 410.029 90.257C411.471 81.0204 416.163 74.0839 420.508 74.765Z" fill="#060CA1"/>
<path d="M387.834 56.0037C367.908 59.2954 353.029 59.1096 342.692 55.8864C342.142 55.7143 341.604 55.5347 341.079 55.3513C341.042 56.5612 340.865 57.7612 340.551 58.93C354.858 64.0004 380.63 58.9624 387.361 57.503C387.558 57.1051 387.777 56.7172 388.018 56.3442L388.297 55.9288L387.834 56.0037Z" fill="#060CA1"/>
<path d="M422.05 78.9162C424.486 79.2966 425.805 83.7995 424.996 88.9723C424.186 94.145 421.559 98.0293 419.126 97.6488C416.693 97.2684 415.373 92.768 416.181 87.594C416.99 82.42 419.617 78.5357 422.05 78.9162Z" fill="#060CA1"/>
<path d="M356.065 5.9214C356.269 6.29311 356.135 6.75837 355.763 6.96294C355.392 7.1675 354.926 7.03279 354.722 6.66108C354.719 6.65734 354.718 6.65235 354.716 6.64861C352.477 2.49369 349.082 1.16527 345.374 1.82387C340.895 2.61843 335.942 6.20954 331.87 11.2239C327.773 16.2769 324.595 22.7531 323.725 29.2717C322.527 38.2414 325.736 47.3196 337.025 52.8341C337.406 53.0212 337.564 53.4815 337.377 53.8632C337.19 54.2449 336.731 54.4033 336.349 54.2162C324.339 48.3462 320.928 38.6593 322.208 29.0747C323.117 22.2616 326.421 15.5123 330.684 10.2584C334.976 4.96843 340.268 1.17026 345.109 0.30959C349.473 -0.465013 353.454 1.07671 356.065 5.92016V5.9214Z" fill="white"/>
<path d="M353.458 112.023C353.056 111.893 352.833 111.459 352.963 111.054C353.092 110.649 353.523 110.424 353.926 110.554C355.555 110.999 357.236 111.221 358.924 111.216C359.348 111.217 359.69 111.564 359.689 111.991C359.688 112.417 359.344 112.762 358.92 112.76C357.075 112.762 355.238 112.515 353.458 112.023Z" fill="#EE8984"/>
<path d="M356.72 109.467C352.734 108.947 349.919 105.272 350.434 101.258C350.499 100.749 350.81 100.305 351.265 100.073H351.27H351.273C351.548 99.9474 351.868 99.9761 352.114 100.149C353.902 101.144 355.902 101.687 357.944 101.737C361.108 101.857 362.921 100.705 364.165 101.608C364.668 101.947 364.94 102.541 364.872 103.146C364.354 107.156 360.705 109.985 356.72 109.467Z" fill="#361B3E"/>
<path d="M351.637 106.319C355.181 104.604 359.401 105.184 362.356 107.796C360.796 109.127 358.752 109.734 356.724 109.469C354.658 109.203 352.804 108.055 351.637 106.319Z" fill="#E35E50"/>
<path d="M364.172 101.603C363.88 102.854 362.697 103.682 361.43 103.521L353.672 102.511C352.422 102.346 351.492 101.267 351.504 99.9985C351.72 99.9711 351.938 100.022 352.118 100.142C353.906 101.135 355.906 101.68 357.948 101.73C361.117 101.85 362.928 100.695 364.172 101.603Z" fill="white"/>
<path d="M376.533 73.6348C375.914 73.7732 375.268 73.7171 374.682 73.4738C373.879 72.9749 373.313 72.1679 373.121 71.2411C373.166 70.9006 373.644 71.4469 375.344 70.6923C377.013 69.9513 383.184 68.1776 387.397 72.577C388.122 73.3366 387.564 73.9167 386.644 73.6011C383.434 72.1167 379.733 72.128 376.533 73.6348Z" fill="#361B3E"/>
<path d="M349.465 70.6937C350.059 70.9145 350.708 70.9481 351.321 70.7872C352.185 70.403 352.854 69.6796 353.171 68.789C353.171 68.4447 352.623 68.92 351.044 67.9408C349.49 66.9791 343.62 64.3784 338.845 68.1603C338.023 68.8139 338.499 69.465 339.453 69.2767C342.836 68.2451 346.5 68.764 349.465 70.6937Z" fill="#361B3E"/>
<path d="M379.717 79.253C381.795 79.4688 383.31 81.3249 383.104 83.4067L382.726 87.1612C382.512 89.2418 380.657 90.7573 378.578 90.5527C376.5 90.3357 374.986 88.4821 375.19 86.4003L375.569 82.6471C375.783 80.5665 377.637 79.0485 379.717 79.253Z" fill="#361B3E"/>
<path d="M345.756 75.8638C347.834 76.0784 349.349 77.9357 349.145 80.0175L348.766 83.772C348.551 85.8526 346.697 87.3693 344.617 87.1648C342.541 86.9477 341.028 85.0917 341.231 83.0111L341.61 79.2566C341.824 77.176 343.677 75.6593 345.756 75.8638Z" fill="#361B3E"/>
<path d="M358.001 92.3424C357.624 91.9271 358.132 90.3592 358.569 89.3126C358.898 88.5231 359.142 88.1464 359.375 88.2075C359.612 88.1414 359.843 88.5143 360.144 89.2939C360.54 90.3292 360.987 91.8872 360.595 92.3113C360.075 92.8713 358.498 92.89 358.001 92.3424Z" fill="#F9D4C8"/>
<path d="M358.447 83.1793C358.58 82.8226 358.978 82.643 359.334 82.7765C359.691 82.9099 359.87 83.3066 359.737 83.6633C359.294 84.8446 356.757 91.5702 356.844 92.2027C356.93 92.618 357.662 93.2392 357.989 93.4737C358.556 93.8953 359.215 94.1735 359.912 94.2845C360.29 94.3256 360.565 94.6649 360.524 95.0429C360.483 95.4208 360.143 95.6952 359.765 95.6541C359.753 95.6528 359.74 95.6516 359.728 95.6491C358.806 95.5094 357.933 95.1476 357.183 94.5951C356.555 94.1423 355.656 93.2716 355.492 92.4808C355.305 91.6002 357.905 84.4816 358.447 83.1793Z" fill="#EE8B83"/>
<g opacity="0.01">
<path d="M328.418 128.039L324.062 125.981C324.032 125.967 324.002 125.951 323.976 125.931C323.746 125.764 323.698 125.442 323.865 125.213L329.866 116.98C329.997 116.773 330.255 116.687 330.484 116.774L332.11 117.389C332.369 117.488 332.505 117.773 332.416 118.037L329.128 127.732C329.122 127.755 329.113 127.775 329.104 127.796C328.98 128.051 328.675 128.16 328.418 128.039Z" fill="white"/>
</g>
<g opacity="0.726974">
<path d="M312.287 118.771L310.428 111.825C310.416 111.777 310.408 111.729 310.404 111.68C310.374 111.258 310.691 110.892 311.112 110.862L326.253 109.76C326.614 109.711 326.96 109.923 327.082 110.267L327.95 112.712C328.087 113.102 327.891 113.532 327.506 113.683L313.327 119.276C313.295 119.29 313.261 119.301 313.227 119.31C312.819 119.421 312.399 119.18 312.287 118.771Z" fill="white"/>
</g>
<g opacity="0.937539">
<path d="M312.491 103.687L313.455 98.9611C313.462 98.9286 313.47 98.8974 313.483 98.8675C313.591 98.6056 313.891 98.4808 314.153 98.5893L323.563 102.476C323.795 102.555 323.939 102.785 323.909 103.029L323.698 104.756C323.664 105.032 323.417 105.231 323.141 105.205L312.961 104.305C312.938 104.305 312.916 104.301 312.891 104.296C312.613 104.239 312.434 103.967 312.491 103.688V103.687Z" fill="white"/>
</g>
<path d="M141.141 165.293H300.376C302.385 165.361 304.073 166.833 304.426 168.825L320.99 276.924C321.304 278.528 320.267 280.084 318.674 280.4C318.46 280.442 318.242 280.461 318.024 280.455H158.786C156.777 280.388 155.089 278.914 154.735 276.924L138.173 168.825C137.859 167.221 138.896 165.664 140.489 165.348C140.704 165.306 140.922 165.287 141.141 165.293Z" fill="#5A3046"/>
<path d="M134.095 165.293H293.331C295.339 165.362 297.027 166.834 297.381 168.825L313.943 276.924C314.257 278.528 313.22 280.084 311.627 280.4C311.414 280.442 311.196 280.461 310.978 280.455H151.74C149.732 280.388 148.044 278.916 147.69 276.924L131.126 168.825C130.812 167.221 131.849 165.664 133.442 165.348C133.657 165.306 133.876 165.287 134.095 165.293Z" fill="#361B3E"/>
<path d="M234.328 225.957C236.025 225.956 237.4 227.341 237.401 229.048C237.401 229.05 237.401 229.05 237.401 229.051C237.403 230.758 236.027 232.143 234.33 232.144H234.329L229.156 247.147L216.576 305.744H220.036C221.731 305.747 223.103 307.13 223.103 308.837C223.103 310.543 221.731 311.929 220.036 311.931H182.37V311.924C182.14 311.924 181.909 311.899 181.685 311.846C180.035 311.465 179.004 309.811 179.38 308.149L203.906 228.557C204.146 227.059 205.432 225.957 206.939 225.957H234.328Z" fill="#5A3046"/>
<path d="M241.705 225.958C243.402 225.958 244.777 227.343 244.777 229.051C244.777 230.76 243.402 232.144 241.705 232.144H236.059L219.143 305.745H252.95C254.647 305.721 256.041 307.087 256.065 308.794C256.088 310.502 254.733 311.906 253.036 311.93C253.007 311.93 252.979 311.93 252.95 311.93H215.286V311.924C215.055 311.924 214.825 311.896 214.601 311.845C212.951 311.464 211.922 309.81 212.298 308.148L230.59 228.557C230.833 227.059 232.117 225.958 233.624 225.958H241.705Z" fill="#361B3E"/>
<path d="M143.659 177.033H287.351C288.059 177.057 288.656 177.577 288.779 178.28L294.623 216.411C294.734 216.977 294.368 217.526 293.806 217.637C293.73 217.652 293.653 217.659 293.575 217.657H149.884C149.177 217.633 148.581 217.113 148.457 216.411L142.614 178.28C142.503 177.714 142.868 177.166 143.43 177.053C143.506 177.038 143.582 177.031 143.659 177.033Z" fill="#442142"/>
<path d="M149.106 184.688C148.259 184.688 147.572 183.997 147.572 183.144C147.572 182.291 148.259 181.6 149.106 181.6H280.797C281.646 181.6 282.333 182.291 282.333 183.145C282.333 184 281.646 184.692 280.797 184.692L149.106 184.688ZM284.05 203.01C284.898 203.01 285.586 202.319 285.586 201.465C285.586 200.611 284.898 199.918 284.05 199.918H152.359C151.512 199.918 150.824 200.609 150.824 201.462C150.824 202.316 151.512 203.007 152.359 203.007L284.05 203.01ZM285.403 211.556C286.251 211.556 286.939 210.865 286.939 210.01C286.939 209.156 286.251 208.464 285.403 208.464H175.795C174.948 208.464 174.262 209.155 174.262 210.008C174.262 210.861 174.948 211.552 175.795 211.552L285.403 211.556ZM153.712 208.464C152.865 208.463 152.177 209.152 152.176 210.005C152.176 210.007 152.176 210.007 152.176 210.008C152.176 210.861 152.862 211.552 153.709 211.552C153.711 211.552 153.711 211.552 153.712 211.552H164.009C164.856 211.552 165.543 210.861 165.543 210.008C165.543 209.155 164.856 208.464 164.009 208.464H153.712ZM151.272 193.235C150.425 193.235 149.739 192.543 149.739 191.69C149.739 190.836 150.425 190.145 151.272 190.145H260.879C261.727 190.145 262.415 190.838 262.415 191.692C262.415 192.547 261.727 193.239 260.879 193.239L151.272 193.235ZM282.964 190.142C283.812 190.142 284.5 190.834 284.5 191.688C284.5 192.543 283.812 193.235 282.964 193.235H272.666C271.817 193.235 271.129 192.543 271.129 191.688C271.129 190.834 271.817 190.142 272.666 190.142H282.964Z" fill="#5A3046"/>
<path d="M294.476 271.201C295.325 271.201 296.011 270.509 296.011 269.654C296.011 268.8 295.325 268.107 294.476 268.107H259.655C258.807 268.107 258.119 268.8 258.119 269.654C258.119 270.509 258.807 271.201 259.655 271.201H294.476ZM248.344 268.107C247.497 268.107 246.811 268.8 246.811 269.653C246.811 270.506 247.497 271.197 248.344 271.197H252.408C253.255 271.197 253.942 270.506 253.942 269.653C253.942 268.8 253.255 268.107 252.408 268.107H248.344Z" fill="#361B3E"/>
<path d="M561.448 230.72C561.024 230.516 560.526 230.552 560.136 230.814C559.115 231.76 558.166 232.78 557.294 233.867C555.019 236.634 553.02 239.622 551.328 242.785C548.794 247.503 546.842 252.517 545.519 257.713C543.786 264.581 542.993 271.655 543.161 278.737C543.116 279.12 543.431 279.461 543.848 279.668C544.241 279.818 544.685 279.71 544.965 279.394C549.6 274.056 553.489 268.106 556.525 261.71C558.813 256.866 560.503 251.759 561.555 246.503C562.268 242.982 562.632 239.398 562.641 235.806C562.661 234.411 562.579 233.016 562.395 231.633C562.264 231.181 561.904 230.831 561.448 230.716L561.448 230.72Z" fill="#EC8514"/>
<path d="M546.554 273.315L547.723 273.047C547.937 272.998 548.071 272.782 548.022 272.567C547.974 272.351 547.761 272.217 547.547 272.266L546.876 272.419L548.529 267.826L550.603 267.351C550.817 267.302 550.951 267.087 550.902 266.871C550.854 266.656 550.641 266.522 550.427 266.571L548.851 266.933L550.303 262.886L555.247 261.755C555.461 261.707 555.596 261.492 555.548 261.277C555.499 261.061 555.285 260.926 555.071 260.975L550.626 261.993L552.348 257.203L554.422 256.728C554.636 256.679 554.771 256.464 554.722 256.248C554.673 256.033 554.459 255.899 554.245 255.948L552.67 256.307L554.341 251.663L559.286 250.533C559.5 250.484 559.635 250.269 559.586 250.053C559.538 249.838 559.324 249.703 559.11 249.752L554.664 250.768L556.387 245.98L558.456 245.506C558.672 245.463 558.813 245.253 558.772 245.036C558.731 244.819 558.522 244.676 558.306 244.719C558.298 244.72 558.289 244.722 558.282 244.724L556.704 245.086L558.442 240.253L559.807 239.941C560.021 239.892 560.155 239.677 560.106 239.462C560.057 239.246 559.845 239.111 559.631 239.16L558.763 239.36L560.228 235.287L561.901 234.904C562.115 234.856 562.248 234.64 562.2 234.424C562.151 234.209 561.938 234.075 561.724 234.124L560.549 234.393L561.822 230.856C561.897 230.646 561.791 230.417 561.583 230.342C561.376 230.266 561.147 230.375 561.072 230.584L559.798 234.12L559.065 233.157C558.938 232.976 558.69 232.933 558.511 233.06C558.332 233.187 558.288 233.437 558.414 233.618C558.421 233.627 558.428 233.636 558.435 233.645L559.477 235.014L558.013 239.085L557.473 238.377C557.334 238.206 557.083 238.181 556.913 238.322C556.752 238.455 556.72 238.692 556.841 238.863L557.691 239.98L555.953 244.811L554.972 243.521C554.839 243.345 554.589 243.312 554.415 243.447C554.24 243.581 554.207 243.833 554.34 244.009L555.631 245.707L553.909 250.496L551.138 246.855C551.011 246.675 550.762 246.632 550.583 246.759C550.404 246.885 550.36 247.136 550.486 247.316C550.493 247.326 550.5 247.334 550.507 247.342L553.589 251.391L551.921 256.033L550.939 254.742C550.809 254.564 550.562 254.524 550.383 254.654C550.205 254.785 550.166 255.036 550.295 255.214C550.3 255.219 550.303 255.225 550.308 255.23L551.6 256.929L549.878 261.718L547.105 258.075C546.965 257.905 546.715 257.881 546.545 258.022C546.384 258.155 546.352 258.392 546.473 258.563L549.556 262.614L548.101 266.657L547.119 265.367C546.979 265.196 546.729 265.171 546.558 265.312C546.397 265.445 546.366 265.682 546.487 265.853L547.778 267.552L546.127 272.145L545.709 271.596C545.576 271.42 545.326 271.387 545.151 271.522C544.977 271.657 544.945 271.907 545.078 272.083L545.805 273.04L543.473 279.528C543.407 279.739 543.523 279.965 543.733 280.031C543.93 280.094 544.142 279.993 544.222 279.801L546.555 273.314L546.554 273.315ZM555.969 237.715L555.784 237.471C555.642 237.302 555.666 237.049 555.835 236.907C556.004 236.766 556.253 236.789 556.394 236.958C556.401 236.966 556.408 236.975 556.415 236.985L556.601 237.23C556.73 237.409 556.691 237.658 556.514 237.789C556.342 237.915 556.101 237.883 555.969 237.715ZM553.466 242.858L552.806 241.992C552.673 241.816 552.706 241.565 552.88 241.43C553.055 241.295 553.305 241.328 553.438 241.504L554.099 242.372C554.238 242.542 554.214 242.794 554.044 242.936C553.873 243.077 553.623 243.051 553.483 242.881C553.478 242.873 553.472 242.866 553.466 242.858ZM549.43 254.082L548.771 253.215C548.63 253.045 548.653 252.792 548.822 252.651C548.991 252.509 549.24 252.532 549.382 252.701C549.388 252.709 549.395 252.719 549.402 252.728L550.062 253.594C550.196 253.77 550.162 254.022 549.988 254.156C549.813 254.291 549.563 254.258 549.43 254.082ZM545.608 264.705L544.947 263.839C544.808 263.668 544.832 263.415 545.002 263.274C545.172 263.132 545.423 263.158 545.563 263.328C545.568 263.336 545.575 263.344 545.581 263.352L546.24 264.218C546.373 264.395 546.34 264.645 546.166 264.779C545.991 264.914 545.741 264.881 545.608 264.705ZM544.306 271.077L544.146 270.865C544.02 270.685 544.063 270.434 544.242 270.306C544.412 270.185 544.647 270.217 544.78 270.379L544.939 270.59C545.065 270.77 545.024 271.021 544.844 271.149C544.674 271.27 544.439 271.24 544.306 271.077ZM561.031 238.84L561.329 238.771C561.543 238.722 561.755 238.857 561.804 239.073C561.853 239.288 561.719 239.503 561.505 239.551L561.206 239.621C560.992 239.67 560.779 239.533 560.73 239.318C560.682 239.102 560.817 238.888 561.031 238.839L561.031 238.84ZM559.684 244.403L560.743 244.161C560.958 244.118 561.168 244.261 561.209 244.478C561.248 244.685 561.122 244.889 560.919 244.942L559.86 245.185C559.645 245.232 559.434 245.096 559.386 244.88C559.34 244.666 559.472 244.454 559.684 244.403ZM555.648 255.626L556.705 255.383C556.919 255.334 557.133 255.469 557.182 255.685C557.23 255.9 557.096 256.117 556.882 256.166L555.823 256.407C555.609 256.456 555.396 256.321 555.347 256.106C555.299 255.89 555.432 255.676 555.646 255.627L555.648 255.626ZM551.832 266.25L552.889 266.008C553.101 265.95 553.32 266.078 553.376 266.292C553.432 266.505 553.307 266.724 553.095 266.782C553.086 266.785 553.075 266.786 553.065 266.788L552.008 267.031C551.794 267.08 551.58 266.944 551.531 266.729C551.483 266.513 551.618 266.299 551.832 266.25ZM548.777 271.985L549.033 271.926C549.247 271.877 549.46 272.012 549.509 272.228C549.557 272.443 549.424 272.658 549.21 272.706L548.954 272.765C548.741 272.823 548.523 272.695 548.467 272.482C548.41 272.268 548.536 272.049 548.748 271.992C548.757 271.988 548.766 271.987 548.776 271.985L548.777 271.985Z" fill="#F1A800"/>
<path d="M503.713 242.202C503.164 242.431 502.775 242.934 502.69 243.527C502.711 245.295 502.864 247.06 503.144 248.807C503.809 253.313 504.916 257.741 506.45 262.026C508.726 268.429 511.775 274.527 515.528 280.183C520.5 287.646 526.461 294.391 533.246 300.232C533.812 300.693 534.642 300.605 535.1 300.034C535.318 299.764 535.42 299.42 535.388 299.074C534.311 290.155 532.029 281.425 528.606 273.126C526.003 266.851 522.644 260.92 518.605 255.468C515.907 251.811 512.857 248.433 509.498 245.381C508.207 244.181 506.83 243.077 505.379 242.08C504.841 241.822 504.208 241.868 503.714 242.202L503.713 242.202Z" fill="#EC8514"/>
<path d="M531.042 292.418L531.782 291.084C531.921 290.841 531.838 290.53 531.597 290.389C531.356 290.248 531.048 290.333 530.909 290.576C530.906 290.581 530.903 290.584 530.9 290.589L530.475 291.355L527.569 285.898L528.881 283.527C529.017 283.282 528.93 282.973 528.686 282.835C528.443 282.698 528.136 282.786 528 283.032L527.002 284.834L524.442 280.031L527.572 274.379C527.708 274.134 527.619 273.824 527.376 273.688C527.132 273.552 526.826 273.64 526.69 273.885L523.875 278.966L520.844 273.275L522.156 270.905C522.298 270.664 522.22 270.352 521.981 270.209C521.742 270.065 521.432 270.145 521.29 270.385C521.285 270.394 521.279 270.402 521.274 270.411L520.277 272.212L517.338 266.694L520.468 261.035C520.6 260.788 520.508 260.481 520.262 260.348C520.022 260.218 519.722 260.302 519.586 260.54L516.772 265.624L513.74 259.932L515.051 257.562C515.179 257.313 515.083 257.007 514.836 256.877C514.599 256.754 514.306 256.837 514.17 257.068L513.174 258.869L510.114 253.127L510.978 251.566C511.114 251.321 511.027 251.011 510.783 250.876C510.54 250.74 510.233 250.828 510.098 251.073L509.549 252.062L506.97 247.225L508.032 245.311C508.167 245.066 508.079 244.757 507.836 244.621C507.592 244.485 507.286 244.572 507.15 244.817L506.405 246.162L504.166 241.959C504.034 241.711 503.728 241.618 503.482 241.751C503.235 241.883 503.143 242.192 503.275 242.44L505.514 246.643L503.99 246.522C503.711 246.502 503.469 246.712 503.449 246.992C503.429 247.27 503.636 247.511 503.911 247.535L506.081 247.706L508.656 252.543L507.534 252.455C507.258 252.422 507.007 252.622 506.975 252.9C506.943 253.178 507.141 253.432 507.418 253.464C507.43 253.466 507.444 253.466 507.456 253.467L509.224 253.606L512.282 259.348L510.239 259.188C509.962 259.166 509.719 259.375 509.698 259.654C509.676 259.933 509.883 260.179 510.161 260.2L512.849 260.411L515.882 266.103L510.118 265.65C509.84 265.636 509.603 265.853 509.591 266.133C509.578 266.4 509.775 266.631 510.039 266.662L516.449 267.166L519.385 272.689L517.343 272.527C517.065 272.504 516.821 272.713 516.799 272.993C516.777 273.273 516.985 273.518 517.262 273.54L519.95 273.752L522.982 279.444L517.219 278.99C516.942 278.966 516.698 279.174 516.674 279.453C516.651 279.732 516.856 279.979 517.134 280.002C517.136 280.002 517.138 280.002 517.14 280.002L523.549 280.507L526.111 285.313L524.067 285.151C523.788 285.132 523.547 285.341 523.527 285.621C523.507 285.899 523.713 286.141 523.988 286.165L526.675 286.376L529.583 291.835L528.716 291.766C528.437 291.752 528.201 291.969 528.189 292.249C528.176 292.517 528.371 292.747 528.635 292.777L530.15 292.898L534.258 300.607C534.391 300.854 534.696 300.947 534.943 300.815C535.189 300.682 535.282 300.374 535.149 300.126L531.041 292.417L531.042 292.418ZM505.641 253.328L505.254 253.298C504.975 253.28 504.764 253.04 504.781 252.759C504.797 252.479 505.037 252.265 505.315 252.282C505.322 252.282 505.327 252.283 505.333 252.284L505.719 252.315C505.997 252.332 506.209 252.572 506.193 252.853C506.177 253.133 505.937 253.347 505.658 253.33C505.652 253.33 505.647 253.329 505.641 253.328ZM508.343 260.06L506.97 259.952C506.692 259.93 506.485 259.685 506.506 259.406C506.528 259.127 506.77 258.918 507.048 258.939L508.421 259.047C508.698 259.069 508.905 259.314 508.884 259.593C508.863 259.872 508.62 260.081 508.343 260.06ZM515.447 273.396L514.075 273.289C513.797 273.268 513.59 273.022 513.612 272.744C513.633 272.465 513.875 272.256 514.153 272.277L515.525 272.384C515.802 272.405 516.009 272.65 515.988 272.93C515.967 273.21 515.724 273.417 515.447 273.396ZM522.172 286.022L520.799 285.914C520.52 285.9 520.306 285.662 520.318 285.382C520.331 285.103 520.567 284.885 520.846 284.899C520.857 284.9 520.867 284.901 520.878 284.902L522.25 285.009C522.528 285.036 522.73 285.286 522.702 285.565C522.676 285.835 522.442 286.037 522.172 286.022ZM527.046 292.655L526.711 292.628C526.433 292.614 526.218 292.376 526.231 292.096C526.243 291.816 526.479 291.599 526.758 291.613C526.769 291.614 526.78 291.615 526.792 291.615L527.124 291.64C527.401 291.666 527.605 291.916 527.579 292.195C527.552 292.468 527.317 292.671 527.046 292.655ZM510.985 249.474L511.174 249.131C511.309 248.886 511.616 248.799 511.859 248.935C512.103 249.071 512.191 249.38 512.055 249.625L511.868 249.968C511.732 250.213 511.425 250.301 511.181 250.165C510.938 250.03 510.849 249.719 510.985 249.474ZM515.061 255.465L515.73 254.256C515.872 254.015 516.182 253.934 516.422 254.076C516.655 254.213 516.738 254.51 516.613 254.75L515.944 255.959C515.802 256.201 515.492 256.281 515.252 256.139C515.019 256.002 514.936 255.705 515.061 255.465ZM522.166 268.803L522.836 267.594C522.972 267.349 523.279 267.261 523.522 267.396C523.766 267.532 523.854 267.842 523.718 268.087L523.048 269.297C522.92 269.546 522.615 269.642 522.368 269.513C522.121 269.383 522.024 269.077 522.152 268.828C522.157 268.819 522.162 268.812 522.166 268.803ZM528.891 281.428L529.562 280.218C529.704 279.977 530.012 279.897 530.252 280.04C530.481 280.177 530.565 280.473 530.442 280.711L529.773 281.922C529.641 282.169 529.336 282.262 529.09 282.129C528.844 281.996 528.752 281.689 528.884 281.441C528.887 281.436 528.889 281.433 528.891 281.428ZM531.683 289.184L531.844 288.89C531.98 288.645 532.286 288.558 532.53 288.694C532.774 288.83 532.862 289.139 532.726 289.384L532.563 289.676C532.427 289.921 532.121 290.01 531.878 289.874C531.634 289.738 531.547 289.429 531.683 289.184Z" fill="#F1A800"/>
<path d="M513.62 197.886C512.932 198.035 512.421 198.62 512.363 199.326C512.153 202.018 512.083 204.722 512.153 207.421C512.282 214.585 512.88 221.731 513.94 228.816C515.533 239.576 517.965 250.193 521.214 260.568C525.433 274.054 530.852 287.129 537.409 299.632C537.557 300.312 538.223 300.742 538.898 300.594C539.573 300.445 540.001 299.775 539.853 299.095C539.849 299.073 539.843 299.049 539.836 299.027C539.826 284.89 538.547 270.782 536.015 256.875C534.068 246.175 531.287 235.645 527.698 225.383C525.347 218.621 522.557 212.021 519.344 205.626C518.152 203.205 516.836 200.848 515.402 198.565C515.022 197.967 514.297 197.69 513.62 197.882L513.62 197.886Z" fill="url(#paint0_linear_1950_7221)"/>
<path d="M536.026 286.634L537.048 284.924C537.196 284.677 537.117 284.356 536.871 284.206C536.626 284.057 536.306 284.137 536.158 284.384L535.672 285.197L533.189 275.116L534.954 272.165C535.098 271.915 535.015 271.594 534.767 271.449C534.525 271.307 534.214 271.384 534.065 271.624L532.83 273.679L530.631 264.751L534.753 257.862C534.901 257.614 534.822 257.293 534.576 257.144C534.33 256.995 534.011 257.074 533.863 257.322L530.277 263.314L527.69 252.821L529.456 249.869C529.604 249.621 529.525 249.299 529.279 249.15C529.033 249.001 528.714 249.082 528.566 249.329L527.337 251.384L524.826 241.197L528.949 234.309C529.096 234.061 529.017 233.74 528.771 233.591C528.525 233.442 528.206 233.522 528.058 233.769L524.472 239.762L521.887 229.275L523.653 226.322C523.801 226.075 523.722 225.754 523.476 225.604C523.231 225.455 522.911 225.535 522.763 225.782L521.534 227.837L518.925 217.256L520.11 215.279C520.258 215.032 520.178 214.71 519.932 214.561C519.687 214.411 519.367 214.492 519.219 214.74L518.573 215.822L516.359 206.837L517.797 204.434C517.945 204.187 517.865 203.866 517.619 203.716C517.373 203.567 517.054 203.647 516.906 203.894L516.005 205.401L514.121 197.76C514.052 197.48 513.771 197.309 513.492 197.379C513.214 197.449 513.045 197.732 513.113 198.012L514.997 205.654L513.499 204.746C513.253 204.596 512.934 204.677 512.786 204.925C512.638 205.172 512.718 205.493 512.964 205.642L515.351 207.09L517.566 216.075L516.49 215.424C516.244 215.275 515.925 215.356 515.777 215.603C515.629 215.851 515.708 216.172 515.953 216.321L517.919 217.514L520.526 228.093L518.485 226.855C518.239 226.705 517.92 226.785 517.772 227.033C517.624 227.28 517.703 227.602 517.949 227.751L520.884 229.528L523.469 240.021L517.515 236.408C517.269 236.259 516.949 236.339 516.802 236.586C516.654 236.833 516.732 237.156 516.978 237.305L523.823 241.457L526.333 251.643L524.293 250.405C524.051 250.251 523.73 250.323 523.576 250.567C523.422 250.81 523.494 251.133 523.736 251.287C523.743 251.292 523.75 251.296 523.757 251.299L526.69 253.079L529.277 263.571L523.321 259.96C523.075 259.81 522.757 259.89 522.609 260.137C522.462 260.385 522.541 260.705 522.787 260.854L529.629 265.006L531.832 273.936L529.79 272.693C529.542 272.548 529.223 272.633 529.079 272.882C528.937 273.127 529.015 273.441 529.254 273.59L532.187 275.368L534.671 285.448L533.86 284.958C533.619 284.801 533.296 284.87 533.14 285.113C532.983 285.355 533.053 285.68 533.294 285.837C533.304 285.843 533.314 285.849 533.324 285.855L535.022 286.885L538.431 300.719C538.492 301.001 538.768 301.181 539.049 301.121C539.331 301.061 539.509 300.783 539.449 300.5C539.446 300.489 539.443 300.479 539.44 300.468L536.03 286.634L536.026 286.634ZM514.044 215.16L513.634 214.913C513.385 214.77 513.299 214.45 513.442 214.199C513.585 213.948 513.901 213.862 514.151 214.005C514.157 214.009 514.165 214.014 514.171 214.019L514.579 214.266C514.825 214.415 514.905 214.735 514.757 214.982C514.609 215.229 514.29 215.311 514.044 215.161L514.044 215.16ZM516.033 226.587L514.591 225.712C514.345 225.562 514.266 225.241 514.414 224.994C514.562 224.747 514.881 224.667 515.127 224.816L516.571 225.691C516.816 225.841 516.895 226.162 516.747 226.409C516.599 226.656 516.28 226.736 516.034 226.587L516.033 226.587ZM521.838 250.137L520.395 249.262C520.151 249.109 520.078 248.785 520.229 248.54C520.379 248.3 520.688 248.225 520.931 248.366L522.375 249.241C522.621 249.39 522.699 249.712 522.551 249.959C522.403 250.207 522.084 250.287 521.838 250.137ZM527.333 272.428L525.889 271.553C525.638 271.414 525.547 271.096 525.686 270.842C525.825 270.589 526.14 270.497 526.392 270.636C526.404 270.643 526.416 270.651 526.427 270.659L527.869 271.534C528.115 271.683 528.192 272.004 528.045 272.252C527.897 272.499 527.579 272.578 527.333 272.428ZM531.642 284.837L531.293 284.624C531.047 284.475 530.967 284.154 531.115 283.906C531.263 283.659 531.583 283.579 531.828 283.728L532.177 283.941C532.418 284.098 532.487 284.422 532.33 284.664C532.182 284.895 531.881 284.97 531.642 284.837ZM520.37 212.817L520.616 212.407C520.763 212.16 521.083 212.08 521.329 212.229C521.574 212.378 521.654 212.699 521.506 212.947L521.26 213.356C521.112 213.604 520.792 213.684 520.546 213.534C520.301 213.385 520.223 213.064 520.371 212.817L520.37 212.817ZM523.916 223.854L524.785 222.402C524.938 222.157 525.259 222.083 525.503 222.236C525.74 222.386 525.817 222.698 525.676 222.943L524.807 224.394C524.659 224.641 524.34 224.721 524.094 224.572C523.848 224.423 523.768 224.102 523.916 223.854ZM529.722 247.405L530.591 245.954C530.739 245.706 531.057 245.625 531.303 245.774C531.548 245.924 531.628 246.245 531.48 246.492L530.611 247.944C530.463 248.192 530.144 248.272 529.898 248.122C529.652 247.973 529.574 247.652 529.722 247.405ZM535.218 269.701L536.085 268.248C536.233 268.001 536.553 267.921 536.798 268.07C537.044 268.22 537.124 268.542 536.976 268.789L536.107 270.242C535.966 270.493 535.649 270.581 535.4 270.439C535.15 270.298 535.061 269.978 535.202 269.727C535.207 269.718 535.213 269.71 535.219 269.701L535.218 269.701ZM537.167 282.696L537.378 282.345C537.526 282.097 537.845 282.017 538.091 282.167C538.337 282.316 538.415 282.637 538.268 282.884L538.058 283.236C537.91 283.483 537.591 283.563 537.345 283.414C537.099 283.264 537.019 282.943 537.167 282.696Z" fill="#EC8514"/>
<path d="M543.665 208.26C543.043 208.21 542.463 208.573 542.234 209.156C541.371 211.382 540.625 213.652 539.999 215.956C538.286 222.053 536.972 228.256 536.069 234.527C534.68 244.045 534.037 253.657 534.146 263.275C534.288 275.775 535.551 288.238 537.92 300.508C537.889 301.121 538.358 301.643 538.968 301.674C539.578 301.705 540.097 301.232 540.128 300.62C543.716 288.65 546.221 276.377 547.616 263.954C548.69 254.395 549.016 244.767 548.588 235.158C548.317 228.828 547.634 222.524 546.541 216.286C546.148 213.93 545.632 211.596 544.997 209.295C544.829 208.691 544.287 208.27 543.663 208.26L543.665 208.26Z" fill="url(#paint1_linear_1950_7221)"/>
<path d="M540.057 289.147L541.357 287.964C541.545 287.792 541.561 287.501 541.391 287.311C541.221 287.121 540.931 287.105 540.742 287.277L540.123 287.84L540.584 278.669L542.83 276.626C543.014 276.451 543.023 276.158 542.849 275.972C542.68 275.791 542.401 275.778 542.214 275.94L540.65 277.363L541.058 269.24L546.301 264.47C546.489 264.298 546.504 264.006 546.334 263.817C546.164 263.627 545.874 263.612 545.686 263.784L541.124 267.935L541.604 258.385L543.851 256.343C544.039 256.171 544.054 255.88 543.884 255.69C543.713 255.5 543.422 255.486 543.234 255.657L541.671 257.08L542.137 247.811L547.379 243.04C547.567 242.868 547.582 242.577 547.411 242.387C547.241 242.197 546.951 242.183 546.763 242.354L542.202 246.504L542.682 236.957L544.928 234.914C545.116 234.743 545.131 234.451 544.961 234.262C544.791 234.072 544.501 234.057 544.313 234.229L542.748 235.651L543.232 226.027L544.738 224.655C544.926 224.483 544.941 224.193 544.771 224.003C544.6 223.814 544.311 223.799 544.122 223.971L543.297 224.72L543.708 216.545L545.537 214.879C545.721 214.703 545.728 214.41 545.554 214.225C545.386 214.047 545.107 214.033 544.922 214.193L543.775 215.237L544.125 208.283C544.138 208.028 543.943 207.809 543.689 207.796C543.435 207.784 543.22 207.981 543.207 208.237L542.857 215.191L541.821 214.038C541.656 213.845 541.365 213.823 541.174 213.989C540.982 214.156 540.96 214.447 541.125 214.64C541.129 214.645 541.135 214.652 541.14 214.657L542.792 216.496L542.381 224.671L541.636 223.843C541.471 223.65 541.181 223.628 540.989 223.794C540.797 223.96 540.775 224.253 540.94 224.446C540.945 224.451 540.951 224.458 540.955 224.463L542.315 225.978L541.831 235.604L540.418 234.03C540.253 233.837 539.962 233.815 539.771 233.981C539.579 234.148 539.557 234.44 539.722 234.633C539.726 234.64 539.731 234.645 539.737 234.65L541.765 236.909L541.285 246.457L537.165 241.868C536.995 241.678 536.705 241.664 536.517 241.835C536.328 242.007 536.314 242.299 536.484 242.488L541.221 247.763L540.755 257.034L539.341 255.46C539.176 255.267 538.885 255.245 538.693 255.411C538.502 255.578 538.479 255.87 538.644 256.063C538.649 256.07 538.654 256.075 538.66 256.08L540.689 258.339L540.209 267.887L536.088 263.297C535.918 263.107 535.628 263.092 535.439 263.264C535.251 263.436 535.236 263.727 535.407 263.917L540.144 269.192L539.735 277.316L538.322 275.742C538.152 275.553 537.861 275.539 537.673 275.711C537.484 275.882 537.471 276.174 537.641 276.364L539.669 278.622L539.208 287.794L538.65 287.172C538.476 286.985 538.185 286.978 538.001 287.154C537.821 287.325 537.807 287.606 537.968 287.793L539.144 289.101L538.511 301.687C538.498 301.942 538.693 302.161 538.947 302.174C539.201 302.186 539.417 301.989 539.429 301.733L540.062 289.147L540.057 289.147ZM539.632 222.991L539.35 222.676C539.18 222.486 539.196 222.195 539.384 222.023C539.572 221.852 539.862 221.868 540.032 222.057L540.314 222.371C540.485 222.561 540.47 222.852 540.282 223.024C540.093 223.196 539.802 223.181 539.632 222.991ZM538.412 233.176L537.413 232.065C537.243 231.876 537.258 231.583 537.446 231.411C537.634 231.24 537.926 231.254 538.096 231.444L539.095 232.557C539.265 232.747 539.249 233.038 539.061 233.21C538.873 233.382 538.582 233.366 538.412 233.176ZM537.334 254.604L536.336 253.493C536.166 253.303 536.181 253.011 536.369 252.84C536.557 252.668 536.848 252.683 537.018 252.873L538.018 253.984C538.184 254.178 538.162 254.47 537.97 254.637C537.784 254.798 537.504 254.784 537.334 254.604ZM536.314 274.888L535.316 273.777C535.146 273.588 535.161 273.296 535.349 273.125C535.537 272.953 535.828 272.968 535.999 273.157L536.998 274.269C537.168 274.459 537.152 274.75 536.964 274.922C536.776 275.094 536.485 275.078 536.314 274.888ZM536.806 286.499L536.565 286.232C536.395 286.043 536.41 285.751 536.598 285.579C536.786 285.408 537.076 285.422 537.246 285.612L537.488 285.88C537.653 286.073 537.63 286.366 537.438 286.532C537.253 286.693 536.974 286.679 536.806 286.5L536.806 286.499ZM545.585 222.638L545.898 222.354C546.089 222.188 546.38 222.209 546.545 222.402C546.704 222.588 546.691 222.869 546.514 223.038L546.202 223.324C546.01 223.491 545.719 223.47 545.553 223.277C545.391 223.09 545.407 222.809 545.585 222.638ZM545.779 232.894L546.885 231.888C547.077 231.721 547.367 231.743 547.533 231.936C547.694 232.124 547.68 232.405 547.501 232.575L546.396 233.58C546.213 233.755 545.921 233.748 545.747 233.563C545.573 233.378 545.58 233.085 545.764 232.91C545.769 232.905 545.774 232.899 545.779 232.894ZM544.702 254.321L545.808 253.315C546 253.148 546.289 253.17 546.455 253.363C546.617 253.551 546.603 253.833 546.423 254.002L545.319 255.008C545.13 255.18 544.839 255.165 544.669 254.975C544.499 254.786 544.514 254.494 544.702 254.323L544.702 254.321ZM543.682 274.606L544.788 273.6C544.976 273.429 545.266 273.443 545.436 273.633C545.606 273.823 545.592 274.114 545.404 274.286L544.299 275.29C544.116 275.466 543.824 275.459 543.65 275.274C543.476 275.089 543.483 274.797 543.666 274.622C543.672 274.617 543.677 274.611 543.682 274.606ZM542.03 286.108L542.297 285.865C542.488 285.698 542.779 285.719 542.945 285.912C543.107 286.099 543.093 286.38 542.915 286.551L542.647 286.792C542.463 286.968 542.172 286.962 541.998 286.777C541.823 286.592 541.831 286.299 542.014 286.123C542.019 286.119 542.025 286.113 542.03 286.108Z" fill="#EC8514"/>
<path d="M571.702 241.847C571.193 241.489 570.534 241.428 569.969 241.687C568.439 242.703 566.984 243.831 565.619 245.062C562.065 248.185 558.828 251.655 555.955 255.422C551.654 261.039 548.053 267.167 545.235 273.666C541.529 282.261 539.006 291.324 537.735 300.607C537.652 301.368 538.198 302.052 538.953 302.135C539.31 302.175 539.667 302.072 539.951 301.85C547.122 295.877 553.447 288.947 558.755 281.25C562.762 275.417 566.042 269.111 568.522 262.472C570.19 258.028 571.416 253.43 572.183 248.743C572.504 246.927 572.692 245.09 572.744 243.246C572.665 242.627 572.269 242.094 571.699 241.846L571.702 241.847Z" fill="#F1A800"/>
<path d="M543.305 294.259L544.887 294.159C545.177 294.151 545.405 293.907 545.397 293.613C545.389 293.32 545.145 293.092 544.855 293.1C544.843 293.1 544.831 293.101 544.82 293.102L543.913 293.159L547.036 287.516L549.841 287.342C550.131 287.328 550.355 287.079 550.34 286.787C550.326 286.495 550.078 286.271 549.788 286.285C549.784 286.285 549.78 286.285 549.776 286.285L547.643 286.418L550.393 281.449L557.084 281.034C557.373 281.005 557.584 280.745 557.556 280.454C557.529 280.177 557.294 279.969 557.018 279.977L550.999 280.351L554.256 274.467L557.061 274.292C557.351 274.274 557.572 274.023 557.554 273.731C557.536 273.44 557.286 273.217 556.996 273.236L554.863 273.369L558.02 267.663L564.711 267.248C565.001 267.23 565.222 266.978 565.204 266.687C565.186 266.395 564.936 266.172 564.646 266.19L558.628 266.564L561.884 260.681L564.69 260.507C564.98 260.479 565.191 260.22 565.163 259.929C565.136 259.652 564.901 259.442 564.625 259.45L562.493 259.582L565.78 253.648L567.626 253.532C567.915 253.511 568.133 253.259 568.113 252.967C568.092 252.679 567.847 252.461 567.561 252.476L566.387 252.549L569.154 247.549L571.422 247.407C571.712 247.379 571.924 247.119 571.896 246.828C571.869 246.55 571.632 246.341 571.355 246.349L569.765 246.449L572.168 242.104C572.317 241.853 572.235 241.527 571.985 241.377C571.735 241.228 571.412 241.309 571.263 241.56C571.258 241.569 571.253 241.579 571.248 241.588L568.843 245.933L568.091 244.518C567.949 244.263 567.627 244.172 567.374 244.316C567.127 244.455 567.034 244.765 567.163 245.019L568.236 247.032L565.47 252.034L564.912 250.992C564.783 250.729 564.469 250.621 564.208 250.75C563.947 250.879 563.84 251.196 563.968 251.459C563.973 251.47 563.98 251.481 563.986 251.491L564.86 253.131L561.577 259.067L560.567 257.172C560.43 256.914 560.111 256.817 559.855 256.954C559.599 257.093 559.502 257.414 559.639 257.671L560.97 260.166L557.713 266.049L554.862 260.702C554.734 260.439 554.419 260.331 554.158 260.46C553.897 260.589 553.79 260.906 553.919 261.169C553.924 261.18 553.929 261.191 553.935 261.201L557.105 267.146L553.95 272.851L552.938 270.955C552.809 270.693 552.494 270.587 552.235 270.717C551.975 270.847 551.869 271.164 551.998 271.425C552.004 271.435 552.009 271.445 552.014 271.455L553.339 273.95L550.086 279.833L547.233 274.483C547.096 274.226 546.777 274.13 546.521 274.267C546.265 274.405 546.168 274.726 546.305 274.984L549.476 280.929L546.727 285.897L545.717 284.001C545.575 283.746 545.253 283.654 545 283.798C544.754 283.938 544.66 284.246 544.789 284.5L546.118 286.996L542.998 292.636L542.568 291.831C542.434 291.572 542.116 291.471 541.859 291.607C541.601 291.743 541.501 292.063 541.636 292.321C541.637 292.325 541.64 292.327 541.641 292.331L542.39 293.736L537.981 301.706C537.83 301.956 537.909 302.282 538.158 302.434C538.407 302.587 538.731 302.508 538.881 302.258C538.889 302.246 538.895 302.235 538.901 302.222L543.311 294.253L543.305 294.259ZM563.081 249.804L562.892 249.445C562.754 249.188 562.852 248.867 563.108 248.728C563.363 248.591 563.683 248.687 563.82 248.945L564.01 249.305C564.147 249.562 564.049 249.883 563.794 250.022C563.538 250.159 563.218 250.061 563.081 249.804ZM558.73 255.981L558.052 254.707C557.915 254.45 558.012 254.129 558.268 253.99C558.524 253.853 558.843 253.949 558.98 254.207L559.66 255.48C559.797 255.739 559.7 256.06 559.444 256.198C559.188 256.337 558.868 256.239 558.73 255.981ZM551.104 269.767L550.425 268.494C550.287 268.236 550.384 267.915 550.639 267.777C550.895 267.638 551.216 267.736 551.353 267.993L552.031 269.266C552.171 269.522 552.078 269.844 551.824 269.985C551.569 270.126 551.249 270.032 551.109 269.776C551.108 269.772 551.105 269.771 551.104 269.767ZM543.884 282.815L543.205 281.543C543.072 281.282 543.176 280.964 543.434 280.83C543.687 280.7 543.995 280.793 544.133 281.042L544.811 282.316C544.948 282.574 544.852 282.895 544.596 283.033C544.34 283.17 544.021 283.073 543.884 282.815ZM540.845 290.855L540.681 290.548C540.542 290.292 540.634 289.971 540.889 289.83C541.143 289.689 541.464 289.781 541.603 290.038C541.605 290.041 541.607 290.044 541.608 290.048L541.773 290.354C541.918 290.607 541.832 290.931 541.581 291.078C541.331 291.226 541.009 291.138 540.863 290.886C540.857 290.875 540.851 290.865 540.845 290.854L540.845 290.855ZM569.453 252.358L569.857 252.333C570.148 252.325 570.39 252.555 570.398 252.848C570.406 253.126 570.198 253.364 569.923 253.39L569.517 253.414C569.228 253.436 568.977 253.217 568.955 252.926C568.934 252.634 569.152 252.381 569.44 252.36C569.444 252.36 569.449 252.358 569.453 252.358ZM566.525 259.332L567.958 259.242C568.248 259.224 568.498 259.446 568.516 259.737C568.534 260.029 568.314 260.282 568.024 260.3L566.591 260.389C566.301 260.411 566.05 260.191 566.028 259.899C566.006 259.608 566.224 259.354 566.514 259.332C566.518 259.332 566.522 259.332 566.525 259.332ZM558.899 273.117L560.331 273.03C560.621 273.015 560.868 273.239 560.883 273.53C560.897 273.818 560.681 274.064 560.396 274.085L558.963 274.174C558.673 274.192 558.423 273.97 558.405 273.679C558.387 273.387 558.609 273.135 558.899 273.117ZM551.677 286.167L553.109 286.079C553.399 286.051 553.655 286.263 553.683 286.555C553.712 286.846 553.501 287.106 553.211 287.134C553.2 287.136 553.188 287.136 553.175 287.136L551.742 287.225C551.452 287.243 551.202 287.021 551.184 286.729C551.166 286.438 551.387 286.185 551.677 286.167ZM546.484 293L546.833 292.977C547.123 292.959 547.372 293.182 547.39 293.474C547.408 293.766 547.186 294.017 546.896 294.035L546.55 294.055C546.26 294.077 546.009 293.858 545.987 293.566C545.965 293.274 546.182 293.022 546.472 293C546.476 293 546.481 292.998 546.484 292.998L546.484 293Z" fill="#EC8514"/>
<path d="M551.432 311.777C551.432 311.777 553.734 311.721 554.278 308.854C554.822 305.988 557.556 289.634 557.556 289.634L539.655 286.64L519.979 289.634C519.979 289.634 522.709 305.989 523.255 308.854C523.801 311.719 526.099 311.777 526.099 311.777H551.432Z" fill="#AA5848"/>
<path d="M556.572 295.489L557.553 289.635L539.655 286.643L519.979 289.635L520.274 291.405L556.572 295.489Z" fill="#442142"/>
<path d="M518.631 283.649H558.89C559.512 283.649 560.017 284.157 560.017 284.783V288.501C560.017 289.127 559.513 289.634 558.892 289.634H518.632C518.01 289.634 517.506 289.127 517.506 288.501V284.782C517.506 284.155 518.009 283.649 518.631 283.649Z" fill="#AA5848"/>
<path d="M98.5403 264.213H87.74C87.3214 264.228 86.919 264.386 86.5988 264.658L86.5415 264.701C86.2288 264.96 86.0033 265.311 85.8949 265.704V265.71L75.4709 308.269C75.4584 308.328 75.4485 308.388 75.4422 308.448C75.4061 308.686 75.4622 308.931 75.6004 309.128C75.7425 309.308 75.9505 309.426 76.1785 309.449C76.2358 309.456 76.2931 309.457 76.3504 309.457H87.147C87.5669 309.441 87.9693 309.285 88.2907 309.012L88.348 308.968C88.6607 308.708 88.8862 308.358 88.9934 307.965V307.961L99.4199 265.4C99.4286 265.358 99.4398 265.297 99.4485 265.225C99.4834 264.986 99.4249 264.743 99.2878 264.545C99.1458 264.364 98.9377 264.248 98.7098 264.223H98.706C98.6512 264.217 98.5951 264.214 98.5391 264.216L98.5403 264.213ZM88.0004 261.893H98.8007C98.9577 261.894 99.1147 261.905 99.2704 261.928C100.034 262.018 100.728 262.416 101.196 263.029C101.657 263.66 101.857 264.446 101.755 265.223C101.735 265.387 101.705 265.549 101.665 265.709L91.2384 308.268C90.9905 309.214 90.4535 310.057 89.7047 310.678C89.6773 310.702 89.6499 310.725 89.6213 310.75C88.8526 311.39 87.892 311.752 86.8941 311.774H76.0926C75.9368 311.773 75.7811 311.762 75.6266 311.741C74.8617 311.651 74.1652 311.253 73.6955 310.639C73.2358 310.008 73.0352 309.222 73.1374 308.447C73.1586 308.282 73.1897 308.121 73.2296 307.96L83.6536 265.399C83.9016 264.454 84.4385 263.611 85.1885 262.989C85.2147 262.966 85.2433 262.939 85.272 262.916C86.0419 262.276 87.0025 261.915 88.0004 261.893Z" fill="#361B3E"/>
<path d="M85.55 236.59H104.874C106.422 236.59 107.678 237.854 107.678 239.412V308.957C107.678 310.514 106.423 311.778 104.876 311.778H85.55C84.0026 311.778 82.748 310.514 82.748 308.957V239.412C82.748 237.854 84.0026 236.59 85.55 236.59Z" fill="#DEC499"/>
<path d="M98.2863 236.59H117.611C119.158 236.59 120.414 237.854 120.414 239.412V308.957C120.414 310.515 119.159 311.778 117.612 311.778H98.2863C96.7389 311.778 95.4844 310.515 95.4844 308.957V239.412C95.4844 237.854 96.7389 236.59 98.2863 236.59Z" fill="white"/>
<path d="M107.95 244.264C113.113 244.264 117.299 248.478 117.299 253.675C117.299 258.873 113.113 263.087 107.95 263.087C102.788 263.087 98.6016 258.873 98.6016 253.675C98.6016 248.478 102.788 244.264 107.95 244.264Z" fill="#FBDCA3"/>
<path d="M107.95 270.451C113.113 270.451 117.299 274.664 117.299 279.861V279.862C117.299 285.06 113.114 289.273 107.952 289.273H107.95C102.788 289.273 98.6016 285.06 98.6016 279.862C98.6016 274.664 102.788 270.451 107.95 270.451Z" fill="#FBDCA3"/>
<path d="M107.947 296.639C110.191 296.639 112.011 298.47 112.011 300.729C112.011 302.988 110.191 304.819 107.947 304.819C105.702 304.82 103.882 302.989 103.881 300.729C103.882 298.469 105.702 296.639 107.947 296.639Z" fill="#442142"/>
<path d="M99.9906 299.47C100.681 299.47 101.241 300.033 101.241 300.727V300.729C101.241 301.423 100.682 301.987 99.9919 301.987H99.9906C99.3007 301.987 98.7402 301.424 98.7402 300.73V300.729C98.7402 300.034 99.2994 299.47 99.9894 299.47H99.9906Z" fill="#FAC623"/>
<path d="M115.909 299.47C116.599 299.47 117.159 300.034 117.159 300.729C117.159 301.423 116.599 301.987 115.909 301.987C115.219 301.987 114.658 301.424 114.658 300.73V300.729C114.658 300.034 115.217 299.47 115.907 299.47H115.909Z" fill="#5EC1CF"/>
<path d="M107.95 292.07C108.64 292.07 109.199 292.635 109.199 293.329C109.199 294.024 108.64 294.587 107.95 294.589C107.26 294.589 106.701 294.024 106.701 293.329C106.7 292.635 107.26 292.071 107.95 292.07Z" fill="#E13C37"/>
<path d="M107.952 247.028C111.599 247.028 114.554 250.004 114.554 253.675C114.552 257.345 111.597 260.32 107.952 260.32C104.305 260.321 101.349 257.346 101.348 253.675C101.348 250.004 104.305 247.028 107.952 247.028Z" fill="white"/>
<path d="M107.952 273.216C111.597 273.216 114.552 276.191 114.554 279.861C114.554 283.532 111.599 286.508 107.952 286.508C104.305 286.508 101.348 283.532 101.348 279.861C101.349 276.19 104.304 273.215 107.951 273.216H107.952Z" fill="white"/>
<path d="M107.953 277.989C108.98 277.989 109.812 278.826 109.812 279.86C109.812 280.894 108.98 281.733 107.953 281.733C106.927 281.734 106.093 280.896 106.092 279.862V279.86C106.092 278.826 106.925 277.989 107.952 277.989H107.953Z" fill="#F8C680"/>
<path d="M107.953 251.802C108.98 251.803 109.812 252.641 109.812 253.675C109.811 254.708 108.978 255.544 107.953 255.544C106.927 255.545 106.093 254.707 106.092 253.673C106.093 252.639 106.927 251.802 107.953 251.802Z" fill="#F8C680"/>
<path d="M107.072 302.422V299.036C107.072 298.875 107.2 298.744 107.359 298.744C107.427 298.743 107.493 298.767 107.544 298.81L109.702 300.498C109.827 300.597 109.851 300.78 109.754 300.907C109.739 300.926 109.72 300.943 109.702 300.958H109.698H109.694L107.538 302.646C107.413 302.746 107.231 302.723 107.133 302.597L107.131 302.596C107.091 302.545 107.07 302.48 107.07 302.415L107.072 302.422Z" fill="#E13C37"/>
<path d="M50.5385 258.012H38.3267C37.8533 258.03 37.3986 258.207 37.0373 258.515L36.9737 258.565C36.6199 258.858 36.3633 259.253 36.2399 259.697V259.702L24.4579 307.811C24.443 307.878 24.4318 307.945 24.4255 308.013C24.3844 308.284 24.4505 308.56 24.6062 308.783C24.7669 308.988 25.0011 309.117 25.259 309.145C25.3238 309.152 25.3873 309.155 25.4521 309.154H37.6602C38.1336 309.136 38.5871 308.959 38.9484 308.651L39.0157 308.602C39.3695 308.309 39.6237 307.912 39.7457 307.468V307.463L51.5277 259.354C51.5427 259.288 51.5527 259.22 51.5601 259.152C51.6 258.883 51.5365 258.607 51.3807 258.384C51.22 258.179 50.9845 258.049 50.7267 258.02H50.7217C50.6581 258.014 50.5946 258.01 50.5311 258.011L50.5385 258.012ZM38.6245 255.389H50.8326C51.0107 255.39 51.1876 255.404 51.3633 255.429C52.2254 255.531 53.0128 255.979 53.5423 256.673C54.0618 257.386 54.2873 258.276 54.1714 259.152C54.149 259.337 54.1154 259.522 54.0705 259.702L42.2848 307.811C42.0032 308.88 41.3952 309.833 40.5468 310.536C40.5169 310.564 40.487 310.592 40.4546 310.619C39.585 311.344 38.4987 311.752 37.3699 311.777H25.1581C24.9824 311.775 24.8055 311.763 24.6311 311.738C23.7665 311.637 22.9804 311.187 22.4496 310.493C21.9289 309.78 21.7021 308.89 21.8192 308.013C21.8417 307.828 21.8765 307.644 21.9214 307.463L33.7034 259.354C33.9849 258.287 34.5942 257.335 35.4426 256.634C35.4725 256.604 35.5049 256.577 35.5373 256.55C36.4069 255.824 37.4933 255.415 38.622 255.389H38.6245Z" fill="#361B3E"/>
<path d="M35.8544 226.787H57.7016C59.4496 226.789 60.8661 228.216 60.8661 229.976V308.589C60.8661 310.35 59.4483 311.777 57.6992 311.777H35.8544C34.1053 311.777 32.6875 310.35 32.6875 308.589V229.976C32.6875 228.214 34.1053 226.787 35.8544 226.787Z" fill="#DEC499"/>
<path d="M50.2509 226.788H72.0956C73.8448 226.788 75.2626 228.215 75.2626 229.976V308.589C75.2626 310.35 73.8448 311.777 72.0956 311.777H50.2509C48.5018 311.777 47.084 310.35 47.084 308.589V229.976C47.084 228.215 48.5018 226.788 50.2509 226.788Z" fill="white"/>
<path d="M50.8865 243.657C52.227 237.939 57.9205 234.396 63.6004 235.746C69.2802 237.096 72.7985 242.826 71.4579 248.544C70.1174 254.262 64.4239 257.804 58.744 256.454C53.0642 255.105 49.5459 249.375 50.8865 243.657Z" fill="#FBDCA3"/>
<path d="M53.6972 268.178C57.8247 264.023 64.5149 264.023 68.6424 268.178C72.7699 272.333 72.7699 279.069 68.6424 283.224C64.5149 287.379 57.8247 287.379 53.6972 283.224C49.5697 279.069 49.5697 272.333 53.6972 268.178Z" fill="#FBDCA3"/>
<path d="M61.1716 294.666C63.7081 294.666 65.765 296.735 65.765 299.288V299.29C65.765 301.843 63.7081 303.913 61.1716 303.913C58.635 303.913 56.5781 301.843 56.5781 299.29C56.5781 296.736 58.6338 294.666 61.1703 294.666H61.1716Z" fill="#442142"/>
<path d="M52.1786 297.865C52.957 297.866 53.5884 298.501 53.5896 299.285C53.5884 300.069 52.957 300.704 52.1786 300.705C51.399 300.705 50.7676 300.069 50.7676 299.285C50.7676 298.501 51.399 297.865 52.1786 297.865Z" fill="#FAC623"/>
<path d="M70.1708 297.865C70.9504 297.865 71.5818 298.501 71.5818 299.285C71.5818 300.07 70.9504 300.706 70.1708 300.706C69.3912 300.706 68.7598 300.07 68.7598 299.285C68.7598 298.501 69.3912 297.865 70.1708 297.865Z" fill="#5EC1CF"/>
<path d="M61.1728 289.5C61.9524 289.5 62.5838 290.136 62.5838 290.921C62.5838 291.705 61.9524 292.341 61.1728 292.341C60.3931 292.341 59.7617 291.705 59.7617 290.921C59.7617 290.136 60.3931 289.5 61.1728 289.5Z" fill="#E13C37"/>
<path d="M61.1704 238.586C65.2916 238.586 68.6318 241.949 68.6318 246.098C68.6318 246.099 68.6318 246.099 68.6318 246.1C68.6318 250.249 65.2916 253.612 61.1704 253.612C57.0504 253.612 53.709 250.249 53.709 246.101V246.1C53.7077 241.951 57.0466 238.587 61.1679 238.586C61.1691 238.586 61.1691 238.586 61.1704 238.586Z" fill="white"/>
<path d="M61.1704 268.187C65.2916 268.187 68.6318 271.551 68.6318 275.7V275.701C68.6318 279.85 65.2916 283.212 61.1704 283.212C57.0504 283.212 53.709 279.851 53.709 275.702V275.701C53.7077 271.552 57.0479 268.188 61.1691 268.187H61.1704Z" fill="white"/>
<path d="M61.1721 273.584C62.3319 273.583 63.2726 274.53 63.2738 275.698C63.2738 275.7 63.2738 275.7 63.2738 275.701C63.2751 276.87 62.3344 277.816 61.1746 277.818C61.1733 277.818 61.1733 277.818 61.1721 277.818C60.0109 277.818 59.0703 276.871 59.0703 275.702V275.701C59.0703 274.532 60.0097 273.584 61.1708 273.584H61.1721Z" fill="#F8C680"/>
<path d="M61.1721 243.982C62.3332 243.982 63.2738 244.929 63.2738 246.098C63.2738 246.099 63.2738 246.099 63.2738 246.1C63.2738 247.269 62.3332 248.216 61.1733 248.216C61.1721 248.216 61.1721 248.216 61.1721 248.216C60.0109 248.216 59.0703 247.269 59.0703 246.1C59.0703 244.931 60.0109 243.983 61.1721 243.982Z" fill="#F8C680"/>
<path d="M60.1836 301.2V297.375C60.1836 297.193 60.3306 297.045 60.5113 297.044C60.5872 297.044 60.6595 297.07 60.7181 297.119L63.1562 299.029C63.2995 299.14 63.3256 299.347 63.2147 299.49C63.1985 299.511 63.1774 299.531 63.1562 299.548L63.1537 299.551L63.1487 299.554L60.7106 301.461C60.5673 301.572 60.363 301.545 60.2534 301.401L60.2521 301.4C60.2073 301.342 60.1836 301.271 60.1836 301.198V301.2Z" fill="#E13C37"/>
<path d="M472.781 236.278C476.047 236.278 478.699 238.933 478.699 242.203C478.699 245.473 476.047 248.128 472.781 248.128C469.515 248.128 466.863 245.473 466.863 242.203C466.863 238.933 469.515 236.278 472.781 236.278Z" fill="white" fill-opacity="0.38"/>
<path d="M465.714 248.014C468.128 248.014 470.088 249.977 470.088 252.394C470.088 254.811 468.128 256.773 465.714 256.773C463.3 256.773 461.34 254.811 461.34 252.394C461.34 249.977 463.3 248.014 465.714 248.014Z" fill="white" fill-opacity="0.38"/>
<path d="M479.907 256.2C481.622 256.2 483.014 257.593 483.014 259.31C483.014 261.026 481.622 262.42 479.907 262.42C478.193 262.42 476.801 261.026 476.801 259.31C476.801 257.593 478.193 256.2 479.907 256.2Z" fill="white" fill-opacity="0.38"/>
<path d="M449.28 242.394C453.597 242.394 457.102 245.904 457.102 250.226C457.102 254.549 453.597 258.058 449.28 258.058C444.962 258.058 441.457 254.549 441.457 250.226C441.457 245.904 444.962 242.394 449.28 242.394Z" fill="white" fill-opacity="0.38"/>
<path d="M465.877 268.545C467.788 268.545 469.339 270.099 469.339 272.012C469.339 273.926 467.788 275.479 465.877 275.479C463.966 275.479 462.414 273.926 462.414 272.012C462.414 270.099 463.966 268.545 465.877 268.545Z" fill="white" fill-opacity="0.38"/>
<path d="M443.128 228.192C444.884 228.192 446.31 229.62 446.31 231.379C446.31 233.137 444.884 234.565 443.128 234.565C441.371 234.565 439.945 233.137 439.945 231.379C439.945 229.62 441.371 228.192 443.128 228.192Z" fill="white" fill-opacity="0.38"/>
<path d="M471.826 264.117C475.695 264.117 478.836 267.262 478.836 271.135C478.836 275.009 475.695 278.154 471.826 278.154C467.958 278.154 464.816 275.009 464.816 271.135C464.816 267.262 467.958 264.117 471.826 264.117Z" fill="white" fill-opacity="0.38"/>
<path d="M482.156 282.732C480.983 282.732 480.031 281.776 480.031 280.594C480.031 279.413 480.983 278.455 482.156 278.455H489.401C491.257 278.408 493.072 279 494.549 280.134C495.914 281.238 496.867 282.777 497.249 284.499C497.642 286.231 497.586 288.036 497.085 289.741C496.254 292.551 494.519 295.004 492.152 296.713C489.033 299.019 481.821 303.693 481.8 303.703C480.818 304.345 479.506 304.066 478.867 303.078C478.228 302.09 478.506 300.768 479.488 300.125C479.495 300.12 479.503 300.117 479.51 300.112C479.531 300.099 486.642 295.49 489.644 293.271C491.25 292.122 492.431 290.47 493.002 288.572C493.306 287.571 493.353 286.508 493.133 285.484C492.966 284.701 492.539 283.998 491.924 283.491C491.191 282.957 490.301 282.69 489.398 282.731L482.156 282.732Z" fill="#5A3046"/>
<path d="M480.922 269.32H455.259C453.484 269.326 452.046 270.773 452.041 272.56V303.674C452.053 308.258 455.742 311.97 460.296 311.984H475.886C480.44 311.97 484.128 308.258 484.141 303.674V272.56C484.136 270.773 482.699 269.325 480.922 269.32Z" fill="#361B3E"/>
<path d="M468.095 280.38C471.702 280.391 474.623 283.334 474.633 286.965V293.166C474.622 296.796 471.7 299.737 468.095 299.748C464.488 299.738 461.567 296.797 461.557 293.166V286.965C461.565 283.332 464.487 280.39 468.095 280.38Z" fill="#7E4C53"/>
<path d="M465.488 280.482C465.512 280.056 465.876 279.73 466.299 279.754C466.689 279.776 467.001 280.089 467.023 280.482V286.227C466.993 286.764 467.089 287.3 467.305 287.793C467.669 288.435 468.121 289.023 468.649 289.537C469.283 290.16 469.823 290.874 470.249 291.654C470.574 292.355 470.723 293.124 470.687 293.896V299.641C470.711 300.068 470.387 300.433 469.963 300.457C469.54 300.481 469.177 300.155 469.154 299.729C469.152 299.7 469.152 299.67 469.154 299.641V293.896C469.185 293.36 469.088 292.822 468.872 292.331C468.508 291.688 468.057 291.102 467.53 290.587C466.896 289.964 466.357 289.251 465.929 288.47C465.604 287.769 465.453 286.999 465.49 286.227L465.488 280.482Z" fill="#361B3E"/>
<path d="M593.748 311.573H3.25172C1.45836 311.578 0.00497884 313.041 0 314.847C0.00497884 316.652 1.45836 318.115 3.25172 318.12H593.748C595.542 318.115 596.995 316.652 597 314.847C596.996 313.041 595.542 311.577 593.748 311.573Z" fill="#361B3E"/>
<defs>
<linearGradient id="paint0_linear_1950_7221" x1="-23028.6" y1="-36234" x2="335.859" y2="139.739" gradientUnits="userSpaceOnUse">
<stop stop-color="#FF9C35"/>
<stop offset="0.5" stop-color="#FFB627"/>
<stop offset="1" stop-color="#FFD019"/>
</linearGradient>
<linearGradient id="paint1_linear_1950_7221" x1="-10961.4" y1="-33011" x2="331.709" y2="138.553" gradientUnits="userSpaceOnUse">
<stop stop-color="#FF9C35"/>
<stop offset="0.5" stop-color="#FFB627"/>
<stop offset="1" stop-color="#FFD019"/>
</linearGradient>
</defs>
</svg>
